G04 #@! TF.GenerationSoftware,KiCad,Pcbnew,8.0.4*
G04 #@! TF.CreationDate,2024-09-21T08:46:09+10:00*
G04 #@! TF.ProjectId,hsa_r0,6873615f-7230-42e6-9b69-6361645f7063,rev?*
G04 #@! TF.SameCoordinates,Original*
G04 #@! TF.FileFunction,Legend,Bot*
G04 #@! TF.FilePolarity,Positive*
%FSLAX46Y46*%
G04 Gerber Fmt 4.6, Leading zero omitted, Abs format (unit mm)*
G04 Created by KiCad (PCBNEW 8.0.4) date 2024-09-21 08:46:09*
%MOMM*%
%LPD*%
G01*
G04 APERTURE LIST*
G04 Aperture macros list*
%AMRoundRect*
0 Rectangle with rounded corners*
0 $1 Rounding radius*
0 $2 $3 $4 $5 $6 $7 $8 $9 X,Y pos of 4 corners*
0 Add a 4 corners polygon primitive as box body*
4,1,4,$2,$3,$4,$5,$6,$7,$8,$9,$2,$3,0*
0 Add four circle primitives for the rounded corners*
1,1,$1+$1,$2,$3*
1,1,$1+$1,$4,$5*
1,1,$1+$1,$6,$7*
1,1,$1+$1,$8,$9*
0 Add four rect primitives between the rounded corners*
20,1,$1+$1,$2,$3,$4,$5,0*
20,1,$1+$1,$4,$5,$6,$7,0*
20,1,$1+$1,$6,$7,$8,$9,0*
20,1,$1+$1,$8,$9,$2,$3,0*%
G04 Aperture macros list end*
%ADD10C,0.153000*%
%ADD11C,0.100000*%
%ADD12C,0.120000*%
%ADD13O,0.900000X1.600000*%
%ADD14C,1.800000*%
%ADD15C,2.000000*%
%ADD16R,1.700000X1.700000*%
%ADD17O,1.700000X1.700000*%
%ADD18C,3.600000*%
%ADD19C,5.700000*%
%ADD20RoundRect,0.200000X-0.275000X0.200000X-0.275000X-0.200000X0.275000X-0.200000X0.275000X0.200000X0*%
%ADD21RoundRect,0.225000X0.250000X-0.225000X0.250000X0.225000X-0.250000X0.225000X-0.250000X-0.225000X0*%
%ADD22R,1.550000X1.000000*%
%ADD23RoundRect,0.225000X-0.250000X0.225000X-0.250000X-0.225000X0.250000X-0.225000X0.250000X0.225000X0*%
%ADD24RoundRect,0.200000X0.275000X-0.200000X0.275000X0.200000X-0.275000X0.200000X-0.275000X-0.200000X0*%
G04 APERTURE END LIST*
D10*
X172500000Y-57500000D02*
X177500000Y-57500000D01*
X177500000Y-52500000D01*
X189000000Y-52500000D01*
X189000000Y-87500000D01*
X140000000Y-87500000D01*
X140000000Y-52500000D01*
X172500000Y-52500000D01*
X172500000Y-57500000D01*
X136960168Y-77445895D02*
X137960168Y-77445895D01*
X137960168Y-77445895D02*
X137245883Y-77112562D01*
X137245883Y-77112562D02*
X137960168Y-76779229D01*
X137960168Y-76779229D02*
X136960168Y-76779229D01*
X136960168Y-76303038D02*
X137626835Y-76303038D01*
X137960168Y-76303038D02*
X137912549Y-76350657D01*
X137912549Y-76350657D02*
X137864930Y-76303038D01*
X137864930Y-76303038D02*
X137912549Y-76255419D01*
X137912549Y-76255419D02*
X137960168Y-76303038D01*
X137960168Y-76303038D02*
X137864930Y-76303038D01*
X136960168Y-75826848D02*
X137960168Y-75826848D01*
X137341121Y-75731610D02*
X136960168Y-75445896D01*
X137626835Y-75445896D02*
X137245883Y-75826848D01*
X136960168Y-75017324D02*
X137626835Y-75017324D01*
X137436359Y-75017324D02*
X137531597Y-74969705D01*
X137531597Y-74969705D02*
X137579216Y-74922086D01*
X137579216Y-74922086D02*
X137626835Y-74826848D01*
X137626835Y-74826848D02*
X137626835Y-74731610D01*
X136960168Y-74255419D02*
X137007788Y-74350657D01*
X137007788Y-74350657D02*
X137055407Y-74398276D01*
X137055407Y-74398276D02*
X137150645Y-74445895D01*
X137150645Y-74445895D02*
X137436359Y-74445895D01*
X137436359Y-74445895D02*
X137531597Y-74398276D01*
X137531597Y-74398276D02*
X137579216Y-74350657D01*
X137579216Y-74350657D02*
X137626835Y-74255419D01*
X137626835Y-74255419D02*
X137626835Y-74112562D01*
X137626835Y-74112562D02*
X137579216Y-74017324D01*
X137579216Y-74017324D02*
X137531597Y-73969705D01*
X137531597Y-73969705D02*
X137436359Y-73922086D01*
X137436359Y-73922086D02*
X137150645Y-73922086D01*
X137150645Y-73922086D02*
X137055407Y-73969705D01*
X137055407Y-73969705D02*
X137007788Y-74017324D01*
X137007788Y-74017324D02*
X136960168Y-74112562D01*
X136960168Y-74112562D02*
X136960168Y-74255419D01*
X137626835Y-73636371D02*
X137626835Y-73255419D01*
X136960168Y-73493514D02*
X137817311Y-73493514D01*
X137817311Y-73493514D02*
X137912549Y-73445895D01*
X137912549Y-73445895D02*
X137960168Y-73350657D01*
X137960168Y-73350657D02*
X137960168Y-73255419D01*
X136960168Y-72779228D02*
X137007788Y-72874466D01*
X137007788Y-72874466D02*
X137055407Y-72922085D01*
X137055407Y-72922085D02*
X137150645Y-72969704D01*
X137150645Y-72969704D02*
X137436359Y-72969704D01*
X137436359Y-72969704D02*
X137531597Y-72922085D01*
X137531597Y-72922085D02*
X137579216Y-72874466D01*
X137579216Y-72874466D02*
X137626835Y-72779228D01*
X137626835Y-72779228D02*
X137626835Y-72636371D01*
X137626835Y-72636371D02*
X137579216Y-72541133D01*
X137579216Y-72541133D02*
X137531597Y-72493514D01*
X137531597Y-72493514D02*
X137436359Y-72445895D01*
X137436359Y-72445895D02*
X137150645Y-72445895D01*
X137150645Y-72445895D02*
X137055407Y-72493514D01*
X137055407Y-72493514D02*
X137007788Y-72541133D01*
X137007788Y-72541133D02*
X136960168Y-72636371D01*
X136960168Y-72636371D02*
X136960168Y-72779228D01*
X137626835Y-72017323D02*
X136960168Y-72017323D01*
X137531597Y-72017323D02*
X137579216Y-71969704D01*
X137579216Y-71969704D02*
X137626835Y-71874466D01*
X137626835Y-71874466D02*
X137626835Y-71731609D01*
X137626835Y-71731609D02*
X137579216Y-71636371D01*
X137579216Y-71636371D02*
X137483978Y-71588752D01*
X137483978Y-71588752D02*
X136960168Y-71588752D01*
X137626835Y-70350656D02*
X137341121Y-69588752D01*
X137341121Y-69588752D02*
X137055407Y-70350656D01*
X135874034Y-79874466D02*
X135874034Y-79541133D01*
X135350224Y-79398276D02*
X135350224Y-79874466D01*
X135350224Y-79874466D02*
X136350224Y-79874466D01*
X136350224Y-79874466D02*
X136350224Y-79398276D01*
X135350224Y-78969704D02*
X136016891Y-78969704D01*
X135921653Y-78969704D02*
X135969272Y-78922085D01*
X135969272Y-78922085D02*
X136016891Y-78826847D01*
X136016891Y-78826847D02*
X136016891Y-78683990D01*
X136016891Y-78683990D02*
X135969272Y-78588752D01*
X135969272Y-78588752D02*
X135874034Y-78541133D01*
X135874034Y-78541133D02*
X135350224Y-78541133D01*
X135874034Y-78541133D02*
X135969272Y-78493514D01*
X135969272Y-78493514D02*
X136016891Y-78398276D01*
X136016891Y-78398276D02*
X136016891Y-78255419D01*
X136016891Y-78255419D02*
X135969272Y-78160180D01*
X135969272Y-78160180D02*
X135874034Y-78112561D01*
X135874034Y-78112561D02*
X135350224Y-78112561D01*
X136016891Y-77636371D02*
X135016891Y-77636371D01*
X135969272Y-77636371D02*
X136016891Y-77541133D01*
X136016891Y-77541133D02*
X136016891Y-77350657D01*
X136016891Y-77350657D02*
X135969272Y-77255419D01*
X135969272Y-77255419D02*
X135921653Y-77207800D01*
X135921653Y-77207800D02*
X135826415Y-77160181D01*
X135826415Y-77160181D02*
X135540701Y-77160181D01*
X135540701Y-77160181D02*
X135445463Y-77207800D01*
X135445463Y-77207800D02*
X135397844Y-77255419D01*
X135397844Y-77255419D02*
X135350224Y-77350657D01*
X135350224Y-77350657D02*
X135350224Y-77541133D01*
X135350224Y-77541133D02*
X135397844Y-77636371D01*
X136016891Y-76874466D02*
X136016891Y-76493514D01*
X135350224Y-76731609D02*
X136207367Y-76731609D01*
X136207367Y-76731609D02*
X136302605Y-76683990D01*
X136302605Y-76683990D02*
X136350224Y-76588752D01*
X136350224Y-76588752D02*
X136350224Y-76493514D01*
X135445463Y-76160180D02*
X135397844Y-76112561D01*
X135397844Y-76112561D02*
X135350224Y-76160180D01*
X135350224Y-76160180D02*
X135397844Y-76207799D01*
X135397844Y-76207799D02*
X135445463Y-76160180D01*
X135445463Y-76160180D02*
X135350224Y-76160180D01*
X135731177Y-74922085D02*
X135731177Y-74160181D01*
X136350224Y-73779228D02*
X136350224Y-73160181D01*
X136350224Y-73160181D02*
X135969272Y-73493514D01*
X135969272Y-73493514D02*
X135969272Y-73350657D01*
X135969272Y-73350657D02*
X135921653Y-73255419D01*
X135921653Y-73255419D02*
X135874034Y-73207800D01*
X135874034Y-73207800D02*
X135778796Y-73160181D01*
X135778796Y-73160181D02*
X135540701Y-73160181D01*
X135540701Y-73160181D02*
X135445463Y-73207800D01*
X135445463Y-73207800D02*
X135397844Y-73255419D01*
X135397844Y-73255419D02*
X135350224Y-73350657D01*
X135350224Y-73350657D02*
X135350224Y-73636371D01*
X135350224Y-73636371D02*
X135397844Y-73731609D01*
X135397844Y-73731609D02*
X135445463Y-73779228D01*
X135921653Y-72588752D02*
X135969272Y-72683990D01*
X135969272Y-72683990D02*
X136016891Y-72731609D01*
X136016891Y-72731609D02*
X136112129Y-72779228D01*
X136112129Y-72779228D02*
X136159748Y-72779228D01*
X136159748Y-72779228D02*
X136254986Y-72731609D01*
X136254986Y-72731609D02*
X136302605Y-72683990D01*
X136302605Y-72683990D02*
X136350224Y-72588752D01*
X136350224Y-72588752D02*
X136350224Y-72398276D01*
X136350224Y-72398276D02*
X136302605Y-72303038D01*
X136302605Y-72303038D02*
X136254986Y-72255419D01*
X136254986Y-72255419D02*
X136159748Y-72207800D01*
X136159748Y-72207800D02*
X136112129Y-72207800D01*
X136112129Y-72207800D02*
X136016891Y-72255419D01*
X136016891Y-72255419D02*
X135969272Y-72303038D01*
X135969272Y-72303038D02*
X135921653Y-72398276D01*
X135921653Y-72398276D02*
X135921653Y-72588752D01*
X135921653Y-72588752D02*
X135874034Y-72683990D01*
X135874034Y-72683990D02*
X135826415Y-72731609D01*
X135826415Y-72731609D02*
X135731177Y-72779228D01*
X135731177Y-72779228D02*
X135540701Y-72779228D01*
X135540701Y-72779228D02*
X135445463Y-72731609D01*
X135445463Y-72731609D02*
X135397844Y-72683990D01*
X135397844Y-72683990D02*
X135350224Y-72588752D01*
X135350224Y-72588752D02*
X135350224Y-72398276D01*
X135350224Y-72398276D02*
X135397844Y-72303038D01*
X135397844Y-72303038D02*
X135445463Y-72255419D01*
X135445463Y-72255419D02*
X135540701Y-72207800D01*
X135540701Y-72207800D02*
X135731177Y-72207800D01*
X135731177Y-72207800D02*
X135826415Y-72255419D01*
X135826415Y-72255419D02*
X135874034Y-72303038D01*
X135874034Y-72303038D02*
X135921653Y-72398276D01*
X135350224Y-70588752D02*
X136350224Y-70588752D01*
X135397844Y-70588752D02*
X135350224Y-70683990D01*
X135350224Y-70683990D02*
X135350224Y-70874466D01*
X135350224Y-70874466D02*
X135397844Y-70969704D01*
X135397844Y-70969704D02*
X135445463Y-71017323D01*
X135445463Y-71017323D02*
X135540701Y-71064942D01*
X135540701Y-71064942D02*
X135826415Y-71064942D01*
X135826415Y-71064942D02*
X135921653Y-71017323D01*
X135921653Y-71017323D02*
X135969272Y-70969704D01*
X135969272Y-70969704D02*
X136016891Y-70874466D01*
X136016891Y-70874466D02*
X136016891Y-70683990D01*
X136016891Y-70683990D02*
X135969272Y-70588752D01*
X135874034Y-69779228D02*
X135826415Y-69636371D01*
X135826415Y-69636371D02*
X135778796Y-69588752D01*
X135778796Y-69588752D02*
X135683558Y-69541133D01*
X135683558Y-69541133D02*
X135540701Y-69541133D01*
X135540701Y-69541133D02*
X135445463Y-69588752D01*
X135445463Y-69588752D02*
X135397844Y-69636371D01*
X135397844Y-69636371D02*
X135350224Y-69731609D01*
X135350224Y-69731609D02*
X135350224Y-70112561D01*
X135350224Y-70112561D02*
X136350224Y-70112561D01*
X136350224Y-70112561D02*
X136350224Y-69779228D01*
X136350224Y-69779228D02*
X136302605Y-69683990D01*
X136302605Y-69683990D02*
X136254986Y-69636371D01*
X136254986Y-69636371D02*
X136159748Y-69588752D01*
X136159748Y-69588752D02*
X136064510Y-69588752D01*
X136064510Y-69588752D02*
X135969272Y-69636371D01*
X135969272Y-69636371D02*
X135921653Y-69683990D01*
X135921653Y-69683990D02*
X135874034Y-69779228D01*
X135874034Y-69779228D02*
X135874034Y-70112561D01*
X133787900Y-77779228D02*
X133740280Y-77636371D01*
X133740280Y-77636371D02*
X133740280Y-77398276D01*
X133740280Y-77398276D02*
X133787900Y-77303038D01*
X133787900Y-77303038D02*
X133835519Y-77255419D01*
X133835519Y-77255419D02*
X133930757Y-77207800D01*
X133930757Y-77207800D02*
X134025995Y-77207800D01*
X134025995Y-77207800D02*
X134121233Y-77255419D01*
X134121233Y-77255419D02*
X134168852Y-77303038D01*
X134168852Y-77303038D02*
X134216471Y-77398276D01*
X134216471Y-77398276D02*
X134264090Y-77588752D01*
X134264090Y-77588752D02*
X134311709Y-77683990D01*
X134311709Y-77683990D02*
X134359328Y-77731609D01*
X134359328Y-77731609D02*
X134454566Y-77779228D01*
X134454566Y-77779228D02*
X134549804Y-77779228D01*
X134549804Y-77779228D02*
X134645042Y-77731609D01*
X134645042Y-77731609D02*
X134692661Y-77683990D01*
X134692661Y-77683990D02*
X134740280Y-77588752D01*
X134740280Y-77588752D02*
X134740280Y-77350657D01*
X134740280Y-77350657D02*
X134692661Y-77207800D01*
X133740280Y-76207800D02*
X134216471Y-76541133D01*
X133740280Y-76779228D02*
X134740280Y-76779228D01*
X134740280Y-76779228D02*
X134740280Y-76398276D01*
X134740280Y-76398276D02*
X134692661Y-76303038D01*
X134692661Y-76303038D02*
X134645042Y-76255419D01*
X134645042Y-76255419D02*
X134549804Y-76207800D01*
X134549804Y-76207800D02*
X134406947Y-76207800D01*
X134406947Y-76207800D02*
X134311709Y-76255419D01*
X134311709Y-76255419D02*
X134264090Y-76303038D01*
X134264090Y-76303038D02*
X134216471Y-76398276D01*
X134216471Y-76398276D02*
X134216471Y-76779228D01*
X134740280Y-75922085D02*
X133740280Y-75588752D01*
X133740280Y-75588752D02*
X134740280Y-75255419D01*
X133835519Y-74922085D02*
X133787900Y-74874466D01*
X133787900Y-74874466D02*
X133740280Y-74922085D01*
X133740280Y-74922085D02*
X133787900Y-74969704D01*
X133787900Y-74969704D02*
X133835519Y-74922085D01*
X133835519Y-74922085D02*
X133740280Y-74922085D01*
X134740280Y-73255419D02*
X134740280Y-73445895D01*
X134740280Y-73445895D02*
X134692661Y-73541133D01*
X134692661Y-73541133D02*
X134645042Y-73588752D01*
X134645042Y-73588752D02*
X134502185Y-73683990D01*
X134502185Y-73683990D02*
X134311709Y-73731609D01*
X134311709Y-73731609D02*
X133930757Y-73731609D01*
X133930757Y-73731609D02*
X133835519Y-73683990D01*
X133835519Y-73683990D02*
X133787900Y-73636371D01*
X133787900Y-73636371D02*
X133740280Y-73541133D01*
X133740280Y-73541133D02*
X133740280Y-73350657D01*
X133740280Y-73350657D02*
X133787900Y-73255419D01*
X133787900Y-73255419D02*
X133835519Y-73207800D01*
X133835519Y-73207800D02*
X133930757Y-73160181D01*
X133930757Y-73160181D02*
X134168852Y-73160181D01*
X134168852Y-73160181D02*
X134264090Y-73207800D01*
X134264090Y-73207800D02*
X134311709Y-73255419D01*
X134311709Y-73255419D02*
X134359328Y-73350657D01*
X134359328Y-73350657D02*
X134359328Y-73541133D01*
X134359328Y-73541133D02*
X134311709Y-73636371D01*
X134311709Y-73636371D02*
X134264090Y-73683990D01*
X134264090Y-73683990D02*
X134168852Y-73731609D01*
X134311709Y-72588752D02*
X134359328Y-72683990D01*
X134359328Y-72683990D02*
X134406947Y-72731609D01*
X134406947Y-72731609D02*
X134502185Y-72779228D01*
X134502185Y-72779228D02*
X134549804Y-72779228D01*
X134549804Y-72779228D02*
X134645042Y-72731609D01*
X134645042Y-72731609D02*
X134692661Y-72683990D01*
X134692661Y-72683990D02*
X134740280Y-72588752D01*
X134740280Y-72588752D02*
X134740280Y-72398276D01*
X134740280Y-72398276D02*
X134692661Y-72303038D01*
X134692661Y-72303038D02*
X134645042Y-72255419D01*
X134645042Y-72255419D02*
X134549804Y-72207800D01*
X134549804Y-72207800D02*
X134502185Y-72207800D01*
X134502185Y-72207800D02*
X134406947Y-72255419D01*
X134406947Y-72255419D02*
X134359328Y-72303038D01*
X134359328Y-72303038D02*
X134311709Y-72398276D01*
X134311709Y-72398276D02*
X134311709Y-72588752D01*
X134311709Y-72588752D02*
X134264090Y-72683990D01*
X134264090Y-72683990D02*
X134216471Y-72731609D01*
X134216471Y-72731609D02*
X134121233Y-72779228D01*
X134121233Y-72779228D02*
X133930757Y-72779228D01*
X133930757Y-72779228D02*
X133835519Y-72731609D01*
X133835519Y-72731609D02*
X133787900Y-72683990D01*
X133787900Y-72683990D02*
X133740280Y-72588752D01*
X133740280Y-72588752D02*
X133740280Y-72398276D01*
X133740280Y-72398276D02*
X133787900Y-72303038D01*
X133787900Y-72303038D02*
X133835519Y-72255419D01*
X133835519Y-72255419D02*
X133930757Y-72207800D01*
X133930757Y-72207800D02*
X134121233Y-72207800D01*
X134121233Y-72207800D02*
X134216471Y-72255419D01*
X134216471Y-72255419D02*
X134264090Y-72303038D01*
X134264090Y-72303038D02*
X134311709Y-72398276D01*
X133740280Y-70588752D02*
X134740280Y-70588752D01*
X133787900Y-70588752D02*
X133740280Y-70683990D01*
X133740280Y-70683990D02*
X133740280Y-70874466D01*
X133740280Y-70874466D02*
X133787900Y-70969704D01*
X133787900Y-70969704D02*
X133835519Y-71017323D01*
X133835519Y-71017323D02*
X133930757Y-71064942D01*
X133930757Y-71064942D02*
X134216471Y-71064942D01*
X134216471Y-71064942D02*
X134311709Y-71017323D01*
X134311709Y-71017323D02*
X134359328Y-70969704D01*
X134359328Y-70969704D02*
X134406947Y-70874466D01*
X134406947Y-70874466D02*
X134406947Y-70683990D01*
X134406947Y-70683990D02*
X134359328Y-70588752D01*
X134264090Y-69779228D02*
X134216471Y-69636371D01*
X134216471Y-69636371D02*
X134168852Y-69588752D01*
X134168852Y-69588752D02*
X134073614Y-69541133D01*
X134073614Y-69541133D02*
X133930757Y-69541133D01*
X133930757Y-69541133D02*
X133835519Y-69588752D01*
X133835519Y-69588752D02*
X133787900Y-69636371D01*
X133787900Y-69636371D02*
X133740280Y-69731609D01*
X133740280Y-69731609D02*
X133740280Y-70112561D01*
X133740280Y-70112561D02*
X134740280Y-70112561D01*
X134740280Y-70112561D02*
X134740280Y-69779228D01*
X134740280Y-69779228D02*
X134692661Y-69683990D01*
X134692661Y-69683990D02*
X134645042Y-69636371D01*
X134645042Y-69636371D02*
X134549804Y-69588752D01*
X134549804Y-69588752D02*
X134454566Y-69588752D01*
X134454566Y-69588752D02*
X134359328Y-69636371D01*
X134359328Y-69636371D02*
X134311709Y-69683990D01*
X134311709Y-69683990D02*
X134264090Y-69779228D01*
X134264090Y-69779228D02*
X134264090Y-70112561D01*
X132130336Y-81207801D02*
X132130336Y-81779229D01*
X132130336Y-81493515D02*
X133130336Y-81493515D01*
X133130336Y-81493515D02*
X132987479Y-81588753D01*
X132987479Y-81588753D02*
X132892241Y-81683991D01*
X132892241Y-81683991D02*
X132844622Y-81779229D01*
X133130336Y-80588753D02*
X133130336Y-80493515D01*
X133130336Y-80493515D02*
X133082717Y-80398277D01*
X133082717Y-80398277D02*
X133035098Y-80350658D01*
X133035098Y-80350658D02*
X132939860Y-80303039D01*
X132939860Y-80303039D02*
X132749384Y-80255420D01*
X132749384Y-80255420D02*
X132511289Y-80255420D01*
X132511289Y-80255420D02*
X132320813Y-80303039D01*
X132320813Y-80303039D02*
X132225575Y-80350658D01*
X132225575Y-80350658D02*
X132177956Y-80398277D01*
X132177956Y-80398277D02*
X132130336Y-80493515D01*
X132130336Y-80493515D02*
X132130336Y-80588753D01*
X132130336Y-80588753D02*
X132177956Y-80683991D01*
X132177956Y-80683991D02*
X132225575Y-80731610D01*
X132225575Y-80731610D02*
X132320813Y-80779229D01*
X132320813Y-80779229D02*
X132511289Y-80826848D01*
X132511289Y-80826848D02*
X132749384Y-80826848D01*
X132749384Y-80826848D02*
X132939860Y-80779229D01*
X132939860Y-80779229D02*
X133035098Y-80731610D01*
X133035098Y-80731610D02*
X133082717Y-80683991D01*
X133082717Y-80683991D02*
X133130336Y-80588753D01*
X132130336Y-79064943D02*
X133130336Y-79064943D01*
X132654146Y-79064943D02*
X132654146Y-78493515D01*
X132130336Y-78493515D02*
X133130336Y-78493515D01*
X132797003Y-78112562D02*
X132797003Y-77588753D01*
X132797003Y-77588753D02*
X132130336Y-78112562D01*
X132130336Y-78112562D02*
X132130336Y-77588753D01*
X132511289Y-76445895D02*
X132511289Y-75683991D01*
X132130336Y-73922086D02*
X132130336Y-74493514D01*
X132130336Y-74207800D02*
X133130336Y-74207800D01*
X133130336Y-74207800D02*
X132987479Y-74303038D01*
X132987479Y-74303038D02*
X132892241Y-74398276D01*
X132892241Y-74398276D02*
X132844622Y-74493514D01*
X133130336Y-73588752D02*
X133130336Y-72922086D01*
X133130336Y-72922086D02*
X132130336Y-73350657D01*
X132130336Y-71779228D02*
X133130336Y-71779228D01*
X132511289Y-71683990D02*
X132130336Y-71398276D01*
X132797003Y-71398276D02*
X132416051Y-71779228D01*
X132130336Y-70969704D02*
X133130336Y-70969704D01*
X132654146Y-70969704D02*
X132654146Y-70398276D01*
X132130336Y-70398276D02*
X133130336Y-70398276D01*
X132797003Y-70017323D02*
X132797003Y-69493514D01*
X132797003Y-69493514D02*
X132130336Y-70017323D01*
X132130336Y-70017323D02*
X132130336Y-69493514D01*
X191464901Y-77791133D02*
X191417282Y-77838752D01*
X191417282Y-77838752D02*
X191369663Y-77933990D01*
X191369663Y-77933990D02*
X191369663Y-78172085D01*
X191369663Y-78172085D02*
X191417282Y-78267323D01*
X191417282Y-78267323D02*
X191464901Y-78314942D01*
X191464901Y-78314942D02*
X191560139Y-78362561D01*
X191560139Y-78362561D02*
X191655377Y-78362561D01*
X191655377Y-78362561D02*
X191798234Y-78314942D01*
X191798234Y-78314942D02*
X192369663Y-77743514D01*
X192369663Y-77743514D02*
X192369663Y-78362561D01*
X191702996Y-79219704D02*
X192369663Y-79219704D01*
X191322044Y-78981609D02*
X192036329Y-78743514D01*
X192036329Y-78743514D02*
X192036329Y-79362561D01*
X191369663Y-79933990D02*
X191369663Y-80029228D01*
X191369663Y-80029228D02*
X191417282Y-80124466D01*
X191417282Y-80124466D02*
X191464901Y-80172085D01*
X191464901Y-80172085D02*
X191560139Y-80219704D01*
X191560139Y-80219704D02*
X191750615Y-80267323D01*
X191750615Y-80267323D02*
X191988710Y-80267323D01*
X191988710Y-80267323D02*
X192179186Y-80219704D01*
X192179186Y-80219704D02*
X192274424Y-80172085D01*
X192274424Y-80172085D02*
X192322044Y-80124466D01*
X192322044Y-80124466D02*
X192369663Y-80029228D01*
X192369663Y-80029228D02*
X192369663Y-79933990D01*
X192369663Y-79933990D02*
X192322044Y-79838752D01*
X192322044Y-79838752D02*
X192274424Y-79791133D01*
X192274424Y-79791133D02*
X192179186Y-79743514D01*
X192179186Y-79743514D02*
X191988710Y-79695895D01*
X191988710Y-79695895D02*
X191750615Y-79695895D01*
X191750615Y-79695895D02*
X191560139Y-79743514D01*
X191560139Y-79743514D02*
X191464901Y-79791133D01*
X191464901Y-79791133D02*
X191417282Y-79838752D01*
X191417282Y-79838752D02*
X191369663Y-79933990D01*
X192369663Y-81362562D02*
X191702996Y-81886371D01*
X191702996Y-81362562D02*
X192369663Y-81886371D01*
X191369663Y-82933991D02*
X191369663Y-83553038D01*
X191369663Y-83553038D02*
X191750615Y-83219705D01*
X191750615Y-83219705D02*
X191750615Y-83362562D01*
X191750615Y-83362562D02*
X191798234Y-83457800D01*
X191798234Y-83457800D02*
X191845853Y-83505419D01*
X191845853Y-83505419D02*
X191941091Y-83553038D01*
X191941091Y-83553038D02*
X192179186Y-83553038D01*
X192179186Y-83553038D02*
X192274424Y-83505419D01*
X192274424Y-83505419D02*
X192322044Y-83457800D01*
X192322044Y-83457800D02*
X192369663Y-83362562D01*
X192369663Y-83362562D02*
X192369663Y-83076848D01*
X192369663Y-83076848D02*
X192322044Y-82981610D01*
X192322044Y-82981610D02*
X192274424Y-82933991D01*
X191464901Y-83933991D02*
X191417282Y-83981610D01*
X191417282Y-83981610D02*
X191369663Y-84076848D01*
X191369663Y-84076848D02*
X191369663Y-84314943D01*
X191369663Y-84314943D02*
X191417282Y-84410181D01*
X191417282Y-84410181D02*
X191464901Y-84457800D01*
X191464901Y-84457800D02*
X191560139Y-84505419D01*
X191560139Y-84505419D02*
X191655377Y-84505419D01*
X191655377Y-84505419D02*
X191798234Y-84457800D01*
X191798234Y-84457800D02*
X192369663Y-83886372D01*
X192369663Y-83886372D02*
X192369663Y-84505419D01*
X191369663Y-85124467D02*
X191369663Y-85219705D01*
X191369663Y-85219705D02*
X191417282Y-85314943D01*
X191417282Y-85314943D02*
X191464901Y-85362562D01*
X191464901Y-85362562D02*
X191560139Y-85410181D01*
X191560139Y-85410181D02*
X191750615Y-85457800D01*
X191750615Y-85457800D02*
X191988710Y-85457800D01*
X191988710Y-85457800D02*
X192179186Y-85410181D01*
X192179186Y-85410181D02*
X192274424Y-85362562D01*
X192274424Y-85362562D02*
X192322044Y-85314943D01*
X192322044Y-85314943D02*
X192369663Y-85219705D01*
X192369663Y-85219705D02*
X192369663Y-85124467D01*
X192369663Y-85124467D02*
X192322044Y-85029229D01*
X192322044Y-85029229D02*
X192274424Y-84981610D01*
X192274424Y-84981610D02*
X192179186Y-84933991D01*
X192179186Y-84933991D02*
X191988710Y-84886372D01*
X191988710Y-84886372D02*
X191750615Y-84886372D01*
X191750615Y-84886372D02*
X191560139Y-84933991D01*
X191560139Y-84933991D02*
X191464901Y-84981610D01*
X191464901Y-84981610D02*
X191417282Y-85029229D01*
X191417282Y-85029229D02*
X191369663Y-85124467D01*
X135445463Y-64898276D02*
X135397844Y-64945895D01*
X135397844Y-64945895D02*
X135350224Y-65088752D01*
X135350224Y-65088752D02*
X135350224Y-65183990D01*
X135350224Y-65183990D02*
X135397844Y-65326847D01*
X135397844Y-65326847D02*
X135493082Y-65422085D01*
X135493082Y-65422085D02*
X135588320Y-65469704D01*
X135588320Y-65469704D02*
X135778796Y-65517323D01*
X135778796Y-65517323D02*
X135921653Y-65517323D01*
X135921653Y-65517323D02*
X136112129Y-65469704D01*
X136112129Y-65469704D02*
X136207367Y-65422085D01*
X136207367Y-65422085D02*
X136302605Y-65326847D01*
X136302605Y-65326847D02*
X136350224Y-65183990D01*
X136350224Y-65183990D02*
X136350224Y-65088752D01*
X136350224Y-65088752D02*
X136302605Y-64945895D01*
X136302605Y-64945895D02*
X136254986Y-64898276D01*
X135445463Y-64469704D02*
X135397844Y-64422085D01*
X135397844Y-64422085D02*
X135350224Y-64469704D01*
X135350224Y-64469704D02*
X135397844Y-64517323D01*
X135397844Y-64517323D02*
X135445463Y-64469704D01*
X135445463Y-64469704D02*
X135350224Y-64469704D01*
X135445463Y-62660181D02*
X135397844Y-62707800D01*
X135397844Y-62707800D02*
X135350224Y-62850657D01*
X135350224Y-62850657D02*
X135350224Y-62945895D01*
X135350224Y-62945895D02*
X135397844Y-63088752D01*
X135397844Y-63088752D02*
X135493082Y-63183990D01*
X135493082Y-63183990D02*
X135588320Y-63231609D01*
X135588320Y-63231609D02*
X135778796Y-63279228D01*
X135778796Y-63279228D02*
X135921653Y-63279228D01*
X135921653Y-63279228D02*
X136112129Y-63231609D01*
X136112129Y-63231609D02*
X136207367Y-63183990D01*
X136207367Y-63183990D02*
X136302605Y-63088752D01*
X136302605Y-63088752D02*
X136350224Y-62945895D01*
X136350224Y-62945895D02*
X136350224Y-62850657D01*
X136350224Y-62850657D02*
X136302605Y-62707800D01*
X136302605Y-62707800D02*
X136254986Y-62660181D01*
X135350224Y-61803038D02*
X135874034Y-61803038D01*
X135874034Y-61803038D02*
X135969272Y-61850657D01*
X135969272Y-61850657D02*
X136016891Y-61945895D01*
X136016891Y-61945895D02*
X136016891Y-62136371D01*
X136016891Y-62136371D02*
X135969272Y-62231609D01*
X135397844Y-61803038D02*
X135350224Y-61898276D01*
X135350224Y-61898276D02*
X135350224Y-62136371D01*
X135350224Y-62136371D02*
X135397844Y-62231609D01*
X135397844Y-62231609D02*
X135493082Y-62279228D01*
X135493082Y-62279228D02*
X135588320Y-62279228D01*
X135588320Y-62279228D02*
X135683558Y-62231609D01*
X135683558Y-62231609D02*
X135731177Y-62136371D01*
X135731177Y-62136371D02*
X135731177Y-61898276D01*
X135731177Y-61898276D02*
X135778796Y-61803038D01*
X135350224Y-61326847D02*
X136016891Y-61326847D01*
X135826415Y-61326847D02*
X135921653Y-61279228D01*
X135921653Y-61279228D02*
X135969272Y-61231609D01*
X135969272Y-61231609D02*
X136016891Y-61136371D01*
X136016891Y-61136371D02*
X136016891Y-61041133D01*
X135350224Y-60564942D02*
X135397844Y-60660180D01*
X135397844Y-60660180D02*
X135493082Y-60707799D01*
X135493082Y-60707799D02*
X136350224Y-60707799D01*
X135350224Y-60041132D02*
X135397844Y-60136370D01*
X135397844Y-60136370D02*
X135445463Y-60183989D01*
X135445463Y-60183989D02*
X135540701Y-60231608D01*
X135540701Y-60231608D02*
X135826415Y-60231608D01*
X135826415Y-60231608D02*
X135921653Y-60183989D01*
X135921653Y-60183989D02*
X135969272Y-60136370D01*
X135969272Y-60136370D02*
X136016891Y-60041132D01*
X136016891Y-60041132D02*
X136016891Y-59898275D01*
X136016891Y-59898275D02*
X135969272Y-59803037D01*
X135969272Y-59803037D02*
X135921653Y-59755418D01*
X135921653Y-59755418D02*
X135826415Y-59707799D01*
X135826415Y-59707799D02*
X135540701Y-59707799D01*
X135540701Y-59707799D02*
X135445463Y-59755418D01*
X135445463Y-59755418D02*
X135397844Y-59803037D01*
X135397844Y-59803037D02*
X135350224Y-59898275D01*
X135350224Y-59898275D02*
X135350224Y-60041132D01*
X136016891Y-59279227D02*
X135350224Y-59279227D01*
X135921653Y-59279227D02*
X135969272Y-59231608D01*
X135969272Y-59231608D02*
X136016891Y-59136370D01*
X136016891Y-59136370D02*
X136016891Y-58993513D01*
X136016891Y-58993513D02*
X135969272Y-58898275D01*
X135969272Y-58898275D02*
X135874034Y-58850656D01*
X135874034Y-58850656D02*
X135350224Y-58850656D01*
X135397844Y-58326846D02*
X135350224Y-58326846D01*
X135350224Y-58326846D02*
X135254986Y-58374465D01*
X135254986Y-58374465D02*
X135207367Y-58422084D01*
X135350224Y-57136370D02*
X136350224Y-57136370D01*
X136350224Y-57136370D02*
X135635939Y-56803037D01*
X135635939Y-56803037D02*
X136350224Y-56469704D01*
X136350224Y-56469704D02*
X135350224Y-56469704D01*
X135350224Y-55993513D02*
X136350224Y-55993513D01*
X136350224Y-55993513D02*
X135635939Y-55660180D01*
X135635939Y-55660180D02*
X136350224Y-55326847D01*
X136350224Y-55326847D02*
X135350224Y-55326847D01*
X136350224Y-54945894D02*
X135350224Y-54279228D01*
X136350224Y-54279228D02*
X135350224Y-54945894D01*
X136350224Y-53993513D02*
X135350224Y-53326847D01*
X136350224Y-53326847D02*
X135350224Y-53993513D01*
X135350224Y-52945894D02*
X136350224Y-52945894D01*
X136350224Y-52612561D02*
X135350224Y-52279228D01*
X135350224Y-52279228D02*
X136350224Y-51945895D01*
X133740280Y-66183990D02*
X134740280Y-66183990D01*
X133740280Y-65755419D02*
X134264090Y-65755419D01*
X134264090Y-65755419D02*
X134359328Y-65803038D01*
X134359328Y-65803038D02*
X134406947Y-65898276D01*
X134406947Y-65898276D02*
X134406947Y-66041133D01*
X134406947Y-66041133D02*
X134359328Y-66136371D01*
X134359328Y-66136371D02*
X134311709Y-66183990D01*
X134406947Y-65422085D02*
X134406947Y-65041133D01*
X134740280Y-65279228D02*
X133883138Y-65279228D01*
X133883138Y-65279228D02*
X133787900Y-65231609D01*
X133787900Y-65231609D02*
X133740280Y-65136371D01*
X133740280Y-65136371D02*
X133740280Y-65041133D01*
X134406947Y-64850656D02*
X134406947Y-64469704D01*
X134740280Y-64707799D02*
X133883138Y-64707799D01*
X133883138Y-64707799D02*
X133787900Y-64660180D01*
X133787900Y-64660180D02*
X133740280Y-64564942D01*
X133740280Y-64564942D02*
X133740280Y-64469704D01*
X134406947Y-64136370D02*
X133406947Y-64136370D01*
X134359328Y-64136370D02*
X134406947Y-64041132D01*
X134406947Y-64041132D02*
X134406947Y-63850656D01*
X134406947Y-63850656D02*
X134359328Y-63755418D01*
X134359328Y-63755418D02*
X134311709Y-63707799D01*
X134311709Y-63707799D02*
X134216471Y-63660180D01*
X134216471Y-63660180D02*
X133930757Y-63660180D01*
X133930757Y-63660180D02*
X133835519Y-63707799D01*
X133835519Y-63707799D02*
X133787900Y-63755418D01*
X133787900Y-63755418D02*
X133740280Y-63850656D01*
X133740280Y-63850656D02*
X133740280Y-64041132D01*
X133740280Y-64041132D02*
X133787900Y-64136370D01*
X133787900Y-63279227D02*
X133740280Y-63183989D01*
X133740280Y-63183989D02*
X133740280Y-62993513D01*
X133740280Y-62993513D02*
X133787900Y-62898275D01*
X133787900Y-62898275D02*
X133883138Y-62850656D01*
X133883138Y-62850656D02*
X133930757Y-62850656D01*
X133930757Y-62850656D02*
X134025995Y-62898275D01*
X134025995Y-62898275D02*
X134073614Y-62993513D01*
X134073614Y-62993513D02*
X134073614Y-63136370D01*
X134073614Y-63136370D02*
X134121233Y-63231608D01*
X134121233Y-63231608D02*
X134216471Y-63279227D01*
X134216471Y-63279227D02*
X134264090Y-63279227D01*
X134264090Y-63279227D02*
X134359328Y-63231608D01*
X134359328Y-63231608D02*
X134406947Y-63136370D01*
X134406947Y-63136370D02*
X134406947Y-62993513D01*
X134406947Y-62993513D02*
X134359328Y-62898275D01*
X133835519Y-62422084D02*
X133787900Y-62374465D01*
X133787900Y-62374465D02*
X133740280Y-62422084D01*
X133740280Y-62422084D02*
X133787900Y-62469703D01*
X133787900Y-62469703D02*
X133835519Y-62422084D01*
X133835519Y-62422084D02*
X133740280Y-62422084D01*
X134359328Y-62422084D02*
X134311709Y-62374465D01*
X134311709Y-62374465D02*
X134264090Y-62422084D01*
X134264090Y-62422084D02*
X134311709Y-62469703D01*
X134311709Y-62469703D02*
X134359328Y-62422084D01*
X134359328Y-62422084D02*
X134264090Y-62422084D01*
X134787900Y-61231609D02*
X133502185Y-62088751D01*
X134787900Y-60183990D02*
X133502185Y-61041132D01*
X134406947Y-59422085D02*
X133597423Y-59422085D01*
X133597423Y-59422085D02*
X133502185Y-59469704D01*
X133502185Y-59469704D02*
X133454566Y-59517323D01*
X133454566Y-59517323D02*
X133406947Y-59612561D01*
X133406947Y-59612561D02*
X133406947Y-59755418D01*
X133406947Y-59755418D02*
X133454566Y-59850656D01*
X133787900Y-59422085D02*
X133740280Y-59517323D01*
X133740280Y-59517323D02*
X133740280Y-59707799D01*
X133740280Y-59707799D02*
X133787900Y-59803037D01*
X133787900Y-59803037D02*
X133835519Y-59850656D01*
X133835519Y-59850656D02*
X133930757Y-59898275D01*
X133930757Y-59898275D02*
X134216471Y-59898275D01*
X134216471Y-59898275D02*
X134311709Y-59850656D01*
X134311709Y-59850656D02*
X134359328Y-59803037D01*
X134359328Y-59803037D02*
X134406947Y-59707799D01*
X134406947Y-59707799D02*
X134406947Y-59517323D01*
X134406947Y-59517323D02*
X134359328Y-59422085D01*
X133740280Y-58945894D02*
X134406947Y-58945894D01*
X134740280Y-58945894D02*
X134692661Y-58993513D01*
X134692661Y-58993513D02*
X134645042Y-58945894D01*
X134645042Y-58945894D02*
X134692661Y-58898275D01*
X134692661Y-58898275D02*
X134740280Y-58945894D01*
X134740280Y-58945894D02*
X134645042Y-58945894D01*
X134406947Y-58612561D02*
X134406947Y-58231609D01*
X134740280Y-58469704D02*
X133883138Y-58469704D01*
X133883138Y-58469704D02*
X133787900Y-58422085D01*
X133787900Y-58422085D02*
X133740280Y-58326847D01*
X133740280Y-58326847D02*
X133740280Y-58231609D01*
X133740280Y-57898275D02*
X134740280Y-57898275D01*
X133740280Y-57469704D02*
X134264090Y-57469704D01*
X134264090Y-57469704D02*
X134359328Y-57517323D01*
X134359328Y-57517323D02*
X134406947Y-57612561D01*
X134406947Y-57612561D02*
X134406947Y-57755418D01*
X134406947Y-57755418D02*
X134359328Y-57850656D01*
X134359328Y-57850656D02*
X134311709Y-57898275D01*
X134406947Y-56564942D02*
X133740280Y-56564942D01*
X134406947Y-56993513D02*
X133883138Y-56993513D01*
X133883138Y-56993513D02*
X133787900Y-56945894D01*
X133787900Y-56945894D02*
X133740280Y-56850656D01*
X133740280Y-56850656D02*
X133740280Y-56707799D01*
X133740280Y-56707799D02*
X133787900Y-56612561D01*
X133787900Y-56612561D02*
X133835519Y-56564942D01*
X133740280Y-56088751D02*
X134740280Y-56088751D01*
X134359328Y-56088751D02*
X134406947Y-55993513D01*
X134406947Y-55993513D02*
X134406947Y-55803037D01*
X134406947Y-55803037D02*
X134359328Y-55707799D01*
X134359328Y-55707799D02*
X134311709Y-55660180D01*
X134311709Y-55660180D02*
X134216471Y-55612561D01*
X134216471Y-55612561D02*
X133930757Y-55612561D01*
X133930757Y-55612561D02*
X133835519Y-55660180D01*
X133835519Y-55660180D02*
X133787900Y-55707799D01*
X133787900Y-55707799D02*
X133740280Y-55803037D01*
X133740280Y-55803037D02*
X133740280Y-55993513D01*
X133740280Y-55993513D02*
X133787900Y-56088751D01*
X133835519Y-55183989D02*
X133787900Y-55136370D01*
X133787900Y-55136370D02*
X133740280Y-55183989D01*
X133740280Y-55183989D02*
X133787900Y-55231608D01*
X133787900Y-55231608D02*
X133835519Y-55183989D01*
X133835519Y-55183989D02*
X133740280Y-55183989D01*
X133787900Y-54279228D02*
X133740280Y-54374466D01*
X133740280Y-54374466D02*
X133740280Y-54564942D01*
X133740280Y-54564942D02*
X133787900Y-54660180D01*
X133787900Y-54660180D02*
X133835519Y-54707799D01*
X133835519Y-54707799D02*
X133930757Y-54755418D01*
X133930757Y-54755418D02*
X134216471Y-54755418D01*
X134216471Y-54755418D02*
X134311709Y-54707799D01*
X134311709Y-54707799D02*
X134359328Y-54660180D01*
X134359328Y-54660180D02*
X134406947Y-54564942D01*
X134406947Y-54564942D02*
X134406947Y-54374466D01*
X134406947Y-54374466D02*
X134359328Y-54279228D01*
X133740280Y-53707799D02*
X133787900Y-53803037D01*
X133787900Y-53803037D02*
X133835519Y-53850656D01*
X133835519Y-53850656D02*
X133930757Y-53898275D01*
X133930757Y-53898275D02*
X134216471Y-53898275D01*
X134216471Y-53898275D02*
X134311709Y-53850656D01*
X134311709Y-53850656D02*
X134359328Y-53803037D01*
X134359328Y-53803037D02*
X134406947Y-53707799D01*
X134406947Y-53707799D02*
X134406947Y-53564942D01*
X134406947Y-53564942D02*
X134359328Y-53469704D01*
X134359328Y-53469704D02*
X134311709Y-53422085D01*
X134311709Y-53422085D02*
X134216471Y-53374466D01*
X134216471Y-53374466D02*
X133930757Y-53374466D01*
X133930757Y-53374466D02*
X133835519Y-53422085D01*
X133835519Y-53422085D02*
X133787900Y-53469704D01*
X133787900Y-53469704D02*
X133740280Y-53564942D01*
X133740280Y-53564942D02*
X133740280Y-53707799D01*
X133740280Y-52945894D02*
X134406947Y-52945894D01*
X134311709Y-52945894D02*
X134359328Y-52898275D01*
X134359328Y-52898275D02*
X134406947Y-52803037D01*
X134406947Y-52803037D02*
X134406947Y-52660180D01*
X134406947Y-52660180D02*
X134359328Y-52564942D01*
X134359328Y-52564942D02*
X134264090Y-52517323D01*
X134264090Y-52517323D02*
X133740280Y-52517323D01*
X134264090Y-52517323D02*
X134359328Y-52469704D01*
X134359328Y-52469704D02*
X134406947Y-52374466D01*
X134406947Y-52374466D02*
X134406947Y-52231609D01*
X134406947Y-52231609D02*
X134359328Y-52136370D01*
X134359328Y-52136370D02*
X134264090Y-52088751D01*
X134264090Y-52088751D02*
X133740280Y-52088751D01*
X133177956Y-58517325D02*
X131892241Y-59374467D01*
X132225575Y-57612563D02*
X132177956Y-57660182D01*
X132177956Y-57660182D02*
X132130336Y-57803039D01*
X132130336Y-57803039D02*
X132130336Y-57898277D01*
X132130336Y-57898277D02*
X132177956Y-58041134D01*
X132177956Y-58041134D02*
X132273194Y-58136372D01*
X132273194Y-58136372D02*
X132368432Y-58183991D01*
X132368432Y-58183991D02*
X132558908Y-58231610D01*
X132558908Y-58231610D02*
X132701765Y-58231610D01*
X132701765Y-58231610D02*
X132892241Y-58183991D01*
X132892241Y-58183991D02*
X132987479Y-58136372D01*
X132987479Y-58136372D02*
X133082717Y-58041134D01*
X133082717Y-58041134D02*
X133130336Y-57898277D01*
X133130336Y-57898277D02*
X133130336Y-57803039D01*
X133130336Y-57803039D02*
X133082717Y-57660182D01*
X133082717Y-57660182D02*
X133035098Y-57612563D01*
X132130336Y-57041134D02*
X132177956Y-57136372D01*
X132177956Y-57136372D02*
X132273194Y-57183991D01*
X132273194Y-57183991D02*
X133130336Y-57183991D01*
X132130336Y-56231610D02*
X132654146Y-56231610D01*
X132654146Y-56231610D02*
X132749384Y-56279229D01*
X132749384Y-56279229D02*
X132797003Y-56374467D01*
X132797003Y-56374467D02*
X132797003Y-56564943D01*
X132797003Y-56564943D02*
X132749384Y-56660181D01*
X132177956Y-56231610D02*
X132130336Y-56326848D01*
X132130336Y-56326848D02*
X132130336Y-56564943D01*
X132130336Y-56564943D02*
X132177956Y-56660181D01*
X132177956Y-56660181D02*
X132273194Y-56707800D01*
X132273194Y-56707800D02*
X132368432Y-56707800D01*
X132368432Y-56707800D02*
X132463670Y-56660181D01*
X132463670Y-56660181D02*
X132511289Y-56564943D01*
X132511289Y-56564943D02*
X132511289Y-56326848D01*
X132511289Y-56326848D02*
X132558908Y-56231610D01*
X132177956Y-55374467D02*
X132130336Y-55469705D01*
X132130336Y-55469705D02*
X132130336Y-55660181D01*
X132130336Y-55660181D02*
X132177956Y-55755419D01*
X132177956Y-55755419D02*
X132273194Y-55803038D01*
X132273194Y-55803038D02*
X132654146Y-55803038D01*
X132654146Y-55803038D02*
X132749384Y-55755419D01*
X132749384Y-55755419D02*
X132797003Y-55660181D01*
X132797003Y-55660181D02*
X132797003Y-55469705D01*
X132797003Y-55469705D02*
X132749384Y-55374467D01*
X132749384Y-55374467D02*
X132654146Y-55326848D01*
X132654146Y-55326848D02*
X132558908Y-55326848D01*
X132558908Y-55326848D02*
X132463670Y-55803038D01*
X132797003Y-54469705D02*
X131987479Y-54469705D01*
X131987479Y-54469705D02*
X131892241Y-54517324D01*
X131892241Y-54517324D02*
X131844622Y-54564943D01*
X131844622Y-54564943D02*
X131797003Y-54660181D01*
X131797003Y-54660181D02*
X131797003Y-54803038D01*
X131797003Y-54803038D02*
X131844622Y-54898276D01*
X132177956Y-54469705D02*
X132130336Y-54564943D01*
X132130336Y-54564943D02*
X132130336Y-54755419D01*
X132130336Y-54755419D02*
X132177956Y-54850657D01*
X132177956Y-54850657D02*
X132225575Y-54898276D01*
X132225575Y-54898276D02*
X132320813Y-54945895D01*
X132320813Y-54945895D02*
X132606527Y-54945895D01*
X132606527Y-54945895D02*
X132701765Y-54898276D01*
X132701765Y-54898276D02*
X132749384Y-54850657D01*
X132749384Y-54850657D02*
X132797003Y-54755419D01*
X132797003Y-54755419D02*
X132797003Y-54564943D01*
X132797003Y-54564943D02*
X132749384Y-54469705D01*
X132797003Y-54136371D02*
X132797003Y-53755419D01*
X133130336Y-53993514D02*
X132273194Y-53993514D01*
X132273194Y-53993514D02*
X132177956Y-53945895D01*
X132177956Y-53945895D02*
X132130336Y-53850657D01*
X132130336Y-53850657D02*
X132130336Y-53755419D01*
X132797003Y-52993514D02*
X132130336Y-52993514D01*
X132797003Y-53422085D02*
X132273194Y-53422085D01*
X132273194Y-53422085D02*
X132177956Y-53374466D01*
X132177956Y-53374466D02*
X132130336Y-53279228D01*
X132130336Y-53279228D02*
X132130336Y-53136371D01*
X132130336Y-53136371D02*
X132177956Y-53041133D01*
X132177956Y-53041133D02*
X132225575Y-52993514D01*
X132797003Y-52517323D02*
X132130336Y-52517323D01*
X132701765Y-52517323D02*
X132749384Y-52469704D01*
X132749384Y-52469704D02*
X132797003Y-52374466D01*
X132797003Y-52374466D02*
X132797003Y-52231609D01*
X132797003Y-52231609D02*
X132749384Y-52136371D01*
X132749384Y-52136371D02*
X132654146Y-52088752D01*
X132654146Y-52088752D02*
X132130336Y-52088752D01*
X190759719Y-52838752D02*
X189759719Y-52838752D01*
X190235909Y-52838752D02*
X190235909Y-53410180D01*
X190759719Y-53410180D02*
X189759719Y-53410180D01*
X190759719Y-54314942D02*
X190235909Y-54314942D01*
X190235909Y-54314942D02*
X190140671Y-54267323D01*
X190140671Y-54267323D02*
X190093052Y-54172085D01*
X190093052Y-54172085D02*
X190093052Y-53981609D01*
X190093052Y-53981609D02*
X190140671Y-53886371D01*
X190712100Y-54314942D02*
X190759719Y-54219704D01*
X190759719Y-54219704D02*
X190759719Y-53981609D01*
X190759719Y-53981609D02*
X190712100Y-53886371D01*
X190712100Y-53886371D02*
X190616861Y-53838752D01*
X190616861Y-53838752D02*
X190521623Y-53838752D01*
X190521623Y-53838752D02*
X190426385Y-53886371D01*
X190426385Y-53886371D02*
X190378766Y-53981609D01*
X190378766Y-53981609D02*
X190378766Y-54219704D01*
X190378766Y-54219704D02*
X190331147Y-54314942D01*
X190093052Y-54791133D02*
X190759719Y-54791133D01*
X190188290Y-54791133D02*
X190140671Y-54838752D01*
X190140671Y-54838752D02*
X190093052Y-54933990D01*
X190093052Y-54933990D02*
X190093052Y-55076847D01*
X190093052Y-55076847D02*
X190140671Y-55172085D01*
X190140671Y-55172085D02*
X190235909Y-55219704D01*
X190235909Y-55219704D02*
X190759719Y-55219704D01*
X190759719Y-56124466D02*
X189759719Y-56124466D01*
X190712100Y-56124466D02*
X190759719Y-56029228D01*
X190759719Y-56029228D02*
X190759719Y-55838752D01*
X190759719Y-55838752D02*
X190712100Y-55743514D01*
X190712100Y-55743514D02*
X190664480Y-55695895D01*
X190664480Y-55695895D02*
X190569242Y-55648276D01*
X190569242Y-55648276D02*
X190283528Y-55648276D01*
X190283528Y-55648276D02*
X190188290Y-55695895D01*
X190188290Y-55695895D02*
X190140671Y-55743514D01*
X190140671Y-55743514D02*
X190093052Y-55838752D01*
X190093052Y-55838752D02*
X190093052Y-56029228D01*
X190093052Y-56029228D02*
X190140671Y-56124466D01*
X190712100Y-56553038D02*
X190759719Y-56648276D01*
X190759719Y-56648276D02*
X190759719Y-56838752D01*
X190759719Y-56838752D02*
X190712100Y-56933990D01*
X190712100Y-56933990D02*
X190616861Y-56981609D01*
X190616861Y-56981609D02*
X190569242Y-56981609D01*
X190569242Y-56981609D02*
X190474004Y-56933990D01*
X190474004Y-56933990D02*
X190426385Y-56838752D01*
X190426385Y-56838752D02*
X190426385Y-56695895D01*
X190426385Y-56695895D02*
X190378766Y-56600657D01*
X190378766Y-56600657D02*
X190283528Y-56553038D01*
X190283528Y-56553038D02*
X190235909Y-56553038D01*
X190235909Y-56553038D02*
X190140671Y-56600657D01*
X190140671Y-56600657D02*
X190093052Y-56695895D01*
X190093052Y-56695895D02*
X190093052Y-56838752D01*
X190093052Y-56838752D02*
X190140671Y-56933990D01*
X190093052Y-57410181D02*
X191093052Y-57410181D01*
X190140671Y-57410181D02*
X190093052Y-57505419D01*
X190093052Y-57505419D02*
X190093052Y-57695895D01*
X190093052Y-57695895D02*
X190140671Y-57791133D01*
X190140671Y-57791133D02*
X190188290Y-57838752D01*
X190188290Y-57838752D02*
X190283528Y-57886371D01*
X190283528Y-57886371D02*
X190569242Y-57886371D01*
X190569242Y-57886371D02*
X190664480Y-57838752D01*
X190664480Y-57838752D02*
X190712100Y-57791133D01*
X190712100Y-57791133D02*
X190759719Y-57695895D01*
X190759719Y-57695895D02*
X190759719Y-57505419D01*
X190759719Y-57505419D02*
X190712100Y-57410181D01*
X190712100Y-58695895D02*
X190759719Y-58600657D01*
X190759719Y-58600657D02*
X190759719Y-58410181D01*
X190759719Y-58410181D02*
X190712100Y-58314943D01*
X190712100Y-58314943D02*
X190616861Y-58267324D01*
X190616861Y-58267324D02*
X190235909Y-58267324D01*
X190235909Y-58267324D02*
X190140671Y-58314943D01*
X190140671Y-58314943D02*
X190093052Y-58410181D01*
X190093052Y-58410181D02*
X190093052Y-58600657D01*
X190093052Y-58600657D02*
X190140671Y-58695895D01*
X190140671Y-58695895D02*
X190235909Y-58743514D01*
X190235909Y-58743514D02*
X190331147Y-58743514D01*
X190331147Y-58743514D02*
X190426385Y-58267324D01*
X190759719Y-59172086D02*
X189759719Y-59172086D01*
X190378766Y-59267324D02*
X190759719Y-59553038D01*
X190093052Y-59553038D02*
X190474004Y-59172086D01*
X190093052Y-59838753D02*
X190093052Y-60219705D01*
X189759719Y-59981610D02*
X190616861Y-59981610D01*
X190616861Y-59981610D02*
X190712100Y-60029229D01*
X190712100Y-60029229D02*
X190759719Y-60124467D01*
X190759719Y-60124467D02*
X190759719Y-60219705D01*
X190759719Y-60553039D02*
X190093052Y-60553039D01*
X190283528Y-60553039D02*
X190188290Y-60600658D01*
X190188290Y-60600658D02*
X190140671Y-60648277D01*
X190140671Y-60648277D02*
X190093052Y-60743515D01*
X190093052Y-60743515D02*
X190093052Y-60838753D01*
X190093052Y-61600658D02*
X190759719Y-61600658D01*
X190093052Y-61172087D02*
X190616861Y-61172087D01*
X190616861Y-61172087D02*
X190712100Y-61219706D01*
X190712100Y-61219706D02*
X190759719Y-61314944D01*
X190759719Y-61314944D02*
X190759719Y-61457801D01*
X190759719Y-61457801D02*
X190712100Y-61553039D01*
X190712100Y-61553039D02*
X190664480Y-61600658D01*
X190759719Y-62076849D02*
X190093052Y-62076849D01*
X190188290Y-62076849D02*
X190140671Y-62124468D01*
X190140671Y-62124468D02*
X190093052Y-62219706D01*
X190093052Y-62219706D02*
X190093052Y-62362563D01*
X190093052Y-62362563D02*
X190140671Y-62457801D01*
X190140671Y-62457801D02*
X190235909Y-62505420D01*
X190235909Y-62505420D02*
X190759719Y-62505420D01*
X190235909Y-62505420D02*
X190140671Y-62553039D01*
X190140671Y-62553039D02*
X190093052Y-62648277D01*
X190093052Y-62648277D02*
X190093052Y-62791134D01*
X190093052Y-62791134D02*
X190140671Y-62886373D01*
X190140671Y-62886373D02*
X190235909Y-62933992D01*
X190235909Y-62933992D02*
X190759719Y-62933992D01*
X191988710Y-52838752D02*
X191988710Y-53600657D01*
X192369663Y-54505418D02*
X191845853Y-54505418D01*
X191845853Y-54505418D02*
X191750615Y-54457799D01*
X191750615Y-54457799D02*
X191702996Y-54362561D01*
X191702996Y-54362561D02*
X191702996Y-54172085D01*
X191702996Y-54172085D02*
X191750615Y-54076847D01*
X192322044Y-54505418D02*
X192369663Y-54410180D01*
X192369663Y-54410180D02*
X192369663Y-54172085D01*
X192369663Y-54172085D02*
X192322044Y-54076847D01*
X192322044Y-54076847D02*
X192226805Y-54029228D01*
X192226805Y-54029228D02*
X192131567Y-54029228D01*
X192131567Y-54029228D02*
X192036329Y-54076847D01*
X192036329Y-54076847D02*
X191988710Y-54172085D01*
X191988710Y-54172085D02*
X191988710Y-54410180D01*
X191988710Y-54410180D02*
X191941091Y-54505418D01*
X191702996Y-54981609D02*
X192369663Y-54981609D01*
X191798234Y-54981609D02*
X191750615Y-55029228D01*
X191750615Y-55029228D02*
X191702996Y-55124466D01*
X191702996Y-55124466D02*
X191702996Y-55267323D01*
X191702996Y-55267323D02*
X191750615Y-55362561D01*
X191750615Y-55362561D02*
X191845853Y-55410180D01*
X191845853Y-55410180D02*
X192369663Y-55410180D01*
X192369663Y-56314942D02*
X191845853Y-56314942D01*
X191845853Y-56314942D02*
X191750615Y-56267323D01*
X191750615Y-56267323D02*
X191702996Y-56172085D01*
X191702996Y-56172085D02*
X191702996Y-55981609D01*
X191702996Y-55981609D02*
X191750615Y-55886371D01*
X192322044Y-56314942D02*
X192369663Y-56219704D01*
X192369663Y-56219704D02*
X192369663Y-55981609D01*
X192369663Y-55981609D02*
X192322044Y-55886371D01*
X192322044Y-55886371D02*
X192226805Y-55838752D01*
X192226805Y-55838752D02*
X192131567Y-55838752D01*
X192131567Y-55838752D02*
X192036329Y-55886371D01*
X192036329Y-55886371D02*
X191988710Y-55981609D01*
X191988710Y-55981609D02*
X191988710Y-56219704D01*
X191988710Y-56219704D02*
X191941091Y-56314942D01*
X192369663Y-56933990D02*
X192322044Y-56838752D01*
X192322044Y-56838752D02*
X192226805Y-56791133D01*
X192226805Y-56791133D02*
X191369663Y-56791133D01*
X191702996Y-57219705D02*
X192369663Y-57457800D01*
X191702996Y-57695895D02*
X192369663Y-57457800D01*
X192369663Y-57457800D02*
X192607758Y-57362562D01*
X192607758Y-57362562D02*
X192655377Y-57314943D01*
X192655377Y-57314943D02*
X192702996Y-57219705D01*
X192322044Y-58029229D02*
X192369663Y-58124467D01*
X192369663Y-58124467D02*
X192369663Y-58314943D01*
X192369663Y-58314943D02*
X192322044Y-58410181D01*
X192322044Y-58410181D02*
X192226805Y-58457800D01*
X192226805Y-58457800D02*
X192179186Y-58457800D01*
X192179186Y-58457800D02*
X192083948Y-58410181D01*
X192083948Y-58410181D02*
X192036329Y-58314943D01*
X192036329Y-58314943D02*
X192036329Y-58172086D01*
X192036329Y-58172086D02*
X191988710Y-58076848D01*
X191988710Y-58076848D02*
X191893472Y-58029229D01*
X191893472Y-58029229D02*
X191845853Y-58029229D01*
X191845853Y-58029229D02*
X191750615Y-58076848D01*
X191750615Y-58076848D02*
X191702996Y-58172086D01*
X191702996Y-58172086D02*
X191702996Y-58314943D01*
X191702996Y-58314943D02*
X191750615Y-58410181D01*
X192369663Y-59314943D02*
X191845853Y-59314943D01*
X191845853Y-59314943D02*
X191750615Y-59267324D01*
X191750615Y-59267324D02*
X191702996Y-59172086D01*
X191702996Y-59172086D02*
X191702996Y-58981610D01*
X191702996Y-58981610D02*
X191750615Y-58886372D01*
X192322044Y-59314943D02*
X192369663Y-59219705D01*
X192369663Y-59219705D02*
X192369663Y-58981610D01*
X192369663Y-58981610D02*
X192322044Y-58886372D01*
X192322044Y-58886372D02*
X192226805Y-58838753D01*
X192226805Y-58838753D02*
X192131567Y-58838753D01*
X192131567Y-58838753D02*
X192036329Y-58886372D01*
X192036329Y-58886372D02*
X191988710Y-58981610D01*
X191988710Y-58981610D02*
X191988710Y-59219705D01*
X191988710Y-59219705D02*
X191941091Y-59314943D01*
X191702996Y-59648277D02*
X191702996Y-60029229D01*
X191369663Y-59791134D02*
X192226805Y-59791134D01*
X192226805Y-59791134D02*
X192322044Y-59838753D01*
X192322044Y-59838753D02*
X192369663Y-59933991D01*
X192369663Y-59933991D02*
X192369663Y-60029229D01*
X192369663Y-60505420D02*
X192322044Y-60410182D01*
X192322044Y-60410182D02*
X192274424Y-60362563D01*
X192274424Y-60362563D02*
X192179186Y-60314944D01*
X192179186Y-60314944D02*
X191893472Y-60314944D01*
X191893472Y-60314944D02*
X191798234Y-60362563D01*
X191798234Y-60362563D02*
X191750615Y-60410182D01*
X191750615Y-60410182D02*
X191702996Y-60505420D01*
X191702996Y-60505420D02*
X191702996Y-60648277D01*
X191702996Y-60648277D02*
X191750615Y-60743515D01*
X191750615Y-60743515D02*
X191798234Y-60791134D01*
X191798234Y-60791134D02*
X191893472Y-60838753D01*
X191893472Y-60838753D02*
X192179186Y-60838753D01*
X192179186Y-60838753D02*
X192274424Y-60791134D01*
X192274424Y-60791134D02*
X192322044Y-60743515D01*
X192322044Y-60743515D02*
X192369663Y-60648277D01*
X192369663Y-60648277D02*
X192369663Y-60505420D01*
X192369663Y-61267325D02*
X191702996Y-61267325D01*
X191893472Y-61267325D02*
X191798234Y-61314944D01*
X191798234Y-61314944D02*
X191750615Y-61362563D01*
X191750615Y-61362563D02*
X191702996Y-61457801D01*
X191702996Y-61457801D02*
X191702996Y-61553039D01*
X192322044Y-61933992D02*
X192369663Y-61933992D01*
X192369663Y-61933992D02*
X192464901Y-61886373D01*
X192464901Y-61886373D02*
X192512520Y-61838754D01*
X192369663Y-63124468D02*
X191702996Y-63124468D01*
X191893472Y-63124468D02*
X191798234Y-63172087D01*
X191798234Y-63172087D02*
X191750615Y-63219706D01*
X191750615Y-63219706D02*
X191702996Y-63314944D01*
X191702996Y-63314944D02*
X191702996Y-63410182D01*
X191369663Y-63933992D02*
X191369663Y-64029230D01*
X191369663Y-64029230D02*
X191417282Y-64124468D01*
X191417282Y-64124468D02*
X191464901Y-64172087D01*
X191464901Y-64172087D02*
X191560139Y-64219706D01*
X191560139Y-64219706D02*
X191750615Y-64267325D01*
X191750615Y-64267325D02*
X191988710Y-64267325D01*
X191988710Y-64267325D02*
X192179186Y-64219706D01*
X192179186Y-64219706D02*
X192274424Y-64172087D01*
X192274424Y-64172087D02*
X192322044Y-64124468D01*
X192322044Y-64124468D02*
X192369663Y-64029230D01*
X192369663Y-64029230D02*
X192369663Y-63933992D01*
X192369663Y-63933992D02*
X192322044Y-63838754D01*
X192322044Y-63838754D02*
X192274424Y-63791135D01*
X192274424Y-63791135D02*
X192179186Y-63743516D01*
X192179186Y-63743516D02*
X191988710Y-63695897D01*
X191988710Y-63695897D02*
X191750615Y-63695897D01*
X191750615Y-63695897D02*
X191560139Y-63743516D01*
X191560139Y-63743516D02*
X191464901Y-63791135D01*
X191464901Y-63791135D02*
X191417282Y-63838754D01*
X191417282Y-63838754D02*
X191369663Y-63933992D01*
X197704663Y-61607142D02*
X197228472Y-61273809D01*
X197704663Y-61035714D02*
X196704663Y-61035714D01*
X196704663Y-61035714D02*
X196704663Y-61416666D01*
X196704663Y-61416666D02*
X196752282Y-61511904D01*
X196752282Y-61511904D02*
X196799901Y-61559523D01*
X196799901Y-61559523D02*
X196895139Y-61607142D01*
X196895139Y-61607142D02*
X197037996Y-61607142D01*
X197037996Y-61607142D02*
X197133234Y-61559523D01*
X197133234Y-61559523D02*
X197180853Y-61511904D01*
X197180853Y-61511904D02*
X197228472Y-61416666D01*
X197228472Y-61416666D02*
X197228472Y-61035714D01*
X196799901Y-61988095D02*
X196752282Y-62035714D01*
X196752282Y-62035714D02*
X196704663Y-62130952D01*
X196704663Y-62130952D02*
X196704663Y-62369047D01*
X196704663Y-62369047D02*
X196752282Y-62464285D01*
X196752282Y-62464285D02*
X196799901Y-62511904D01*
X196799901Y-62511904D02*
X196895139Y-62559523D01*
X196895139Y-62559523D02*
X196990377Y-62559523D01*
X196990377Y-62559523D02*
X197133234Y-62511904D01*
X197133234Y-62511904D02*
X197704663Y-61940476D01*
X197704663Y-61940476D02*
X197704663Y-62559523D01*
X196704663Y-62892857D02*
X196704663Y-63559523D01*
X196704663Y-63559523D02*
X197704663Y-63130952D01*
X199159424Y-77107142D02*
X199207044Y-77059523D01*
X199207044Y-77059523D02*
X199254663Y-76916666D01*
X199254663Y-76916666D02*
X199254663Y-76821428D01*
X199254663Y-76821428D02*
X199207044Y-76678571D01*
X199207044Y-76678571D02*
X199111805Y-76583333D01*
X199111805Y-76583333D02*
X199016567Y-76535714D01*
X199016567Y-76535714D02*
X198826091Y-76488095D01*
X198826091Y-76488095D02*
X198683234Y-76488095D01*
X198683234Y-76488095D02*
X198492758Y-76535714D01*
X198492758Y-76535714D02*
X198397520Y-76583333D01*
X198397520Y-76583333D02*
X198302282Y-76678571D01*
X198302282Y-76678571D02*
X198254663Y-76821428D01*
X198254663Y-76821428D02*
X198254663Y-76916666D01*
X198254663Y-76916666D02*
X198302282Y-77059523D01*
X198302282Y-77059523D02*
X198349901Y-77107142D01*
X198587996Y-77964285D02*
X199254663Y-77964285D01*
X198207044Y-77726190D02*
X198921329Y-77488095D01*
X198921329Y-77488095D02*
X198921329Y-78107142D01*
X198254663Y-78964285D02*
X198254663Y-78488095D01*
X198254663Y-78488095D02*
X198730853Y-78440476D01*
X198730853Y-78440476D02*
X198683234Y-78488095D01*
X198683234Y-78488095D02*
X198635615Y-78583333D01*
X198635615Y-78583333D02*
X198635615Y-78821428D01*
X198635615Y-78821428D02*
X198683234Y-78916666D01*
X198683234Y-78916666D02*
X198730853Y-78964285D01*
X198730853Y-78964285D02*
X198826091Y-79011904D01*
X198826091Y-79011904D02*
X199064186Y-79011904D01*
X199064186Y-79011904D02*
X199159424Y-78964285D01*
X199159424Y-78964285D02*
X199207044Y-78916666D01*
X199207044Y-78916666D02*
X199254663Y-78821428D01*
X199254663Y-78821428D02*
X199254663Y-78583333D01*
X199254663Y-78583333D02*
X199207044Y-78488095D01*
X199207044Y-78488095D02*
X199159424Y-78440476D01*
X194609424Y-46857142D02*
X194657044Y-46809523D01*
X194657044Y-46809523D02*
X194704663Y-46666666D01*
X194704663Y-46666666D02*
X194704663Y-46571428D01*
X194704663Y-46571428D02*
X194657044Y-46428571D01*
X194657044Y-46428571D02*
X194561805Y-46333333D01*
X194561805Y-46333333D02*
X194466567Y-46285714D01*
X194466567Y-46285714D02*
X194276091Y-46238095D01*
X194276091Y-46238095D02*
X194133234Y-46238095D01*
X194133234Y-46238095D02*
X193942758Y-46285714D01*
X193942758Y-46285714D02*
X193847520Y-46333333D01*
X193847520Y-46333333D02*
X193752282Y-46428571D01*
X193752282Y-46428571D02*
X193704663Y-46571428D01*
X193704663Y-46571428D02*
X193704663Y-46666666D01*
X193704663Y-46666666D02*
X193752282Y-46809523D01*
X193752282Y-46809523D02*
X193799901Y-46857142D01*
X194704663Y-47809523D02*
X194704663Y-47238095D01*
X194704663Y-47523809D02*
X193704663Y-47523809D01*
X193704663Y-47523809D02*
X193847520Y-47428571D01*
X193847520Y-47428571D02*
X193942758Y-47333333D01*
X193942758Y-47333333D02*
X193990377Y-47238095D01*
X193799901Y-48190476D02*
X193752282Y-48238095D01*
X193752282Y-48238095D02*
X193704663Y-48333333D01*
X193704663Y-48333333D02*
X193704663Y-48571428D01*
X193704663Y-48571428D02*
X193752282Y-48666666D01*
X193752282Y-48666666D02*
X193799901Y-48714285D01*
X193799901Y-48714285D02*
X193895139Y-48761904D01*
X193895139Y-48761904D02*
X193990377Y-48761904D01*
X193990377Y-48761904D02*
X194133234Y-48714285D01*
X194133234Y-48714285D02*
X194704663Y-48142857D01*
X194704663Y-48142857D02*
X194704663Y-48761904D01*
X201666667Y-50592956D02*
X201809524Y-50545336D01*
X201809524Y-50545336D02*
X202047619Y-50545336D01*
X202047619Y-50545336D02*
X202142857Y-50592956D01*
X202142857Y-50592956D02*
X202190476Y-50640575D01*
X202190476Y-50640575D02*
X202238095Y-50735813D01*
X202238095Y-50735813D02*
X202238095Y-50831051D01*
X202238095Y-50831051D02*
X202190476Y-50926289D01*
X202190476Y-50926289D02*
X202142857Y-50973908D01*
X202142857Y-50973908D02*
X202047619Y-51021527D01*
X202047619Y-51021527D02*
X201857143Y-51069146D01*
X201857143Y-51069146D02*
X201761905Y-51116765D01*
X201761905Y-51116765D02*
X201714286Y-51164384D01*
X201714286Y-51164384D02*
X201666667Y-51259622D01*
X201666667Y-51259622D02*
X201666667Y-51354860D01*
X201666667Y-51354860D02*
X201714286Y-51450098D01*
X201714286Y-51450098D02*
X201761905Y-51497717D01*
X201761905Y-51497717D02*
X201857143Y-51545336D01*
X201857143Y-51545336D02*
X202095238Y-51545336D01*
X202095238Y-51545336D02*
X202238095Y-51497717D01*
X202571429Y-51545336D02*
X202809524Y-50545336D01*
X202809524Y-50545336D02*
X203000000Y-51259622D01*
X203000000Y-51259622D02*
X203190476Y-50545336D01*
X203190476Y-50545336D02*
X203428572Y-51545336D01*
X203714286Y-51545336D02*
X204333333Y-51545336D01*
X204333333Y-51545336D02*
X204000000Y-51164384D01*
X204000000Y-51164384D02*
X204142857Y-51164384D01*
X204142857Y-51164384D02*
X204238095Y-51116765D01*
X204238095Y-51116765D02*
X204285714Y-51069146D01*
X204285714Y-51069146D02*
X204333333Y-50973908D01*
X204333333Y-50973908D02*
X204333333Y-50735813D01*
X204333333Y-50735813D02*
X204285714Y-50640575D01*
X204285714Y-50640575D02*
X204238095Y-50592956D01*
X204238095Y-50592956D02*
X204142857Y-50545336D01*
X204142857Y-50545336D02*
X203857143Y-50545336D01*
X203857143Y-50545336D02*
X203761905Y-50592956D01*
X203761905Y-50592956D02*
X203714286Y-50640575D01*
X199159424Y-86607142D02*
X199207044Y-86559523D01*
X199207044Y-86559523D02*
X199254663Y-86416666D01*
X199254663Y-86416666D02*
X199254663Y-86321428D01*
X199254663Y-86321428D02*
X199207044Y-86178571D01*
X199207044Y-86178571D02*
X199111805Y-86083333D01*
X199111805Y-86083333D02*
X199016567Y-86035714D01*
X199016567Y-86035714D02*
X198826091Y-85988095D01*
X198826091Y-85988095D02*
X198683234Y-85988095D01*
X198683234Y-85988095D02*
X198492758Y-86035714D01*
X198492758Y-86035714D02*
X198397520Y-86083333D01*
X198397520Y-86083333D02*
X198302282Y-86178571D01*
X198302282Y-86178571D02*
X198254663Y-86321428D01*
X198254663Y-86321428D02*
X198254663Y-86416666D01*
X198254663Y-86416666D02*
X198302282Y-86559523D01*
X198302282Y-86559523D02*
X198349901Y-86607142D01*
X198587996Y-87464285D02*
X199254663Y-87464285D01*
X198207044Y-87226190D02*
X198921329Y-86988095D01*
X198921329Y-86988095D02*
X198921329Y-87607142D01*
X198587996Y-88416666D02*
X199254663Y-88416666D01*
X198207044Y-88178571D02*
X198921329Y-87940476D01*
X198921329Y-87940476D02*
X198921329Y-88559523D01*
X149166667Y-50692956D02*
X149309524Y-50645336D01*
X149309524Y-50645336D02*
X149547619Y-50645336D01*
X149547619Y-50645336D02*
X149642857Y-50692956D01*
X149642857Y-50692956D02*
X149690476Y-50740575D01*
X149690476Y-50740575D02*
X149738095Y-50835813D01*
X149738095Y-50835813D02*
X149738095Y-50931051D01*
X149738095Y-50931051D02*
X149690476Y-51026289D01*
X149690476Y-51026289D02*
X149642857Y-51073908D01*
X149642857Y-51073908D02*
X149547619Y-51121527D01*
X149547619Y-51121527D02*
X149357143Y-51169146D01*
X149357143Y-51169146D02*
X149261905Y-51216765D01*
X149261905Y-51216765D02*
X149214286Y-51264384D01*
X149214286Y-51264384D02*
X149166667Y-51359622D01*
X149166667Y-51359622D02*
X149166667Y-51454860D01*
X149166667Y-51454860D02*
X149214286Y-51550098D01*
X149214286Y-51550098D02*
X149261905Y-51597717D01*
X149261905Y-51597717D02*
X149357143Y-51645336D01*
X149357143Y-51645336D02*
X149595238Y-51645336D01*
X149595238Y-51645336D02*
X149738095Y-51597717D01*
X150071429Y-51645336D02*
X150309524Y-50645336D01*
X150309524Y-50645336D02*
X150500000Y-51359622D01*
X150500000Y-51359622D02*
X150690476Y-50645336D01*
X150690476Y-50645336D02*
X150928572Y-51645336D01*
X151214286Y-51645336D02*
X151880952Y-51645336D01*
X151880952Y-51645336D02*
X151452381Y-50645336D01*
X161666667Y-50692956D02*
X161809524Y-50645336D01*
X161809524Y-50645336D02*
X162047619Y-50645336D01*
X162047619Y-50645336D02*
X162142857Y-50692956D01*
X162142857Y-50692956D02*
X162190476Y-50740575D01*
X162190476Y-50740575D02*
X162238095Y-50835813D01*
X162238095Y-50835813D02*
X162238095Y-50931051D01*
X162238095Y-50931051D02*
X162190476Y-51026289D01*
X162190476Y-51026289D02*
X162142857Y-51073908D01*
X162142857Y-51073908D02*
X162047619Y-51121527D01*
X162047619Y-51121527D02*
X161857143Y-51169146D01*
X161857143Y-51169146D02*
X161761905Y-51216765D01*
X161761905Y-51216765D02*
X161714286Y-51264384D01*
X161714286Y-51264384D02*
X161666667Y-51359622D01*
X161666667Y-51359622D02*
X161666667Y-51454860D01*
X161666667Y-51454860D02*
X161714286Y-51550098D01*
X161714286Y-51550098D02*
X161761905Y-51597717D01*
X161761905Y-51597717D02*
X161857143Y-51645336D01*
X161857143Y-51645336D02*
X162095238Y-51645336D01*
X162095238Y-51645336D02*
X162238095Y-51597717D01*
X162571429Y-51645336D02*
X162809524Y-50645336D01*
X162809524Y-50645336D02*
X163000000Y-51359622D01*
X163000000Y-51359622D02*
X163190476Y-50645336D01*
X163190476Y-50645336D02*
X163428572Y-51645336D01*
X164238095Y-51645336D02*
X164047619Y-51645336D01*
X164047619Y-51645336D02*
X163952381Y-51597717D01*
X163952381Y-51597717D02*
X163904762Y-51550098D01*
X163904762Y-51550098D02*
X163809524Y-51407241D01*
X163809524Y-51407241D02*
X163761905Y-51216765D01*
X163761905Y-51216765D02*
X163761905Y-50835813D01*
X163761905Y-50835813D02*
X163809524Y-50740575D01*
X163809524Y-50740575D02*
X163857143Y-50692956D01*
X163857143Y-50692956D02*
X163952381Y-50645336D01*
X163952381Y-50645336D02*
X164142857Y-50645336D01*
X164142857Y-50645336D02*
X164238095Y-50692956D01*
X164238095Y-50692956D02*
X164285714Y-50740575D01*
X164285714Y-50740575D02*
X164333333Y-50835813D01*
X164333333Y-50835813D02*
X164333333Y-51073908D01*
X164333333Y-51073908D02*
X164285714Y-51169146D01*
X164285714Y-51169146D02*
X164238095Y-51216765D01*
X164238095Y-51216765D02*
X164142857Y-51264384D01*
X164142857Y-51264384D02*
X163952381Y-51264384D01*
X163952381Y-51264384D02*
X163857143Y-51216765D01*
X163857143Y-51216765D02*
X163809524Y-51169146D01*
X163809524Y-51169146D02*
X163761905Y-51073908D01*
X197704663Y-52107142D02*
X197228472Y-51773809D01*
X197704663Y-51535714D02*
X196704663Y-51535714D01*
X196704663Y-51535714D02*
X196704663Y-51916666D01*
X196704663Y-51916666D02*
X196752282Y-52011904D01*
X196752282Y-52011904D02*
X196799901Y-52059523D01*
X196799901Y-52059523D02*
X196895139Y-52107142D01*
X196895139Y-52107142D02*
X197037996Y-52107142D01*
X197037996Y-52107142D02*
X197133234Y-52059523D01*
X197133234Y-52059523D02*
X197180853Y-52011904D01*
X197180853Y-52011904D02*
X197228472Y-51916666D01*
X197228472Y-51916666D02*
X197228472Y-51535714D01*
X196799901Y-52488095D02*
X196752282Y-52535714D01*
X196752282Y-52535714D02*
X196704663Y-52630952D01*
X196704663Y-52630952D02*
X196704663Y-52869047D01*
X196704663Y-52869047D02*
X196752282Y-52964285D01*
X196752282Y-52964285D02*
X196799901Y-53011904D01*
X196799901Y-53011904D02*
X196895139Y-53059523D01*
X196895139Y-53059523D02*
X196990377Y-53059523D01*
X196990377Y-53059523D02*
X197133234Y-53011904D01*
X197133234Y-53011904D02*
X197704663Y-52440476D01*
X197704663Y-52440476D02*
X197704663Y-53059523D01*
X197704663Y-53535714D02*
X197704663Y-53726190D01*
X197704663Y-53726190D02*
X197657044Y-53821428D01*
X197657044Y-53821428D02*
X197609424Y-53869047D01*
X197609424Y-53869047D02*
X197466567Y-53964285D01*
X197466567Y-53964285D02*
X197276091Y-54011904D01*
X197276091Y-54011904D02*
X196895139Y-54011904D01*
X196895139Y-54011904D02*
X196799901Y-53964285D01*
X196799901Y-53964285D02*
X196752282Y-53916666D01*
X196752282Y-53916666D02*
X196704663Y-53821428D01*
X196704663Y-53821428D02*
X196704663Y-53630952D01*
X196704663Y-53630952D02*
X196752282Y-53535714D01*
X196752282Y-53535714D02*
X196799901Y-53488095D01*
X196799901Y-53488095D02*
X196895139Y-53440476D01*
X196895139Y-53440476D02*
X197133234Y-53440476D01*
X197133234Y-53440476D02*
X197228472Y-53488095D01*
X197228472Y-53488095D02*
X197276091Y-53535714D01*
X197276091Y-53535714D02*
X197323710Y-53630952D01*
X197323710Y-53630952D02*
X197323710Y-53821428D01*
X197323710Y-53821428D02*
X197276091Y-53916666D01*
X197276091Y-53916666D02*
X197228472Y-53964285D01*
X197228472Y-53964285D02*
X197133234Y-54011904D01*
X186666667Y-50692956D02*
X186809524Y-50645336D01*
X186809524Y-50645336D02*
X187047619Y-50645336D01*
X187047619Y-50645336D02*
X187142857Y-50692956D01*
X187142857Y-50692956D02*
X187190476Y-50740575D01*
X187190476Y-50740575D02*
X187238095Y-50835813D01*
X187238095Y-50835813D02*
X187238095Y-50931051D01*
X187238095Y-50931051D02*
X187190476Y-51026289D01*
X187190476Y-51026289D02*
X187142857Y-51073908D01*
X187142857Y-51073908D02*
X187047619Y-51121527D01*
X187047619Y-51121527D02*
X186857143Y-51169146D01*
X186857143Y-51169146D02*
X186761905Y-51216765D01*
X186761905Y-51216765D02*
X186714286Y-51264384D01*
X186714286Y-51264384D02*
X186666667Y-51359622D01*
X186666667Y-51359622D02*
X186666667Y-51454860D01*
X186666667Y-51454860D02*
X186714286Y-51550098D01*
X186714286Y-51550098D02*
X186761905Y-51597717D01*
X186761905Y-51597717D02*
X186857143Y-51645336D01*
X186857143Y-51645336D02*
X187095238Y-51645336D01*
X187095238Y-51645336D02*
X187238095Y-51597717D01*
X187571429Y-51645336D02*
X187809524Y-50645336D01*
X187809524Y-50645336D02*
X188000000Y-51359622D01*
X188000000Y-51359622D02*
X188190476Y-50645336D01*
X188190476Y-50645336D02*
X188428572Y-51645336D01*
X189238095Y-51312003D02*
X189238095Y-50645336D01*
X189000000Y-51692956D02*
X188761905Y-50978670D01*
X188761905Y-50978670D02*
X189380952Y-50978670D01*
X144609424Y-46857142D02*
X144657044Y-46809523D01*
X144657044Y-46809523D02*
X144704663Y-46666666D01*
X144704663Y-46666666D02*
X144704663Y-46571428D01*
X144704663Y-46571428D02*
X144657044Y-46428571D01*
X144657044Y-46428571D02*
X144561805Y-46333333D01*
X144561805Y-46333333D02*
X144466567Y-46285714D01*
X144466567Y-46285714D02*
X144276091Y-46238095D01*
X144276091Y-46238095D02*
X144133234Y-46238095D01*
X144133234Y-46238095D02*
X143942758Y-46285714D01*
X143942758Y-46285714D02*
X143847520Y-46333333D01*
X143847520Y-46333333D02*
X143752282Y-46428571D01*
X143752282Y-46428571D02*
X143704663Y-46571428D01*
X143704663Y-46571428D02*
X143704663Y-46666666D01*
X143704663Y-46666666D02*
X143752282Y-46809523D01*
X143752282Y-46809523D02*
X143799901Y-46857142D01*
X144704663Y-47809523D02*
X144704663Y-47238095D01*
X144704663Y-47523809D02*
X143704663Y-47523809D01*
X143704663Y-47523809D02*
X143847520Y-47428571D01*
X143847520Y-47428571D02*
X143942758Y-47333333D01*
X143942758Y-47333333D02*
X143990377Y-47238095D01*
X143704663Y-48666666D02*
X143704663Y-48476190D01*
X143704663Y-48476190D02*
X143752282Y-48380952D01*
X143752282Y-48380952D02*
X143799901Y-48333333D01*
X143799901Y-48333333D02*
X143942758Y-48238095D01*
X143942758Y-48238095D02*
X144133234Y-48190476D01*
X144133234Y-48190476D02*
X144514186Y-48190476D01*
X144514186Y-48190476D02*
X144609424Y-48238095D01*
X144609424Y-48238095D02*
X144657044Y-48285714D01*
X144657044Y-48285714D02*
X144704663Y-48380952D01*
X144704663Y-48380952D02*
X144704663Y-48571428D01*
X144704663Y-48571428D02*
X144657044Y-48666666D01*
X144657044Y-48666666D02*
X144609424Y-48714285D01*
X144609424Y-48714285D02*
X144514186Y-48761904D01*
X144514186Y-48761904D02*
X144276091Y-48761904D01*
X144276091Y-48761904D02*
X144180853Y-48714285D01*
X144180853Y-48714285D02*
X144133234Y-48666666D01*
X144133234Y-48666666D02*
X144085615Y-48571428D01*
X144085615Y-48571428D02*
X144085615Y-48380952D01*
X144085615Y-48380952D02*
X144133234Y-48285714D01*
X144133234Y-48285714D02*
X144180853Y-48238095D01*
X144180853Y-48238095D02*
X144276091Y-48190476D01*
X196204663Y-61607142D02*
X195728472Y-61273809D01*
X196204663Y-61035714D02*
X195204663Y-61035714D01*
X195204663Y-61035714D02*
X195204663Y-61416666D01*
X195204663Y-61416666D02*
X195252282Y-61511904D01*
X195252282Y-61511904D02*
X195299901Y-61559523D01*
X195299901Y-61559523D02*
X195395139Y-61607142D01*
X195395139Y-61607142D02*
X195537996Y-61607142D01*
X195537996Y-61607142D02*
X195633234Y-61559523D01*
X195633234Y-61559523D02*
X195680853Y-61511904D01*
X195680853Y-61511904D02*
X195728472Y-61416666D01*
X195728472Y-61416666D02*
X195728472Y-61035714D01*
X195299901Y-61988095D02*
X195252282Y-62035714D01*
X195252282Y-62035714D02*
X195204663Y-62130952D01*
X195204663Y-62130952D02*
X195204663Y-62369047D01*
X195204663Y-62369047D02*
X195252282Y-62464285D01*
X195252282Y-62464285D02*
X195299901Y-62511904D01*
X195299901Y-62511904D02*
X195395139Y-62559523D01*
X195395139Y-62559523D02*
X195490377Y-62559523D01*
X195490377Y-62559523D02*
X195633234Y-62511904D01*
X195633234Y-62511904D02*
X196204663Y-61940476D01*
X196204663Y-61940476D02*
X196204663Y-62559523D01*
X195204663Y-63416666D02*
X195204663Y-63226190D01*
X195204663Y-63226190D02*
X195252282Y-63130952D01*
X195252282Y-63130952D02*
X195299901Y-63083333D01*
X195299901Y-63083333D02*
X195442758Y-62988095D01*
X195442758Y-62988095D02*
X195633234Y-62940476D01*
X195633234Y-62940476D02*
X196014186Y-62940476D01*
X196014186Y-62940476D02*
X196109424Y-62988095D01*
X196109424Y-62988095D02*
X196157044Y-63035714D01*
X196157044Y-63035714D02*
X196204663Y-63130952D01*
X196204663Y-63130952D02*
X196204663Y-63321428D01*
X196204663Y-63321428D02*
X196157044Y-63416666D01*
X196157044Y-63416666D02*
X196109424Y-63464285D01*
X196109424Y-63464285D02*
X196014186Y-63511904D01*
X196014186Y-63511904D02*
X195776091Y-63511904D01*
X195776091Y-63511904D02*
X195680853Y-63464285D01*
X195680853Y-63464285D02*
X195633234Y-63416666D01*
X195633234Y-63416666D02*
X195585615Y-63321428D01*
X195585615Y-63321428D02*
X195585615Y-63130952D01*
X195585615Y-63130952D02*
X195633234Y-63035714D01*
X195633234Y-63035714D02*
X195680853Y-62988095D01*
X195680853Y-62988095D02*
X195776091Y-62940476D01*
X196254663Y-77107142D02*
X195778472Y-76773809D01*
X196254663Y-76535714D02*
X195254663Y-76535714D01*
X195254663Y-76535714D02*
X195254663Y-76916666D01*
X195254663Y-76916666D02*
X195302282Y-77011904D01*
X195302282Y-77011904D02*
X195349901Y-77059523D01*
X195349901Y-77059523D02*
X195445139Y-77107142D01*
X195445139Y-77107142D02*
X195587996Y-77107142D01*
X195587996Y-77107142D02*
X195683234Y-77059523D01*
X195683234Y-77059523D02*
X195730853Y-77011904D01*
X195730853Y-77011904D02*
X195778472Y-76916666D01*
X195778472Y-76916666D02*
X195778472Y-76535714D01*
X195349901Y-77488095D02*
X195302282Y-77535714D01*
X195302282Y-77535714D02*
X195254663Y-77630952D01*
X195254663Y-77630952D02*
X195254663Y-77869047D01*
X195254663Y-77869047D02*
X195302282Y-77964285D01*
X195302282Y-77964285D02*
X195349901Y-78011904D01*
X195349901Y-78011904D02*
X195445139Y-78059523D01*
X195445139Y-78059523D02*
X195540377Y-78059523D01*
X195540377Y-78059523D02*
X195683234Y-78011904D01*
X195683234Y-78011904D02*
X196254663Y-77440476D01*
X196254663Y-77440476D02*
X196254663Y-78059523D01*
X195587996Y-78916666D02*
X196254663Y-78916666D01*
X195207044Y-78678571D02*
X195921329Y-78440476D01*
X195921329Y-78440476D02*
X195921329Y-79059523D01*
X139333332Y-51407044D02*
X139190475Y-51454663D01*
X139190475Y-51454663D02*
X138952380Y-51454663D01*
X138952380Y-51454663D02*
X138857142Y-51407044D01*
X138857142Y-51407044D02*
X138809523Y-51359424D01*
X138809523Y-51359424D02*
X138761904Y-51264186D01*
X138761904Y-51264186D02*
X138761904Y-51168948D01*
X138761904Y-51168948D02*
X138809523Y-51073710D01*
X138809523Y-51073710D02*
X138857142Y-51026091D01*
X138857142Y-51026091D02*
X138952380Y-50978472D01*
X138952380Y-50978472D02*
X139142856Y-50930853D01*
X139142856Y-50930853D02*
X139238094Y-50883234D01*
X139238094Y-50883234D02*
X139285713Y-50835615D01*
X139285713Y-50835615D02*
X139333332Y-50740377D01*
X139333332Y-50740377D02*
X139333332Y-50645139D01*
X139333332Y-50645139D02*
X139285713Y-50549901D01*
X139285713Y-50549901D02*
X139238094Y-50502282D01*
X139238094Y-50502282D02*
X139142856Y-50454663D01*
X139142856Y-50454663D02*
X138904761Y-50454663D01*
X138904761Y-50454663D02*
X138761904Y-50502282D01*
X138428570Y-50454663D02*
X138190475Y-51454663D01*
X138190475Y-51454663D02*
X137999999Y-50740377D01*
X137999999Y-50740377D02*
X137809523Y-51454663D01*
X137809523Y-51454663D02*
X137571428Y-50454663D01*
X137047618Y-50883234D02*
X137142856Y-50835615D01*
X137142856Y-50835615D02*
X137190475Y-50787996D01*
X137190475Y-50787996D02*
X137238094Y-50692758D01*
X137238094Y-50692758D02*
X137238094Y-50645139D01*
X137238094Y-50645139D02*
X137190475Y-50549901D01*
X137190475Y-50549901D02*
X137142856Y-50502282D01*
X137142856Y-50502282D02*
X137047618Y-50454663D01*
X137047618Y-50454663D02*
X136857142Y-50454663D01*
X136857142Y-50454663D02*
X136761904Y-50502282D01*
X136761904Y-50502282D02*
X136714285Y-50549901D01*
X136714285Y-50549901D02*
X136666666Y-50645139D01*
X136666666Y-50645139D02*
X136666666Y-50692758D01*
X136666666Y-50692758D02*
X136714285Y-50787996D01*
X136714285Y-50787996D02*
X136761904Y-50835615D01*
X136761904Y-50835615D02*
X136857142Y-50883234D01*
X136857142Y-50883234D02*
X137047618Y-50883234D01*
X137047618Y-50883234D02*
X137142856Y-50930853D01*
X137142856Y-50930853D02*
X137190475Y-50978472D01*
X137190475Y-50978472D02*
X137238094Y-51073710D01*
X137238094Y-51073710D02*
X137238094Y-51264186D01*
X137238094Y-51264186D02*
X137190475Y-51359424D01*
X137190475Y-51359424D02*
X137142856Y-51407044D01*
X137142856Y-51407044D02*
X137047618Y-51454663D01*
X137047618Y-51454663D02*
X136857142Y-51454663D01*
X136857142Y-51454663D02*
X136761904Y-51407044D01*
X136761904Y-51407044D02*
X136714285Y-51359424D01*
X136714285Y-51359424D02*
X136666666Y-51264186D01*
X136666666Y-51264186D02*
X136666666Y-51073710D01*
X136666666Y-51073710D02*
X136714285Y-50978472D01*
X136714285Y-50978472D02*
X136761904Y-50930853D01*
X136761904Y-50930853D02*
X136857142Y-50883234D01*
X182109424Y-46857142D02*
X182157044Y-46809523D01*
X182157044Y-46809523D02*
X182204663Y-46666666D01*
X182204663Y-46666666D02*
X182204663Y-46571428D01*
X182204663Y-46571428D02*
X182157044Y-46428571D01*
X182157044Y-46428571D02*
X182061805Y-46333333D01*
X182061805Y-46333333D02*
X181966567Y-46285714D01*
X181966567Y-46285714D02*
X181776091Y-46238095D01*
X181776091Y-46238095D02*
X181633234Y-46238095D01*
X181633234Y-46238095D02*
X181442758Y-46285714D01*
X181442758Y-46285714D02*
X181347520Y-46333333D01*
X181347520Y-46333333D02*
X181252282Y-46428571D01*
X181252282Y-46428571D02*
X181204663Y-46571428D01*
X181204663Y-46571428D02*
X181204663Y-46666666D01*
X181204663Y-46666666D02*
X181252282Y-46809523D01*
X181252282Y-46809523D02*
X181299901Y-46857142D01*
X182204663Y-47809523D02*
X182204663Y-47238095D01*
X182204663Y-47523809D02*
X181204663Y-47523809D01*
X181204663Y-47523809D02*
X181347520Y-47428571D01*
X181347520Y-47428571D02*
X181442758Y-47333333D01*
X181442758Y-47333333D02*
X181490377Y-47238095D01*
X181204663Y-48142857D02*
X181204663Y-48761904D01*
X181204663Y-48761904D02*
X181585615Y-48428571D01*
X181585615Y-48428571D02*
X181585615Y-48571428D01*
X181585615Y-48571428D02*
X181633234Y-48666666D01*
X181633234Y-48666666D02*
X181680853Y-48714285D01*
X181680853Y-48714285D02*
X181776091Y-48761904D01*
X181776091Y-48761904D02*
X182014186Y-48761904D01*
X182014186Y-48761904D02*
X182109424Y-48714285D01*
X182109424Y-48714285D02*
X182157044Y-48666666D01*
X182157044Y-48666666D02*
X182204663Y-48571428D01*
X182204663Y-48571428D02*
X182204663Y-48285714D01*
X182204663Y-48285714D02*
X182157044Y-48190476D01*
X182157044Y-48190476D02*
X182109424Y-48142857D01*
X196204663Y-52032142D02*
X195728472Y-51698809D01*
X196204663Y-51460714D02*
X195204663Y-51460714D01*
X195204663Y-51460714D02*
X195204663Y-51841666D01*
X195204663Y-51841666D02*
X195252282Y-51936904D01*
X195252282Y-51936904D02*
X195299901Y-51984523D01*
X195299901Y-51984523D02*
X195395139Y-52032142D01*
X195395139Y-52032142D02*
X195537996Y-52032142D01*
X195537996Y-52032142D02*
X195633234Y-51984523D01*
X195633234Y-51984523D02*
X195680853Y-51936904D01*
X195680853Y-51936904D02*
X195728472Y-51841666D01*
X195728472Y-51841666D02*
X195728472Y-51460714D01*
X195299901Y-52413095D02*
X195252282Y-52460714D01*
X195252282Y-52460714D02*
X195204663Y-52555952D01*
X195204663Y-52555952D02*
X195204663Y-52794047D01*
X195204663Y-52794047D02*
X195252282Y-52889285D01*
X195252282Y-52889285D02*
X195299901Y-52936904D01*
X195299901Y-52936904D02*
X195395139Y-52984523D01*
X195395139Y-52984523D02*
X195490377Y-52984523D01*
X195490377Y-52984523D02*
X195633234Y-52936904D01*
X195633234Y-52936904D02*
X196204663Y-52365476D01*
X196204663Y-52365476D02*
X196204663Y-52984523D01*
X195633234Y-53555952D02*
X195585615Y-53460714D01*
X195585615Y-53460714D02*
X195537996Y-53413095D01*
X195537996Y-53413095D02*
X195442758Y-53365476D01*
X195442758Y-53365476D02*
X195395139Y-53365476D01*
X195395139Y-53365476D02*
X195299901Y-53413095D01*
X195299901Y-53413095D02*
X195252282Y-53460714D01*
X195252282Y-53460714D02*
X195204663Y-53555952D01*
X195204663Y-53555952D02*
X195204663Y-53746428D01*
X195204663Y-53746428D02*
X195252282Y-53841666D01*
X195252282Y-53841666D02*
X195299901Y-53889285D01*
X195299901Y-53889285D02*
X195395139Y-53936904D01*
X195395139Y-53936904D02*
X195442758Y-53936904D01*
X195442758Y-53936904D02*
X195537996Y-53889285D01*
X195537996Y-53889285D02*
X195585615Y-53841666D01*
X195585615Y-53841666D02*
X195633234Y-53746428D01*
X195633234Y-53746428D02*
X195633234Y-53555952D01*
X195633234Y-53555952D02*
X195680853Y-53460714D01*
X195680853Y-53460714D02*
X195728472Y-53413095D01*
X195728472Y-53413095D02*
X195823710Y-53365476D01*
X195823710Y-53365476D02*
X196014186Y-53365476D01*
X196014186Y-53365476D02*
X196109424Y-53413095D01*
X196109424Y-53413095D02*
X196157044Y-53460714D01*
X196157044Y-53460714D02*
X196204663Y-53555952D01*
X196204663Y-53555952D02*
X196204663Y-53746428D01*
X196204663Y-53746428D02*
X196157044Y-53841666D01*
X196157044Y-53841666D02*
X196109424Y-53889285D01*
X196109424Y-53889285D02*
X196014186Y-53936904D01*
X196014186Y-53936904D02*
X195823710Y-53936904D01*
X195823710Y-53936904D02*
X195728472Y-53889285D01*
X195728472Y-53889285D02*
X195680853Y-53841666D01*
X195680853Y-53841666D02*
X195633234Y-53746428D01*
X157109424Y-46857142D02*
X157157044Y-46809523D01*
X157157044Y-46809523D02*
X157204663Y-46666666D01*
X157204663Y-46666666D02*
X157204663Y-46571428D01*
X157204663Y-46571428D02*
X157157044Y-46428571D01*
X157157044Y-46428571D02*
X157061805Y-46333333D01*
X157061805Y-46333333D02*
X156966567Y-46285714D01*
X156966567Y-46285714D02*
X156776091Y-46238095D01*
X156776091Y-46238095D02*
X156633234Y-46238095D01*
X156633234Y-46238095D02*
X156442758Y-46285714D01*
X156442758Y-46285714D02*
X156347520Y-46333333D01*
X156347520Y-46333333D02*
X156252282Y-46428571D01*
X156252282Y-46428571D02*
X156204663Y-46571428D01*
X156204663Y-46571428D02*
X156204663Y-46666666D01*
X156204663Y-46666666D02*
X156252282Y-46809523D01*
X156252282Y-46809523D02*
X156299901Y-46857142D01*
X157204663Y-47809523D02*
X157204663Y-47238095D01*
X157204663Y-47523809D02*
X156204663Y-47523809D01*
X156204663Y-47523809D02*
X156347520Y-47428571D01*
X156347520Y-47428571D02*
X156442758Y-47333333D01*
X156442758Y-47333333D02*
X156490377Y-47238095D01*
X156204663Y-48714285D02*
X156204663Y-48238095D01*
X156204663Y-48238095D02*
X156680853Y-48190476D01*
X156680853Y-48190476D02*
X156633234Y-48238095D01*
X156633234Y-48238095D02*
X156585615Y-48333333D01*
X156585615Y-48333333D02*
X156585615Y-48571428D01*
X156585615Y-48571428D02*
X156633234Y-48666666D01*
X156633234Y-48666666D02*
X156680853Y-48714285D01*
X156680853Y-48714285D02*
X156776091Y-48761904D01*
X156776091Y-48761904D02*
X157014186Y-48761904D01*
X157014186Y-48761904D02*
X157109424Y-48714285D01*
X157109424Y-48714285D02*
X157157044Y-48666666D01*
X157157044Y-48666666D02*
X157204663Y-48571428D01*
X157204663Y-48571428D02*
X157204663Y-48333333D01*
X157204663Y-48333333D02*
X157157044Y-48238095D01*
X157157044Y-48238095D02*
X157109424Y-48190476D01*
X197754663Y-77107142D02*
X197278472Y-76773809D01*
X197754663Y-76535714D02*
X196754663Y-76535714D01*
X196754663Y-76535714D02*
X196754663Y-76916666D01*
X196754663Y-76916666D02*
X196802282Y-77011904D01*
X196802282Y-77011904D02*
X196849901Y-77059523D01*
X196849901Y-77059523D02*
X196945139Y-77107142D01*
X196945139Y-77107142D02*
X197087996Y-77107142D01*
X197087996Y-77107142D02*
X197183234Y-77059523D01*
X197183234Y-77059523D02*
X197230853Y-77011904D01*
X197230853Y-77011904D02*
X197278472Y-76916666D01*
X197278472Y-76916666D02*
X197278472Y-76535714D01*
X196849901Y-77488095D02*
X196802282Y-77535714D01*
X196802282Y-77535714D02*
X196754663Y-77630952D01*
X196754663Y-77630952D02*
X196754663Y-77869047D01*
X196754663Y-77869047D02*
X196802282Y-77964285D01*
X196802282Y-77964285D02*
X196849901Y-78011904D01*
X196849901Y-78011904D02*
X196945139Y-78059523D01*
X196945139Y-78059523D02*
X197040377Y-78059523D01*
X197040377Y-78059523D02*
X197183234Y-78011904D01*
X197183234Y-78011904D02*
X197754663Y-77440476D01*
X197754663Y-77440476D02*
X197754663Y-78059523D01*
X196754663Y-78964285D02*
X196754663Y-78488095D01*
X196754663Y-78488095D02*
X197230853Y-78440476D01*
X197230853Y-78440476D02*
X197183234Y-78488095D01*
X197183234Y-78488095D02*
X197135615Y-78583333D01*
X197135615Y-78583333D02*
X197135615Y-78821428D01*
X197135615Y-78821428D02*
X197183234Y-78916666D01*
X197183234Y-78916666D02*
X197230853Y-78964285D01*
X197230853Y-78964285D02*
X197326091Y-79011904D01*
X197326091Y-79011904D02*
X197564186Y-79011904D01*
X197564186Y-79011904D02*
X197659424Y-78964285D01*
X197659424Y-78964285D02*
X197707044Y-78916666D01*
X197707044Y-78916666D02*
X197754663Y-78821428D01*
X197754663Y-78821428D02*
X197754663Y-78583333D01*
X197754663Y-78583333D02*
X197707044Y-78488095D01*
X197707044Y-78488095D02*
X197659424Y-78440476D01*
X199109424Y-52107142D02*
X199157044Y-52059523D01*
X199157044Y-52059523D02*
X199204663Y-51916666D01*
X199204663Y-51916666D02*
X199204663Y-51821428D01*
X199204663Y-51821428D02*
X199157044Y-51678571D01*
X199157044Y-51678571D02*
X199061805Y-51583333D01*
X199061805Y-51583333D02*
X198966567Y-51535714D01*
X198966567Y-51535714D02*
X198776091Y-51488095D01*
X198776091Y-51488095D02*
X198633234Y-51488095D01*
X198633234Y-51488095D02*
X198442758Y-51535714D01*
X198442758Y-51535714D02*
X198347520Y-51583333D01*
X198347520Y-51583333D02*
X198252282Y-51678571D01*
X198252282Y-51678571D02*
X198204663Y-51821428D01*
X198204663Y-51821428D02*
X198204663Y-51916666D01*
X198204663Y-51916666D02*
X198252282Y-52059523D01*
X198252282Y-52059523D02*
X198299901Y-52107142D01*
X198537996Y-52964285D02*
X199204663Y-52964285D01*
X198157044Y-52726190D02*
X198871329Y-52488095D01*
X198871329Y-52488095D02*
X198871329Y-53107142D01*
X198204663Y-53392857D02*
X198204663Y-54059523D01*
X198204663Y-54059523D02*
X199204663Y-53630952D01*
X196254663Y-86607142D02*
X195778472Y-86273809D01*
X196254663Y-86035714D02*
X195254663Y-86035714D01*
X195254663Y-86035714D02*
X195254663Y-86416666D01*
X195254663Y-86416666D02*
X195302282Y-86511904D01*
X195302282Y-86511904D02*
X195349901Y-86559523D01*
X195349901Y-86559523D02*
X195445139Y-86607142D01*
X195445139Y-86607142D02*
X195587996Y-86607142D01*
X195587996Y-86607142D02*
X195683234Y-86559523D01*
X195683234Y-86559523D02*
X195730853Y-86511904D01*
X195730853Y-86511904D02*
X195778472Y-86416666D01*
X195778472Y-86416666D02*
X195778472Y-86035714D01*
X195349901Y-86988095D02*
X195302282Y-87035714D01*
X195302282Y-87035714D02*
X195254663Y-87130952D01*
X195254663Y-87130952D02*
X195254663Y-87369047D01*
X195254663Y-87369047D02*
X195302282Y-87464285D01*
X195302282Y-87464285D02*
X195349901Y-87511904D01*
X195349901Y-87511904D02*
X195445139Y-87559523D01*
X195445139Y-87559523D02*
X195540377Y-87559523D01*
X195540377Y-87559523D02*
X195683234Y-87511904D01*
X195683234Y-87511904D02*
X196254663Y-86940476D01*
X196254663Y-86940476D02*
X196254663Y-87559523D01*
X195349901Y-87940476D02*
X195302282Y-87988095D01*
X195302282Y-87988095D02*
X195254663Y-88083333D01*
X195254663Y-88083333D02*
X195254663Y-88321428D01*
X195254663Y-88321428D02*
X195302282Y-88416666D01*
X195302282Y-88416666D02*
X195349901Y-88464285D01*
X195349901Y-88464285D02*
X195445139Y-88511904D01*
X195445139Y-88511904D02*
X195540377Y-88511904D01*
X195540377Y-88511904D02*
X195683234Y-88464285D01*
X195683234Y-88464285D02*
X196254663Y-87892857D01*
X196254663Y-87892857D02*
X196254663Y-88511904D01*
X197754663Y-86607142D02*
X197278472Y-86273809D01*
X197754663Y-86035714D02*
X196754663Y-86035714D01*
X196754663Y-86035714D02*
X196754663Y-86416666D01*
X196754663Y-86416666D02*
X196802282Y-86511904D01*
X196802282Y-86511904D02*
X196849901Y-86559523D01*
X196849901Y-86559523D02*
X196945139Y-86607142D01*
X196945139Y-86607142D02*
X197087996Y-86607142D01*
X197087996Y-86607142D02*
X197183234Y-86559523D01*
X197183234Y-86559523D02*
X197230853Y-86511904D01*
X197230853Y-86511904D02*
X197278472Y-86416666D01*
X197278472Y-86416666D02*
X197278472Y-86035714D01*
X196849901Y-86988095D02*
X196802282Y-87035714D01*
X196802282Y-87035714D02*
X196754663Y-87130952D01*
X196754663Y-87130952D02*
X196754663Y-87369047D01*
X196754663Y-87369047D02*
X196802282Y-87464285D01*
X196802282Y-87464285D02*
X196849901Y-87511904D01*
X196849901Y-87511904D02*
X196945139Y-87559523D01*
X196945139Y-87559523D02*
X197040377Y-87559523D01*
X197040377Y-87559523D02*
X197183234Y-87511904D01*
X197183234Y-87511904D02*
X197754663Y-86940476D01*
X197754663Y-86940476D02*
X197754663Y-87559523D01*
X196754663Y-87892857D02*
X196754663Y-88511904D01*
X196754663Y-88511904D02*
X197135615Y-88178571D01*
X197135615Y-88178571D02*
X197135615Y-88321428D01*
X197135615Y-88321428D02*
X197183234Y-88416666D01*
X197183234Y-88416666D02*
X197230853Y-88464285D01*
X197230853Y-88464285D02*
X197326091Y-88511904D01*
X197326091Y-88511904D02*
X197564186Y-88511904D01*
X197564186Y-88511904D02*
X197659424Y-88464285D01*
X197659424Y-88464285D02*
X197707044Y-88416666D01*
X197707044Y-88416666D02*
X197754663Y-88321428D01*
X197754663Y-88321428D02*
X197754663Y-88035714D01*
X197754663Y-88035714D02*
X197707044Y-87940476D01*
X197707044Y-87940476D02*
X197659424Y-87892857D01*
X132109424Y-46857142D02*
X132157044Y-46809523D01*
X132157044Y-46809523D02*
X132204663Y-46666666D01*
X132204663Y-46666666D02*
X132204663Y-46571428D01*
X132204663Y-46571428D02*
X132157044Y-46428571D01*
X132157044Y-46428571D02*
X132061805Y-46333333D01*
X132061805Y-46333333D02*
X131966567Y-46285714D01*
X131966567Y-46285714D02*
X131776091Y-46238095D01*
X131776091Y-46238095D02*
X131633234Y-46238095D01*
X131633234Y-46238095D02*
X131442758Y-46285714D01*
X131442758Y-46285714D02*
X131347520Y-46333333D01*
X131347520Y-46333333D02*
X131252282Y-46428571D01*
X131252282Y-46428571D02*
X131204663Y-46571428D01*
X131204663Y-46571428D02*
X131204663Y-46666666D01*
X131204663Y-46666666D02*
X131252282Y-46809523D01*
X131252282Y-46809523D02*
X131299901Y-46857142D01*
X132204663Y-47809523D02*
X132204663Y-47238095D01*
X132204663Y-47523809D02*
X131204663Y-47523809D01*
X131204663Y-47523809D02*
X131347520Y-47428571D01*
X131347520Y-47428571D02*
X131442758Y-47333333D01*
X131442758Y-47333333D02*
X131490377Y-47238095D01*
X131204663Y-48142857D02*
X131204663Y-48809523D01*
X131204663Y-48809523D02*
X132204663Y-48380952D01*
X176666667Y-50692956D02*
X176809524Y-50645336D01*
X176809524Y-50645336D02*
X177047619Y-50645336D01*
X177047619Y-50645336D02*
X177142857Y-50692956D01*
X177142857Y-50692956D02*
X177190476Y-50740575D01*
X177190476Y-50740575D02*
X177238095Y-50835813D01*
X177238095Y-50835813D02*
X177238095Y-50931051D01*
X177238095Y-50931051D02*
X177190476Y-51026289D01*
X177190476Y-51026289D02*
X177142857Y-51073908D01*
X177142857Y-51073908D02*
X177047619Y-51121527D01*
X177047619Y-51121527D02*
X176857143Y-51169146D01*
X176857143Y-51169146D02*
X176761905Y-51216765D01*
X176761905Y-51216765D02*
X176714286Y-51264384D01*
X176714286Y-51264384D02*
X176666667Y-51359622D01*
X176666667Y-51359622D02*
X176666667Y-51454860D01*
X176666667Y-51454860D02*
X176714286Y-51550098D01*
X176714286Y-51550098D02*
X176761905Y-51597717D01*
X176761905Y-51597717D02*
X176857143Y-51645336D01*
X176857143Y-51645336D02*
X177095238Y-51645336D01*
X177095238Y-51645336D02*
X177238095Y-51597717D01*
X177571429Y-51645336D02*
X177809524Y-50645336D01*
X177809524Y-50645336D02*
X178000000Y-51359622D01*
X178000000Y-51359622D02*
X178190476Y-50645336D01*
X178190476Y-50645336D02*
X178428572Y-51645336D01*
X179285714Y-51645336D02*
X178809524Y-51645336D01*
X178809524Y-51645336D02*
X178761905Y-51169146D01*
X178761905Y-51169146D02*
X178809524Y-51216765D01*
X178809524Y-51216765D02*
X178904762Y-51264384D01*
X178904762Y-51264384D02*
X179142857Y-51264384D01*
X179142857Y-51264384D02*
X179238095Y-51216765D01*
X179238095Y-51216765D02*
X179285714Y-51169146D01*
X179285714Y-51169146D02*
X179333333Y-51073908D01*
X179333333Y-51073908D02*
X179333333Y-50835813D01*
X179333333Y-50835813D02*
X179285714Y-50740575D01*
X179285714Y-50740575D02*
X179238095Y-50692956D01*
X179238095Y-50692956D02*
X179142857Y-50645336D01*
X179142857Y-50645336D02*
X178904762Y-50645336D01*
X178904762Y-50645336D02*
X178809524Y-50692956D01*
X178809524Y-50692956D02*
X178761905Y-50740575D01*
X169609424Y-46857142D02*
X169657044Y-46809523D01*
X169657044Y-46809523D02*
X169704663Y-46666666D01*
X169704663Y-46666666D02*
X169704663Y-46571428D01*
X169704663Y-46571428D02*
X169657044Y-46428571D01*
X169657044Y-46428571D02*
X169561805Y-46333333D01*
X169561805Y-46333333D02*
X169466567Y-46285714D01*
X169466567Y-46285714D02*
X169276091Y-46238095D01*
X169276091Y-46238095D02*
X169133234Y-46238095D01*
X169133234Y-46238095D02*
X168942758Y-46285714D01*
X168942758Y-46285714D02*
X168847520Y-46333333D01*
X168847520Y-46333333D02*
X168752282Y-46428571D01*
X168752282Y-46428571D02*
X168704663Y-46571428D01*
X168704663Y-46571428D02*
X168704663Y-46666666D01*
X168704663Y-46666666D02*
X168752282Y-46809523D01*
X168752282Y-46809523D02*
X168799901Y-46857142D01*
X169704663Y-47809523D02*
X169704663Y-47238095D01*
X169704663Y-47523809D02*
X168704663Y-47523809D01*
X168704663Y-47523809D02*
X168847520Y-47428571D01*
X168847520Y-47428571D02*
X168942758Y-47333333D01*
X168942758Y-47333333D02*
X168990377Y-47238095D01*
X169037996Y-48666666D02*
X169704663Y-48666666D01*
X168657044Y-48428571D02*
X169371329Y-48190476D01*
X169371329Y-48190476D02*
X169371329Y-48809523D01*
X199109424Y-61607142D02*
X199157044Y-61559523D01*
X199157044Y-61559523D02*
X199204663Y-61416666D01*
X199204663Y-61416666D02*
X199204663Y-61321428D01*
X199204663Y-61321428D02*
X199157044Y-61178571D01*
X199157044Y-61178571D02*
X199061805Y-61083333D01*
X199061805Y-61083333D02*
X198966567Y-61035714D01*
X198966567Y-61035714D02*
X198776091Y-60988095D01*
X198776091Y-60988095D02*
X198633234Y-60988095D01*
X198633234Y-60988095D02*
X198442758Y-61035714D01*
X198442758Y-61035714D02*
X198347520Y-61083333D01*
X198347520Y-61083333D02*
X198252282Y-61178571D01*
X198252282Y-61178571D02*
X198204663Y-61321428D01*
X198204663Y-61321428D02*
X198204663Y-61416666D01*
X198204663Y-61416666D02*
X198252282Y-61559523D01*
X198252282Y-61559523D02*
X198299901Y-61607142D01*
X198537996Y-62464285D02*
X199204663Y-62464285D01*
X198157044Y-62226190D02*
X198871329Y-61988095D01*
X198871329Y-61988095D02*
X198871329Y-62607142D01*
X198204663Y-63416666D02*
X198204663Y-63226190D01*
X198204663Y-63226190D02*
X198252282Y-63130952D01*
X198252282Y-63130952D02*
X198299901Y-63083333D01*
X198299901Y-63083333D02*
X198442758Y-62988095D01*
X198442758Y-62988095D02*
X198633234Y-62940476D01*
X198633234Y-62940476D02*
X199014186Y-62940476D01*
X199014186Y-62940476D02*
X199109424Y-62988095D01*
X199109424Y-62988095D02*
X199157044Y-63035714D01*
X199157044Y-63035714D02*
X199204663Y-63130952D01*
X199204663Y-63130952D02*
X199204663Y-63321428D01*
X199204663Y-63321428D02*
X199157044Y-63416666D01*
X199157044Y-63416666D02*
X199109424Y-63464285D01*
X199109424Y-63464285D02*
X199014186Y-63511904D01*
X199014186Y-63511904D02*
X198776091Y-63511904D01*
X198776091Y-63511904D02*
X198680853Y-63464285D01*
X198680853Y-63464285D02*
X198633234Y-63416666D01*
X198633234Y-63416666D02*
X198585615Y-63321428D01*
X198585615Y-63321428D02*
X198585615Y-63130952D01*
X198585615Y-63130952D02*
X198633234Y-63035714D01*
X198633234Y-63035714D02*
X198680853Y-62988095D01*
X198680853Y-62988095D02*
X198776091Y-62940476D01*
D11*
X138750000Y-67575000D02*
G75*
G02*
X136250000Y-67575000I-1250000J0D01*
G01*
X136250000Y-67575000D02*
G75*
G02*
X138750000Y-67575000I1250000J0D01*
G01*
D12*
X196727500Y-59487258D02*
X196727500Y-59012742D01*
X197772500Y-59487258D02*
X197772500Y-59012742D01*
X198290000Y-80609420D02*
X198290000Y-80890580D01*
X199310000Y-80609420D02*
X199310000Y-80890580D01*
X195240000Y-47359420D02*
X195240000Y-47640580D01*
X196260000Y-47359420D02*
X196260000Y-47640580D01*
X196600000Y-44900000D02*
X204400000Y-44900000D01*
X196600000Y-49300000D02*
X196600000Y-44900000D01*
X197400000Y-50100000D02*
X196600000Y-49300000D01*
X204400000Y-44900000D02*
X204400000Y-50100000D01*
X204400000Y-50100000D02*
X197400000Y-50100000D01*
X198290000Y-84390580D02*
X198290000Y-84109420D01*
X199310000Y-84390580D02*
X199310000Y-84109420D01*
X146600000Y-44900000D02*
X154400000Y-44900000D01*
X146600000Y-49300000D02*
X146600000Y-44900000D01*
X147400000Y-50100000D02*
X146600000Y-49300000D01*
X154400000Y-44900000D02*
X154400000Y-50100000D01*
X154400000Y-50100000D02*
X147400000Y-50100000D01*
X159100000Y-44900000D02*
X166900000Y-44900000D01*
X159100000Y-49300000D02*
X159100000Y-44900000D01*
X159900000Y-50100000D02*
X159100000Y-49300000D01*
X166900000Y-44900000D02*
X166900000Y-50100000D01*
X166900000Y-50100000D02*
X159900000Y-50100000D01*
X196727500Y-55512742D02*
X196727500Y-55987258D01*
X197772500Y-55512742D02*
X197772500Y-55987258D01*
X184100000Y-44900000D02*
X191900000Y-44900000D01*
X184100000Y-49300000D02*
X184100000Y-44900000D01*
X184900000Y-50100000D02*
X184100000Y-49300000D01*
X191900000Y-44900000D02*
X191900000Y-50100000D01*
X191900000Y-50100000D02*
X184900000Y-50100000D01*
X145240000Y-47359420D02*
X145240000Y-47640580D01*
X146260000Y-47359420D02*
X146260000Y-47640580D01*
X195227500Y-59012742D02*
X195227500Y-59487258D01*
X196272500Y-59012742D02*
X196272500Y-59487258D01*
X195277500Y-80987258D02*
X195277500Y-80512742D01*
X196322500Y-80987258D02*
X196322500Y-80512742D01*
X134100000Y-44900000D02*
X141900000Y-44900000D01*
X134100000Y-49300000D02*
X134100000Y-44900000D01*
X134900000Y-50100000D02*
X134100000Y-49300000D01*
X141900000Y-44900000D02*
X141900000Y-50100000D01*
X141900000Y-50100000D02*
X134900000Y-50100000D01*
X182740000Y-47359420D02*
X182740000Y-47640580D01*
X183760000Y-47359420D02*
X183760000Y-47640580D01*
X195227500Y-55987258D02*
X195227500Y-55512742D01*
X196272500Y-55987258D02*
X196272500Y-55512742D01*
X157740000Y-47359420D02*
X157740000Y-47640580D01*
X158760000Y-47359420D02*
X158760000Y-47640580D01*
X196777500Y-80512742D02*
X196777500Y-80987258D01*
X197822500Y-80512742D02*
X197822500Y-80987258D01*
X198240000Y-55609420D02*
X198240000Y-55890580D01*
X199260000Y-55609420D02*
X199260000Y-55890580D01*
X195277500Y-84012742D02*
X195277500Y-84487258D01*
X196322500Y-84012742D02*
X196322500Y-84487258D01*
X196777500Y-84487258D02*
X196777500Y-84012742D01*
X197822500Y-84487258D02*
X197822500Y-84012742D01*
X132740000Y-47359420D02*
X132740000Y-47640580D01*
X133760000Y-47359420D02*
X133760000Y-47640580D01*
X171600000Y-44900000D02*
X179400000Y-44900000D01*
X171600000Y-49300000D02*
X171600000Y-44900000D01*
X172400000Y-50100000D02*
X171600000Y-49300000D01*
X179400000Y-44900000D02*
X179400000Y-50100000D01*
X179400000Y-50100000D02*
X172400000Y-50100000D01*
X170240000Y-47359420D02*
X170240000Y-47640580D01*
X171260000Y-47359420D02*
X171260000Y-47640580D01*
X198240000Y-59390580D02*
X198240000Y-59109420D01*
X199260000Y-59390580D02*
X199260000Y-59109420D01*
%LPC*%
D13*
X175050000Y-44000000D03*
X168450000Y-44000000D03*
D14*
X202250000Y-83750000D03*
X202250000Y-78750000D03*
X202250000Y-81250000D03*
D15*
X137500000Y-67575000D03*
D16*
X174750000Y-52475000D03*
D17*
X174750000Y-55015000D03*
D18*
X135000000Y-85000000D03*
D19*
X135000000Y-85000000D03*
D14*
X202250000Y-61250000D03*
X202250000Y-56250000D03*
X202250000Y-58750000D03*
D20*
X197250000Y-58425000D03*
X197250000Y-60075000D03*
D21*
X198800000Y-81525000D03*
X198800000Y-79975000D03*
X195750000Y-48275000D03*
X195750000Y-46725000D03*
D22*
X197875000Y-49100000D03*
X197875000Y-45900000D03*
X203125000Y-49100000D03*
X203125000Y-45900000D03*
D23*
X198800000Y-83475000D03*
X198800000Y-85025000D03*
D22*
X147875000Y-49100000D03*
X147875000Y-45900000D03*
X153125000Y-49100000D03*
X153125000Y-45900000D03*
X160375000Y-49100000D03*
X160375000Y-45900000D03*
X165625000Y-49100000D03*
X165625000Y-45900000D03*
D24*
X197250000Y-56575000D03*
X197250000Y-54925000D03*
D22*
X185375000Y-49100000D03*
X185375000Y-45900000D03*
X190625000Y-49100000D03*
X190625000Y-45900000D03*
D21*
X145750000Y-48275000D03*
X145750000Y-46725000D03*
D24*
X195750000Y-60075000D03*
X195750000Y-58425000D03*
D20*
X195800000Y-79925000D03*
X195800000Y-81575000D03*
D22*
X135375000Y-49100000D03*
X135375000Y-45900000D03*
X140625000Y-49100000D03*
X140625000Y-45900000D03*
D21*
X183250000Y-48275000D03*
X183250000Y-46725000D03*
D20*
X195750000Y-54925000D03*
X195750000Y-56575000D03*
D21*
X158250000Y-48275000D03*
X158250000Y-46725000D03*
D24*
X197300000Y-81575000D03*
X197300000Y-79925000D03*
D21*
X198750000Y-56525000D03*
X198750000Y-54975000D03*
D24*
X195800000Y-85075000D03*
X195800000Y-83425000D03*
D20*
X197300000Y-83425000D03*
X197300000Y-85075000D03*
D21*
X133250000Y-48275000D03*
X133250000Y-46725000D03*
D22*
X172875000Y-49100000D03*
X172875000Y-45900000D03*
X178125000Y-49100000D03*
X178125000Y-45900000D03*
D21*
X170750000Y-48275000D03*
X170750000Y-46725000D03*
D23*
X198750000Y-58475000D03*
X198750000Y-60025000D03*
%LPD*%
M02*
