%TF.GenerationSoftware,KiCad,Pcbnew,8.0.4*%
%TF.CreationDate,2024-09-21T08:46:16+10:00*%
%TF.ProjectId,hsa_r0,6873615f-7230-42e6-9b69-6361645f7063,rev?*%
%TF.SameCoordinates,Original*%
%TF.FileFunction,Drillmap*%
%TF.FilePolarity,Positive*%
%FSLAX45Y45*%
G04 Gerber Fmt 4.5, Leading zero omitted, Abs format (unit mm)*
G04 Created by KiCad (PCBNEW 8.0.4) date 2024-09-21 08:46:16*
%MOMM*%
%LPD*%
G01*
G04 APERTURE LIST*
%ADD10C,0.100000*%
%ADD11C,0.200000*%
G04 APERTURE END LIST*
D10*
X13000000Y-4250000D02*
X20750000Y-4250000D01*
X20750000Y-9000000D01*
X13000000Y-9000000D01*
X13000000Y-4250000D01*
D11*
X13255777Y-9316484D02*
X13255777Y-9116484D01*
X13255777Y-9116484D02*
X13303396Y-9116484D01*
X13303396Y-9116484D02*
X13331967Y-9126008D01*
X13331967Y-9126008D02*
X13351015Y-9145055D01*
X13351015Y-9145055D02*
X13360539Y-9164103D01*
X13360539Y-9164103D02*
X13370062Y-9202198D01*
X13370062Y-9202198D02*
X13370062Y-9230770D01*
X13370062Y-9230770D02*
X13360539Y-9268865D01*
X13360539Y-9268865D02*
X13351015Y-9287912D01*
X13351015Y-9287912D02*
X13331967Y-9306960D01*
X13331967Y-9306960D02*
X13303396Y-9316484D01*
X13303396Y-9316484D02*
X13255777Y-9316484D01*
X13455777Y-9316484D02*
X13455777Y-9183150D01*
X13455777Y-9221246D02*
X13465301Y-9202198D01*
X13465301Y-9202198D02*
X13474824Y-9192674D01*
X13474824Y-9192674D02*
X13493872Y-9183150D01*
X13493872Y-9183150D02*
X13512920Y-9183150D01*
X13579586Y-9316484D02*
X13579586Y-9183150D01*
X13579586Y-9116484D02*
X13570062Y-9126008D01*
X13570062Y-9126008D02*
X13579586Y-9135531D01*
X13579586Y-9135531D02*
X13589110Y-9126008D01*
X13589110Y-9126008D02*
X13579586Y-9116484D01*
X13579586Y-9116484D02*
X13579586Y-9135531D01*
X13703396Y-9316484D02*
X13684348Y-9306960D01*
X13684348Y-9306960D02*
X13674824Y-9287912D01*
X13674824Y-9287912D02*
X13674824Y-9116484D01*
X13808158Y-9316484D02*
X13789110Y-9306960D01*
X13789110Y-9306960D02*
X13779586Y-9287912D01*
X13779586Y-9287912D02*
X13779586Y-9116484D01*
X14036729Y-9316484D02*
X14036729Y-9116484D01*
X14036729Y-9116484D02*
X14103396Y-9259341D01*
X14103396Y-9259341D02*
X14170062Y-9116484D01*
X14170062Y-9116484D02*
X14170062Y-9316484D01*
X14351015Y-9316484D02*
X14351015Y-9211722D01*
X14351015Y-9211722D02*
X14341491Y-9192674D01*
X14341491Y-9192674D02*
X14322443Y-9183150D01*
X14322443Y-9183150D02*
X14284348Y-9183150D01*
X14284348Y-9183150D02*
X14265301Y-9192674D01*
X14351015Y-9306960D02*
X14331967Y-9316484D01*
X14331967Y-9316484D02*
X14284348Y-9316484D01*
X14284348Y-9316484D02*
X14265301Y-9306960D01*
X14265301Y-9306960D02*
X14255777Y-9287912D01*
X14255777Y-9287912D02*
X14255777Y-9268865D01*
X14255777Y-9268865D02*
X14265301Y-9249817D01*
X14265301Y-9249817D02*
X14284348Y-9240293D01*
X14284348Y-9240293D02*
X14331967Y-9240293D01*
X14331967Y-9240293D02*
X14351015Y-9230770D01*
X14446253Y-9183150D02*
X14446253Y-9383150D01*
X14446253Y-9192674D02*
X14465301Y-9183150D01*
X14465301Y-9183150D02*
X14503396Y-9183150D01*
X14503396Y-9183150D02*
X14522443Y-9192674D01*
X14522443Y-9192674D02*
X14531967Y-9202198D01*
X14531967Y-9202198D02*
X14541491Y-9221246D01*
X14541491Y-9221246D02*
X14541491Y-9278389D01*
X14541491Y-9278389D02*
X14531967Y-9297436D01*
X14531967Y-9297436D02*
X14522443Y-9306960D01*
X14522443Y-9306960D02*
X14503396Y-9316484D01*
X14503396Y-9316484D02*
X14465301Y-9316484D01*
X14465301Y-9316484D02*
X14446253Y-9306960D01*
X14627205Y-9297436D02*
X14636729Y-9306960D01*
X14636729Y-9306960D02*
X14627205Y-9316484D01*
X14627205Y-9316484D02*
X14617682Y-9306960D01*
X14617682Y-9306960D02*
X14627205Y-9297436D01*
X14627205Y-9297436D02*
X14627205Y-9316484D01*
X14627205Y-9192674D02*
X14636729Y-9202198D01*
X14636729Y-9202198D02*
X14627205Y-9211722D01*
X14627205Y-9211722D02*
X14617682Y-9202198D01*
X14617682Y-9202198D02*
X14627205Y-9192674D01*
X14627205Y-9192674D02*
X14627205Y-9211722D01*
M02*
