G04 #@! TF.GenerationSoftware,KiCad,Pcbnew,8.0.4*
G04 #@! TF.CreationDate,2024-09-21T08:46:09+10:00*
G04 #@! TF.ProjectId,hsa_r0,6873615f-7230-42e6-9b69-6361645f7063,rev?*
G04 #@! TF.SameCoordinates,Original*
G04 #@! TF.FileFunction,Copper,L2,Inr*
G04 #@! TF.FilePolarity,Positive*
%FSLAX46Y46*%
G04 Gerber Fmt 4.6, Leading zero omitted, Abs format (unit mm)*
G04 Created by KiCad (PCBNEW 8.0.4) date 2024-09-21 08:46:09*
%MOMM*%
%LPD*%
G01*
G04 APERTURE LIST*
G04 #@! TA.AperFunction,ComponentPad*
%ADD10O,0.900000X1.600000*%
G04 #@! TD*
G04 #@! TA.AperFunction,ComponentPad*
%ADD11C,1.800000*%
G04 #@! TD*
G04 #@! TA.AperFunction,ComponentPad*
%ADD12C,2.000000*%
G04 #@! TD*
G04 #@! TA.AperFunction,ComponentPad*
%ADD13R,1.700000X1.700000*%
G04 #@! TD*
G04 #@! TA.AperFunction,ComponentPad*
%ADD14O,1.700000X1.700000*%
G04 #@! TD*
G04 #@! TA.AperFunction,ComponentPad*
%ADD15C,3.600000*%
G04 #@! TD*
G04 #@! TA.AperFunction,ViaPad*
%ADD16C,0.800000*%
G04 #@! TD*
G04 #@! TA.AperFunction,ViaPad*
%ADD17C,0.600000*%
G04 #@! TD*
G04 APERTURE END LIST*
D10*
X175050000Y-44000000D03*
X168450000Y-44000000D03*
D11*
X202250000Y-83750000D03*
X202250000Y-78750000D03*
X202250000Y-81250000D03*
D12*
X137500000Y-67575000D03*
D13*
X174750000Y-52475000D03*
D14*
X174750000Y-55015000D03*
D15*
X135000000Y-85000000D03*
D11*
X202250000Y-61250000D03*
X202250000Y-56250000D03*
X202250000Y-58750000D03*
D16*
X182750000Y-79500000D03*
X195000000Y-82500000D03*
X185500000Y-71500000D03*
X189250000Y-54500000D03*
X195000000Y-57500000D03*
X162250000Y-87000000D03*
X167750000Y-59250000D03*
X165500000Y-78500000D03*
X162250000Y-68500000D03*
X186760398Y-66737271D03*
X184500000Y-79500000D03*
X187750000Y-54500000D03*
X193750000Y-87000000D03*
X193000000Y-71750000D03*
X187250000Y-62500000D03*
X184750000Y-54500000D03*
X167500000Y-87000000D03*
X177250000Y-87000000D03*
X186250000Y-54500000D03*
X180500000Y-83000000D03*
X185500000Y-74500000D03*
X181000000Y-59250000D03*
X191000000Y-63000000D03*
D17*
X193750000Y-88250000D03*
D16*
X155500000Y-61750000D03*
X145000000Y-80500000D03*
D17*
X155750000Y-67500000D03*
X132500000Y-62500000D03*
X194250000Y-76250000D03*
X132500000Y-77500000D03*
X135000000Y-62500000D03*
X171500000Y-54250000D03*
D16*
X182500000Y-59250000D03*
D17*
X205000000Y-75000000D03*
D16*
X179750000Y-45997500D03*
X190750000Y-55000000D03*
D17*
X163750000Y-65000000D03*
D16*
X153475000Y-52250000D03*
X187500000Y-69500000D03*
D17*
X163750000Y-62500000D03*
X158500000Y-64250000D03*
X145000000Y-66500000D03*
D16*
X147250000Y-81000000D03*
D17*
X147500000Y-87500000D03*
D16*
X200250000Y-57250000D03*
D17*
X132500000Y-67500000D03*
D16*
X195750000Y-45500000D03*
D17*
X132500000Y-72500000D03*
X140000000Y-72500000D03*
X171500000Y-50250000D03*
X182500000Y-56500000D03*
X180000000Y-75000000D03*
X148000000Y-71250000D03*
X180000000Y-70000000D03*
X166500000Y-55250000D03*
D16*
X170500000Y-57750000D03*
X176000000Y-83000000D03*
X164000000Y-77750000D03*
D17*
X197500000Y-72500000D03*
X167500000Y-54250000D03*
D16*
X152000000Y-74250000D03*
X151000000Y-62750000D03*
D17*
X170000000Y-75000000D03*
D16*
X144725000Y-51250000D03*
D17*
X196000000Y-62000000D03*
X194500000Y-81500000D03*
D16*
X190750000Y-66500000D03*
X156250000Y-73000000D03*
D17*
X192250000Y-64500000D03*
X194250000Y-58500000D03*
D16*
X145750000Y-45500000D03*
D17*
X200000000Y-70000000D03*
D16*
X184500000Y-68750000D03*
X182750000Y-62500000D03*
D17*
X182250000Y-81500000D03*
D16*
X189500000Y-78000000D03*
X169250000Y-59250000D03*
D17*
X197500000Y-67500000D03*
D16*
X163000000Y-43750000D03*
D17*
X195250000Y-69750000D03*
D16*
X153475000Y-53250000D03*
X141500000Y-81250000D03*
X133250000Y-45500000D03*
X143000000Y-81250000D03*
D17*
X192500000Y-60000000D03*
D16*
X160750000Y-68500000D03*
X144750000Y-64000000D03*
D17*
X175000000Y-65000000D03*
X191500000Y-74250000D03*
X202000000Y-63250000D03*
X205000000Y-70000000D03*
X175000000Y-75000000D03*
X152500000Y-87500000D03*
X148250000Y-76750000D03*
X205000000Y-65000000D03*
D16*
X159000000Y-74000000D03*
X181750000Y-44250000D03*
X189250000Y-86500000D03*
D17*
X147000000Y-79000000D03*
D16*
X193000000Y-73250000D03*
X179250000Y-44250000D03*
D17*
X170000000Y-79250000D03*
X150000000Y-85000000D03*
D16*
X138250000Y-61500000D03*
X166250000Y-87000000D03*
X191750000Y-81000000D03*
D17*
X177250000Y-60500000D03*
X200000000Y-65000000D03*
D16*
X180500000Y-44250000D03*
D17*
X187500000Y-57500000D03*
X166250000Y-79750000D03*
X170000000Y-70000000D03*
X169250000Y-48250000D03*
X137500000Y-77500000D03*
D16*
X145250000Y-71750000D03*
D17*
X155500000Y-57000000D03*
D16*
X132250000Y-59000000D03*
D17*
X190000000Y-60000000D03*
D16*
X159250000Y-68500000D03*
X153750000Y-81250000D03*
X168750000Y-87000000D03*
D17*
X167250000Y-62500000D03*
X170000000Y-65000000D03*
D16*
X178750000Y-79500000D03*
D17*
X154500000Y-69500000D03*
X152000000Y-80750000D03*
X142500000Y-87500000D03*
X145000000Y-85000000D03*
X178750000Y-57500000D03*
X175000000Y-70000000D03*
D16*
X183250000Y-55000000D03*
X146762653Y-67512653D03*
X152975000Y-59000000D03*
X185500000Y-76000000D03*
D17*
X163750000Y-67500000D03*
X200000000Y-52500000D03*
X200000000Y-75000000D03*
D16*
X158500000Y-61750000D03*
D17*
X140500000Y-66500000D03*
X140000000Y-85000000D03*
D16*
X132250000Y-52500000D03*
X200000000Y-61000000D03*
D17*
X197500000Y-87500000D03*
X135000000Y-80000000D03*
X202500000Y-67500000D03*
X149000000Y-72750000D03*
X135000000Y-75000000D03*
X180000000Y-65000000D03*
D16*
X193000000Y-70250000D03*
D17*
X163750000Y-60000000D03*
X137500000Y-55750000D03*
D16*
X185500000Y-73000000D03*
D17*
X202500000Y-72500000D03*
X164500000Y-73750000D03*
X195000000Y-52500000D03*
X152500000Y-64250000D03*
D16*
X153475000Y-54250000D03*
X176250000Y-59500000D03*
X175750000Y-58500000D03*
X175250000Y-57500000D03*
X174250000Y-57000000D03*
X173000000Y-57000000D03*
X172250000Y-57750000D03*
X152000000Y-78250000D03*
X150975000Y-52750000D03*
X150975000Y-54000000D03*
X137750000Y-52500000D03*
X150975000Y-51500000D03*
X147500000Y-73250000D03*
X141500000Y-74250000D03*
X151000000Y-65750000D03*
X153750000Y-74250000D03*
X150250000Y-64000000D03*
X148750000Y-66500000D03*
X155500000Y-58250000D03*
X157750000Y-68500000D03*
X142000000Y-66500000D03*
X142250000Y-72250000D03*
X166012653Y-58262653D03*
X165750000Y-72750000D03*
X165000000Y-58250000D03*
X165750000Y-74000000D03*
X163250000Y-46750000D03*
X164250000Y-46750000D03*
X161750002Y-45750000D03*
X164250000Y-82250000D03*
X173750000Y-82250000D03*
X181250000Y-65000000D03*
X192250000Y-79250000D03*
X184750000Y-81250000D03*
X181250000Y-76000000D03*
X177500000Y-76250000D03*
X176500000Y-76250000D03*
X175250000Y-79250000D03*
X177000000Y-79000000D03*
G04 #@! TA.AperFunction,Conductor*
G36*
X167442539Y-43769685D02*
G01*
X167488294Y-43822489D01*
X167499500Y-43874000D01*
X167499500Y-44443620D01*
X167536025Y-44627243D01*
X167536027Y-44627251D01*
X167607676Y-44800228D01*
X167607681Y-44800237D01*
X167711697Y-44955907D01*
X167711700Y-44955911D01*
X167844088Y-45088299D01*
X167844092Y-45088302D01*
X167999762Y-45192318D01*
X167999768Y-45192321D01*
X167999769Y-45192322D01*
X168172749Y-45263973D01*
X168356379Y-45300499D01*
X168356383Y-45300500D01*
X168356384Y-45300500D01*
X168543617Y-45300500D01*
X168543618Y-45300499D01*
X168727251Y-45263973D01*
X168900231Y-45192322D01*
X169055908Y-45088302D01*
X169188302Y-44955908D01*
X169292322Y-44800231D01*
X169363973Y-44627251D01*
X169400500Y-44443616D01*
X169400500Y-43874000D01*
X169420185Y-43806961D01*
X169472989Y-43761206D01*
X169524500Y-43750000D01*
X173975500Y-43750000D01*
X174042539Y-43769685D01*
X174088294Y-43822489D01*
X174099500Y-43874000D01*
X174099500Y-44443620D01*
X174136025Y-44627243D01*
X174136027Y-44627251D01*
X174207676Y-44800228D01*
X174207681Y-44800237D01*
X174311697Y-44955907D01*
X174311700Y-44955911D01*
X174444088Y-45088299D01*
X174444092Y-45088302D01*
X174599762Y-45192318D01*
X174599768Y-45192321D01*
X174599769Y-45192322D01*
X174772749Y-45263973D01*
X174956379Y-45300499D01*
X174956383Y-45300500D01*
X174956384Y-45300500D01*
X175143617Y-45300500D01*
X175143618Y-45300499D01*
X175327251Y-45263973D01*
X175500231Y-45192322D01*
X175655908Y-45088302D01*
X175788302Y-44955908D01*
X175892322Y-44800231D01*
X175963973Y-44627251D01*
X176000500Y-44443616D01*
X176000500Y-43874000D01*
X176020185Y-43806961D01*
X176072989Y-43761206D01*
X176124500Y-43750000D01*
X206126000Y-43750000D01*
X206193039Y-43769685D01*
X206238794Y-43822489D01*
X206250000Y-43874000D01*
X206250000Y-88626000D01*
X206230315Y-88693039D01*
X206177511Y-88738794D01*
X206126000Y-88750000D01*
X158624000Y-88750000D01*
X158556961Y-88730315D01*
X158511206Y-88677511D01*
X158500000Y-88626000D01*
X158500000Y-87000000D01*
X161344540Y-87000000D01*
X161364326Y-87188256D01*
X161364327Y-87188259D01*
X161422818Y-87368277D01*
X161422821Y-87368284D01*
X161517467Y-87532216D01*
X161644129Y-87672888D01*
X161797265Y-87784148D01*
X161797270Y-87784151D01*
X161970192Y-87861142D01*
X161970197Y-87861144D01*
X162155354Y-87900500D01*
X162155355Y-87900500D01*
X162344644Y-87900500D01*
X162344646Y-87900500D01*
X162529803Y-87861144D01*
X162702730Y-87784151D01*
X162855871Y-87672888D01*
X162982533Y-87532216D01*
X163077179Y-87368284D01*
X163135674Y-87188256D01*
X163155460Y-87000000D01*
X166594540Y-87000000D01*
X166614326Y-87188256D01*
X166614327Y-87188259D01*
X166672818Y-87368277D01*
X166672821Y-87368284D01*
X166767467Y-87532216D01*
X166894129Y-87672888D01*
X167047265Y-87784148D01*
X167047270Y-87784151D01*
X167220192Y-87861142D01*
X167220197Y-87861144D01*
X167405354Y-87900500D01*
X167405355Y-87900500D01*
X167594644Y-87900500D01*
X167594646Y-87900500D01*
X167779803Y-87861144D01*
X167952730Y-87784151D01*
X168105871Y-87672888D01*
X168232533Y-87532216D01*
X168327179Y-87368284D01*
X168385674Y-87188256D01*
X168405460Y-87000000D01*
X176344540Y-87000000D01*
X176364326Y-87188256D01*
X176364327Y-87188259D01*
X176422818Y-87368277D01*
X176422821Y-87368284D01*
X176517467Y-87532216D01*
X176644129Y-87672888D01*
X176797265Y-87784148D01*
X176797270Y-87784151D01*
X176970192Y-87861142D01*
X176970197Y-87861144D01*
X177155354Y-87900500D01*
X177155355Y-87900500D01*
X177344644Y-87900500D01*
X177344646Y-87900500D01*
X177529803Y-87861144D01*
X177702730Y-87784151D01*
X177855871Y-87672888D01*
X177982533Y-87532216D01*
X178077179Y-87368284D01*
X178135674Y-87188256D01*
X178155460Y-87000000D01*
X192844540Y-87000000D01*
X192864326Y-87188256D01*
X192864327Y-87188259D01*
X192922818Y-87368277D01*
X192922821Y-87368284D01*
X193017467Y-87532216D01*
X193144129Y-87672888D01*
X193297265Y-87784148D01*
X193297270Y-87784151D01*
X193470192Y-87861142D01*
X193470197Y-87861144D01*
X193655354Y-87900500D01*
X193655355Y-87900500D01*
X193844644Y-87900500D01*
X193844646Y-87900500D01*
X194029803Y-87861144D01*
X194202730Y-87784151D01*
X194355871Y-87672888D01*
X194482533Y-87532216D01*
X194577179Y-87368284D01*
X194635674Y-87188256D01*
X194655460Y-87000000D01*
X194635674Y-86811744D01*
X194577179Y-86631716D01*
X194482533Y-86467784D01*
X194355871Y-86327112D01*
X194355870Y-86327111D01*
X194202734Y-86215851D01*
X194202729Y-86215848D01*
X194029807Y-86138857D01*
X194029802Y-86138855D01*
X193884001Y-86107865D01*
X193844646Y-86099500D01*
X193655354Y-86099500D01*
X193622897Y-86106398D01*
X193470197Y-86138855D01*
X193470192Y-86138857D01*
X193297270Y-86215848D01*
X193297265Y-86215851D01*
X193144129Y-86327111D01*
X193017466Y-86467785D01*
X192922821Y-86631715D01*
X192922818Y-86631722D01*
X192869758Y-86795025D01*
X192864326Y-86811744D01*
X192844540Y-87000000D01*
X178155460Y-87000000D01*
X178135674Y-86811744D01*
X178077179Y-86631716D01*
X177982533Y-86467784D01*
X177855871Y-86327112D01*
X177855870Y-86327111D01*
X177702734Y-86215851D01*
X177702729Y-86215848D01*
X177529807Y-86138857D01*
X177529802Y-86138855D01*
X177384001Y-86107865D01*
X177344646Y-86099500D01*
X177155354Y-86099500D01*
X177122897Y-86106398D01*
X176970197Y-86138855D01*
X176970192Y-86138857D01*
X176797270Y-86215848D01*
X176797265Y-86215851D01*
X176644129Y-86327111D01*
X176517466Y-86467785D01*
X176422821Y-86631715D01*
X176422818Y-86631722D01*
X176369758Y-86795025D01*
X176364326Y-86811744D01*
X176344540Y-87000000D01*
X168405460Y-87000000D01*
X168385674Y-86811744D01*
X168327179Y-86631716D01*
X168232533Y-86467784D01*
X168105871Y-86327112D01*
X168105870Y-86327111D01*
X167952734Y-86215851D01*
X167952729Y-86215848D01*
X167779807Y-86138857D01*
X167779802Y-86138855D01*
X167634001Y-86107865D01*
X167594646Y-86099500D01*
X167405354Y-86099500D01*
X167372897Y-86106398D01*
X167220197Y-86138855D01*
X167220192Y-86138857D01*
X167047270Y-86215848D01*
X167047265Y-86215851D01*
X166894129Y-86327111D01*
X166767466Y-86467785D01*
X166672821Y-86631715D01*
X166672818Y-86631722D01*
X166619758Y-86795025D01*
X166614326Y-86811744D01*
X166594540Y-87000000D01*
X163155460Y-87000000D01*
X163135674Y-86811744D01*
X163077179Y-86631716D01*
X162982533Y-86467784D01*
X162855871Y-86327112D01*
X162855870Y-86327111D01*
X162702734Y-86215851D01*
X162702729Y-86215848D01*
X162529807Y-86138857D01*
X162529802Y-86138855D01*
X162384001Y-86107865D01*
X162344646Y-86099500D01*
X162155354Y-86099500D01*
X162122897Y-86106398D01*
X161970197Y-86138855D01*
X161970192Y-86138857D01*
X161797270Y-86215848D01*
X161797265Y-86215851D01*
X161644129Y-86327111D01*
X161517466Y-86467785D01*
X161422821Y-86631715D01*
X161422818Y-86631722D01*
X161369758Y-86795025D01*
X161364326Y-86811744D01*
X161344540Y-87000000D01*
X158500000Y-87000000D01*
X158500000Y-82250000D01*
X163344540Y-82250000D01*
X163364326Y-82438256D01*
X163364327Y-82438259D01*
X163422818Y-82618277D01*
X163422821Y-82618284D01*
X163517467Y-82782216D01*
X163611682Y-82886852D01*
X163644129Y-82922888D01*
X163797265Y-83034148D01*
X163797270Y-83034151D01*
X163970192Y-83111142D01*
X163970197Y-83111144D01*
X164155354Y-83150500D01*
X164155355Y-83150500D01*
X164344644Y-83150500D01*
X164344646Y-83150500D01*
X164529803Y-83111144D01*
X164702730Y-83034151D01*
X164855871Y-82922888D01*
X164982533Y-82782216D01*
X165077179Y-82618284D01*
X165135674Y-82438256D01*
X165155460Y-82250000D01*
X172844540Y-82250000D01*
X172864326Y-82438256D01*
X172864327Y-82438259D01*
X172922818Y-82618277D01*
X172922821Y-82618284D01*
X173017467Y-82782216D01*
X173111682Y-82886852D01*
X173144129Y-82922888D01*
X173297265Y-83034148D01*
X173297270Y-83034151D01*
X173470192Y-83111142D01*
X173470197Y-83111144D01*
X173655354Y-83150500D01*
X173655355Y-83150500D01*
X173844644Y-83150500D01*
X173844646Y-83150500D01*
X174029803Y-83111144D01*
X174202730Y-83034151D01*
X174249735Y-83000000D01*
X179594540Y-83000000D01*
X179614326Y-83188256D01*
X179614327Y-83188259D01*
X179672818Y-83368277D01*
X179672821Y-83368284D01*
X179767467Y-83532216D01*
X179894129Y-83672888D01*
X180047265Y-83784148D01*
X180047270Y-83784151D01*
X180220192Y-83861142D01*
X180220197Y-83861144D01*
X180405354Y-83900500D01*
X180405355Y-83900500D01*
X180594644Y-83900500D01*
X180594646Y-83900500D01*
X180779803Y-83861144D01*
X180952730Y-83784151D01*
X181105871Y-83672888D01*
X181232533Y-83532216D01*
X181327179Y-83368284D01*
X181385674Y-83188256D01*
X181405460Y-83000000D01*
X181385674Y-82811744D01*
X181327179Y-82631716D01*
X181251133Y-82500000D01*
X194094540Y-82500000D01*
X194114326Y-82688256D01*
X194114327Y-82688259D01*
X194172818Y-82868277D01*
X194172821Y-82868284D01*
X194267467Y-83032216D01*
X194373971Y-83150500D01*
X194394129Y-83172888D01*
X194547265Y-83284148D01*
X194547270Y-83284151D01*
X194720192Y-83361142D01*
X194720197Y-83361144D01*
X194905354Y-83400500D01*
X194905355Y-83400500D01*
X195094644Y-83400500D01*
X195094646Y-83400500D01*
X195279803Y-83361144D01*
X195452730Y-83284151D01*
X195605871Y-83172888D01*
X195732533Y-83032216D01*
X195827179Y-82868284D01*
X195885674Y-82688256D01*
X195905460Y-82500000D01*
X195885674Y-82311744D01*
X195827179Y-82131716D01*
X195732533Y-81967784D01*
X195605871Y-81827112D01*
X195544077Y-81782216D01*
X195452734Y-81715851D01*
X195452729Y-81715848D01*
X195279807Y-81638857D01*
X195279802Y-81638855D01*
X195113714Y-81603553D01*
X195094646Y-81599500D01*
X194905354Y-81599500D01*
X194886286Y-81603553D01*
X194720197Y-81638855D01*
X194720192Y-81638857D01*
X194547270Y-81715848D01*
X194547265Y-81715851D01*
X194394129Y-81827111D01*
X194267466Y-81967785D01*
X194172821Y-82131715D01*
X194172818Y-82131722D01*
X194114327Y-82311740D01*
X194114326Y-82311744D01*
X194094540Y-82500000D01*
X181251133Y-82500000D01*
X181232533Y-82467784D01*
X181105871Y-82327112D01*
X181084719Y-82311744D01*
X180952734Y-82215851D01*
X180952729Y-82215848D01*
X180779807Y-82138857D01*
X180779802Y-82138855D01*
X180634001Y-82107865D01*
X180594646Y-82099500D01*
X180405354Y-82099500D01*
X180372897Y-82106398D01*
X180220197Y-82138855D01*
X180220192Y-82138857D01*
X180047270Y-82215848D01*
X180047265Y-82215851D01*
X179894129Y-82327111D01*
X179767466Y-82467785D01*
X179672821Y-82631715D01*
X179672818Y-82631722D01*
X179623921Y-82782214D01*
X179614326Y-82811744D01*
X179594540Y-83000000D01*
X174249735Y-83000000D01*
X174355871Y-82922888D01*
X174482533Y-82782216D01*
X174577179Y-82618284D01*
X174635674Y-82438256D01*
X174655460Y-82250000D01*
X174635674Y-82061744D01*
X174577179Y-81881716D01*
X174482533Y-81717784D01*
X174355871Y-81577112D01*
X174328199Y-81557007D01*
X174202734Y-81465851D01*
X174202729Y-81465848D01*
X174029807Y-81388857D01*
X174029802Y-81388855D01*
X173884001Y-81357865D01*
X173844646Y-81349500D01*
X173655354Y-81349500D01*
X173622897Y-81356398D01*
X173470197Y-81388855D01*
X173470192Y-81388857D01*
X173297270Y-81465848D01*
X173297265Y-81465851D01*
X173144129Y-81577111D01*
X173017466Y-81717785D01*
X172922821Y-81881715D01*
X172922818Y-81881722D01*
X172868911Y-82047633D01*
X172864326Y-82061744D01*
X172844540Y-82250000D01*
X165155460Y-82250000D01*
X165135674Y-82061744D01*
X165077179Y-81881716D01*
X164982533Y-81717784D01*
X164855871Y-81577112D01*
X164828199Y-81557007D01*
X164702734Y-81465851D01*
X164702729Y-81465848D01*
X164529807Y-81388857D01*
X164529802Y-81388855D01*
X164384001Y-81357865D01*
X164344646Y-81349500D01*
X164155354Y-81349500D01*
X164122897Y-81356398D01*
X163970197Y-81388855D01*
X163970192Y-81388857D01*
X163797270Y-81465848D01*
X163797265Y-81465851D01*
X163644129Y-81577111D01*
X163517466Y-81717785D01*
X163422821Y-81881715D01*
X163422818Y-81881722D01*
X163368911Y-82047633D01*
X163364326Y-82061744D01*
X163344540Y-82250000D01*
X158500000Y-82250000D01*
X158500000Y-78500000D01*
X164594540Y-78500000D01*
X164614326Y-78688256D01*
X164614327Y-78688259D01*
X164672818Y-78868277D01*
X164672821Y-78868284D01*
X164767467Y-79032216D01*
X164857063Y-79131722D01*
X164894129Y-79172888D01*
X165047265Y-79284148D01*
X165047270Y-79284151D01*
X165220192Y-79361142D01*
X165220197Y-79361144D01*
X165405354Y-79400500D01*
X165405355Y-79400500D01*
X165594644Y-79400500D01*
X165594646Y-79400500D01*
X165779803Y-79361144D01*
X165952730Y-79284151D01*
X165999735Y-79250000D01*
X174344540Y-79250000D01*
X174364326Y-79438256D01*
X174364327Y-79438259D01*
X174422818Y-79618277D01*
X174422821Y-79618284D01*
X174517467Y-79782216D01*
X174623971Y-79900500D01*
X174644129Y-79922888D01*
X174797265Y-80034148D01*
X174797270Y-80034151D01*
X174970192Y-80111142D01*
X174970197Y-80111144D01*
X175155354Y-80150500D01*
X175155355Y-80150500D01*
X175344644Y-80150500D01*
X175344646Y-80150500D01*
X175529803Y-80111144D01*
X175702730Y-80034151D01*
X175855871Y-79922888D01*
X175982533Y-79782216D01*
X176077179Y-79618284D01*
X176081817Y-79604008D01*
X176121252Y-79546332D01*
X176185609Y-79519132D01*
X176254456Y-79531044D01*
X176291897Y-79559349D01*
X176394129Y-79672888D01*
X176427992Y-79697491D01*
X176547265Y-79784148D01*
X176547270Y-79784151D01*
X176720192Y-79861142D01*
X176720197Y-79861144D01*
X176905354Y-79900500D01*
X176905355Y-79900500D01*
X177094644Y-79900500D01*
X177094646Y-79900500D01*
X177279803Y-79861144D01*
X177452730Y-79784151D01*
X177605871Y-79672888D01*
X177732533Y-79532216D01*
X177751133Y-79500000D01*
X181844540Y-79500000D01*
X181864326Y-79688256D01*
X181864327Y-79688259D01*
X181922818Y-79868277D01*
X181922821Y-79868284D01*
X182017467Y-80032216D01*
X182123971Y-80150500D01*
X182144129Y-80172888D01*
X182297265Y-80284148D01*
X182297270Y-80284151D01*
X182470192Y-80361142D01*
X182470197Y-80361144D01*
X182655354Y-80400500D01*
X182655355Y-80400500D01*
X182844644Y-80400500D01*
X182844646Y-80400500D01*
X183029803Y-80361144D01*
X183202730Y-80284151D01*
X183355871Y-80172888D01*
X183482533Y-80032216D01*
X183517613Y-79971454D01*
X183568179Y-79923240D01*
X183636786Y-79910016D01*
X183701651Y-79935984D01*
X183732385Y-79971453D01*
X183765579Y-80028946D01*
X183767467Y-80032216D01*
X183894129Y-80172888D01*
X184047265Y-80284148D01*
X184047270Y-80284151D01*
X184161135Y-80334848D01*
X184214372Y-80380098D01*
X184234693Y-80446948D01*
X184215647Y-80514171D01*
X184183586Y-80548444D01*
X184144128Y-80577112D01*
X184017466Y-80717785D01*
X183922821Y-80881715D01*
X183922818Y-80881722D01*
X183865865Y-81057007D01*
X183864326Y-81061744D01*
X183844540Y-81250000D01*
X183864326Y-81438256D01*
X183864327Y-81438259D01*
X183922818Y-81618277D01*
X183922821Y-81618284D01*
X184017467Y-81782216D01*
X184107063Y-81881722D01*
X184144129Y-81922888D01*
X184297265Y-82034148D01*
X184297270Y-82034151D01*
X184470192Y-82111142D01*
X184470197Y-82111144D01*
X184655354Y-82150500D01*
X184655355Y-82150500D01*
X184844644Y-82150500D01*
X184844646Y-82150500D01*
X185029803Y-82111144D01*
X185202730Y-82034151D01*
X185355871Y-81922888D01*
X185482533Y-81782216D01*
X185577179Y-81618284D01*
X185635674Y-81438256D01*
X185655460Y-81250000D01*
X185635674Y-81061744D01*
X185577179Y-80881716D01*
X185482533Y-80717784D01*
X185355871Y-80577112D01*
X185316413Y-80548444D01*
X185202734Y-80465851D01*
X185202732Y-80465850D01*
X185088863Y-80415151D01*
X185035627Y-80369900D01*
X185015306Y-80303051D01*
X185034352Y-80235827D01*
X185066414Y-80201554D01*
X185105871Y-80172888D01*
X185232533Y-80032216D01*
X185327179Y-79868284D01*
X185385674Y-79688256D01*
X185405460Y-79500000D01*
X185385674Y-79311744D01*
X185365612Y-79250000D01*
X191344540Y-79250000D01*
X191364326Y-79438256D01*
X191364327Y-79438259D01*
X191422818Y-79618277D01*
X191422821Y-79618284D01*
X191517467Y-79782216D01*
X191623971Y-79900500D01*
X191644129Y-79922888D01*
X191797265Y-80034148D01*
X191797270Y-80034151D01*
X191970192Y-80111142D01*
X191970197Y-80111144D01*
X192155354Y-80150500D01*
X192155355Y-80150500D01*
X192344644Y-80150500D01*
X192344646Y-80150500D01*
X192529803Y-80111144D01*
X192702730Y-80034151D01*
X192855871Y-79922888D01*
X192982533Y-79782216D01*
X193077179Y-79618284D01*
X193135674Y-79438256D01*
X193155460Y-79250000D01*
X193135674Y-79061744D01*
X193077179Y-78881716D01*
X193001129Y-78749993D01*
X200844700Y-78749993D01*
X200844700Y-78750006D01*
X200863864Y-78981297D01*
X200863866Y-78981308D01*
X200920842Y-79206300D01*
X201014075Y-79418848D01*
X201141016Y-79613147D01*
X201141019Y-79613151D01*
X201141021Y-79613153D01*
X201298216Y-79783913D01*
X201298219Y-79783915D01*
X201298222Y-79783918D01*
X201450528Y-79902463D01*
X201491341Y-79959173D01*
X201495016Y-80028946D01*
X201460384Y-80089629D01*
X201451205Y-80097582D01*
X201451200Y-80097647D01*
X202120591Y-80767037D01*
X202057007Y-80784075D01*
X201942993Y-80849901D01*
X201849901Y-80942993D01*
X201784075Y-81057007D01*
X201767037Y-81120591D01*
X201098811Y-80452365D01*
X201014516Y-80581390D01*
X200921317Y-80793864D01*
X200864361Y-81018781D01*
X200845202Y-81249994D01*
X200845202Y-81250005D01*
X200864361Y-81481218D01*
X200921317Y-81706135D01*
X201014515Y-81918606D01*
X201098812Y-82047633D01*
X201767037Y-81379408D01*
X201784075Y-81442993D01*
X201849901Y-81557007D01*
X201942993Y-81650099D01*
X202057007Y-81715925D01*
X202120590Y-81732962D01*
X201451201Y-82402351D01*
X201451229Y-82402800D01*
X201491343Y-82458539D01*
X201495017Y-82528312D01*
X201460385Y-82588995D01*
X201450530Y-82597535D01*
X201298218Y-82716085D01*
X201141016Y-82886852D01*
X201014075Y-83081151D01*
X200920842Y-83293699D01*
X200863866Y-83518691D01*
X200863864Y-83518702D01*
X200844700Y-83749993D01*
X200844700Y-83750006D01*
X200863864Y-83981297D01*
X200863866Y-83981308D01*
X200920842Y-84206300D01*
X201014075Y-84418848D01*
X201141016Y-84613147D01*
X201141019Y-84613151D01*
X201141021Y-84613153D01*
X201298216Y-84783913D01*
X201298219Y-84783915D01*
X201298222Y-84783918D01*
X201481365Y-84926464D01*
X201481371Y-84926468D01*
X201481374Y-84926470D01*
X201685497Y-85036936D01*
X201799487Y-85076068D01*
X201905015Y-85112297D01*
X201905017Y-85112297D01*
X201905019Y-85112298D01*
X202133951Y-85150500D01*
X202133952Y-85150500D01*
X202366048Y-85150500D01*
X202366049Y-85150500D01*
X202594981Y-85112298D01*
X202814503Y-85036936D01*
X203018626Y-84926470D01*
X203201784Y-84783913D01*
X203358979Y-84613153D01*
X203485924Y-84418849D01*
X203579157Y-84206300D01*
X203636134Y-83981305D01*
X203636135Y-83981297D01*
X203655300Y-83750006D01*
X203655300Y-83749993D01*
X203636135Y-83518702D01*
X203636133Y-83518691D01*
X203579157Y-83293699D01*
X203485924Y-83081151D01*
X203358983Y-82886852D01*
X203358980Y-82886849D01*
X203358979Y-82886847D01*
X203201784Y-82716087D01*
X203162699Y-82685666D01*
X203049469Y-82597535D01*
X203008656Y-82540825D01*
X203004982Y-82471052D01*
X203039614Y-82410369D01*
X203048794Y-82402413D01*
X203048798Y-82402350D01*
X202379410Y-81732962D01*
X202442993Y-81715925D01*
X202557007Y-81650099D01*
X202650099Y-81557007D01*
X202715925Y-81442993D01*
X202732962Y-81379409D01*
X203401186Y-82047633D01*
X203485482Y-81918611D01*
X203578682Y-81706135D01*
X203635638Y-81481218D01*
X203654798Y-81250005D01*
X203654798Y-81249994D01*
X203635638Y-81018781D01*
X203578682Y-80793864D01*
X203485484Y-80581393D01*
X203401186Y-80452365D01*
X202732962Y-81120589D01*
X202715925Y-81057007D01*
X202650099Y-80942993D01*
X202557007Y-80849901D01*
X202442993Y-80784075D01*
X202379409Y-80767037D01*
X203048797Y-80097647D01*
X203048769Y-80097197D01*
X203008656Y-80041459D01*
X203004982Y-79971686D01*
X203039614Y-79911003D01*
X203049455Y-79902474D01*
X203201784Y-79783913D01*
X203358979Y-79613153D01*
X203485924Y-79418849D01*
X203579157Y-79206300D01*
X203636134Y-78981305D01*
X203636135Y-78981297D01*
X203655300Y-78750006D01*
X203655300Y-78749993D01*
X203636135Y-78518702D01*
X203636133Y-78518691D01*
X203579157Y-78293699D01*
X203485924Y-78081151D01*
X203358983Y-77886852D01*
X203358980Y-77886849D01*
X203358979Y-77886847D01*
X203201784Y-77716087D01*
X203201779Y-77716083D01*
X203201777Y-77716081D01*
X203018634Y-77573535D01*
X203018628Y-77573531D01*
X202814504Y-77463064D01*
X202814495Y-77463061D01*
X202594984Y-77387702D01*
X202423282Y-77359050D01*
X202366049Y-77349500D01*
X202133951Y-77349500D01*
X202088164Y-77357140D01*
X201905015Y-77387702D01*
X201685504Y-77463061D01*
X201685495Y-77463064D01*
X201481371Y-77573531D01*
X201481365Y-77573535D01*
X201298222Y-77716081D01*
X201298219Y-77716084D01*
X201141016Y-77886852D01*
X201014075Y-78081151D01*
X200920842Y-78293699D01*
X200863866Y-78518691D01*
X200863864Y-78518702D01*
X200844700Y-78749993D01*
X193001129Y-78749993D01*
X192982533Y-78717784D01*
X192855871Y-78577112D01*
X192855867Y-78577109D01*
X192702734Y-78465851D01*
X192702729Y-78465848D01*
X192529807Y-78388857D01*
X192529802Y-78388855D01*
X192384001Y-78357865D01*
X192344646Y-78349500D01*
X192155354Y-78349500D01*
X192122897Y-78356398D01*
X191970197Y-78388855D01*
X191970192Y-78388857D01*
X191797270Y-78465848D01*
X191797265Y-78465851D01*
X191644129Y-78577111D01*
X191517466Y-78717785D01*
X191422821Y-78881715D01*
X191422818Y-78881722D01*
X191364327Y-79061740D01*
X191364326Y-79061744D01*
X191344540Y-79250000D01*
X185365612Y-79250000D01*
X185327179Y-79131716D01*
X185232533Y-78967784D01*
X185105871Y-78827112D01*
X185084719Y-78811744D01*
X184952734Y-78715851D01*
X184952729Y-78715848D01*
X184779807Y-78638857D01*
X184779802Y-78638855D01*
X184634001Y-78607865D01*
X184594646Y-78599500D01*
X184405354Y-78599500D01*
X184372897Y-78606398D01*
X184220197Y-78638855D01*
X184220192Y-78638857D01*
X184047270Y-78715848D01*
X184047265Y-78715851D01*
X183894129Y-78827111D01*
X183767466Y-78967785D01*
X183732387Y-79028544D01*
X183681820Y-79076760D01*
X183613213Y-79089983D01*
X183548348Y-79064015D01*
X183517613Y-79028544D01*
X183490339Y-78981305D01*
X183482533Y-78967784D01*
X183355871Y-78827112D01*
X183334719Y-78811744D01*
X183202734Y-78715851D01*
X183202729Y-78715848D01*
X183029807Y-78638857D01*
X183029802Y-78638855D01*
X182884001Y-78607865D01*
X182844646Y-78599500D01*
X182655354Y-78599500D01*
X182622897Y-78606398D01*
X182470197Y-78638855D01*
X182470192Y-78638857D01*
X182297270Y-78715848D01*
X182297265Y-78715851D01*
X182144129Y-78827111D01*
X182017466Y-78967785D01*
X181922821Y-79131715D01*
X181922818Y-79131722D01*
X181868466Y-79299002D01*
X181864326Y-79311744D01*
X181844540Y-79500000D01*
X177751133Y-79500000D01*
X177827179Y-79368284D01*
X177885674Y-79188256D01*
X177905460Y-79000000D01*
X177885674Y-78811744D01*
X177827179Y-78631716D01*
X177732533Y-78467784D01*
X177605871Y-78327112D01*
X177584719Y-78311744D01*
X177452734Y-78215851D01*
X177452729Y-78215848D01*
X177279807Y-78138857D01*
X177279802Y-78138855D01*
X177134001Y-78107865D01*
X177094646Y-78099500D01*
X176905354Y-78099500D01*
X176872897Y-78106398D01*
X176720197Y-78138855D01*
X176720192Y-78138857D01*
X176547270Y-78215848D01*
X176547265Y-78215851D01*
X176394129Y-78327111D01*
X176267466Y-78467785D01*
X176172821Y-78631715D01*
X176172818Y-78631723D01*
X176168180Y-78645997D01*
X176128742Y-78703671D01*
X176064382Y-78730868D01*
X175995536Y-78718952D01*
X175958100Y-78690649D01*
X175955948Y-78688259D01*
X175855871Y-78577112D01*
X175855867Y-78577109D01*
X175702734Y-78465851D01*
X175702729Y-78465848D01*
X175529807Y-78388857D01*
X175529802Y-78388855D01*
X175384001Y-78357865D01*
X175344646Y-78349500D01*
X175155354Y-78349500D01*
X175122897Y-78356398D01*
X174970197Y-78388855D01*
X174970192Y-78388857D01*
X174797270Y-78465848D01*
X174797265Y-78465851D01*
X174644129Y-78577111D01*
X174517466Y-78717785D01*
X174422821Y-78881715D01*
X174422818Y-78881722D01*
X174364327Y-79061740D01*
X174364326Y-79061744D01*
X174344540Y-79250000D01*
X165999735Y-79250000D01*
X166105871Y-79172888D01*
X166232533Y-79032216D01*
X166327179Y-78868284D01*
X166385674Y-78688256D01*
X166405460Y-78500000D01*
X166385674Y-78311744D01*
X166327179Y-78131716D01*
X166232533Y-77967784D01*
X166105871Y-77827112D01*
X166105870Y-77827111D01*
X165952734Y-77715851D01*
X165952729Y-77715848D01*
X165779807Y-77638857D01*
X165779802Y-77638855D01*
X165634001Y-77607865D01*
X165594646Y-77599500D01*
X165405354Y-77599500D01*
X165372897Y-77606398D01*
X165220197Y-77638855D01*
X165220192Y-77638857D01*
X165047270Y-77715848D01*
X165047265Y-77715851D01*
X164894129Y-77827111D01*
X164767466Y-77967785D01*
X164672821Y-78131715D01*
X164672818Y-78131722D01*
X164620189Y-78293699D01*
X164614326Y-78311744D01*
X164594540Y-78500000D01*
X158500000Y-78500000D01*
X158500000Y-76250000D01*
X175594540Y-76250000D01*
X175614326Y-76438256D01*
X175614327Y-76438259D01*
X175672818Y-76618277D01*
X175672821Y-76618284D01*
X175767467Y-76782216D01*
X175873971Y-76900500D01*
X175894129Y-76922888D01*
X176047265Y-77034148D01*
X176047270Y-77034151D01*
X176220192Y-77111142D01*
X176220197Y-77111144D01*
X176405354Y-77150500D01*
X176405355Y-77150500D01*
X176594644Y-77150500D01*
X176594646Y-77150500D01*
X176779803Y-77111144D01*
X176949566Y-77035559D01*
X177018813Y-77026275D01*
X177050430Y-77035557D01*
X177220197Y-77111144D01*
X177405354Y-77150500D01*
X177405355Y-77150500D01*
X177594644Y-77150500D01*
X177594646Y-77150500D01*
X177779803Y-77111144D01*
X177952730Y-77034151D01*
X178105871Y-76922888D01*
X178232533Y-76782216D01*
X178327179Y-76618284D01*
X178385674Y-76438256D01*
X178405460Y-76250000D01*
X178385674Y-76061744D01*
X178365612Y-76000000D01*
X180344540Y-76000000D01*
X180364326Y-76188256D01*
X180364327Y-76188259D01*
X180422818Y-76368277D01*
X180422821Y-76368284D01*
X180517467Y-76532216D01*
X180644129Y-76672888D01*
X180797265Y-76784148D01*
X180797270Y-76784151D01*
X180970192Y-76861142D01*
X180970197Y-76861144D01*
X181155354Y-76900500D01*
X181155355Y-76900500D01*
X181344644Y-76900500D01*
X181344646Y-76900500D01*
X181529803Y-76861144D01*
X181702730Y-76784151D01*
X181855871Y-76672888D01*
X181982533Y-76532216D01*
X182077179Y-76368284D01*
X182135674Y-76188256D01*
X182155460Y-76000000D01*
X182135674Y-75811744D01*
X182077179Y-75631716D01*
X181982533Y-75467784D01*
X181855871Y-75327112D01*
X181855870Y-75327111D01*
X181702734Y-75215851D01*
X181702729Y-75215848D01*
X181529807Y-75138857D01*
X181529802Y-75138855D01*
X181384001Y-75107865D01*
X181344646Y-75099500D01*
X181155354Y-75099500D01*
X181122897Y-75106398D01*
X180970197Y-75138855D01*
X180970192Y-75138857D01*
X180797270Y-75215848D01*
X180797265Y-75215851D01*
X180644129Y-75327111D01*
X180517466Y-75467785D01*
X180422821Y-75631715D01*
X180422818Y-75631722D01*
X180394855Y-75717785D01*
X180364326Y-75811744D01*
X180344540Y-76000000D01*
X178365612Y-76000000D01*
X178327179Y-75881716D01*
X178232533Y-75717784D01*
X178105871Y-75577112D01*
X178105870Y-75577111D01*
X177952734Y-75465851D01*
X177952729Y-75465848D01*
X177779807Y-75388857D01*
X177779802Y-75388855D01*
X177634001Y-75357865D01*
X177594646Y-75349500D01*
X177405354Y-75349500D01*
X177372897Y-75356398D01*
X177220197Y-75388855D01*
X177220192Y-75388857D01*
X177050436Y-75464439D01*
X176981186Y-75473724D01*
X176949564Y-75464439D01*
X176779807Y-75388857D01*
X176779802Y-75388855D01*
X176634001Y-75357865D01*
X176594646Y-75349500D01*
X176405354Y-75349500D01*
X176372897Y-75356398D01*
X176220197Y-75388855D01*
X176220192Y-75388857D01*
X176047270Y-75465848D01*
X176047265Y-75465851D01*
X175894129Y-75577111D01*
X175767466Y-75717785D01*
X175672821Y-75881715D01*
X175672818Y-75881722D01*
X175614327Y-76061740D01*
X175614326Y-76061744D01*
X175594540Y-76250000D01*
X158500000Y-76250000D01*
X158500000Y-73750000D01*
X158000000Y-73750000D01*
X158000000Y-88626000D01*
X157980315Y-88693039D01*
X157927511Y-88738794D01*
X157876000Y-88750000D01*
X131374000Y-88750000D01*
X131306961Y-88730315D01*
X131261206Y-88677511D01*
X131250000Y-88626000D01*
X131250000Y-85000000D01*
X132695065Y-85000000D01*
X132714784Y-85300852D01*
X132714786Y-85300864D01*
X132773602Y-85596553D01*
X132773607Y-85596573D01*
X132870514Y-85882052D01*
X132870518Y-85882062D01*
X133003868Y-86152469D01*
X133171371Y-86403155D01*
X133171374Y-86403159D01*
X133204973Y-86441470D01*
X133204974Y-86441470D01*
X133705747Y-85940697D01*
X133779588Y-86042330D01*
X133957670Y-86220412D01*
X134059301Y-86294251D01*
X133558528Y-86795024D01*
X133558528Y-86795025D01*
X133596840Y-86828625D01*
X133596844Y-86828628D01*
X133847530Y-86996131D01*
X134117937Y-87129481D01*
X134117947Y-87129485D01*
X134403426Y-87226392D01*
X134403446Y-87226397D01*
X134699135Y-87285213D01*
X134699147Y-87285215D01*
X135000000Y-87304934D01*
X135300852Y-87285215D01*
X135300864Y-87285213D01*
X135596553Y-87226397D01*
X135596573Y-87226392D01*
X135882052Y-87129485D01*
X135882062Y-87129481D01*
X136152469Y-86996131D01*
X136403157Y-86828627D01*
X136441470Y-86795025D01*
X136441470Y-86795023D01*
X135940698Y-86294251D01*
X136042330Y-86220412D01*
X136220412Y-86042330D01*
X136294251Y-85940698D01*
X136795023Y-86441470D01*
X136795025Y-86441470D01*
X136828627Y-86403157D01*
X136996131Y-86152469D01*
X137129481Y-85882062D01*
X137129485Y-85882052D01*
X137226392Y-85596573D01*
X137226397Y-85596553D01*
X137285213Y-85300864D01*
X137285215Y-85300852D01*
X137304934Y-85000000D01*
X137285215Y-84699147D01*
X137285213Y-84699135D01*
X137226397Y-84403446D01*
X137226393Y-84403431D01*
X137129483Y-84117944D01*
X137129474Y-84117923D01*
X136996129Y-83847528D01*
X136828633Y-83596851D01*
X136828625Y-83596840D01*
X136795025Y-83558528D01*
X136795024Y-83558528D01*
X136294251Y-84059301D01*
X136220412Y-83957670D01*
X136042330Y-83779588D01*
X135940697Y-83705747D01*
X136441470Y-83204974D01*
X136441470Y-83204973D01*
X136403159Y-83171374D01*
X136403155Y-83171371D01*
X136152469Y-83003868D01*
X135882062Y-82870518D01*
X135882052Y-82870514D01*
X135596573Y-82773607D01*
X135596553Y-82773602D01*
X135300864Y-82714786D01*
X135300852Y-82714784D01*
X135000000Y-82695065D01*
X134699147Y-82714784D01*
X134699135Y-82714786D01*
X134403446Y-82773602D01*
X134403431Y-82773606D01*
X134117944Y-82870516D01*
X134117923Y-82870525D01*
X133847528Y-83003870D01*
X133596844Y-83171370D01*
X133596837Y-83171376D01*
X133558528Y-83204972D01*
X133558527Y-83204974D01*
X134059301Y-83705748D01*
X133957670Y-83779588D01*
X133779588Y-83957670D01*
X133705748Y-84059301D01*
X133204974Y-83558527D01*
X133204972Y-83558528D01*
X133171376Y-83596837D01*
X133171370Y-83596844D01*
X133003870Y-83847528D01*
X132870525Y-84117923D01*
X132870516Y-84117944D01*
X132773606Y-84403431D01*
X132773602Y-84403446D01*
X132714786Y-84699135D01*
X132714784Y-84699147D01*
X132695065Y-85000000D01*
X131250000Y-85000000D01*
X131250000Y-61000000D01*
X131750000Y-61000000D01*
X133213681Y-62463681D01*
X133247166Y-62525004D01*
X133250000Y-62551362D01*
X133250000Y-68000000D01*
X138713681Y-73463681D01*
X138747166Y-73525004D01*
X138750000Y-73551362D01*
X138750000Y-82500000D01*
X157500000Y-82500000D01*
X157500000Y-82000000D01*
X139374000Y-82000000D01*
X139306961Y-81980315D01*
X139261206Y-81927511D01*
X139250000Y-81876000D01*
X139250000Y-78250000D01*
X151094540Y-78250000D01*
X151114326Y-78438256D01*
X151114327Y-78438259D01*
X151172818Y-78618277D01*
X151172821Y-78618284D01*
X151267467Y-78782216D01*
X151357063Y-78881722D01*
X151394129Y-78922888D01*
X151547265Y-79034148D01*
X151547270Y-79034151D01*
X151720192Y-79111142D01*
X151720197Y-79111144D01*
X151905354Y-79150500D01*
X151905355Y-79150500D01*
X152094644Y-79150500D01*
X152094646Y-79150500D01*
X152279803Y-79111144D01*
X152452730Y-79034151D01*
X152605871Y-78922888D01*
X152732533Y-78782216D01*
X152827179Y-78618284D01*
X152885674Y-78438256D01*
X152905460Y-78250000D01*
X152885674Y-78061744D01*
X152827179Y-77881716D01*
X152732533Y-77717784D01*
X152605871Y-77577112D01*
X152600948Y-77573535D01*
X152452734Y-77465851D01*
X152452729Y-77465848D01*
X152279807Y-77388857D01*
X152279802Y-77388855D01*
X152134001Y-77357865D01*
X152094646Y-77349500D01*
X151905354Y-77349500D01*
X151872897Y-77356398D01*
X151720197Y-77388855D01*
X151720192Y-77388857D01*
X151547270Y-77465848D01*
X151547265Y-77465851D01*
X151394129Y-77577111D01*
X151267466Y-77717785D01*
X151172821Y-77881715D01*
X151172818Y-77881722D01*
X151144855Y-77967785D01*
X151114326Y-78061744D01*
X151094540Y-78250000D01*
X139250000Y-78250000D01*
X139250000Y-74250000D01*
X140594540Y-74250000D01*
X140614326Y-74438256D01*
X140614327Y-74438259D01*
X140672818Y-74618277D01*
X140672821Y-74618284D01*
X140767467Y-74782216D01*
X140873971Y-74900500D01*
X140894129Y-74922888D01*
X141047265Y-75034148D01*
X141047270Y-75034151D01*
X141220192Y-75111142D01*
X141220197Y-75111144D01*
X141405354Y-75150500D01*
X141405355Y-75150500D01*
X141594644Y-75150500D01*
X141594646Y-75150500D01*
X141779803Y-75111144D01*
X141952730Y-75034151D01*
X142105871Y-74922888D01*
X142232533Y-74782216D01*
X142327179Y-74618284D01*
X142385674Y-74438256D01*
X142405460Y-74250000D01*
X152844540Y-74250000D01*
X152864326Y-74438256D01*
X152864327Y-74438259D01*
X152922818Y-74618277D01*
X152922821Y-74618284D01*
X153017467Y-74782216D01*
X153123971Y-74900500D01*
X153144129Y-74922888D01*
X153297265Y-75034148D01*
X153297270Y-75034151D01*
X153470192Y-75111142D01*
X153470197Y-75111144D01*
X153655354Y-75150500D01*
X153655355Y-75150500D01*
X153844644Y-75150500D01*
X153844646Y-75150500D01*
X154029803Y-75111144D01*
X154202730Y-75034151D01*
X154355871Y-74922888D01*
X154482533Y-74782216D01*
X154577179Y-74618284D01*
X154635674Y-74438256D01*
X154655460Y-74250000D01*
X154635674Y-74061744D01*
X154577179Y-73881716D01*
X154482533Y-73717784D01*
X154355871Y-73577112D01*
X154355870Y-73577111D01*
X154202734Y-73465851D01*
X154202729Y-73465848D01*
X154029807Y-73388857D01*
X154029802Y-73388855D01*
X153870630Y-73355023D01*
X153844646Y-73349500D01*
X153655354Y-73349500D01*
X153629370Y-73355023D01*
X153470197Y-73388855D01*
X153470192Y-73388857D01*
X153297270Y-73465848D01*
X153297265Y-73465851D01*
X153144129Y-73577111D01*
X153017466Y-73717785D01*
X152922821Y-73881715D01*
X152922818Y-73881722D01*
X152864327Y-74061740D01*
X152864326Y-74061744D01*
X152844540Y-74250000D01*
X142405460Y-74250000D01*
X142385674Y-74061744D01*
X142327179Y-73881716D01*
X142232533Y-73717784D01*
X142105871Y-73577112D01*
X142105870Y-73577111D01*
X141952734Y-73465851D01*
X141952729Y-73465848D01*
X141779807Y-73388857D01*
X141779802Y-73388855D01*
X141620630Y-73355023D01*
X141594646Y-73349500D01*
X141405354Y-73349500D01*
X141379370Y-73355023D01*
X141220197Y-73388855D01*
X141220192Y-73388857D01*
X141047270Y-73465848D01*
X141047265Y-73465851D01*
X140894129Y-73577111D01*
X140767466Y-73717785D01*
X140672821Y-73881715D01*
X140672818Y-73881722D01*
X140614327Y-74061740D01*
X140614326Y-74061744D01*
X140594540Y-74250000D01*
X139250000Y-74250000D01*
X139250000Y-73250000D01*
X138250000Y-72250000D01*
X141344540Y-72250000D01*
X141364326Y-72438256D01*
X141364327Y-72438259D01*
X141422818Y-72618277D01*
X141422821Y-72618284D01*
X141517467Y-72782216D01*
X141607063Y-72881722D01*
X141644129Y-72922888D01*
X141797265Y-73034148D01*
X141797270Y-73034151D01*
X141970192Y-73111142D01*
X141970197Y-73111144D01*
X142155354Y-73150500D01*
X142155355Y-73150500D01*
X142344644Y-73150500D01*
X142344646Y-73150500D01*
X142529803Y-73111144D01*
X142702730Y-73034151D01*
X142855871Y-72922888D01*
X142982533Y-72782216D01*
X143077179Y-72618284D01*
X143135674Y-72438256D01*
X143155460Y-72250000D01*
X144250000Y-72250000D01*
X144250000Y-72750000D01*
X146499998Y-72750000D01*
X146500000Y-72750000D01*
X146500001Y-72749998D01*
X146500643Y-72749733D01*
X146570113Y-72742261D01*
X146632593Y-72773534D01*
X146668247Y-72833622D01*
X146666031Y-72902610D01*
X146614327Y-73061740D01*
X146614326Y-73061744D01*
X146594540Y-73250000D01*
X146614326Y-73438256D01*
X146614327Y-73438259D01*
X146672818Y-73618277D01*
X146672821Y-73618284D01*
X146767467Y-73782216D01*
X146857063Y-73881722D01*
X146894129Y-73922888D01*
X147047265Y-74034148D01*
X147047270Y-74034151D01*
X147220192Y-74111142D01*
X147220197Y-74111144D01*
X147405354Y-74150500D01*
X147405355Y-74150500D01*
X147594644Y-74150500D01*
X147594646Y-74150500D01*
X147779803Y-74111144D01*
X147952730Y-74034151D01*
X148105871Y-73922888D01*
X148232533Y-73782216D01*
X148327179Y-73618284D01*
X148385674Y-73438256D01*
X148405460Y-73250000D01*
X148385674Y-73061744D01*
X148327179Y-72881716D01*
X148251132Y-72749999D01*
X158999999Y-72749999D01*
X159000000Y-72750000D01*
X159500000Y-72750000D01*
X164844540Y-72750000D01*
X164864326Y-72938256D01*
X164864327Y-72938259D01*
X164922818Y-73118277D01*
X164922821Y-73118284D01*
X165017467Y-73282216D01*
X165023096Y-73288467D01*
X165026304Y-73292031D01*
X165056531Y-73355023D01*
X165047904Y-73424358D01*
X165026304Y-73457969D01*
X165017466Y-73467785D01*
X164922821Y-73631715D01*
X164922818Y-73631722D01*
X164873921Y-73782214D01*
X164864326Y-73811744D01*
X164844540Y-74000000D01*
X164864326Y-74188256D01*
X164864327Y-74188259D01*
X164922818Y-74368277D01*
X164922821Y-74368284D01*
X165017467Y-74532216D01*
X165144129Y-74672888D01*
X165297265Y-74784148D01*
X165297270Y-74784151D01*
X165470192Y-74861142D01*
X165470197Y-74861144D01*
X165655354Y-74900500D01*
X165655355Y-74900500D01*
X165844644Y-74900500D01*
X165844646Y-74900500D01*
X166029803Y-74861144D01*
X166202730Y-74784151D01*
X166355871Y-74672888D01*
X166482533Y-74532216D01*
X166501133Y-74500000D01*
X184594540Y-74500000D01*
X184614326Y-74688256D01*
X184614327Y-74688259D01*
X184672818Y-74868277D01*
X184672821Y-74868284D01*
X184767467Y-75032216D01*
X184863487Y-75138857D01*
X184894129Y-75172888D01*
X185047265Y-75284148D01*
X185047270Y-75284151D01*
X185220192Y-75361142D01*
X185220197Y-75361144D01*
X185405354Y-75400500D01*
X185405355Y-75400500D01*
X185594644Y-75400500D01*
X185594646Y-75400500D01*
X185779803Y-75361144D01*
X185952730Y-75284151D01*
X186105871Y-75172888D01*
X186232533Y-75032216D01*
X186327179Y-74868284D01*
X186385674Y-74688256D01*
X186405460Y-74500000D01*
X186385674Y-74311744D01*
X186327179Y-74131716D01*
X186232533Y-73967784D01*
X186105871Y-73827112D01*
X186084719Y-73811744D01*
X185952734Y-73715851D01*
X185952729Y-73715848D01*
X185779807Y-73638857D01*
X185779802Y-73638855D01*
X185634001Y-73607865D01*
X185594646Y-73599500D01*
X185405354Y-73599500D01*
X185372897Y-73606398D01*
X185220197Y-73638855D01*
X185220192Y-73638857D01*
X185047270Y-73715848D01*
X185047265Y-73715851D01*
X184894129Y-73827111D01*
X184767466Y-73967785D01*
X184672821Y-74131715D01*
X184672818Y-74131722D01*
X184614327Y-74311740D01*
X184614326Y-74311744D01*
X184594540Y-74500000D01*
X166501133Y-74500000D01*
X166577179Y-74368284D01*
X166635674Y-74188256D01*
X166655460Y-74000000D01*
X166635674Y-73811744D01*
X166577179Y-73631716D01*
X166482533Y-73467784D01*
X166473698Y-73457972D01*
X166443469Y-73394981D01*
X166452093Y-73325646D01*
X166473699Y-73292027D01*
X166482533Y-73282216D01*
X166577179Y-73118284D01*
X166635674Y-72938256D01*
X166655460Y-72750000D01*
X166635674Y-72561744D01*
X166577179Y-72381716D01*
X166482533Y-72217784D01*
X166355871Y-72077112D01*
X166334719Y-72061744D01*
X166202734Y-71965851D01*
X166202729Y-71965848D01*
X166029807Y-71888857D01*
X166029802Y-71888855D01*
X165884001Y-71857865D01*
X165844646Y-71849500D01*
X165655354Y-71849500D01*
X165622897Y-71856398D01*
X165470197Y-71888855D01*
X165470192Y-71888857D01*
X165297270Y-71965848D01*
X165297265Y-71965851D01*
X165144129Y-72077111D01*
X165017466Y-72217785D01*
X164922821Y-72381715D01*
X164922818Y-72381722D01*
X164864327Y-72561740D01*
X164864326Y-72561744D01*
X164844540Y-72750000D01*
X159500000Y-72750000D01*
X160250000Y-72000000D01*
X160250000Y-71500000D01*
X184594540Y-71500000D01*
X184614326Y-71688256D01*
X184614327Y-71688259D01*
X184672818Y-71868277D01*
X184672821Y-71868284D01*
X184767467Y-72032216D01*
X184894129Y-72172888D01*
X185047265Y-72284148D01*
X185047270Y-72284151D01*
X185220192Y-72361142D01*
X185220197Y-72361144D01*
X185405354Y-72400500D01*
X185405355Y-72400500D01*
X185594644Y-72400500D01*
X185594646Y-72400500D01*
X185779803Y-72361144D01*
X185952730Y-72284151D01*
X186105871Y-72172888D01*
X186232533Y-72032216D01*
X186327179Y-71868284D01*
X186365612Y-71750000D01*
X192094540Y-71750000D01*
X192114326Y-71938256D01*
X192114327Y-71938259D01*
X192172818Y-72118277D01*
X192172821Y-72118284D01*
X192267467Y-72282216D01*
X192373971Y-72400500D01*
X192394129Y-72422888D01*
X192547265Y-72534148D01*
X192547270Y-72534151D01*
X192720192Y-72611142D01*
X192720197Y-72611144D01*
X192905354Y-72650500D01*
X192905355Y-72650500D01*
X193094644Y-72650500D01*
X193094646Y-72650500D01*
X193279803Y-72611144D01*
X193452730Y-72534151D01*
X193605871Y-72422888D01*
X193732533Y-72282216D01*
X193827179Y-72118284D01*
X193885674Y-71938256D01*
X193905460Y-71750000D01*
X193885674Y-71561744D01*
X193827179Y-71381716D01*
X193732533Y-71217784D01*
X193605871Y-71077112D01*
X193605870Y-71077111D01*
X193452734Y-70965851D01*
X193452729Y-70965848D01*
X193279807Y-70888857D01*
X193279802Y-70888855D01*
X193134001Y-70857865D01*
X193094646Y-70849500D01*
X192905354Y-70849500D01*
X192872897Y-70856398D01*
X192720197Y-70888855D01*
X192720192Y-70888857D01*
X192547270Y-70965848D01*
X192547265Y-70965851D01*
X192394129Y-71077111D01*
X192267466Y-71217785D01*
X192172821Y-71381715D01*
X192172818Y-71381722D01*
X192114327Y-71561740D01*
X192114326Y-71561744D01*
X192094540Y-71750000D01*
X186365612Y-71750000D01*
X186385674Y-71688256D01*
X186405460Y-71500000D01*
X186385674Y-71311744D01*
X186327179Y-71131716D01*
X186232533Y-70967784D01*
X186105871Y-70827112D01*
X186105870Y-70827111D01*
X185952734Y-70715851D01*
X185952729Y-70715848D01*
X185779807Y-70638857D01*
X185779802Y-70638855D01*
X185634001Y-70607865D01*
X185594646Y-70599500D01*
X185405354Y-70599500D01*
X185372897Y-70606398D01*
X185220197Y-70638855D01*
X185220192Y-70638857D01*
X185047270Y-70715848D01*
X185047265Y-70715851D01*
X184894129Y-70827111D01*
X184767466Y-70967785D01*
X184672821Y-71131715D01*
X184672818Y-71131722D01*
X184614327Y-71311740D01*
X184614326Y-71311744D01*
X184594540Y-71500000D01*
X160250000Y-71500000D01*
X160250000Y-68500000D01*
X161344540Y-68500000D01*
X161364326Y-68688256D01*
X161364327Y-68688259D01*
X161422818Y-68868277D01*
X161422821Y-68868284D01*
X161517467Y-69032216D01*
X161644129Y-69172888D01*
X161797265Y-69284148D01*
X161797270Y-69284151D01*
X161970192Y-69361142D01*
X161970197Y-69361144D01*
X162155354Y-69400500D01*
X162155355Y-69400500D01*
X162344644Y-69400500D01*
X162344646Y-69400500D01*
X162529803Y-69361144D01*
X162702730Y-69284151D01*
X162855871Y-69172888D01*
X162982533Y-69032216D01*
X163077179Y-68868284D01*
X163135674Y-68688256D01*
X163155460Y-68500000D01*
X163135674Y-68311744D01*
X163077179Y-68131716D01*
X162982533Y-67967784D01*
X162855871Y-67827112D01*
X162849851Y-67822738D01*
X162702734Y-67715851D01*
X162702729Y-67715848D01*
X162529807Y-67638857D01*
X162529802Y-67638855D01*
X162384001Y-67607865D01*
X162344646Y-67599500D01*
X162155354Y-67599500D01*
X162122897Y-67606398D01*
X161970197Y-67638855D01*
X161970192Y-67638857D01*
X161797270Y-67715848D01*
X161797265Y-67715851D01*
X161644129Y-67827111D01*
X161517466Y-67967785D01*
X161422821Y-68131715D01*
X161422818Y-68131722D01*
X161370948Y-68291364D01*
X161364326Y-68311744D01*
X161344540Y-68500000D01*
X160250000Y-68500000D01*
X160250000Y-67801362D01*
X160269685Y-67734323D01*
X160286319Y-67713681D01*
X160968726Y-67031274D01*
X161262729Y-66737271D01*
X185854938Y-66737271D01*
X185874724Y-66925527D01*
X185874725Y-66925530D01*
X185933216Y-67105548D01*
X185933219Y-67105555D01*
X186027865Y-67269487D01*
X186110392Y-67361142D01*
X186154527Y-67410159D01*
X186307663Y-67521419D01*
X186307668Y-67521422D01*
X186480590Y-67598413D01*
X186480595Y-67598415D01*
X186665752Y-67637771D01*
X186665753Y-67637771D01*
X186855042Y-67637771D01*
X186855044Y-67637771D01*
X187040201Y-67598415D01*
X187213128Y-67521422D01*
X187366269Y-67410159D01*
X187492931Y-67269487D01*
X187587577Y-67105555D01*
X187646072Y-66925527D01*
X187665858Y-66737271D01*
X187646072Y-66549015D01*
X187587577Y-66368987D01*
X187492931Y-66205055D01*
X187366269Y-66064383D01*
X187366268Y-66064382D01*
X187213132Y-65953122D01*
X187213127Y-65953119D01*
X187040205Y-65876128D01*
X187040200Y-65876126D01*
X186894399Y-65845136D01*
X186855044Y-65836771D01*
X186665752Y-65836771D01*
X186633295Y-65843669D01*
X186480595Y-65876126D01*
X186480590Y-65876128D01*
X186307668Y-65953119D01*
X186307663Y-65953122D01*
X186154527Y-66064382D01*
X186027864Y-66205056D01*
X185933219Y-66368986D01*
X185933216Y-66368993D01*
X185874725Y-66549011D01*
X185874724Y-66549015D01*
X185854938Y-66737271D01*
X161262729Y-66737271D01*
X161750000Y-66250000D01*
X161750000Y-65000000D01*
X180344540Y-65000000D01*
X180364326Y-65188256D01*
X180364327Y-65188259D01*
X180422818Y-65368277D01*
X180422821Y-65368284D01*
X180517467Y-65532216D01*
X180613487Y-65638857D01*
X180644129Y-65672888D01*
X180797265Y-65784148D01*
X180797270Y-65784151D01*
X180970192Y-65861142D01*
X180970197Y-65861144D01*
X181155354Y-65900500D01*
X181155355Y-65900500D01*
X181344644Y-65900500D01*
X181344646Y-65900500D01*
X181529803Y-65861144D01*
X181702730Y-65784151D01*
X181855871Y-65672888D01*
X181982533Y-65532216D01*
X182077179Y-65368284D01*
X182135674Y-65188256D01*
X182155460Y-65000000D01*
X182135674Y-64811744D01*
X182077179Y-64631716D01*
X181982533Y-64467784D01*
X181855871Y-64327112D01*
X181855870Y-64327111D01*
X181702734Y-64215851D01*
X181702729Y-64215848D01*
X181529807Y-64138857D01*
X181529802Y-64138855D01*
X181384001Y-64107865D01*
X181344646Y-64099500D01*
X181155354Y-64099500D01*
X181122897Y-64106398D01*
X180970197Y-64138855D01*
X180970192Y-64138857D01*
X180797270Y-64215848D01*
X180797265Y-64215851D01*
X180644129Y-64327111D01*
X180517466Y-64467785D01*
X180422821Y-64631715D01*
X180422818Y-64631722D01*
X180364327Y-64811740D01*
X180364326Y-64811744D01*
X180344540Y-65000000D01*
X161750000Y-65000000D01*
X161750000Y-62500000D01*
X186344540Y-62500000D01*
X186364326Y-62688256D01*
X186364327Y-62688259D01*
X186422818Y-62868277D01*
X186422821Y-62868284D01*
X186517467Y-63032216D01*
X186613487Y-63138857D01*
X186644129Y-63172888D01*
X186797265Y-63284148D01*
X186797270Y-63284151D01*
X186970192Y-63361142D01*
X186970197Y-63361144D01*
X187155354Y-63400500D01*
X187155355Y-63400500D01*
X187344644Y-63400500D01*
X187344646Y-63400500D01*
X187529803Y-63361144D01*
X187702730Y-63284151D01*
X187855871Y-63172888D01*
X187982533Y-63032216D01*
X188001133Y-63000000D01*
X190094540Y-63000000D01*
X190114326Y-63188256D01*
X190114327Y-63188259D01*
X190172818Y-63368277D01*
X190172821Y-63368284D01*
X190267467Y-63532216D01*
X190357063Y-63631722D01*
X190394129Y-63672888D01*
X190547265Y-63784148D01*
X190547270Y-63784151D01*
X190720192Y-63861142D01*
X190720197Y-63861144D01*
X190905354Y-63900500D01*
X190905355Y-63900500D01*
X191094644Y-63900500D01*
X191094646Y-63900500D01*
X191279803Y-63861144D01*
X191452730Y-63784151D01*
X191605871Y-63672888D01*
X191732533Y-63532216D01*
X191827179Y-63368284D01*
X191885674Y-63188256D01*
X191905460Y-63000000D01*
X191885674Y-62811744D01*
X191827179Y-62631716D01*
X191732533Y-62467784D01*
X191605871Y-62327112D01*
X191584719Y-62311744D01*
X191452734Y-62215851D01*
X191452729Y-62215848D01*
X191279807Y-62138857D01*
X191279802Y-62138855D01*
X191134001Y-62107865D01*
X191094646Y-62099500D01*
X190905354Y-62099500D01*
X190872897Y-62106398D01*
X190720197Y-62138855D01*
X190720192Y-62138857D01*
X190547270Y-62215848D01*
X190547265Y-62215851D01*
X190394129Y-62327111D01*
X190267466Y-62467785D01*
X190172821Y-62631715D01*
X190172818Y-62631722D01*
X190114327Y-62811740D01*
X190114326Y-62811744D01*
X190094540Y-63000000D01*
X188001133Y-63000000D01*
X188077179Y-62868284D01*
X188135674Y-62688256D01*
X188155460Y-62500000D01*
X188135674Y-62311744D01*
X188077179Y-62131716D01*
X187982533Y-61967784D01*
X187855871Y-61827112D01*
X187855870Y-61827111D01*
X187702734Y-61715851D01*
X187702729Y-61715848D01*
X187529807Y-61638857D01*
X187529802Y-61638855D01*
X187384001Y-61607865D01*
X187344646Y-61599500D01*
X187155354Y-61599500D01*
X187122897Y-61606398D01*
X186970197Y-61638855D01*
X186970192Y-61638857D01*
X186797270Y-61715848D01*
X186797265Y-61715851D01*
X186644129Y-61827111D01*
X186517466Y-61967785D01*
X186422821Y-62131715D01*
X186422818Y-62131722D01*
X186373368Y-62283915D01*
X186364326Y-62311744D01*
X186344540Y-62500000D01*
X161750000Y-62500000D01*
X161750000Y-58250000D01*
X164094540Y-58250000D01*
X164114326Y-58438256D01*
X164114327Y-58438259D01*
X164172818Y-58618277D01*
X164172821Y-58618284D01*
X164267467Y-58782216D01*
X164357063Y-58881722D01*
X164394129Y-58922888D01*
X164547265Y-59034148D01*
X164547270Y-59034151D01*
X164720192Y-59111142D01*
X164720197Y-59111144D01*
X164905354Y-59150500D01*
X164905355Y-59150500D01*
X165094644Y-59150500D01*
X165094646Y-59150500D01*
X165279803Y-59111144D01*
X165401395Y-59057007D01*
X165443158Y-59038413D01*
X165512408Y-59029128D01*
X165555589Y-59044302D01*
X165559920Y-59046801D01*
X165559923Y-59046804D01*
X165682763Y-59101496D01*
X165732845Y-59123795D01*
X165732850Y-59123797D01*
X165918007Y-59163153D01*
X165918008Y-59163153D01*
X166107297Y-59163153D01*
X166107299Y-59163153D01*
X166292456Y-59123797D01*
X166465383Y-59046804D01*
X166618524Y-58935541D01*
X166676911Y-58870694D01*
X166736396Y-58834047D01*
X166806253Y-58835377D01*
X166864302Y-58874264D01*
X166892112Y-58938360D01*
X166886991Y-58991985D01*
X166864327Y-59061739D01*
X166864327Y-59061740D01*
X166864326Y-59061744D01*
X166844540Y-59250000D01*
X166864326Y-59438256D01*
X166864327Y-59438259D01*
X166922818Y-59618277D01*
X166922821Y-59618284D01*
X167017467Y-59782216D01*
X167125637Y-59902351D01*
X167144129Y-59922888D01*
X167297265Y-60034148D01*
X167297270Y-60034151D01*
X167470192Y-60111142D01*
X167470197Y-60111144D01*
X167655354Y-60150500D01*
X167655355Y-60150500D01*
X167844644Y-60150500D01*
X167844646Y-60150500D01*
X168029803Y-60111144D01*
X168202730Y-60034151D01*
X168355871Y-59922888D01*
X168482533Y-59782216D01*
X168577179Y-59618284D01*
X168635674Y-59438256D01*
X168655460Y-59250000D01*
X168635674Y-59061744D01*
X168577179Y-58881716D01*
X168482533Y-58717784D01*
X168355871Y-58577112D01*
X168328199Y-58557007D01*
X168202734Y-58465851D01*
X168202729Y-58465848D01*
X168029807Y-58388857D01*
X168029802Y-58388855D01*
X167884001Y-58357865D01*
X167844646Y-58349500D01*
X167655354Y-58349500D01*
X167622897Y-58356398D01*
X167470197Y-58388855D01*
X167470192Y-58388857D01*
X167297270Y-58465848D01*
X167297265Y-58465851D01*
X167144129Y-58577111D01*
X167144128Y-58577112D01*
X167085741Y-58641957D01*
X167026254Y-58678605D01*
X166956397Y-58677274D01*
X166898349Y-58638387D01*
X166870540Y-58574290D01*
X166875660Y-58520668D01*
X166898327Y-58450909D01*
X166918113Y-58262653D01*
X166898327Y-58074397D01*
X166841824Y-57900500D01*
X166839834Y-57894375D01*
X166839833Y-57894374D01*
X166839832Y-57894369D01*
X166756481Y-57750000D01*
X171344540Y-57750000D01*
X171364326Y-57938256D01*
X171364327Y-57938259D01*
X171422818Y-58118277D01*
X171422821Y-58118284D01*
X171517467Y-58282216D01*
X171623971Y-58400500D01*
X171644129Y-58422888D01*
X171797265Y-58534148D01*
X171797270Y-58534151D01*
X171970192Y-58611142D01*
X171970197Y-58611144D01*
X172155354Y-58650500D01*
X172155355Y-58650500D01*
X172344644Y-58650500D01*
X172344646Y-58650500D01*
X172529803Y-58611144D01*
X172702730Y-58534151D01*
X172855871Y-58422888D01*
X172982533Y-58282216D01*
X173077179Y-58118284D01*
X173129773Y-57956415D01*
X173169209Y-57898743D01*
X173221919Y-57873447D01*
X173279803Y-57861144D01*
X173279807Y-57861142D01*
X173279808Y-57861142D01*
X173356241Y-57827111D01*
X173452730Y-57784151D01*
X173552115Y-57711944D01*
X173617921Y-57688464D01*
X173685975Y-57704289D01*
X173697885Y-57711944D01*
X173797265Y-57784148D01*
X173797270Y-57784151D01*
X173970192Y-57861142D01*
X173970197Y-57861144D01*
X174155354Y-57900500D01*
X174155355Y-57900500D01*
X174344647Y-57900500D01*
X174351105Y-57899821D01*
X174351288Y-57901565D01*
X174412371Y-57906219D01*
X174468110Y-57948349D01*
X174475887Y-57960198D01*
X174517467Y-58032216D01*
X174644129Y-58172888D01*
X174802527Y-58287971D01*
X174801092Y-58289944D01*
X174841699Y-58332530D01*
X174854924Y-58401137D01*
X174854806Y-58402313D01*
X174850531Y-58442993D01*
X174844540Y-58500000D01*
X174864326Y-58688256D01*
X174864327Y-58688259D01*
X174922818Y-58868277D01*
X174922821Y-58868284D01*
X175017467Y-59032216D01*
X175107063Y-59131722D01*
X175144129Y-59172888D01*
X175302527Y-59287971D01*
X175301092Y-59289944D01*
X175341699Y-59332530D01*
X175354924Y-59401137D01*
X175354806Y-59402313D01*
X175344540Y-59499999D01*
X175344540Y-59500000D01*
X175364326Y-59688256D01*
X175364327Y-59688259D01*
X175422818Y-59868277D01*
X175422821Y-59868284D01*
X175517467Y-60032216D01*
X175623971Y-60150500D01*
X175644129Y-60172888D01*
X175797265Y-60284148D01*
X175797270Y-60284151D01*
X175970192Y-60361142D01*
X175970197Y-60361144D01*
X176155354Y-60400500D01*
X176155355Y-60400500D01*
X176344644Y-60400500D01*
X176344646Y-60400500D01*
X176529803Y-60361144D01*
X176702730Y-60284151D01*
X176855871Y-60172888D01*
X176982533Y-60032216D01*
X177077179Y-59868284D01*
X177135674Y-59688256D01*
X177155460Y-59500000D01*
X177135674Y-59311744D01*
X177115612Y-59250000D01*
X180094540Y-59250000D01*
X180114326Y-59438256D01*
X180114327Y-59438259D01*
X180172818Y-59618277D01*
X180172821Y-59618284D01*
X180267467Y-59782216D01*
X180375637Y-59902351D01*
X180394129Y-59922888D01*
X180547265Y-60034148D01*
X180547270Y-60034151D01*
X180720192Y-60111142D01*
X180720197Y-60111144D01*
X180905354Y-60150500D01*
X180905355Y-60150500D01*
X181094644Y-60150500D01*
X181094646Y-60150500D01*
X181279803Y-60111144D01*
X181452730Y-60034151D01*
X181605871Y-59922888D01*
X181732533Y-59782216D01*
X181827179Y-59618284D01*
X181885674Y-59438256D01*
X181905460Y-59250000D01*
X181885674Y-59061744D01*
X181827179Y-58881716D01*
X181732533Y-58717784D01*
X181605871Y-58577112D01*
X181578199Y-58557007D01*
X181452734Y-58465851D01*
X181452729Y-58465848D01*
X181279807Y-58388857D01*
X181279802Y-58388855D01*
X181134001Y-58357865D01*
X181094646Y-58349500D01*
X180905354Y-58349500D01*
X180872897Y-58356398D01*
X180720197Y-58388855D01*
X180720192Y-58388857D01*
X180547270Y-58465848D01*
X180547265Y-58465851D01*
X180394129Y-58577111D01*
X180267466Y-58717785D01*
X180172821Y-58881715D01*
X180172818Y-58881722D01*
X180114327Y-59061740D01*
X180114326Y-59061744D01*
X180094540Y-59250000D01*
X177115612Y-59250000D01*
X177077179Y-59131716D01*
X176982533Y-58967784D01*
X176855871Y-58827112D01*
X176855870Y-58827111D01*
X176697473Y-58712029D01*
X176698907Y-58710054D01*
X176658302Y-58667476D01*
X176645073Y-58598870D01*
X176645168Y-58597922D01*
X176655460Y-58500000D01*
X176635674Y-58311744D01*
X176577179Y-58131716D01*
X176482533Y-57967784D01*
X176355871Y-57827112D01*
X176355870Y-57827111D01*
X176197473Y-57712029D01*
X176198907Y-57710054D01*
X176158302Y-57667476D01*
X176145073Y-57598870D01*
X176145168Y-57597922D01*
X176155460Y-57500000D01*
X194094540Y-57500000D01*
X194114326Y-57688256D01*
X194114327Y-57688259D01*
X194172818Y-57868277D01*
X194172821Y-57868284D01*
X194267467Y-58032216D01*
X194357063Y-58131722D01*
X194394129Y-58172888D01*
X194547265Y-58284148D01*
X194547270Y-58284151D01*
X194720192Y-58361142D01*
X194720197Y-58361144D01*
X194905354Y-58400500D01*
X194905355Y-58400500D01*
X195094644Y-58400500D01*
X195094646Y-58400500D01*
X195279803Y-58361144D01*
X195452730Y-58284151D01*
X195605871Y-58172888D01*
X195732533Y-58032216D01*
X195827179Y-57868284D01*
X195885674Y-57688256D01*
X195905460Y-57500000D01*
X195885674Y-57311744D01*
X195827179Y-57131716D01*
X195732533Y-56967784D01*
X195605871Y-56827112D01*
X195584719Y-56811744D01*
X195452734Y-56715851D01*
X195452729Y-56715848D01*
X195279807Y-56638857D01*
X195279802Y-56638855D01*
X195097840Y-56600179D01*
X195094646Y-56599500D01*
X194905354Y-56599500D01*
X194902160Y-56600179D01*
X194720197Y-56638855D01*
X194720192Y-56638857D01*
X194547270Y-56715848D01*
X194547265Y-56715851D01*
X194394129Y-56827111D01*
X194267466Y-56967785D01*
X194172821Y-57131715D01*
X194172818Y-57131722D01*
X194123368Y-57283915D01*
X194114326Y-57311744D01*
X194094540Y-57500000D01*
X176155460Y-57500000D01*
X176135674Y-57311744D01*
X176077179Y-57131716D01*
X175982533Y-56967784D01*
X175855871Y-56827112D01*
X175834719Y-56811744D01*
X175702734Y-56715851D01*
X175702729Y-56715848D01*
X175529807Y-56638857D01*
X175529802Y-56638855D01*
X175347840Y-56600179D01*
X175344646Y-56599500D01*
X175155354Y-56599500D01*
X175155349Y-56599500D01*
X175148886Y-56600179D01*
X175148703Y-56598440D01*
X175087586Y-56593763D01*
X175031862Y-56551613D01*
X175024111Y-56539799D01*
X175004599Y-56506003D01*
X174988126Y-56438102D01*
X175010979Y-56372076D01*
X175065900Y-56328885D01*
X175079893Y-56324228D01*
X175213483Y-56288433D01*
X175213492Y-56288429D01*
X175295919Y-56249993D01*
X200844700Y-56249993D01*
X200844700Y-56250006D01*
X200863864Y-56481297D01*
X200863866Y-56481308D01*
X200920842Y-56706300D01*
X201014075Y-56918848D01*
X201141016Y-57113147D01*
X201141019Y-57113151D01*
X201141021Y-57113153D01*
X201298216Y-57283913D01*
X201298219Y-57283915D01*
X201298222Y-57283918D01*
X201450528Y-57402463D01*
X201491341Y-57459173D01*
X201495016Y-57528946D01*
X201460384Y-57589629D01*
X201451205Y-57597582D01*
X201451200Y-57597647D01*
X202120591Y-58267037D01*
X202057007Y-58284075D01*
X201942993Y-58349901D01*
X201849901Y-58442993D01*
X201784075Y-58557007D01*
X201767037Y-58620591D01*
X201098811Y-57952365D01*
X201014516Y-58081390D01*
X200921317Y-58293864D01*
X200864361Y-58518781D01*
X200845202Y-58749994D01*
X200845202Y-58750005D01*
X200864361Y-58981218D01*
X200921317Y-59206135D01*
X201014515Y-59418606D01*
X201098812Y-59547633D01*
X201767037Y-58879408D01*
X201784075Y-58942993D01*
X201849901Y-59057007D01*
X201942993Y-59150099D01*
X202057007Y-59215925D01*
X202120590Y-59232962D01*
X201451201Y-59902351D01*
X201451229Y-59902800D01*
X201491343Y-59958539D01*
X201495017Y-60028312D01*
X201460385Y-60088995D01*
X201450530Y-60097535D01*
X201298218Y-60216085D01*
X201141016Y-60386852D01*
X201014075Y-60581151D01*
X200920842Y-60793699D01*
X200863866Y-61018691D01*
X200863864Y-61018702D01*
X200844700Y-61249993D01*
X200844700Y-61250006D01*
X200863864Y-61481297D01*
X200863866Y-61481308D01*
X200920842Y-61706300D01*
X201014075Y-61918848D01*
X201141016Y-62113147D01*
X201141019Y-62113151D01*
X201141021Y-62113153D01*
X201298216Y-62283913D01*
X201298219Y-62283915D01*
X201298222Y-62283918D01*
X201481365Y-62426464D01*
X201481371Y-62426468D01*
X201481374Y-62426470D01*
X201685497Y-62536936D01*
X201727519Y-62551362D01*
X201905015Y-62612297D01*
X201905017Y-62612297D01*
X201905019Y-62612298D01*
X202133951Y-62650500D01*
X202133952Y-62650500D01*
X202366048Y-62650500D01*
X202366049Y-62650500D01*
X202594981Y-62612298D01*
X202814503Y-62536936D01*
X203018626Y-62426470D01*
X203201784Y-62283913D01*
X203358979Y-62113153D01*
X203485924Y-61918849D01*
X203579157Y-61706300D01*
X203636134Y-61481305D01*
X203655300Y-61250000D01*
X203655300Y-61249993D01*
X203636135Y-61018702D01*
X203636133Y-61018691D01*
X203579157Y-60793699D01*
X203485924Y-60581151D01*
X203358983Y-60386852D01*
X203358980Y-60386849D01*
X203358979Y-60386847D01*
X203201784Y-60216087D01*
X203146282Y-60172888D01*
X203049469Y-60097535D01*
X203008656Y-60040825D01*
X203004982Y-59971052D01*
X203039614Y-59910369D01*
X203048794Y-59902413D01*
X203048798Y-59902350D01*
X202379410Y-59232962D01*
X202442993Y-59215925D01*
X202557007Y-59150099D01*
X202650099Y-59057007D01*
X202715925Y-58942993D01*
X202732962Y-58879409D01*
X203401186Y-59547633D01*
X203485482Y-59418611D01*
X203578682Y-59206135D01*
X203635638Y-58981218D01*
X203654798Y-58750005D01*
X203654798Y-58749994D01*
X203635638Y-58518781D01*
X203578682Y-58293864D01*
X203485484Y-58081393D01*
X203401186Y-57952365D01*
X202732962Y-58620589D01*
X202715925Y-58557007D01*
X202650099Y-58442993D01*
X202557007Y-58349901D01*
X202442993Y-58284075D01*
X202379409Y-58267037D01*
X203048797Y-57597647D01*
X203048769Y-57597197D01*
X203008656Y-57541459D01*
X203004982Y-57471686D01*
X203039614Y-57411003D01*
X203049455Y-57402474D01*
X203201784Y-57283913D01*
X203358979Y-57113153D01*
X203485924Y-56918849D01*
X203579157Y-56706300D01*
X203636134Y-56481305D01*
X203636135Y-56481297D01*
X203655300Y-56250006D01*
X203655300Y-56249993D01*
X203636135Y-56018702D01*
X203636133Y-56018691D01*
X203579157Y-55793699D01*
X203485924Y-55581151D01*
X203358983Y-55386852D01*
X203358980Y-55386849D01*
X203358979Y-55386847D01*
X203201784Y-55216087D01*
X203201779Y-55216083D01*
X203201777Y-55216081D01*
X203018634Y-55073535D01*
X203018628Y-55073531D01*
X202814504Y-54963064D01*
X202814495Y-54963061D01*
X202594984Y-54887702D01*
X202423282Y-54859050D01*
X202366049Y-54849500D01*
X202133951Y-54849500D01*
X202088164Y-54857140D01*
X201905015Y-54887702D01*
X201685504Y-54963061D01*
X201685495Y-54963064D01*
X201481371Y-55073531D01*
X201481365Y-55073535D01*
X201298222Y-55216081D01*
X201298219Y-55216084D01*
X201141016Y-55386852D01*
X201014075Y-55581151D01*
X200920842Y-55793699D01*
X200863866Y-56018691D01*
X200863864Y-56018702D01*
X200844700Y-56249993D01*
X175295919Y-56249993D01*
X175427578Y-56188600D01*
X175621082Y-56053105D01*
X175788105Y-55886082D01*
X175923600Y-55692578D01*
X176023429Y-55478492D01*
X176023432Y-55478486D01*
X176080636Y-55265000D01*
X175183012Y-55265000D01*
X175215925Y-55207993D01*
X175250000Y-55080826D01*
X175250000Y-54949174D01*
X175215925Y-54822007D01*
X175183012Y-54765000D01*
X176080636Y-54765000D01*
X176080635Y-54764999D01*
X176023432Y-54551513D01*
X176023429Y-54551507D01*
X175999411Y-54500000D01*
X183844540Y-54500000D01*
X183864326Y-54688256D01*
X183864327Y-54688259D01*
X183922818Y-54868277D01*
X183922821Y-54868284D01*
X184017467Y-55032216D01*
X184144129Y-55172888D01*
X184297265Y-55284148D01*
X184297270Y-55284151D01*
X184470192Y-55361142D01*
X184470197Y-55361144D01*
X184655354Y-55400500D01*
X184655355Y-55400500D01*
X184844644Y-55400500D01*
X184844646Y-55400500D01*
X185029803Y-55361144D01*
X185202730Y-55284151D01*
X185355871Y-55172888D01*
X185407851Y-55115158D01*
X185467336Y-55078510D01*
X185537193Y-55079840D01*
X185592148Y-55115158D01*
X185644129Y-55172888D01*
X185797265Y-55284148D01*
X185797270Y-55284151D01*
X185970192Y-55361142D01*
X185970197Y-55361144D01*
X186155354Y-55400500D01*
X186155355Y-55400500D01*
X186344644Y-55400500D01*
X186344646Y-55400500D01*
X186529803Y-55361144D01*
X186702730Y-55284151D01*
X186855871Y-55172888D01*
X186907851Y-55115158D01*
X186967336Y-55078510D01*
X187037193Y-55079840D01*
X187092148Y-55115158D01*
X187144129Y-55172888D01*
X187297265Y-55284148D01*
X187297270Y-55284151D01*
X187470192Y-55361142D01*
X187470197Y-55361144D01*
X187655354Y-55400500D01*
X187655355Y-55400500D01*
X187844644Y-55400500D01*
X187844646Y-55400500D01*
X188029803Y-55361144D01*
X188202730Y-55284151D01*
X188355871Y-55172888D01*
X188407851Y-55115158D01*
X188467336Y-55078510D01*
X188537193Y-55079840D01*
X188592148Y-55115158D01*
X188644129Y-55172888D01*
X188797265Y-55284148D01*
X188797270Y-55284151D01*
X188970192Y-55361142D01*
X188970197Y-55361144D01*
X189155354Y-55400500D01*
X189155355Y-55400500D01*
X189344644Y-55400500D01*
X189344646Y-55400500D01*
X189529803Y-55361144D01*
X189702730Y-55284151D01*
X189855871Y-55172888D01*
X189982533Y-55032216D01*
X190077179Y-54868284D01*
X190135674Y-54688256D01*
X190155460Y-54500000D01*
X190135674Y-54311744D01*
X190077179Y-54131716D01*
X189982533Y-53967784D01*
X189855871Y-53827112D01*
X189855867Y-53827109D01*
X189702734Y-53715851D01*
X189702729Y-53715848D01*
X189529807Y-53638857D01*
X189529802Y-53638855D01*
X189384001Y-53607865D01*
X189344646Y-53599500D01*
X189155354Y-53599500D01*
X189122897Y-53606398D01*
X188970197Y-53638855D01*
X188970192Y-53638857D01*
X188797270Y-53715848D01*
X188797265Y-53715851D01*
X188644132Y-53827109D01*
X188644129Y-53827111D01*
X188644129Y-53827112D01*
X188592148Y-53884841D01*
X188532663Y-53921489D01*
X188462806Y-53920158D01*
X188407851Y-53884841D01*
X188355871Y-53827112D01*
X188334713Y-53811740D01*
X188202734Y-53715851D01*
X188202729Y-53715848D01*
X188029807Y-53638857D01*
X188029802Y-53638855D01*
X187884001Y-53607865D01*
X187844646Y-53599500D01*
X187655354Y-53599500D01*
X187622897Y-53606398D01*
X187470197Y-53638855D01*
X187470192Y-53638857D01*
X187297270Y-53715848D01*
X187297265Y-53715851D01*
X187144132Y-53827109D01*
X187144129Y-53827111D01*
X187144129Y-53827112D01*
X187092148Y-53884841D01*
X187032663Y-53921489D01*
X186962806Y-53920158D01*
X186907851Y-53884841D01*
X186855871Y-53827112D01*
X186834713Y-53811740D01*
X186702734Y-53715851D01*
X186702729Y-53715848D01*
X186529807Y-53638857D01*
X186529802Y-53638855D01*
X186384001Y-53607865D01*
X186344646Y-53599500D01*
X186155354Y-53599500D01*
X186122897Y-53606398D01*
X185970197Y-53638855D01*
X185970192Y-53638857D01*
X185797270Y-53715848D01*
X185797265Y-53715851D01*
X185644132Y-53827109D01*
X185644129Y-53827111D01*
X185644129Y-53827112D01*
X185592148Y-53884841D01*
X185532663Y-53921489D01*
X185462806Y-53920158D01*
X185407851Y-53884841D01*
X185355871Y-53827112D01*
X185334713Y-53811740D01*
X185202734Y-53715851D01*
X185202729Y-53715848D01*
X185029807Y-53638857D01*
X185029802Y-53638855D01*
X184884001Y-53607865D01*
X184844646Y-53599500D01*
X184655354Y-53599500D01*
X184622897Y-53606398D01*
X184470197Y-53638855D01*
X184470192Y-53638857D01*
X184297270Y-53715848D01*
X184297265Y-53715851D01*
X184144129Y-53827111D01*
X184017466Y-53967785D01*
X183922821Y-54131715D01*
X183922818Y-54131722D01*
X183864327Y-54311740D01*
X183864326Y-54311744D01*
X183844540Y-54500000D01*
X175999411Y-54500000D01*
X175923600Y-54337422D01*
X175923599Y-54337420D01*
X175788113Y-54143926D01*
X175788108Y-54143920D01*
X175666053Y-54021865D01*
X175632568Y-53960542D01*
X175637552Y-53890850D01*
X175679424Y-53834917D01*
X175710400Y-53818002D01*
X175842331Y-53768796D01*
X175957546Y-53682546D01*
X176043796Y-53567331D01*
X176094091Y-53432483D01*
X176100500Y-53372873D01*
X176100499Y-51577128D01*
X176094091Y-51517517D01*
X176043796Y-51382669D01*
X176043795Y-51382668D01*
X176043793Y-51382664D01*
X175957547Y-51267455D01*
X175957544Y-51267452D01*
X175842335Y-51181206D01*
X175842328Y-51181202D01*
X175707482Y-51130908D01*
X175707483Y-51130908D01*
X175647883Y-51124501D01*
X175647881Y-51124500D01*
X175647873Y-51124500D01*
X175647864Y-51124500D01*
X173852129Y-51124500D01*
X173852123Y-51124501D01*
X173792516Y-51130908D01*
X173657671Y-51181202D01*
X173657664Y-51181206D01*
X173542455Y-51267452D01*
X173542452Y-51267455D01*
X173456206Y-51382664D01*
X173456202Y-51382671D01*
X173405908Y-51517517D01*
X173399501Y-51577116D01*
X173399501Y-51577123D01*
X173399500Y-51577135D01*
X173399500Y-53372870D01*
X173399501Y-53372876D01*
X173405908Y-53432483D01*
X173456202Y-53567328D01*
X173456206Y-53567335D01*
X173542452Y-53682544D01*
X173542455Y-53682547D01*
X173657664Y-53768793D01*
X173657671Y-53768797D01*
X173657674Y-53768798D01*
X173789598Y-53818002D01*
X173845531Y-53859873D01*
X173869949Y-53925337D01*
X173855098Y-53993610D01*
X173833947Y-54021865D01*
X173711886Y-54143926D01*
X173576400Y-54337420D01*
X173576399Y-54337422D01*
X173476570Y-54551507D01*
X173476567Y-54551513D01*
X173419364Y-54764999D01*
X173419364Y-54765000D01*
X174316988Y-54765000D01*
X174284075Y-54822007D01*
X174250000Y-54949174D01*
X174250000Y-55080826D01*
X174284075Y-55207993D01*
X174316988Y-55265000D01*
X173419364Y-55265000D01*
X173476567Y-55478486D01*
X173476570Y-55478492D01*
X173576399Y-55692578D01*
X173711891Y-55886078D01*
X173838795Y-56012983D01*
X173872279Y-56074306D01*
X173867295Y-56143998D01*
X173825423Y-56199931D01*
X173801557Y-56213940D01*
X173797270Y-56215848D01*
X173697885Y-56288056D01*
X173632078Y-56311535D01*
X173564025Y-56295709D01*
X173552115Y-56288056D01*
X173499725Y-56249993D01*
X173452730Y-56215849D01*
X173452728Y-56215848D01*
X173452729Y-56215848D01*
X173279807Y-56138857D01*
X173279802Y-56138855D01*
X173134001Y-56107865D01*
X173094646Y-56099500D01*
X172905354Y-56099500D01*
X172872897Y-56106398D01*
X172720197Y-56138855D01*
X172720192Y-56138857D01*
X172547270Y-56215848D01*
X172547265Y-56215851D01*
X172394129Y-56327111D01*
X172267466Y-56467785D01*
X172172821Y-56631715D01*
X172172819Y-56631719D01*
X172120227Y-56793581D01*
X172080789Y-56851256D01*
X172028079Y-56876552D01*
X171970194Y-56888856D01*
X171970192Y-56888857D01*
X171797270Y-56965848D01*
X171797265Y-56965851D01*
X171644129Y-57077111D01*
X171517466Y-57217785D01*
X171422821Y-57381715D01*
X171422818Y-57381722D01*
X171370917Y-57541459D01*
X171364326Y-57561744D01*
X171344540Y-57750000D01*
X166756481Y-57750000D01*
X166745186Y-57730437D01*
X166618524Y-57589765D01*
X166601109Y-57577112D01*
X166465387Y-57478504D01*
X166465382Y-57478501D01*
X166292460Y-57401510D01*
X166292455Y-57401508D01*
X166146654Y-57370518D01*
X166107299Y-57362153D01*
X165918007Y-57362153D01*
X165885550Y-57369051D01*
X165732850Y-57401508D01*
X165732845Y-57401510D01*
X165569495Y-57474240D01*
X165500245Y-57483525D01*
X165457064Y-57468351D01*
X165452730Y-57465849D01*
X165279807Y-57388857D01*
X165279802Y-57388855D01*
X165134001Y-57357865D01*
X165094646Y-57349500D01*
X164905354Y-57349500D01*
X164872897Y-57356398D01*
X164720197Y-57388855D01*
X164720192Y-57388857D01*
X164547270Y-57465848D01*
X164547265Y-57465851D01*
X164394129Y-57577111D01*
X164267466Y-57717785D01*
X164172821Y-57881715D01*
X164172818Y-57881722D01*
X164123921Y-58032214D01*
X164114326Y-58061744D01*
X164094540Y-58250000D01*
X161750000Y-58250000D01*
X161750000Y-58000000D01*
X161250000Y-58000000D01*
X161250000Y-65948638D01*
X161230315Y-66015677D01*
X161213681Y-66036319D01*
X159750000Y-67499999D01*
X159750000Y-71948637D01*
X159730315Y-72015676D01*
X159713681Y-72036318D01*
X158999999Y-72749999D01*
X148251132Y-72749999D01*
X148232533Y-72717784D01*
X148105871Y-72577112D01*
X148084713Y-72561740D01*
X147964387Y-72474318D01*
X147921721Y-72418988D01*
X147915742Y-72349375D01*
X147948348Y-72287580D01*
X148009186Y-72253223D01*
X148037272Y-72250000D01*
X150750000Y-72250000D01*
X150750000Y-71750000D01*
X146750000Y-71750000D01*
X146749999Y-71750000D01*
X146286319Y-72213681D01*
X146224996Y-72247166D01*
X146198638Y-72250000D01*
X144250000Y-72250000D01*
X143155460Y-72250000D01*
X143135674Y-72061744D01*
X143077179Y-71881716D01*
X142982533Y-71717784D01*
X142855871Y-71577112D01*
X142834719Y-71561744D01*
X142702734Y-71465851D01*
X142702729Y-71465848D01*
X142529807Y-71388857D01*
X142529802Y-71388855D01*
X142384001Y-71357865D01*
X142344646Y-71349500D01*
X142155354Y-71349500D01*
X142122897Y-71356398D01*
X141970197Y-71388855D01*
X141970192Y-71388857D01*
X141797270Y-71465848D01*
X141797265Y-71465851D01*
X141644129Y-71577111D01*
X141517466Y-71717785D01*
X141422821Y-71881715D01*
X141422818Y-71881722D01*
X141379294Y-72015676D01*
X141364326Y-72061744D01*
X141344540Y-72250000D01*
X138250000Y-72250000D01*
X137250000Y-71250000D01*
X146500000Y-71250000D01*
X147000000Y-71250000D01*
X147000000Y-68500000D01*
X156844540Y-68500000D01*
X156864326Y-68688256D01*
X156864327Y-68688259D01*
X156922818Y-68868277D01*
X156922821Y-68868284D01*
X157017467Y-69032216D01*
X157144129Y-69172888D01*
X157297265Y-69284148D01*
X157297270Y-69284151D01*
X157470192Y-69361142D01*
X157470197Y-69361144D01*
X157655354Y-69400500D01*
X157655355Y-69400500D01*
X157844644Y-69400500D01*
X157844646Y-69400500D01*
X158029803Y-69361144D01*
X158202730Y-69284151D01*
X158355871Y-69172888D01*
X158482533Y-69032216D01*
X158577179Y-68868284D01*
X158635674Y-68688256D01*
X158655460Y-68500000D01*
X158635674Y-68311744D01*
X158577179Y-68131716D01*
X158482533Y-67967784D01*
X158355871Y-67827112D01*
X158349851Y-67822738D01*
X158202734Y-67715851D01*
X158202729Y-67715848D01*
X158029807Y-67638857D01*
X158029802Y-67638855D01*
X157884001Y-67607865D01*
X157844646Y-67599500D01*
X157655354Y-67599500D01*
X157622897Y-67606398D01*
X157470197Y-67638855D01*
X157470192Y-67638857D01*
X157297270Y-67715848D01*
X157297265Y-67715851D01*
X157144129Y-67827111D01*
X157017466Y-67967785D01*
X156922821Y-68131715D01*
X156922818Y-68131722D01*
X156870948Y-68291364D01*
X156864326Y-68311744D01*
X156844540Y-68500000D01*
X147000000Y-68500000D01*
X147000000Y-68250000D01*
X146500000Y-68250000D01*
X146500000Y-71250000D01*
X137250000Y-71250000D01*
X133786319Y-67786319D01*
X133752834Y-67724996D01*
X133750000Y-67698638D01*
X133750000Y-67574994D01*
X135994859Y-67574994D01*
X135994859Y-67575005D01*
X136015385Y-67822729D01*
X136015387Y-67822738D01*
X136076412Y-68063717D01*
X136176266Y-68291364D01*
X136276564Y-68444882D01*
X136860690Y-67860756D01*
X136879668Y-67906574D01*
X136956274Y-68021224D01*
X137053776Y-68118726D01*
X137168426Y-68195332D01*
X137214242Y-68214309D01*
X136629942Y-68798609D01*
X136676768Y-68835055D01*
X136676770Y-68835056D01*
X136895385Y-68953364D01*
X136895396Y-68953369D01*
X137130506Y-69034083D01*
X137375707Y-69075000D01*
X137624293Y-69075000D01*
X137869493Y-69034083D01*
X138104603Y-68953369D01*
X138104614Y-68953364D01*
X138323228Y-68835057D01*
X138323231Y-68835055D01*
X138370056Y-68798609D01*
X137785756Y-68214309D01*
X137831574Y-68195332D01*
X137946224Y-68118726D01*
X138043726Y-68021224D01*
X138120332Y-67906574D01*
X138139309Y-67860757D01*
X138723434Y-68444882D01*
X138823731Y-68291369D01*
X138923587Y-68063717D01*
X138984612Y-67822738D01*
X138984614Y-67822729D01*
X139005141Y-67575005D01*
X139005141Y-67574994D01*
X138984614Y-67327270D01*
X138984612Y-67327261D01*
X138923587Y-67086282D01*
X138823731Y-66858630D01*
X138723434Y-66705116D01*
X138139309Y-67289241D01*
X138120332Y-67243426D01*
X138043726Y-67128776D01*
X137946224Y-67031274D01*
X137831574Y-66954668D01*
X137785757Y-66935690D01*
X138221447Y-66500000D01*
X141094540Y-66500000D01*
X141114326Y-66688256D01*
X141114327Y-66688259D01*
X141172818Y-66868277D01*
X141172821Y-66868284D01*
X141267467Y-67032216D01*
X141394129Y-67172888D01*
X141547265Y-67284148D01*
X141547270Y-67284151D01*
X141720192Y-67361142D01*
X141720197Y-67361144D01*
X141905354Y-67400500D01*
X141905355Y-67400500D01*
X142094644Y-67400500D01*
X142094646Y-67400500D01*
X142279803Y-67361144D01*
X142452730Y-67284151D01*
X142605871Y-67172888D01*
X142732533Y-67032216D01*
X142827179Y-66868284D01*
X142885674Y-66688256D01*
X142905460Y-66500000D01*
X147844540Y-66500000D01*
X147864326Y-66688256D01*
X147864327Y-66688259D01*
X147922818Y-66868277D01*
X147922821Y-66868284D01*
X148017467Y-67032216D01*
X148144129Y-67172888D01*
X148297265Y-67284148D01*
X148297270Y-67284151D01*
X148470192Y-67361142D01*
X148470197Y-67361144D01*
X148655354Y-67400500D01*
X148655355Y-67400500D01*
X148844644Y-67400500D01*
X148844646Y-67400500D01*
X149029803Y-67361144D01*
X149202730Y-67284151D01*
X149355871Y-67172888D01*
X149482533Y-67032216D01*
X149577179Y-66868284D01*
X149635674Y-66688256D01*
X149655460Y-66500000D01*
X149635674Y-66311744D01*
X149577179Y-66131716D01*
X149482533Y-65967784D01*
X149355871Y-65827112D01*
X149355870Y-65827111D01*
X149202734Y-65715851D01*
X149202729Y-65715848D01*
X149029807Y-65638857D01*
X149029802Y-65638855D01*
X148884001Y-65607865D01*
X148844646Y-65599500D01*
X148655354Y-65599500D01*
X148622897Y-65606398D01*
X148470197Y-65638855D01*
X148470192Y-65638857D01*
X148297270Y-65715848D01*
X148297265Y-65715851D01*
X148144129Y-65827111D01*
X148017466Y-65967785D01*
X147922821Y-66131715D01*
X147922818Y-66131722D01*
X147873921Y-66282214D01*
X147864326Y-66311744D01*
X147844540Y-66500000D01*
X142905460Y-66500000D01*
X142885674Y-66311744D01*
X142827179Y-66131716D01*
X142732533Y-65967784D01*
X142605871Y-65827112D01*
X142605870Y-65827111D01*
X142452734Y-65715851D01*
X142452729Y-65715848D01*
X142279807Y-65638857D01*
X142279802Y-65638855D01*
X142134001Y-65607865D01*
X142094646Y-65599500D01*
X141905354Y-65599500D01*
X141872897Y-65606398D01*
X141720197Y-65638855D01*
X141720192Y-65638857D01*
X141547270Y-65715848D01*
X141547265Y-65715851D01*
X141394129Y-65827111D01*
X141267466Y-65967785D01*
X141172821Y-66131715D01*
X141172818Y-66131722D01*
X141123921Y-66282214D01*
X141114326Y-66311744D01*
X141094540Y-66500000D01*
X138221447Y-66500000D01*
X138370057Y-66351390D01*
X138370056Y-66351389D01*
X138323229Y-66314943D01*
X138104614Y-66196635D01*
X138104603Y-66196630D01*
X137869493Y-66115916D01*
X137624293Y-66075000D01*
X137375707Y-66075000D01*
X137130506Y-66115916D01*
X136895396Y-66196630D01*
X136895390Y-66196632D01*
X136676761Y-66314949D01*
X136629942Y-66351388D01*
X136629942Y-66351390D01*
X137214242Y-66935690D01*
X137168426Y-66954668D01*
X137053776Y-67031274D01*
X136956274Y-67128776D01*
X136879668Y-67243426D01*
X136860690Y-67289242D01*
X136276564Y-66705116D01*
X136176267Y-66858632D01*
X136076412Y-67086282D01*
X136015387Y-67327261D01*
X136015385Y-67327270D01*
X135994859Y-67574994D01*
X133750000Y-67574994D01*
X133750000Y-64000000D01*
X149344540Y-64000000D01*
X149364326Y-64188256D01*
X149364327Y-64188259D01*
X149422818Y-64368277D01*
X149422821Y-64368284D01*
X149517467Y-64532216D01*
X149644129Y-64672888D01*
X149797265Y-64784148D01*
X149797270Y-64784151D01*
X149970192Y-64861142D01*
X149970197Y-64861144D01*
X150155354Y-64900500D01*
X150155355Y-64900500D01*
X150274643Y-64900500D01*
X150341682Y-64920185D01*
X150387437Y-64972989D01*
X150397381Y-65042147D01*
X150368356Y-65105703D01*
X150366793Y-65107472D01*
X150267466Y-65217785D01*
X150172821Y-65381715D01*
X150172818Y-65381722D01*
X150123921Y-65532214D01*
X150114326Y-65561744D01*
X150094540Y-65750000D01*
X150114326Y-65938256D01*
X150114327Y-65938259D01*
X150172818Y-66118277D01*
X150172821Y-66118284D01*
X150267467Y-66282216D01*
X150345596Y-66368987D01*
X150394129Y-66422888D01*
X150547265Y-66534148D01*
X150547270Y-66534151D01*
X150720192Y-66611142D01*
X150720197Y-66611144D01*
X150905354Y-66650500D01*
X150905355Y-66650500D01*
X151094644Y-66650500D01*
X151094646Y-66650500D01*
X151279803Y-66611144D01*
X151452730Y-66534151D01*
X151605871Y-66422888D01*
X151732533Y-66282216D01*
X151827179Y-66118284D01*
X151885674Y-65938256D01*
X151905460Y-65750000D01*
X151885674Y-65561744D01*
X151827179Y-65381716D01*
X151732533Y-65217784D01*
X151605871Y-65077112D01*
X151557746Y-65042147D01*
X151452734Y-64965851D01*
X151452729Y-64965848D01*
X151279807Y-64888857D01*
X151279802Y-64888855D01*
X151134001Y-64857865D01*
X151094646Y-64849500D01*
X150975357Y-64849500D01*
X150908318Y-64829815D01*
X150862563Y-64777011D01*
X150852619Y-64707853D01*
X150881644Y-64644297D01*
X150883207Y-64642528D01*
X150892937Y-64631722D01*
X150982533Y-64532216D01*
X151077179Y-64368284D01*
X151135674Y-64188256D01*
X151155460Y-64000000D01*
X151135674Y-63811744D01*
X151077179Y-63631716D01*
X150982533Y-63467784D01*
X150855871Y-63327112D01*
X150855870Y-63327111D01*
X150702734Y-63215851D01*
X150702729Y-63215848D01*
X150529807Y-63138857D01*
X150529802Y-63138855D01*
X150384001Y-63107865D01*
X150344646Y-63099500D01*
X150155354Y-63099500D01*
X150122897Y-63106398D01*
X149970197Y-63138855D01*
X149970192Y-63138857D01*
X149797270Y-63215848D01*
X149797265Y-63215851D01*
X149644129Y-63327111D01*
X149517466Y-63467785D01*
X149422821Y-63631715D01*
X149422818Y-63631722D01*
X149364327Y-63811740D01*
X149364326Y-63811744D01*
X149344540Y-64000000D01*
X133750000Y-64000000D01*
X133750000Y-62250000D01*
X133749999Y-62249999D01*
X132500001Y-61000000D01*
X139500000Y-61000000D01*
X155000000Y-61000000D01*
X155000000Y-60500000D01*
X140124000Y-60500000D01*
X140056961Y-60480315D01*
X140011206Y-60427511D01*
X140000000Y-60376000D01*
X140000000Y-58250000D01*
X154594540Y-58250000D01*
X154614326Y-58438256D01*
X154614327Y-58438259D01*
X154672818Y-58618277D01*
X154672821Y-58618284D01*
X154767467Y-58782216D01*
X154857063Y-58881722D01*
X154894129Y-58922888D01*
X155047265Y-59034148D01*
X155047270Y-59034151D01*
X155220192Y-59111142D01*
X155220197Y-59111144D01*
X155405354Y-59150500D01*
X155405355Y-59150500D01*
X155594644Y-59150500D01*
X155594646Y-59150500D01*
X155779803Y-59111144D01*
X155952730Y-59034151D01*
X156105871Y-58922888D01*
X156232533Y-58782216D01*
X156327179Y-58618284D01*
X156385674Y-58438256D01*
X156405460Y-58250000D01*
X156385674Y-58061744D01*
X156327179Y-57881716D01*
X156232533Y-57717784D01*
X156105871Y-57577112D01*
X156084719Y-57561744D01*
X155952734Y-57465851D01*
X155952729Y-57465848D01*
X155779807Y-57388857D01*
X155779802Y-57388855D01*
X155634001Y-57357865D01*
X155594646Y-57349500D01*
X155405354Y-57349500D01*
X155372897Y-57356398D01*
X155220197Y-57388855D01*
X155220192Y-57388857D01*
X155047270Y-57465848D01*
X155047265Y-57465851D01*
X154894129Y-57577111D01*
X154767466Y-57717785D01*
X154672821Y-57881715D01*
X154672818Y-57881722D01*
X154623921Y-58032214D01*
X154614326Y-58061744D01*
X154594540Y-58250000D01*
X140000000Y-58250000D01*
X140000000Y-53750000D01*
X139500000Y-53750000D01*
X139500000Y-61000000D01*
X132500001Y-61000000D01*
X131750000Y-60249999D01*
X131750000Y-61000000D01*
X131250000Y-61000000D01*
X131250000Y-52500000D01*
X136844540Y-52500000D01*
X136864326Y-52688256D01*
X136864327Y-52688259D01*
X136922818Y-52868277D01*
X136922821Y-52868284D01*
X137017467Y-53032216D01*
X137144129Y-53172888D01*
X137297265Y-53284148D01*
X137297270Y-53284151D01*
X137470192Y-53361142D01*
X137470197Y-53361144D01*
X137655354Y-53400500D01*
X137655355Y-53400500D01*
X137844644Y-53400500D01*
X137844646Y-53400500D01*
X138029803Y-53361144D01*
X138202730Y-53284151D01*
X138355871Y-53172888D01*
X138482533Y-53032216D01*
X138577179Y-52868284D01*
X138635674Y-52688256D01*
X138655460Y-52500000D01*
X138635674Y-52311744D01*
X138577179Y-52131716D01*
X138482533Y-51967784D01*
X138355871Y-51827112D01*
X138355870Y-51827111D01*
X138202734Y-51715851D01*
X138202729Y-51715848D01*
X138029807Y-51638857D01*
X138029802Y-51638855D01*
X137884001Y-51607865D01*
X137844646Y-51599500D01*
X137655354Y-51599500D01*
X137622897Y-51606398D01*
X137470197Y-51638855D01*
X137470192Y-51638857D01*
X137297270Y-51715848D01*
X137297265Y-51715851D01*
X137144129Y-51827111D01*
X137017466Y-51967785D01*
X136922821Y-52131715D01*
X136922818Y-52131722D01*
X136894855Y-52217785D01*
X136864326Y-52311744D01*
X136844540Y-52500000D01*
X131250000Y-52500000D01*
X131250000Y-51500000D01*
X150069540Y-51500000D01*
X150089326Y-51688256D01*
X150089327Y-51688259D01*
X150147818Y-51868277D01*
X150147821Y-51868284D01*
X150242467Y-52032216D01*
X150248096Y-52038467D01*
X150251304Y-52042031D01*
X150281531Y-52105023D01*
X150272904Y-52174358D01*
X150251304Y-52207969D01*
X150242466Y-52217785D01*
X150147821Y-52381715D01*
X150147818Y-52381722D01*
X150089327Y-52561740D01*
X150089326Y-52561744D01*
X150069540Y-52750000D01*
X150089326Y-52938256D01*
X150089327Y-52938259D01*
X150147818Y-53118277D01*
X150147821Y-53118284D01*
X150242467Y-53282216D01*
X150248096Y-53288467D01*
X150251304Y-53292031D01*
X150281531Y-53355023D01*
X150272904Y-53424358D01*
X150251304Y-53457969D01*
X150242466Y-53467785D01*
X150147821Y-53631715D01*
X150147818Y-53631722D01*
X150103280Y-53768797D01*
X150089326Y-53811744D01*
X150069540Y-54000000D01*
X150089326Y-54188256D01*
X150089327Y-54188259D01*
X150147818Y-54368277D01*
X150147821Y-54368284D01*
X150242467Y-54532216D01*
X150316917Y-54614901D01*
X150369129Y-54672888D01*
X150522265Y-54784148D01*
X150522270Y-54784151D01*
X150695192Y-54861142D01*
X150695197Y-54861144D01*
X150880354Y-54900500D01*
X150880355Y-54900500D01*
X151069644Y-54900500D01*
X151069646Y-54900500D01*
X151254803Y-54861144D01*
X151427730Y-54784151D01*
X151580871Y-54672888D01*
X151707533Y-54532216D01*
X151802179Y-54368284D01*
X151860674Y-54188256D01*
X151880460Y-54000000D01*
X151860674Y-53811744D01*
X151802179Y-53631716D01*
X151707533Y-53467784D01*
X151698698Y-53457972D01*
X151668469Y-53394981D01*
X151677093Y-53325646D01*
X151698699Y-53292027D01*
X151707533Y-53282216D01*
X151802179Y-53118284D01*
X151860674Y-52938256D01*
X151880460Y-52750000D01*
X151860674Y-52561744D01*
X151802179Y-52381716D01*
X151707533Y-52217784D01*
X151698698Y-52207972D01*
X151668469Y-52144981D01*
X151677093Y-52075646D01*
X151698699Y-52042027D01*
X151707533Y-52032216D01*
X151802179Y-51868284D01*
X151860674Y-51688256D01*
X151880460Y-51500000D01*
X151860674Y-51311744D01*
X151802179Y-51131716D01*
X151707533Y-50967784D01*
X151580871Y-50827112D01*
X151580870Y-50827111D01*
X151427734Y-50715851D01*
X151427729Y-50715848D01*
X151254807Y-50638857D01*
X151254802Y-50638855D01*
X151109001Y-50607865D01*
X151069646Y-50599500D01*
X150880354Y-50599500D01*
X150847897Y-50606398D01*
X150695197Y-50638855D01*
X150695192Y-50638857D01*
X150522270Y-50715848D01*
X150522265Y-50715851D01*
X150369129Y-50827111D01*
X150242466Y-50967785D01*
X150147821Y-51131715D01*
X150147818Y-51131722D01*
X150103716Y-51267455D01*
X150089326Y-51311744D01*
X150069540Y-51500000D01*
X131250000Y-51500000D01*
X131250000Y-45750000D01*
X160844542Y-45750000D01*
X160864328Y-45938256D01*
X160864329Y-45938259D01*
X160922820Y-46118277D01*
X160922823Y-46118284D01*
X161017469Y-46282216D01*
X161107065Y-46381722D01*
X161144131Y-46422888D01*
X161297267Y-46534148D01*
X161297272Y-46534151D01*
X161470194Y-46611142D01*
X161470199Y-46611144D01*
X161655356Y-46650500D01*
X161655357Y-46650500D01*
X161844646Y-46650500D01*
X161844648Y-46650500D01*
X162029805Y-46611144D01*
X162179098Y-46544673D01*
X162248344Y-46535388D01*
X162311621Y-46565016D01*
X162348835Y-46624151D01*
X162352852Y-46670914D01*
X162344540Y-46750000D01*
X162364326Y-46938256D01*
X162364327Y-46938259D01*
X162422818Y-47118277D01*
X162422821Y-47118284D01*
X162517467Y-47282216D01*
X162644129Y-47422888D01*
X162797265Y-47534148D01*
X162797270Y-47534151D01*
X162970192Y-47611142D01*
X162970197Y-47611144D01*
X163155354Y-47650500D01*
X163155355Y-47650500D01*
X163344644Y-47650500D01*
X163344646Y-47650500D01*
X163529803Y-47611144D01*
X163699566Y-47535559D01*
X163768813Y-47526275D01*
X163800430Y-47535557D01*
X163970197Y-47611144D01*
X164155354Y-47650500D01*
X164155355Y-47650500D01*
X164344644Y-47650500D01*
X164344646Y-47650500D01*
X164529803Y-47611144D01*
X164702730Y-47534151D01*
X164855871Y-47422888D01*
X164982533Y-47282216D01*
X165077179Y-47118284D01*
X165135674Y-46938256D01*
X165155460Y-46750000D01*
X165135674Y-46561744D01*
X165077179Y-46381716D01*
X164982533Y-46217784D01*
X164855871Y-46077112D01*
X164855870Y-46077111D01*
X164702734Y-45965851D01*
X164702729Y-45965848D01*
X164529807Y-45888857D01*
X164529802Y-45888855D01*
X164384001Y-45857865D01*
X164344646Y-45849500D01*
X164155354Y-45849500D01*
X164122897Y-45856398D01*
X163970197Y-45888855D01*
X163970192Y-45888857D01*
X163800436Y-45964439D01*
X163731186Y-45973724D01*
X163699564Y-45964439D01*
X163529807Y-45888857D01*
X163529802Y-45888855D01*
X163384001Y-45857865D01*
X163344646Y-45849500D01*
X163155354Y-45849500D01*
X163122897Y-45856398D01*
X162970197Y-45888855D01*
X162970192Y-45888857D01*
X162820906Y-45955325D01*
X162751656Y-45964610D01*
X162688379Y-45934982D01*
X162651166Y-45875847D01*
X162647149Y-45829090D01*
X162655462Y-45750000D01*
X162635676Y-45561744D01*
X162577181Y-45381716D01*
X162482535Y-45217784D01*
X162355873Y-45077112D01*
X162355872Y-45077111D01*
X162202736Y-44965851D01*
X162202731Y-44965848D01*
X162029809Y-44888857D01*
X162029804Y-44888855D01*
X161884003Y-44857865D01*
X161844648Y-44849500D01*
X161655356Y-44849500D01*
X161622899Y-44856398D01*
X161470199Y-44888855D01*
X161470194Y-44888857D01*
X161297272Y-44965848D01*
X161297267Y-44965851D01*
X161144131Y-45077111D01*
X161017468Y-45217785D01*
X160922823Y-45381715D01*
X160922820Y-45381722D01*
X160864329Y-45561740D01*
X160864328Y-45561744D01*
X160844542Y-45750000D01*
X131250000Y-45750000D01*
X131250000Y-43874000D01*
X131269685Y-43806961D01*
X131322489Y-43761206D01*
X131374000Y-43750000D01*
X167375500Y-43750000D01*
X167442539Y-43769685D01*
G37*
G04 #@! TD.AperFunction*
M02*
