G04 #@! TF.GenerationSoftware,KiCad,Pcbnew,8.0.4*
G04 #@! TF.CreationDate,2024-09-21T08:46:09+10:00*
G04 #@! TF.ProjectId,hsa_r0,6873615f-7230-42e6-9b69-6361645f7063,rev?*
G04 #@! TF.SameCoordinates,Original*
G04 #@! TF.FileFunction,Copper,L4,Bot*
G04 #@! TF.FilePolarity,Positive*
%FSLAX46Y46*%
G04 Gerber Fmt 4.6, Leading zero omitted, Abs format (unit mm)*
G04 Created by KiCad (PCBNEW 8.0.4) date 2024-09-21 08:46:09*
%MOMM*%
%LPD*%
G01*
G04 APERTURE LIST*
G04 Aperture macros list*
%AMRoundRect*
0 Rectangle with rounded corners*
0 $1 Rounding radius*
0 $2 $3 $4 $5 $6 $7 $8 $9 X,Y pos of 4 corners*
0 Add a 4 corners polygon primitive as box body*
4,1,4,$2,$3,$4,$5,$6,$7,$8,$9,$2,$3,0*
0 Add four circle primitives for the rounded corners*
1,1,$1+$1,$2,$3*
1,1,$1+$1,$4,$5*
1,1,$1+$1,$6,$7*
1,1,$1+$1,$8,$9*
0 Add four rect primitives between the rounded corners*
20,1,$1+$1,$2,$3,$4,$5,0*
20,1,$1+$1,$4,$5,$6,$7,0*
20,1,$1+$1,$6,$7,$8,$9,0*
20,1,$1+$1,$8,$9,$2,$3,0*%
G04 Aperture macros list end*
G04 #@! TA.AperFunction,ComponentPad*
%ADD10O,0.900000X1.600000*%
G04 #@! TD*
G04 #@! TA.AperFunction,ComponentPad*
%ADD11C,1.800000*%
G04 #@! TD*
G04 #@! TA.AperFunction,ComponentPad*
%ADD12C,2.000000*%
G04 #@! TD*
G04 #@! TA.AperFunction,ComponentPad*
%ADD13R,1.700000X1.700000*%
G04 #@! TD*
G04 #@! TA.AperFunction,ComponentPad*
%ADD14O,1.700000X1.700000*%
G04 #@! TD*
G04 #@! TA.AperFunction,ComponentPad*
%ADD15C,3.600000*%
G04 #@! TD*
G04 #@! TA.AperFunction,ConnectorPad*
%ADD16C,5.700000*%
G04 #@! TD*
G04 #@! TA.AperFunction,SMDPad,CuDef*
%ADD17RoundRect,0.200000X-0.275000X0.200000X-0.275000X-0.200000X0.275000X-0.200000X0.275000X0.200000X0*%
G04 #@! TD*
G04 #@! TA.AperFunction,SMDPad,CuDef*
%ADD18RoundRect,0.225000X0.250000X-0.225000X0.250000X0.225000X-0.250000X0.225000X-0.250000X-0.225000X0*%
G04 #@! TD*
G04 #@! TA.AperFunction,SMDPad,CuDef*
%ADD19R,1.550000X1.000000*%
G04 #@! TD*
G04 #@! TA.AperFunction,SMDPad,CuDef*
%ADD20RoundRect,0.225000X-0.250000X0.225000X-0.250000X-0.225000X0.250000X-0.225000X0.250000X0.225000X0*%
G04 #@! TD*
G04 #@! TA.AperFunction,SMDPad,CuDef*
%ADD21RoundRect,0.200000X0.275000X-0.200000X0.275000X0.200000X-0.275000X0.200000X-0.275000X-0.200000X0*%
G04 #@! TD*
G04 #@! TA.AperFunction,ViaPad*
%ADD22C,0.800000*%
G04 #@! TD*
G04 #@! TA.AperFunction,ViaPad*
%ADD23C,0.600000*%
G04 #@! TD*
G04 #@! TA.AperFunction,Conductor*
%ADD24C,0.250000*%
G04 #@! TD*
G04 #@! TA.AperFunction,Conductor*
%ADD25C,0.500000*%
G04 #@! TD*
G04 APERTURE END LIST*
D10*
X175050000Y-44000000D03*
X168450000Y-44000000D03*
D11*
X202250000Y-83750000D03*
X202250000Y-78750000D03*
X202250000Y-81250000D03*
D12*
X137500000Y-67575000D03*
D13*
X174750000Y-52475000D03*
D14*
X174750000Y-55015000D03*
D15*
X135000000Y-85000000D03*
D16*
X135000000Y-85000000D03*
D11*
X202250000Y-61250000D03*
X202250000Y-56250000D03*
X202250000Y-58750000D03*
D17*
X197250000Y-58425000D03*
X197250000Y-60075000D03*
D18*
X198800000Y-81525000D03*
X198800000Y-79975000D03*
X195750000Y-48275000D03*
X195750000Y-46725000D03*
D19*
X197875000Y-49100000D03*
X197875000Y-45900000D03*
X203125000Y-49100000D03*
X203125000Y-45900000D03*
D20*
X198800000Y-83475000D03*
X198800000Y-85025000D03*
D19*
X147875000Y-49100000D03*
X147875000Y-45900000D03*
X153125000Y-49100000D03*
X153125000Y-45900000D03*
X160375000Y-49100000D03*
X160375000Y-45900000D03*
X165625000Y-49100000D03*
X165625000Y-45900000D03*
D21*
X197250000Y-56575000D03*
X197250000Y-54925000D03*
D19*
X185375000Y-49100000D03*
X185375000Y-45900000D03*
X190625000Y-49100000D03*
X190625000Y-45900000D03*
D18*
X145750000Y-48275000D03*
X145750000Y-46725000D03*
D21*
X195750000Y-60075000D03*
X195750000Y-58425000D03*
D17*
X195800000Y-79925000D03*
X195800000Y-81575000D03*
D19*
X135375000Y-49100000D03*
X135375000Y-45900000D03*
X140625000Y-49100000D03*
X140625000Y-45900000D03*
D18*
X183250000Y-48275000D03*
X183250000Y-46725000D03*
D17*
X195750000Y-54925000D03*
X195750000Y-56575000D03*
D18*
X158250000Y-48275000D03*
X158250000Y-46725000D03*
D21*
X197300000Y-81575000D03*
X197300000Y-79925000D03*
D18*
X198750000Y-56525000D03*
X198750000Y-54975000D03*
D21*
X195800000Y-85075000D03*
X195800000Y-83425000D03*
D17*
X197300000Y-83425000D03*
X197300000Y-85075000D03*
D18*
X133250000Y-48275000D03*
X133250000Y-46725000D03*
D19*
X172875000Y-49100000D03*
X172875000Y-45900000D03*
X178125000Y-49100000D03*
X178125000Y-45900000D03*
D18*
X170750000Y-48275000D03*
X170750000Y-46725000D03*
D20*
X198750000Y-58475000D03*
X198750000Y-60025000D03*
D22*
X182750000Y-79500000D03*
X195000000Y-82500000D03*
X185500000Y-71500000D03*
X189250000Y-54500000D03*
X195000000Y-57500000D03*
X162250000Y-87000000D03*
X167750000Y-59250000D03*
X165500000Y-78500000D03*
X162250000Y-68500000D03*
X186760398Y-66737271D03*
X184500000Y-79500000D03*
X187750000Y-54500000D03*
X193750000Y-87000000D03*
X193000000Y-71750000D03*
X187250000Y-62500000D03*
X184750000Y-54500000D03*
X167500000Y-87000000D03*
X177250000Y-87000000D03*
X186250000Y-54500000D03*
X180500000Y-83000000D03*
X185500000Y-74500000D03*
X181000000Y-59250000D03*
X191000000Y-63000000D03*
D23*
X193750000Y-88250000D03*
D22*
X155500000Y-61750000D03*
X145000000Y-80500000D03*
D23*
X155750000Y-67500000D03*
X132500000Y-62500000D03*
X194250000Y-76250000D03*
X132500000Y-77500000D03*
X135000000Y-62500000D03*
X171500000Y-54250000D03*
D22*
X182500000Y-59250000D03*
D23*
X205000000Y-75000000D03*
D22*
X179750000Y-45997500D03*
X190750000Y-55000000D03*
D23*
X163750000Y-65000000D03*
D22*
X153475000Y-52250000D03*
X187500000Y-69500000D03*
D23*
X163750000Y-62500000D03*
X158500000Y-64250000D03*
X145000000Y-66500000D03*
D22*
X147250000Y-81000000D03*
D23*
X147500000Y-87500000D03*
D22*
X200250000Y-57250000D03*
D23*
X132500000Y-67500000D03*
D22*
X195750000Y-45500000D03*
D23*
X132500000Y-72500000D03*
X140000000Y-72500000D03*
X171500000Y-50250000D03*
X182500000Y-56500000D03*
X180000000Y-75000000D03*
X148000000Y-71250000D03*
X180000000Y-70000000D03*
X166500000Y-55250000D03*
D22*
X170500000Y-57750000D03*
X176000000Y-83000000D03*
X164000000Y-77750000D03*
D23*
X197500000Y-72500000D03*
X167500000Y-54250000D03*
D22*
X152000000Y-74250000D03*
X151000000Y-62750000D03*
D23*
X170000000Y-75000000D03*
D22*
X144725000Y-51250000D03*
D23*
X196000000Y-62000000D03*
X194500000Y-81500000D03*
D22*
X190750000Y-66500000D03*
X156250000Y-73000000D03*
D23*
X192250000Y-64500000D03*
X194250000Y-58500000D03*
D22*
X145750000Y-45500000D03*
D23*
X200000000Y-70000000D03*
D22*
X184500000Y-68750000D03*
X182750000Y-62500000D03*
D23*
X182250000Y-81500000D03*
D22*
X189500000Y-78000000D03*
X169250000Y-59250000D03*
D23*
X197500000Y-67500000D03*
D22*
X163000000Y-43750000D03*
D23*
X195250000Y-69750000D03*
D22*
X153475000Y-53250000D03*
X141500000Y-81250000D03*
X133250000Y-45500000D03*
X143000000Y-81250000D03*
D23*
X192500000Y-60000000D03*
D22*
X160750000Y-68500000D03*
X144750000Y-64000000D03*
D23*
X175000000Y-65000000D03*
X191500000Y-74250000D03*
X202000000Y-63250000D03*
X205000000Y-70000000D03*
X175000000Y-75000000D03*
X152500000Y-87500000D03*
X148250000Y-76750000D03*
X205000000Y-65000000D03*
D22*
X159000000Y-74000000D03*
X181750000Y-44250000D03*
X189250000Y-86500000D03*
D23*
X147000000Y-79000000D03*
D22*
X193000000Y-73250000D03*
X179250000Y-44250000D03*
D23*
X170000000Y-79250000D03*
X150000000Y-85000000D03*
D22*
X138250000Y-61500000D03*
X166250000Y-87000000D03*
X191750000Y-81000000D03*
D23*
X177250000Y-60500000D03*
X200000000Y-65000000D03*
D22*
X180500000Y-44250000D03*
D23*
X187500000Y-57500000D03*
X166250000Y-79750000D03*
X170000000Y-70000000D03*
X169250000Y-48250000D03*
X137500000Y-77500000D03*
D22*
X145250000Y-71750000D03*
D23*
X155500000Y-57000000D03*
D22*
X132250000Y-59000000D03*
D23*
X190000000Y-60000000D03*
D22*
X159250000Y-68500000D03*
X153750000Y-81250000D03*
X168750000Y-87000000D03*
D23*
X167250000Y-62500000D03*
X170000000Y-65000000D03*
D22*
X178750000Y-79500000D03*
D23*
X154500000Y-69500000D03*
X152000000Y-80750000D03*
X142500000Y-87500000D03*
X145000000Y-85000000D03*
X178750000Y-57500000D03*
X175000000Y-70000000D03*
D22*
X183250000Y-55000000D03*
X146762653Y-67512653D03*
X152975000Y-59000000D03*
X185500000Y-76000000D03*
D23*
X163750000Y-67500000D03*
X200000000Y-52500000D03*
X200000000Y-75000000D03*
D22*
X158500000Y-61750000D03*
D23*
X140500000Y-66500000D03*
X140000000Y-85000000D03*
D22*
X132250000Y-52500000D03*
X200000000Y-61000000D03*
D23*
X197500000Y-87500000D03*
X135000000Y-80000000D03*
X202500000Y-67500000D03*
X149000000Y-72750000D03*
X135000000Y-75000000D03*
X180000000Y-65000000D03*
D22*
X193000000Y-70250000D03*
D23*
X163750000Y-60000000D03*
X137500000Y-55750000D03*
D22*
X185500000Y-73000000D03*
D23*
X202500000Y-72500000D03*
X164500000Y-73750000D03*
X195000000Y-52500000D03*
X152500000Y-64250000D03*
D22*
X153475000Y-54250000D03*
X176250000Y-59500000D03*
X175750000Y-58500000D03*
X175250000Y-57500000D03*
X174250000Y-57000000D03*
X173000000Y-57000000D03*
X172250000Y-57750000D03*
X152000000Y-78250000D03*
X150975000Y-52750000D03*
X150975000Y-54000000D03*
X137750000Y-52500000D03*
X150975000Y-51500000D03*
X147500000Y-73250000D03*
X141500000Y-74250000D03*
X151000000Y-65750000D03*
X153750000Y-74250000D03*
X150250000Y-64000000D03*
X148750000Y-66500000D03*
X155500000Y-58250000D03*
X157750000Y-68500000D03*
X142000000Y-66500000D03*
X142250000Y-72250000D03*
X166012653Y-58262653D03*
X165750000Y-72750000D03*
X165000000Y-58250000D03*
X165750000Y-74000000D03*
X163250000Y-46750000D03*
X164250000Y-46750000D03*
X161750002Y-45750000D03*
X164250000Y-82250000D03*
X173750000Y-82250000D03*
X181250000Y-65000000D03*
X192250000Y-79250000D03*
X184750000Y-81250000D03*
X181250000Y-76000000D03*
X177500000Y-76250000D03*
X176500000Y-76250000D03*
X175250000Y-79250000D03*
X177000000Y-79000000D03*
D24*
X181750000Y-44250000D02*
X183250000Y-45750000D01*
X183250000Y-45750000D02*
X183250000Y-46725000D01*
X195750000Y-57500000D02*
X195750000Y-58425000D01*
X195750000Y-57500000D02*
X195000000Y-57500000D01*
X195750000Y-56575000D02*
X195750000Y-57500000D01*
X195800000Y-81575000D02*
X195800000Y-82500000D01*
X195800000Y-82500000D02*
X195000000Y-82500000D01*
X195800000Y-82500000D02*
X195800000Y-83425000D01*
X170750000Y-46750000D02*
X169250000Y-48250000D01*
X158250000Y-46725000D02*
X158250000Y-45500000D01*
X158250000Y-45500000D02*
X159250000Y-44500000D01*
X133250000Y-46725000D02*
X133250000Y-45500000D01*
X195750000Y-46725000D02*
X195750000Y-45500000D01*
X170750000Y-46725000D02*
X170750000Y-46750000D01*
X145750000Y-46725000D02*
X145750000Y-45500000D01*
X197875000Y-49100000D02*
X196575000Y-49100000D01*
X177000000Y-57886396D02*
X184961396Y-49925000D01*
X184961396Y-49925000D02*
X197050000Y-49925000D01*
X196575000Y-49100000D02*
X195750000Y-48275000D01*
X197050000Y-49925000D02*
X197875000Y-49100000D01*
X176250000Y-59500000D02*
X177000000Y-58750000D01*
X177000000Y-58750000D02*
X177000000Y-57886396D01*
X185150000Y-49100000D02*
X185375000Y-49100000D01*
X175750000Y-58500000D02*
X185150000Y-49100000D01*
X185375000Y-49100000D02*
X184075000Y-49100000D01*
X184075000Y-49100000D02*
X183250000Y-48275000D01*
X176113604Y-57500000D02*
X181250000Y-52363604D01*
X179225000Y-48275000D02*
X173700000Y-48275000D01*
X171575000Y-49100000D02*
X170750000Y-48275000D01*
X181250000Y-50300000D02*
X179225000Y-48275000D01*
X175250000Y-57500000D02*
X176113604Y-57500000D01*
X173700000Y-48275000D02*
X172875000Y-49100000D01*
X172875000Y-49100000D02*
X171575000Y-49100000D01*
X181250000Y-52363604D02*
X181250000Y-50300000D01*
X160375000Y-53625000D02*
X160375000Y-49100000D01*
X160375000Y-49100000D02*
X159075000Y-49100000D01*
X173375000Y-56125000D02*
X162875000Y-56125000D01*
X162875000Y-56125000D02*
X160375000Y-53625000D01*
X159075000Y-49100000D02*
X158250000Y-48275000D01*
X174250000Y-57000000D02*
X173375000Y-56125000D01*
X147875000Y-49100000D02*
X146575000Y-49100000D01*
X146575000Y-49100000D02*
X145750000Y-48275000D01*
X162688604Y-56575000D02*
X153113604Y-47000000D01*
X173000000Y-57000000D02*
X172575000Y-56575000D01*
X172575000Y-56575000D02*
X162688604Y-56575000D01*
X149975000Y-47000000D02*
X147875000Y-49100000D01*
X153113604Y-47000000D02*
X149975000Y-47000000D01*
X162502208Y-57025000D02*
X155927208Y-50450000D01*
X172250000Y-57750000D02*
X171525000Y-57025000D01*
X133250000Y-48275000D02*
X134075000Y-49100000D01*
X136725000Y-50450000D02*
X135375000Y-49100000D01*
X171525000Y-57025000D02*
X162502208Y-57025000D01*
X155927208Y-50450000D02*
X136725000Y-50450000D01*
X134075000Y-49100000D02*
X135375000Y-49100000D01*
D25*
X157000000Y-59750000D02*
X157000000Y-67750000D01*
X155500000Y-58250000D02*
X157000000Y-59750000D01*
X157000000Y-67750000D02*
X157750000Y-68500000D01*
D24*
X165750000Y-72750000D02*
X165500000Y-72500000D01*
X165500000Y-72500000D02*
X165500000Y-58775305D01*
X165500000Y-58775305D02*
X166012652Y-58262653D01*
X166012652Y-58262653D02*
X166012653Y-58262653D01*
X165750000Y-74000000D02*
X165000000Y-73250000D01*
X165000000Y-73250000D02*
X165000000Y-58250000D01*
X164250000Y-82250000D02*
X173750000Y-82250000D01*
X187500000Y-81250000D02*
X184750000Y-81250000D01*
X192250000Y-79250000D02*
X189500000Y-79250000D01*
X189500000Y-79250000D02*
X187500000Y-81250000D01*
X181250000Y-65000000D02*
X181250000Y-76000000D01*
X197250000Y-56575000D02*
X196525000Y-55850000D01*
X195251996Y-55850000D02*
X193500000Y-57601996D01*
X197250000Y-56575000D02*
X198700000Y-56575000D01*
X196525000Y-55850000D02*
X195251996Y-55850000D01*
X194250000Y-73250000D02*
X191750000Y-75750000D01*
X177975000Y-76725000D02*
X177500000Y-76250000D01*
X186775305Y-75750000D02*
X185800305Y-76725000D01*
X191750000Y-75750000D02*
X186775305Y-75750000D01*
X185800305Y-76725000D02*
X177975000Y-76725000D01*
X193500000Y-59250000D02*
X194250000Y-60000000D01*
X194250000Y-60000000D02*
X194250000Y-73250000D01*
X198700000Y-56575000D02*
X198750000Y-56525000D01*
X193500000Y-57601996D02*
X193500000Y-59250000D01*
X197300000Y-81575000D02*
X198750000Y-81575000D01*
X195000000Y-80348004D02*
X195000000Y-78750000D01*
X176699695Y-79725000D02*
X176250000Y-79275305D01*
X192900000Y-76650000D02*
X187148097Y-76650000D01*
X195501996Y-80850000D02*
X195000000Y-80348004D01*
X186173097Y-77625000D02*
X179400305Y-77625000D01*
X179400305Y-77625000D02*
X177300305Y-79725000D01*
X187148097Y-76650000D02*
X186173097Y-77625000D01*
X177300305Y-79725000D02*
X176699695Y-79725000D01*
X196575000Y-80850000D02*
X195501996Y-80850000D01*
X176250000Y-79275305D02*
X176250000Y-76500000D01*
X176250000Y-76500000D02*
X176500000Y-76250000D01*
X198750000Y-81575000D02*
X198800000Y-81525000D01*
X197300000Y-81575000D02*
X196575000Y-80850000D01*
X195000000Y-78750000D02*
X192900000Y-76650000D01*
X179050305Y-80225000D02*
X176225000Y-80225000D01*
X187334493Y-77100000D02*
X186359493Y-78075000D01*
X193750000Y-79500000D02*
X191350000Y-77100000D01*
X194650000Y-84150000D02*
X193750000Y-83250000D01*
X193750000Y-83250000D02*
X193750000Y-79500000D01*
X197023004Y-83425000D02*
X197300000Y-83425000D01*
X197300000Y-83425000D02*
X198750000Y-83425000D01*
X196575000Y-84150000D02*
X194650000Y-84150000D01*
X186359493Y-78075000D02*
X181200305Y-78075000D01*
X198750000Y-83425000D02*
X198800000Y-83475000D01*
X197300000Y-83425000D02*
X196575000Y-84150000D01*
X191350000Y-77100000D02*
X187334493Y-77100000D01*
X176225000Y-80225000D02*
X175250000Y-79250000D01*
X181200305Y-78075000D02*
X179050305Y-80225000D01*
X178825000Y-77175000D02*
X177000000Y-79000000D01*
X197250000Y-58425000D02*
X200142588Y-58425000D01*
X203475000Y-63275000D02*
X194700000Y-72050000D01*
X186961701Y-76200000D02*
X185986701Y-77175000D01*
X197250000Y-58425000D02*
X198700000Y-58425000D01*
X200142588Y-58425000D02*
X201742588Y-60025000D01*
X201742588Y-60025000D02*
X202757412Y-60025000D01*
X191936396Y-76200000D02*
X186961701Y-76200000D01*
X194700000Y-73436396D02*
X191936396Y-76200000D01*
X185986701Y-77175000D02*
X178825000Y-77175000D01*
X194700000Y-72050000D02*
X194700000Y-73436396D01*
X202757412Y-60025000D02*
X203475000Y-60742588D01*
X198700000Y-58425000D02*
X198750000Y-58475000D01*
X203475000Y-60742588D02*
X203475000Y-63275000D01*
X197300000Y-85075000D02*
X198125000Y-84250000D01*
X195800000Y-85075000D02*
X197300000Y-85075000D01*
X201750000Y-84250000D02*
X202250000Y-83750000D01*
X198125000Y-84250000D02*
X201750000Y-84250000D01*
X197300000Y-78700000D02*
X198750000Y-77250000D01*
X197300000Y-79925000D02*
X197300000Y-78700000D01*
X195800000Y-79925000D02*
X197300000Y-79925000D01*
X200750000Y-77250000D02*
X202250000Y-78750000D01*
X198750000Y-77250000D02*
X200750000Y-77250000D01*
X200750000Y-62750000D02*
X202250000Y-61250000D01*
X198750000Y-62750000D02*
X200750000Y-62750000D01*
X195750000Y-60075000D02*
X197250000Y-60075000D01*
X197250000Y-60075000D02*
X197250000Y-61250000D01*
X197250000Y-61250000D02*
X198750000Y-62750000D01*
X197250000Y-54925000D02*
X198075000Y-55750000D01*
X198075000Y-55750000D02*
X201750000Y-55750000D01*
X201750000Y-55750000D02*
X202250000Y-56250000D01*
X195750000Y-54925000D02*
X197250000Y-54925000D01*
G04 #@! TA.AperFunction,Conductor*
G36*
X192760140Y-77045185D02*
G01*
X192780782Y-77061819D01*
X194588181Y-78869218D01*
X194621666Y-78930541D01*
X194624500Y-78956899D01*
X194624500Y-80397439D01*
X194648577Y-80487295D01*
X194650091Y-80492945D01*
X194670211Y-80527793D01*
X194697755Y-80575500D01*
X194697937Y-80575816D01*
X194699527Y-80578568D01*
X194699528Y-80578570D01*
X195115062Y-80994103D01*
X195148547Y-81055426D01*
X195143563Y-81125117D01*
X195127155Y-81155413D01*
X195122207Y-81162117D01*
X195077353Y-81290303D01*
X195074500Y-81320730D01*
X195074500Y-81725500D01*
X195054815Y-81792539D01*
X195002011Y-81838294D01*
X194950500Y-81849500D01*
X194921014Y-81849500D01*
X194767634Y-81887303D01*
X194627762Y-81960715D01*
X194509516Y-82065471D01*
X194419781Y-82195475D01*
X194419780Y-82195476D01*
X194365442Y-82338754D01*
X194323264Y-82394457D01*
X194257666Y-82418514D01*
X194189476Y-82403287D01*
X194140343Y-82353611D01*
X194125500Y-82294783D01*
X194125500Y-79450566D01*
X194125500Y-79450565D01*
X194125500Y-79450564D01*
X194099911Y-79355063D01*
X194050475Y-79269438D01*
X192018218Y-77237181D01*
X191984733Y-77175858D01*
X191989717Y-77106166D01*
X192031589Y-77050233D01*
X192097053Y-77025816D01*
X192105899Y-77025500D01*
X192693101Y-77025500D01*
X192760140Y-77045185D01*
G37*
G04 #@! TD.AperFunction*
G04 #@! TA.AperFunction,Conductor*
G36*
X180511445Y-78020185D02*
G01*
X180557200Y-78072989D01*
X180567144Y-78142147D01*
X180538119Y-78205703D01*
X180532087Y-78212181D01*
X178931087Y-79813181D01*
X178869764Y-79846666D01*
X178843406Y-79849500D01*
X178006204Y-79849500D01*
X177939165Y-79829815D01*
X177893410Y-79777011D01*
X177883466Y-79707853D01*
X177912491Y-79644297D01*
X177918523Y-79637819D01*
X179519523Y-78036819D01*
X179580846Y-78003334D01*
X179607204Y-78000500D01*
X180444406Y-78000500D01*
X180511445Y-78020185D01*
G37*
G04 #@! TD.AperFunction*
G04 #@! TA.AperFunction,Conductor*
G36*
X194272736Y-57462810D02*
G01*
X194328669Y-57504682D01*
X194352498Y-57564045D01*
X194363763Y-57656819D01*
X194407149Y-57771219D01*
X194419780Y-57804523D01*
X194509517Y-57934530D01*
X194627760Y-58039283D01*
X194627762Y-58039284D01*
X194767634Y-58112696D01*
X194928297Y-58152295D01*
X194927612Y-58155070D01*
X194979579Y-58177407D01*
X195018663Y-58235323D01*
X195024500Y-58272919D01*
X195024500Y-58679269D01*
X195027353Y-58709699D01*
X195027353Y-58709701D01*
X195070491Y-58832978D01*
X195072207Y-58837882D01*
X195152850Y-58947150D01*
X195262118Y-59027793D01*
X195296109Y-59039687D01*
X195390299Y-59072646D01*
X195420730Y-59075500D01*
X195420734Y-59075500D01*
X196079270Y-59075500D01*
X196109699Y-59072646D01*
X196109701Y-59072646D01*
X196173790Y-59050219D01*
X196237882Y-59027793D01*
X196347150Y-58947150D01*
X196400230Y-58875229D01*
X196455877Y-58832978D01*
X196525533Y-58827519D01*
X196587083Y-58860586D01*
X196599770Y-58875229D01*
X196652848Y-58947148D01*
X196652849Y-58947148D01*
X196652850Y-58947150D01*
X196762118Y-59027793D01*
X196796109Y-59039687D01*
X196890299Y-59072646D01*
X196920730Y-59075500D01*
X196920734Y-59075500D01*
X197579270Y-59075500D01*
X197609699Y-59072646D01*
X197609701Y-59072646D01*
X197673790Y-59050219D01*
X197737882Y-59027793D01*
X197847150Y-58947150D01*
X197869922Y-58916293D01*
X197925567Y-58874045D01*
X197995223Y-58868586D01*
X198056773Y-58901653D01*
X198072995Y-58923172D01*
X198073057Y-58923126D01*
X198078371Y-58930225D01*
X198078372Y-58930226D01*
X198160313Y-59039687D01*
X198269774Y-59121628D01*
X198367572Y-59158105D01*
X198423503Y-59199974D01*
X198447920Y-59265439D01*
X198433068Y-59333712D01*
X198383663Y-59383117D01*
X198373089Y-59387675D01*
X198247076Y-59451883D01*
X198247071Y-59451886D01*
X198151886Y-59547071D01*
X198151881Y-59547078D01*
X198116781Y-59615965D01*
X198068806Y-59666760D01*
X198000985Y-59683555D01*
X197934851Y-59661017D01*
X197906527Y-59633303D01*
X197881888Y-59599919D01*
X197847150Y-59552850D01*
X197737882Y-59472207D01*
X197737880Y-59472206D01*
X197609700Y-59427353D01*
X197579270Y-59424500D01*
X197579266Y-59424500D01*
X196920734Y-59424500D01*
X196920730Y-59424500D01*
X196890300Y-59427353D01*
X196890298Y-59427353D01*
X196762119Y-59472206D01*
X196762117Y-59472207D01*
X196652850Y-59552850D01*
X196599770Y-59624771D01*
X196544122Y-59667022D01*
X196474466Y-59672480D01*
X196412917Y-59639412D01*
X196400230Y-59624771D01*
X196381888Y-59599919D01*
X196347150Y-59552850D01*
X196237882Y-59472207D01*
X196237880Y-59472206D01*
X196109700Y-59427353D01*
X196079270Y-59424500D01*
X196079266Y-59424500D01*
X195420734Y-59424500D01*
X195420730Y-59424500D01*
X195390300Y-59427353D01*
X195390298Y-59427353D01*
X195262119Y-59472206D01*
X195262117Y-59472207D01*
X195160671Y-59547078D01*
X195152850Y-59552850D01*
X195072207Y-59662118D01*
X195064365Y-59684530D01*
X195027353Y-59790298D01*
X195027353Y-59790300D01*
X195024500Y-59820730D01*
X195024500Y-60329269D01*
X195027353Y-60359699D01*
X195027353Y-60359701D01*
X195070039Y-60481686D01*
X195072207Y-60487882D01*
X195152850Y-60597150D01*
X195262118Y-60677793D01*
X195291451Y-60688057D01*
X195390299Y-60722646D01*
X195420730Y-60725500D01*
X195420734Y-60725500D01*
X196079270Y-60725500D01*
X196109699Y-60722646D01*
X196109701Y-60722646D01*
X196173790Y-60700219D01*
X196237882Y-60677793D01*
X196347150Y-60597150D01*
X196400230Y-60525229D01*
X196455877Y-60482978D01*
X196525533Y-60477519D01*
X196587083Y-60510586D01*
X196599770Y-60525229D01*
X196652848Y-60597148D01*
X196652849Y-60597148D01*
X196652850Y-60597150D01*
X196762118Y-60677793D01*
X196791456Y-60688059D01*
X196848230Y-60728779D01*
X196873978Y-60793731D01*
X196874500Y-60805099D01*
X196874500Y-61299435D01*
X196900090Y-61394938D01*
X196949525Y-61480562D01*
X196949526Y-61480563D01*
X198449525Y-62980562D01*
X198519438Y-63050475D01*
X198605062Y-63099910D01*
X198605066Y-63099911D01*
X198652778Y-63112696D01*
X198652779Y-63112696D01*
X198665583Y-63116126D01*
X198700564Y-63125500D01*
X198700565Y-63125500D01*
X200799435Y-63125500D01*
X200799436Y-63125500D01*
X200837122Y-63115401D01*
X200847221Y-63112696D01*
X200868258Y-63107058D01*
X200894938Y-63099910D01*
X200980562Y-63050475D01*
X201050475Y-62980562D01*
X201686323Y-62344712D01*
X201747644Y-62311229D01*
X201817335Y-62316213D01*
X201818795Y-62316768D01*
X201886979Y-62343182D01*
X201933802Y-62361321D01*
X202143390Y-62400500D01*
X202143392Y-62400500D01*
X202356608Y-62400500D01*
X202356610Y-62400500D01*
X202566198Y-62361321D01*
X202765019Y-62284298D01*
X202910224Y-62194390D01*
X202977583Y-62175835D01*
X203044282Y-62196643D01*
X203089144Y-62250208D01*
X203099500Y-62299818D01*
X203099500Y-63068101D01*
X203079815Y-63135140D01*
X203063181Y-63155782D01*
X194837181Y-71381782D01*
X194775858Y-71415267D01*
X194706166Y-71410283D01*
X194650233Y-71368411D01*
X194625816Y-71302947D01*
X194625500Y-71294101D01*
X194625500Y-59950564D01*
X194621859Y-59936977D01*
X194621858Y-59936974D01*
X194605386Y-59875499D01*
X194605384Y-59875494D01*
X194599910Y-59855063D01*
X194599910Y-59855062D01*
X194550475Y-59769438D01*
X194480562Y-59699525D01*
X193911819Y-59130782D01*
X193878334Y-59069459D01*
X193875500Y-59043101D01*
X193875500Y-57808894D01*
X193895185Y-57741855D01*
X193911815Y-57721217D01*
X194141722Y-57491310D01*
X194203044Y-57457826D01*
X194272736Y-57462810D01*
G37*
G04 #@! TD.AperFunction*
G04 #@! TA.AperFunction,Conductor*
G36*
X200002728Y-58820185D02*
G01*
X200023370Y-58836819D01*
X201441363Y-60254813D01*
X201474848Y-60316136D01*
X201469864Y-60385828D01*
X201437222Y-60434130D01*
X201396127Y-60471593D01*
X201267632Y-60641746D01*
X201172596Y-60832605D01*
X201172596Y-60832607D01*
X201114244Y-61037689D01*
X201094571Y-61249999D01*
X201094571Y-61250000D01*
X201114244Y-61462310D01*
X201172596Y-61667392D01*
X201172598Y-61667398D01*
X201175704Y-61673636D01*
X201187960Y-61742422D01*
X201161082Y-61806915D01*
X201152381Y-61816580D01*
X200630782Y-62338181D01*
X200569459Y-62371666D01*
X200543101Y-62374500D01*
X198956899Y-62374500D01*
X198889860Y-62354815D01*
X198869218Y-62338181D01*
X197661819Y-61130782D01*
X197628334Y-61069459D01*
X197625500Y-61043101D01*
X197625500Y-60805099D01*
X197645185Y-60738060D01*
X197697989Y-60692305D01*
X197708525Y-60688065D01*
X197737882Y-60677793D01*
X197847150Y-60597150D01*
X197927793Y-60487882D01*
X197927794Y-60487880D01*
X197933311Y-60480405D01*
X197935046Y-60481686D01*
X197975054Y-60440564D01*
X198043117Y-60424775D01*
X198108911Y-60448290D01*
X198146454Y-60492271D01*
X198151880Y-60502920D01*
X198151886Y-60502928D01*
X198247071Y-60598113D01*
X198247076Y-60598116D01*
X198367034Y-60659239D01*
X198367033Y-60659239D01*
X198466543Y-60674999D01*
X199000000Y-60674999D01*
X199033449Y-60674999D01*
X199132967Y-60659237D01*
X199252923Y-60598116D01*
X199252928Y-60598113D01*
X199348113Y-60502928D01*
X199348116Y-60502923D01*
X199409239Y-60382966D01*
X199425000Y-60283456D01*
X199425000Y-60275000D01*
X199000000Y-60275000D01*
X199000000Y-60674999D01*
X198466543Y-60674999D01*
X198500000Y-60674998D01*
X198500000Y-59899000D01*
X198519685Y-59831961D01*
X198572489Y-59786206D01*
X198624000Y-59775000D01*
X199424999Y-59775000D01*
X199424999Y-59766550D01*
X199409237Y-59667032D01*
X199348116Y-59547076D01*
X199348113Y-59547071D01*
X199252928Y-59451886D01*
X199252923Y-59451883D01*
X199124274Y-59386332D01*
X199125452Y-59384019D01*
X199079759Y-59352765D01*
X199052570Y-59288402D01*
X199064494Y-59219558D01*
X199111746Y-59168089D01*
X199132420Y-59158108D01*
X199230226Y-59121628D01*
X199339687Y-59039687D01*
X199421628Y-58930226D01*
X199439927Y-58881166D01*
X199481798Y-58825232D01*
X199547263Y-58800816D01*
X199556108Y-58800500D01*
X199935689Y-58800500D01*
X200002728Y-58820185D01*
G37*
G04 #@! TD.AperFunction*
G04 #@! TA.AperFunction,Conductor*
G36*
X167692539Y-43769685D02*
G01*
X167738294Y-43822489D01*
X167749500Y-43874000D01*
X167749500Y-44418993D01*
X167749500Y-44418995D01*
X167749499Y-44418995D01*
X167776418Y-44554322D01*
X167776421Y-44554332D01*
X167829221Y-44681804D01*
X167829228Y-44681817D01*
X167905885Y-44796541D01*
X167905888Y-44796545D01*
X168003454Y-44894111D01*
X168003458Y-44894114D01*
X168118182Y-44970771D01*
X168118195Y-44970778D01*
X168245667Y-45023578D01*
X168245672Y-45023580D01*
X168245676Y-45023580D01*
X168245677Y-45023581D01*
X168381004Y-45050500D01*
X168381007Y-45050500D01*
X168518995Y-45050500D01*
X168610041Y-45032389D01*
X168654328Y-45023580D01*
X168781811Y-44970775D01*
X168896542Y-44894114D01*
X168994114Y-44796542D01*
X169070775Y-44681811D01*
X169123580Y-44554328D01*
X169150500Y-44418993D01*
X169150500Y-43874000D01*
X169170185Y-43806961D01*
X169222989Y-43761206D01*
X169274500Y-43750000D01*
X174225500Y-43750000D01*
X174292539Y-43769685D01*
X174338294Y-43822489D01*
X174349500Y-43874000D01*
X174349500Y-44418993D01*
X174349500Y-44418995D01*
X174349499Y-44418995D01*
X174376418Y-44554322D01*
X174376421Y-44554332D01*
X174429221Y-44681804D01*
X174429228Y-44681817D01*
X174505885Y-44796541D01*
X174505888Y-44796545D01*
X174603454Y-44894111D01*
X174603458Y-44894114D01*
X174718182Y-44970771D01*
X174718195Y-44970778D01*
X174845667Y-45023578D01*
X174845672Y-45023580D01*
X174845676Y-45023580D01*
X174845677Y-45023581D01*
X174981004Y-45050500D01*
X174981007Y-45050500D01*
X175118995Y-45050500D01*
X175210041Y-45032389D01*
X175254328Y-45023580D01*
X175381811Y-44970775D01*
X175496542Y-44894114D01*
X175594114Y-44796542D01*
X175670775Y-44681811D01*
X175723580Y-44554328D01*
X175750500Y-44418993D01*
X175750500Y-43874000D01*
X175770185Y-43806961D01*
X175822989Y-43761206D01*
X175874500Y-43750000D01*
X205987789Y-43750000D01*
X206011980Y-43752383D01*
X206071480Y-43764218D01*
X206116175Y-43782730D01*
X206156272Y-43809522D01*
X206190477Y-43843727D01*
X206217267Y-43883822D01*
X206235781Y-43928517D01*
X206239542Y-43947427D01*
X206247617Y-43988019D01*
X206250000Y-44012210D01*
X206250000Y-88487789D01*
X206247617Y-88511982D01*
X206235781Y-88571482D01*
X206217267Y-88616179D01*
X206190481Y-88656268D01*
X206156269Y-88690479D01*
X206121975Y-88713394D01*
X206116179Y-88717267D01*
X206071482Y-88735781D01*
X206037857Y-88742469D01*
X206011978Y-88747617D01*
X205987789Y-88750000D01*
X158624000Y-88750000D01*
X158556961Y-88730315D01*
X158511206Y-88677511D01*
X158500000Y-88626000D01*
X158500000Y-86999999D01*
X161594722Y-86999999D01*
X161594722Y-87000000D01*
X161613762Y-87156818D01*
X161669780Y-87304523D01*
X161759517Y-87434530D01*
X161877760Y-87539283D01*
X161877762Y-87539284D01*
X162017634Y-87612696D01*
X162171014Y-87650500D01*
X162171015Y-87650500D01*
X162328985Y-87650500D01*
X162482365Y-87612696D01*
X162532130Y-87586577D01*
X162622240Y-87539283D01*
X162740483Y-87434530D01*
X162830220Y-87304523D01*
X162886237Y-87156818D01*
X162905278Y-87000000D01*
X162905278Y-86999999D01*
X166844722Y-86999999D01*
X166844722Y-87000000D01*
X166863762Y-87156818D01*
X166919780Y-87304523D01*
X167009517Y-87434530D01*
X167127760Y-87539283D01*
X167127762Y-87539284D01*
X167267634Y-87612696D01*
X167421014Y-87650500D01*
X167421015Y-87650500D01*
X167578985Y-87650500D01*
X167732365Y-87612696D01*
X167782130Y-87586577D01*
X167872240Y-87539283D01*
X167990483Y-87434530D01*
X168080220Y-87304523D01*
X168136237Y-87156818D01*
X168155278Y-87000000D01*
X168155278Y-86999999D01*
X176594722Y-86999999D01*
X176594722Y-87000000D01*
X176613762Y-87156818D01*
X176669780Y-87304523D01*
X176759517Y-87434530D01*
X176877760Y-87539283D01*
X176877762Y-87539284D01*
X177017634Y-87612696D01*
X177171014Y-87650500D01*
X177171015Y-87650500D01*
X177328985Y-87650500D01*
X177482365Y-87612696D01*
X177532130Y-87586577D01*
X177622240Y-87539283D01*
X177740483Y-87434530D01*
X177830220Y-87304523D01*
X177886237Y-87156818D01*
X177905278Y-87000000D01*
X177905278Y-86999999D01*
X193094722Y-86999999D01*
X193094722Y-87000000D01*
X193113762Y-87156818D01*
X193169780Y-87304523D01*
X193259517Y-87434530D01*
X193377760Y-87539283D01*
X193377762Y-87539284D01*
X193517634Y-87612696D01*
X193671014Y-87650500D01*
X193671015Y-87650500D01*
X193828985Y-87650500D01*
X193982365Y-87612696D01*
X194032130Y-87586577D01*
X194122240Y-87539283D01*
X194240483Y-87434530D01*
X194330220Y-87304523D01*
X194386237Y-87156818D01*
X194405278Y-87000000D01*
X194402045Y-86973369D01*
X194386237Y-86843181D01*
X194364992Y-86787164D01*
X194330220Y-86695477D01*
X194240483Y-86565470D01*
X194122240Y-86460717D01*
X194122238Y-86460716D01*
X194122237Y-86460715D01*
X193982365Y-86387303D01*
X193828986Y-86349500D01*
X193828985Y-86349500D01*
X193671015Y-86349500D01*
X193671014Y-86349500D01*
X193517634Y-86387303D01*
X193377762Y-86460715D01*
X193259516Y-86565471D01*
X193169781Y-86695475D01*
X193169780Y-86695476D01*
X193113762Y-86843181D01*
X193094722Y-86999999D01*
X177905278Y-86999999D01*
X177902045Y-86973369D01*
X177886237Y-86843181D01*
X177864992Y-86787164D01*
X177830220Y-86695477D01*
X177740483Y-86565470D01*
X177622240Y-86460717D01*
X177622238Y-86460716D01*
X177622237Y-86460715D01*
X177482365Y-86387303D01*
X177328986Y-86349500D01*
X177328985Y-86349500D01*
X177171015Y-86349500D01*
X177171014Y-86349500D01*
X177017634Y-86387303D01*
X176877762Y-86460715D01*
X176759516Y-86565471D01*
X176669781Y-86695475D01*
X176669780Y-86695476D01*
X176613762Y-86843181D01*
X176594722Y-86999999D01*
X168155278Y-86999999D01*
X168152045Y-86973369D01*
X168136237Y-86843181D01*
X168114992Y-86787164D01*
X168080220Y-86695477D01*
X167990483Y-86565470D01*
X167872240Y-86460717D01*
X167872238Y-86460716D01*
X167872237Y-86460715D01*
X167732365Y-86387303D01*
X167578986Y-86349500D01*
X167578985Y-86349500D01*
X167421015Y-86349500D01*
X167421014Y-86349500D01*
X167267634Y-86387303D01*
X167127762Y-86460715D01*
X167009516Y-86565471D01*
X166919781Y-86695475D01*
X166919780Y-86695476D01*
X166863762Y-86843181D01*
X166844722Y-86999999D01*
X162905278Y-86999999D01*
X162902045Y-86973369D01*
X162886237Y-86843181D01*
X162864992Y-86787164D01*
X162830220Y-86695477D01*
X162740483Y-86565470D01*
X162622240Y-86460717D01*
X162622238Y-86460716D01*
X162622237Y-86460715D01*
X162482365Y-86387303D01*
X162328986Y-86349500D01*
X162328985Y-86349500D01*
X162171015Y-86349500D01*
X162171014Y-86349500D01*
X162017634Y-86387303D01*
X161877762Y-86460715D01*
X161759516Y-86565471D01*
X161669781Y-86695475D01*
X161669780Y-86695476D01*
X161613762Y-86843181D01*
X161594722Y-86999999D01*
X158500000Y-86999999D01*
X158500000Y-82999999D01*
X179844722Y-82999999D01*
X179844722Y-83000000D01*
X179863762Y-83156818D01*
X179881852Y-83204516D01*
X179919780Y-83304523D01*
X180009517Y-83434530D01*
X180127760Y-83539283D01*
X180127762Y-83539284D01*
X180267634Y-83612696D01*
X180421014Y-83650500D01*
X180421015Y-83650500D01*
X180578985Y-83650500D01*
X180732365Y-83612696D01*
X180872240Y-83539283D01*
X180990483Y-83434530D01*
X181080220Y-83304523D01*
X181136237Y-83156818D01*
X181155278Y-83000000D01*
X181153993Y-82989412D01*
X181136237Y-82843181D01*
X181087890Y-82715702D01*
X181080220Y-82695477D01*
X180990483Y-82565470D01*
X180872240Y-82460717D01*
X180872238Y-82460716D01*
X180872237Y-82460715D01*
X180732365Y-82387303D01*
X180578986Y-82349500D01*
X180578985Y-82349500D01*
X180421015Y-82349500D01*
X180421014Y-82349500D01*
X180267634Y-82387303D01*
X180127762Y-82460715D01*
X180009516Y-82565471D01*
X179919781Y-82695475D01*
X179919780Y-82695476D01*
X179863762Y-82843181D01*
X179844722Y-82999999D01*
X158500000Y-82999999D01*
X158500000Y-82249999D01*
X163594722Y-82249999D01*
X163594722Y-82250000D01*
X163613762Y-82406818D01*
X163634203Y-82460715D01*
X163669780Y-82554523D01*
X163759517Y-82684530D01*
X163877760Y-82789283D01*
X163877762Y-82789284D01*
X164017634Y-82862696D01*
X164171014Y-82900500D01*
X164171015Y-82900500D01*
X164328985Y-82900500D01*
X164482365Y-82862696D01*
X164547763Y-82828372D01*
X164622240Y-82789283D01*
X164740483Y-82684530D01*
X164744257Y-82679061D01*
X164798537Y-82635071D01*
X164846308Y-82625500D01*
X173153692Y-82625500D01*
X173220731Y-82645185D01*
X173255742Y-82679061D01*
X173258163Y-82682569D01*
X173259515Y-82684528D01*
X173259517Y-82684530D01*
X173377760Y-82789283D01*
X173377762Y-82789284D01*
X173517634Y-82862696D01*
X173671014Y-82900500D01*
X173671015Y-82900500D01*
X173828985Y-82900500D01*
X173982365Y-82862696D01*
X174047763Y-82828372D01*
X174122240Y-82789283D01*
X174240483Y-82684530D01*
X174330220Y-82554523D01*
X174386237Y-82406818D01*
X174405278Y-82250000D01*
X174397294Y-82184241D01*
X174386237Y-82093181D01*
X174357074Y-82016286D01*
X174330220Y-81945477D01*
X174240483Y-81815470D01*
X174122240Y-81710717D01*
X174122238Y-81710716D01*
X174122237Y-81710715D01*
X173982365Y-81637303D01*
X173828986Y-81599500D01*
X173828985Y-81599500D01*
X173671015Y-81599500D01*
X173671014Y-81599500D01*
X173517634Y-81637303D01*
X173377762Y-81710715D01*
X173259516Y-81815470D01*
X173257089Y-81818987D01*
X173255742Y-81820938D01*
X173201463Y-81864929D01*
X173153692Y-81874500D01*
X164846308Y-81874500D01*
X164779269Y-81854815D01*
X164744257Y-81820938D01*
X164740483Y-81815470D01*
X164622240Y-81710717D01*
X164622238Y-81710716D01*
X164622237Y-81710715D01*
X164482365Y-81637303D01*
X164328986Y-81599500D01*
X164328985Y-81599500D01*
X164171015Y-81599500D01*
X164171014Y-81599500D01*
X164017634Y-81637303D01*
X163877762Y-81710715D01*
X163759516Y-81815471D01*
X163669781Y-81945475D01*
X163669780Y-81945476D01*
X163613762Y-82093181D01*
X163594722Y-82249999D01*
X158500000Y-82249999D01*
X158500000Y-79249999D01*
X174594722Y-79249999D01*
X174594722Y-79250000D01*
X174613762Y-79406818D01*
X174667875Y-79549500D01*
X174669780Y-79554523D01*
X174759517Y-79684530D01*
X174877760Y-79789283D01*
X174877762Y-79789284D01*
X175017634Y-79862696D01*
X175171014Y-79900500D01*
X175318101Y-79900500D01*
X175385140Y-79920185D01*
X175405782Y-79936819D01*
X175924525Y-80455562D01*
X175994438Y-80525475D01*
X176076141Y-80572646D01*
X176080062Y-80574910D01*
X176127811Y-80587705D01*
X176127812Y-80587705D01*
X176137903Y-80590408D01*
X176175564Y-80600500D01*
X176175565Y-80600500D01*
X176175566Y-80600500D01*
X179099740Y-80600500D01*
X179099741Y-80600500D01*
X179147491Y-80587705D01*
X179195243Y-80574910D01*
X179280867Y-80525475D01*
X179350780Y-80455562D01*
X180306343Y-79499999D01*
X182094722Y-79499999D01*
X182094722Y-79500000D01*
X182113762Y-79656818D01*
X182149102Y-79750000D01*
X182169780Y-79804523D01*
X182259517Y-79934530D01*
X182377760Y-80039283D01*
X182377762Y-80039284D01*
X182517634Y-80112696D01*
X182671014Y-80150500D01*
X182671015Y-80150500D01*
X182828985Y-80150500D01*
X182982365Y-80112696D01*
X183122240Y-80039283D01*
X183240483Y-79934530D01*
X183330220Y-79804523D01*
X183386237Y-79656818D01*
X183405278Y-79500000D01*
X183405278Y-79499999D01*
X183844722Y-79499999D01*
X183844722Y-79500000D01*
X183863762Y-79656818D01*
X183899102Y-79750000D01*
X183919780Y-79804523D01*
X184009517Y-79934530D01*
X184127760Y-80039283D01*
X184127762Y-80039284D01*
X184267634Y-80112696D01*
X184421014Y-80150500D01*
X184421015Y-80150500D01*
X184578985Y-80150500D01*
X184732365Y-80112696D01*
X184872240Y-80039283D01*
X184990483Y-79934530D01*
X185080220Y-79804523D01*
X185136237Y-79656818D01*
X185155278Y-79500000D01*
X185154924Y-79497080D01*
X185136237Y-79343181D01*
X185108270Y-79269438D01*
X185080220Y-79195477D01*
X184990483Y-79065470D01*
X184872240Y-78960717D01*
X184872238Y-78960716D01*
X184872237Y-78960715D01*
X184732365Y-78887303D01*
X184578986Y-78849500D01*
X184578985Y-78849500D01*
X184421015Y-78849500D01*
X184421014Y-78849500D01*
X184267634Y-78887303D01*
X184127762Y-78960715D01*
X184009516Y-79065471D01*
X183919781Y-79195475D01*
X183919780Y-79195476D01*
X183863762Y-79343181D01*
X183844722Y-79499999D01*
X183405278Y-79499999D01*
X183404924Y-79497080D01*
X183386237Y-79343181D01*
X183358270Y-79269438D01*
X183330220Y-79195477D01*
X183240483Y-79065470D01*
X183122240Y-78960717D01*
X183122238Y-78960716D01*
X183122237Y-78960715D01*
X182982365Y-78887303D01*
X182828986Y-78849500D01*
X182828985Y-78849500D01*
X182671015Y-78849500D01*
X182671014Y-78849500D01*
X182517634Y-78887303D01*
X182377762Y-78960715D01*
X182259516Y-79065471D01*
X182169781Y-79195475D01*
X182169780Y-79195476D01*
X182113762Y-79343181D01*
X182094722Y-79499999D01*
X180306343Y-79499999D01*
X181319523Y-78486819D01*
X181380846Y-78453334D01*
X181407204Y-78450500D01*
X186408928Y-78450500D01*
X186408929Y-78450500D01*
X186456679Y-78437705D01*
X186504431Y-78424910D01*
X186590055Y-78375475D01*
X186659968Y-78305562D01*
X187453711Y-77511819D01*
X187515034Y-77478334D01*
X187541392Y-77475500D01*
X191143101Y-77475500D01*
X191210140Y-77495185D01*
X191230782Y-77511819D01*
X192133843Y-78414880D01*
X192167328Y-78476203D01*
X192162344Y-78545895D01*
X192120472Y-78601828D01*
X192075838Y-78622958D01*
X192017632Y-78637304D01*
X191877762Y-78710715D01*
X191759516Y-78815470D01*
X191757089Y-78818987D01*
X191755742Y-78820938D01*
X191701463Y-78864929D01*
X191653692Y-78874500D01*
X189450563Y-78874500D01*
X189404120Y-78886944D01*
X189404120Y-78886945D01*
X189355062Y-78900090D01*
X189355061Y-78900090D01*
X189355059Y-78900091D01*
X189269436Y-78949526D01*
X187380782Y-80838181D01*
X187319459Y-80871666D01*
X187293101Y-80874500D01*
X185346308Y-80874500D01*
X185279269Y-80854815D01*
X185244257Y-80820938D01*
X185240483Y-80815470D01*
X185122240Y-80710717D01*
X185122238Y-80710716D01*
X185122237Y-80710715D01*
X184982365Y-80637303D01*
X184828986Y-80599500D01*
X184828985Y-80599500D01*
X184671015Y-80599500D01*
X184671014Y-80599500D01*
X184517634Y-80637303D01*
X184377762Y-80710715D01*
X184259516Y-80815471D01*
X184169781Y-80945475D01*
X184169780Y-80945476D01*
X184113762Y-81093181D01*
X184094722Y-81249999D01*
X184094722Y-81250000D01*
X184113762Y-81406818D01*
X184127482Y-81442993D01*
X184169780Y-81554523D01*
X184259517Y-81684530D01*
X184377760Y-81789283D01*
X184377762Y-81789284D01*
X184517634Y-81862696D01*
X184671014Y-81900500D01*
X184671015Y-81900500D01*
X184828985Y-81900500D01*
X184982365Y-81862696D01*
X185002535Y-81852110D01*
X185122240Y-81789283D01*
X185240483Y-81684530D01*
X185244257Y-81679061D01*
X185298537Y-81635071D01*
X185346308Y-81625500D01*
X187549435Y-81625500D01*
X187549436Y-81625500D01*
X187597186Y-81612705D01*
X187644938Y-81599910D01*
X187730562Y-81550475D01*
X187800475Y-81480562D01*
X189619218Y-79661819D01*
X189680541Y-79628334D01*
X189706899Y-79625500D01*
X191653692Y-79625500D01*
X191720731Y-79645185D01*
X191755742Y-79679061D01*
X191756764Y-79680541D01*
X191759515Y-79684528D01*
X191759517Y-79684530D01*
X191877760Y-79789283D01*
X191877762Y-79789284D01*
X192017634Y-79862696D01*
X192171014Y-79900500D01*
X192171015Y-79900500D01*
X192328985Y-79900500D01*
X192482365Y-79862696D01*
X192484989Y-79861319D01*
X192622240Y-79789283D01*
X192740483Y-79684530D01*
X192830220Y-79554523D01*
X192884095Y-79412463D01*
X192926273Y-79356762D01*
X192991870Y-79332705D01*
X193060061Y-79347932D01*
X193087718Y-79368755D01*
X193338181Y-79619218D01*
X193371666Y-79680541D01*
X193374500Y-79706899D01*
X193374500Y-83299435D01*
X193400090Y-83394938D01*
X193400091Y-83394939D01*
X193400091Y-83394940D01*
X193413337Y-83417882D01*
X193449525Y-83480562D01*
X193449526Y-83480563D01*
X194349525Y-84380562D01*
X194419438Y-84450475D01*
X194505062Y-84499910D01*
X194552811Y-84512705D01*
X194552812Y-84512705D01*
X194562903Y-84515408D01*
X194600564Y-84525500D01*
X194600565Y-84525500D01*
X194995250Y-84525500D01*
X195062289Y-84545185D01*
X195108044Y-84597989D01*
X195117988Y-84667147D01*
X195112291Y-84690455D01*
X195077354Y-84790298D01*
X195077353Y-84790300D01*
X195074500Y-84820730D01*
X195074500Y-85329269D01*
X195077353Y-85359699D01*
X195077353Y-85359701D01*
X195120039Y-85481686D01*
X195122207Y-85487882D01*
X195202850Y-85597150D01*
X195312118Y-85677793D01*
X195354845Y-85692744D01*
X195440299Y-85722646D01*
X195470730Y-85725500D01*
X195470734Y-85725500D01*
X196129270Y-85725500D01*
X196159699Y-85722646D01*
X196159701Y-85722646D01*
X196223790Y-85700219D01*
X196287882Y-85677793D01*
X196397150Y-85597150D01*
X196450230Y-85525229D01*
X196505877Y-85482978D01*
X196575533Y-85477519D01*
X196637083Y-85510586D01*
X196649770Y-85525229D01*
X196702848Y-85597148D01*
X196702849Y-85597148D01*
X196702850Y-85597150D01*
X196812118Y-85677793D01*
X196854845Y-85692744D01*
X196940299Y-85722646D01*
X196970730Y-85725500D01*
X196970734Y-85725500D01*
X197629270Y-85725500D01*
X197659699Y-85722646D01*
X197659701Y-85722646D01*
X197723790Y-85700219D01*
X197787882Y-85677793D01*
X197897150Y-85597150D01*
X197977793Y-85487882D01*
X197977794Y-85487880D01*
X197983311Y-85480405D01*
X197985046Y-85481686D01*
X198025054Y-85440564D01*
X198093117Y-85424775D01*
X198158911Y-85448290D01*
X198196454Y-85492271D01*
X198201880Y-85502920D01*
X198201886Y-85502928D01*
X198297071Y-85598113D01*
X198297076Y-85598116D01*
X198417034Y-85659239D01*
X198417033Y-85659239D01*
X198516543Y-85674999D01*
X199050000Y-85674999D01*
X199083449Y-85674999D01*
X199182967Y-85659237D01*
X199302923Y-85598116D01*
X199302928Y-85598113D01*
X199398113Y-85502928D01*
X199398116Y-85502923D01*
X199459239Y-85382966D01*
X199475000Y-85283456D01*
X199475000Y-85275000D01*
X199050000Y-85275000D01*
X199050000Y-85674999D01*
X198516543Y-85674999D01*
X198550000Y-85674998D01*
X198550000Y-84899000D01*
X198569685Y-84831961D01*
X198622489Y-84786206D01*
X198674000Y-84775000D01*
X199474999Y-84775000D01*
X199474999Y-84766544D01*
X199474617Y-84761688D01*
X199476315Y-84761554D01*
X199484335Y-84699586D01*
X199529340Y-84646141D01*
X199596095Y-84625512D01*
X199597845Y-84625500D01*
X201454595Y-84625500D01*
X201521634Y-84645185D01*
X201538133Y-84657863D01*
X201553698Y-84672052D01*
X201734981Y-84784298D01*
X201933802Y-84861321D01*
X202143390Y-84900500D01*
X202143392Y-84900500D01*
X202356608Y-84900500D01*
X202356610Y-84900500D01*
X202566198Y-84861321D01*
X202765019Y-84784298D01*
X202946302Y-84672052D01*
X203103872Y-84528407D01*
X203232366Y-84358255D01*
X203267756Y-84287181D01*
X203327403Y-84167394D01*
X203327403Y-84167393D01*
X203327405Y-84167389D01*
X203385756Y-83962310D01*
X203405429Y-83750000D01*
X203385756Y-83537690D01*
X203327405Y-83332611D01*
X203327403Y-83332606D01*
X203327403Y-83332605D01*
X203232367Y-83141746D01*
X203103872Y-82971593D01*
X203063214Y-82934528D01*
X202946302Y-82827948D01*
X202765019Y-82715702D01*
X202765017Y-82715701D01*
X202624448Y-82661245D01*
X202566198Y-82638679D01*
X202356610Y-82599500D01*
X202143390Y-82599500D01*
X201933802Y-82638679D01*
X201933799Y-82638679D01*
X201933799Y-82638680D01*
X201734982Y-82715701D01*
X201734980Y-82715702D01*
X201553699Y-82827947D01*
X201396127Y-82971593D01*
X201267632Y-83141746D01*
X201172596Y-83332605D01*
X201172596Y-83332607D01*
X201114244Y-83537689D01*
X201094571Y-83749999D01*
X201094571Y-83750500D01*
X201094503Y-83750730D01*
X201094042Y-83755708D01*
X201093068Y-83755617D01*
X201074886Y-83817539D01*
X201022082Y-83863294D01*
X200970571Y-83874500D01*
X199649409Y-83874500D01*
X199582370Y-83854815D01*
X199536615Y-83802011D01*
X199526528Y-83748806D01*
X199525500Y-83748806D01*
X199525499Y-83204518D01*
X199525498Y-83204509D01*
X199519412Y-83147885D01*
X199499822Y-83095364D01*
X199471628Y-83019774D01*
X199389687Y-82910313D01*
X199300009Y-82843181D01*
X199280228Y-82828373D01*
X199280226Y-82828372D01*
X199152114Y-82780588D01*
X199152112Y-82780587D01*
X199152110Y-82780587D01*
X199095493Y-82774500D01*
X198504518Y-82774500D01*
X198504509Y-82774501D01*
X198447885Y-82780587D01*
X198319773Y-82828372D01*
X198210310Y-82910315D01*
X198155365Y-82983713D01*
X198099431Y-83025584D01*
X198029740Y-83030568D01*
X197968417Y-82997082D01*
X197956329Y-82983035D01*
X197897151Y-82902851D01*
X197787882Y-82822207D01*
X197787880Y-82822206D01*
X197659700Y-82777353D01*
X197629270Y-82774500D01*
X197629266Y-82774500D01*
X196970734Y-82774500D01*
X196970730Y-82774500D01*
X196940300Y-82777353D01*
X196940298Y-82777353D01*
X196812119Y-82822206D01*
X196812117Y-82822207D01*
X196702850Y-82902850D01*
X196649770Y-82974771D01*
X196594122Y-83017022D01*
X196524466Y-83022480D01*
X196462917Y-82989412D01*
X196450230Y-82974771D01*
X196441935Y-82963532D01*
X196397150Y-82902850D01*
X196287882Y-82822207D01*
X196258543Y-82811940D01*
X196201769Y-82771219D01*
X196176022Y-82706266D01*
X196175500Y-82694900D01*
X196175500Y-82305099D01*
X196195185Y-82238060D01*
X196247989Y-82192305D01*
X196258525Y-82188065D01*
X196287882Y-82177793D01*
X196397150Y-82097150D01*
X196450230Y-82025229D01*
X196505877Y-81982978D01*
X196575533Y-81977519D01*
X196637083Y-82010586D01*
X196649770Y-82025229D01*
X196702848Y-82097148D01*
X196702849Y-82097148D01*
X196702850Y-82097150D01*
X196812118Y-82177793D01*
X196841451Y-82188057D01*
X196940299Y-82222646D01*
X196970730Y-82225500D01*
X196970734Y-82225500D01*
X197629270Y-82225500D01*
X197659699Y-82222646D01*
X197659701Y-82222646D01*
X197723790Y-82200219D01*
X197787882Y-82177793D01*
X197897150Y-82097150D01*
X197956331Y-82016961D01*
X198011975Y-81974713D01*
X198081631Y-81969254D01*
X198143181Y-82002321D01*
X198155366Y-82016286D01*
X198210313Y-82089687D01*
X198319774Y-82171628D01*
X198447886Y-82219412D01*
X198504515Y-82225500D01*
X199095484Y-82225499D01*
X199152114Y-82219412D01*
X199280226Y-82171628D01*
X199389687Y-82089687D01*
X199471628Y-81980226D01*
X199519412Y-81852114D01*
X199522764Y-81820937D01*
X199525499Y-81795501D01*
X199525499Y-81795494D01*
X199525500Y-81795485D01*
X199525499Y-81254516D01*
X199525013Y-81249999D01*
X201145287Y-81249999D01*
X201145287Y-81250000D01*
X201164096Y-81452989D01*
X201164097Y-81452992D01*
X201219883Y-81649063D01*
X201219886Y-81649069D01*
X201310751Y-81831551D01*
X201312533Y-81833911D01*
X201767037Y-81379408D01*
X201784075Y-81442993D01*
X201849901Y-81557007D01*
X201942993Y-81650099D01*
X202057007Y-81715925D01*
X202120590Y-81732962D01*
X201669311Y-82184240D01*
X201757585Y-82238897D01*
X201947678Y-82312539D01*
X202148072Y-82350000D01*
X202351928Y-82350000D01*
X202552322Y-82312539D01*
X202742412Y-82238899D01*
X202742416Y-82238897D01*
X202830686Y-82184241D01*
X202830686Y-82184240D01*
X202379409Y-81732962D01*
X202442993Y-81715925D01*
X202557007Y-81650099D01*
X202650099Y-81557007D01*
X202715925Y-81442993D01*
X202732962Y-81379410D01*
X203187465Y-81833912D01*
X203189247Y-81831553D01*
X203189248Y-81831551D01*
X203280113Y-81649069D01*
X203280116Y-81649063D01*
X203335902Y-81452992D01*
X203335903Y-81452989D01*
X203354713Y-81250000D01*
X203354713Y-81249999D01*
X203335903Y-81047010D01*
X203335902Y-81047007D01*
X203280116Y-80850936D01*
X203280113Y-80850930D01*
X203189249Y-80668449D01*
X203189247Y-80668447D01*
X203187465Y-80666087D01*
X202732962Y-81120589D01*
X202715925Y-81057007D01*
X202650099Y-80942993D01*
X202557007Y-80849901D01*
X202442993Y-80784075D01*
X202379409Y-80767037D01*
X202830687Y-80315758D01*
X202742413Y-80261101D01*
X202742411Y-80261100D01*
X202552321Y-80187460D01*
X202351928Y-80150000D01*
X202148072Y-80150000D01*
X201947678Y-80187460D01*
X201757588Y-80261100D01*
X201757581Y-80261104D01*
X201669312Y-80315757D01*
X201669311Y-80315758D01*
X202120591Y-80767037D01*
X202057007Y-80784075D01*
X201942993Y-80849901D01*
X201849901Y-80942993D01*
X201784075Y-81057007D01*
X201767037Y-81120591D01*
X201312533Y-80666087D01*
X201310755Y-80668442D01*
X201310754Y-80668443D01*
X201219886Y-80850930D01*
X201219883Y-80850936D01*
X201164097Y-81047007D01*
X201164096Y-81047010D01*
X201145287Y-81249999D01*
X199525013Y-81249999D01*
X199521254Y-81215025D01*
X199519412Y-81197885D01*
X199492270Y-81125117D01*
X199471628Y-81069774D01*
X199389687Y-80960313D01*
X199304370Y-80896446D01*
X199280228Y-80878373D01*
X199280226Y-80878372D01*
X199182426Y-80841894D01*
X199126496Y-80800024D01*
X199102079Y-80734560D01*
X199116931Y-80666287D01*
X199166337Y-80616882D01*
X199176909Y-80612324D01*
X199302923Y-80548116D01*
X199302928Y-80548113D01*
X199398113Y-80452928D01*
X199398116Y-80452923D01*
X199459239Y-80332966D01*
X199475000Y-80233456D01*
X199475000Y-80225000D01*
X198674000Y-80225000D01*
X198606961Y-80205315D01*
X198561206Y-80152511D01*
X198550000Y-80101000D01*
X198550000Y-79725000D01*
X199050000Y-79725000D01*
X199474999Y-79725000D01*
X199474999Y-79716550D01*
X199459237Y-79617032D01*
X199398116Y-79497076D01*
X199398113Y-79497071D01*
X199302928Y-79401886D01*
X199302923Y-79401883D01*
X199182965Y-79340760D01*
X199182966Y-79340760D01*
X199083456Y-79325000D01*
X199050000Y-79325000D01*
X199050000Y-79725000D01*
X198550000Y-79725000D01*
X198550000Y-79324999D01*
X198516555Y-79325000D01*
X198417032Y-79340762D01*
X198297076Y-79401883D01*
X198297071Y-79401886D01*
X198201886Y-79497071D01*
X198201879Y-79497080D01*
X198196453Y-79507730D01*
X198148476Y-79558524D01*
X198080654Y-79575316D01*
X198014520Y-79552775D01*
X197984538Y-79518688D01*
X197983311Y-79519595D01*
X197977793Y-79512118D01*
X197897150Y-79402850D01*
X197787882Y-79322207D01*
X197758543Y-79311940D01*
X197701769Y-79271219D01*
X197676022Y-79206266D01*
X197675500Y-79194900D01*
X197675500Y-78906899D01*
X197695185Y-78839860D01*
X197711819Y-78819218D01*
X198869219Y-77661819D01*
X198930542Y-77628334D01*
X198956900Y-77625500D01*
X200543101Y-77625500D01*
X200610140Y-77645185D01*
X200630782Y-77661819D01*
X201152382Y-78183419D01*
X201185867Y-78244742D01*
X201180883Y-78314434D01*
X201175704Y-78326367D01*
X201172595Y-78332610D01*
X201114244Y-78537689D01*
X201094571Y-78749999D01*
X201094571Y-78750000D01*
X201114244Y-78962310D01*
X201172596Y-79167392D01*
X201172596Y-79167394D01*
X201267632Y-79358253D01*
X201374675Y-79499999D01*
X201396128Y-79528407D01*
X201553698Y-79672052D01*
X201734981Y-79784298D01*
X201933802Y-79861321D01*
X202143390Y-79900500D01*
X202143392Y-79900500D01*
X202356608Y-79900500D01*
X202356610Y-79900500D01*
X202566198Y-79861321D01*
X202765019Y-79784298D01*
X202946302Y-79672052D01*
X203103872Y-79528407D01*
X203232366Y-79358255D01*
X203250316Y-79322206D01*
X203327403Y-79167394D01*
X203327403Y-79167393D01*
X203327405Y-79167389D01*
X203385756Y-78962310D01*
X203405429Y-78750000D01*
X203385756Y-78537690D01*
X203327405Y-78332611D01*
X203327403Y-78332606D01*
X203327403Y-78332605D01*
X203232367Y-78141746D01*
X203103872Y-77971593D01*
X203075222Y-77945475D01*
X202946302Y-77827948D01*
X202765019Y-77715702D01*
X202765017Y-77715701D01*
X202582992Y-77645185D01*
X202566198Y-77638679D01*
X202356610Y-77599500D01*
X202143390Y-77599500D01*
X202004303Y-77625500D01*
X201933796Y-77638680D01*
X201818796Y-77683231D01*
X201749173Y-77689092D01*
X201687433Y-77656382D01*
X201686322Y-77655285D01*
X200980563Y-76949526D01*
X200980562Y-76949525D01*
X200894938Y-76900090D01*
X200847186Y-76887295D01*
X200847184Y-76887294D01*
X200847182Y-76887293D01*
X200799436Y-76874500D01*
X200799435Y-76874500D01*
X198799436Y-76874500D01*
X198700564Y-76874500D01*
X198605063Y-76900089D01*
X198605060Y-76900090D01*
X198519440Y-76949522D01*
X198519435Y-76949526D01*
X197069438Y-78399525D01*
X196999526Y-78469436D01*
X196950091Y-78555059D01*
X196950091Y-78555060D01*
X196950090Y-78555062D01*
X196924500Y-78650565D01*
X196924500Y-78650567D01*
X196924500Y-79194900D01*
X196904815Y-79261939D01*
X196852011Y-79307694D01*
X196841456Y-79311941D01*
X196812118Y-79322207D01*
X196702850Y-79402850D01*
X196649770Y-79474771D01*
X196594122Y-79517022D01*
X196524466Y-79522480D01*
X196462917Y-79489412D01*
X196450230Y-79474771D01*
X196432364Y-79450564D01*
X196397150Y-79402850D01*
X196287882Y-79322207D01*
X196287880Y-79322206D01*
X196159700Y-79277353D01*
X196129270Y-79274500D01*
X196129266Y-79274500D01*
X195499500Y-79274500D01*
X195432461Y-79254815D01*
X195386706Y-79202011D01*
X195375500Y-79150500D01*
X195375500Y-78700564D01*
X195371859Y-78686977D01*
X195371858Y-78686974D01*
X195358453Y-78636946D01*
X195349909Y-78605060D01*
X195349908Y-78605059D01*
X195348043Y-78601828D01*
X195300475Y-78519438D01*
X195230562Y-78449525D01*
X193130563Y-76349526D01*
X193130562Y-76349525D01*
X193044938Y-76300090D01*
X192997186Y-76287295D01*
X192997184Y-76287294D01*
X192997182Y-76287293D01*
X192949436Y-76274500D01*
X192949435Y-76274500D01*
X192692295Y-76274500D01*
X192625256Y-76254815D01*
X192579501Y-76202011D01*
X192569557Y-76132853D01*
X192598582Y-76069297D01*
X192604614Y-76062819D01*
X193766933Y-74900500D01*
X195000474Y-73666959D01*
X195000475Y-73666958D01*
X195049910Y-73581334D01*
X195054161Y-73565470D01*
X195065140Y-73524499D01*
X195071704Y-73500000D01*
X195075500Y-73485832D01*
X195075500Y-73386960D01*
X195075500Y-72256899D01*
X195095185Y-72189860D01*
X195111819Y-72169218D01*
X199431537Y-67849500D01*
X203775474Y-63505563D01*
X203801366Y-63460717D01*
X203801368Y-63460715D01*
X203824907Y-63419943D01*
X203824908Y-63419942D01*
X203824908Y-63419940D01*
X203824910Y-63419938D01*
X203850500Y-63324435D01*
X203850500Y-60693153D01*
X203850500Y-60693152D01*
X203824911Y-60597651D01*
X203775475Y-60512025D01*
X202987975Y-59724526D01*
X202987974Y-59724525D01*
X202902350Y-59675090D01*
X202902349Y-59675089D01*
X202902345Y-59675088D01*
X202853938Y-59662117D01*
X202853938Y-59662118D01*
X202824047Y-59654108D01*
X202768461Y-59622015D01*
X202379409Y-59232962D01*
X202442993Y-59215925D01*
X202557007Y-59150099D01*
X202650099Y-59057007D01*
X202715925Y-58942993D01*
X202732962Y-58879409D01*
X203187465Y-59333912D01*
X203189247Y-59331553D01*
X203189248Y-59331551D01*
X203280113Y-59149069D01*
X203280116Y-59149063D01*
X203335902Y-58952992D01*
X203335903Y-58952989D01*
X203354713Y-58750000D01*
X203354713Y-58749999D01*
X203335903Y-58547010D01*
X203335902Y-58547007D01*
X203280116Y-58350936D01*
X203280113Y-58350930D01*
X203189249Y-58168449D01*
X203189247Y-58168447D01*
X203187465Y-58166087D01*
X202732962Y-58620590D01*
X202715925Y-58557007D01*
X202650099Y-58442993D01*
X202557007Y-58349901D01*
X202442993Y-58284075D01*
X202379409Y-58267037D01*
X202830687Y-57815758D01*
X202742413Y-57761101D01*
X202742411Y-57761100D01*
X202552321Y-57687460D01*
X202351928Y-57650000D01*
X202148072Y-57650000D01*
X201947678Y-57687460D01*
X201757588Y-57761100D01*
X201757581Y-57761104D01*
X201669312Y-57815757D01*
X201669311Y-57815758D01*
X202120591Y-58267037D01*
X202057007Y-58284075D01*
X201942993Y-58349901D01*
X201849901Y-58442993D01*
X201784075Y-58557007D01*
X201767037Y-58620590D01*
X201312533Y-58166087D01*
X201310755Y-58168442D01*
X201310754Y-58168443D01*
X201219886Y-58350930D01*
X201219883Y-58350936D01*
X201164097Y-58547007D01*
X201164097Y-58547009D01*
X201157221Y-58621206D01*
X201131434Y-58686143D01*
X201074633Y-58726830D01*
X201004852Y-58730349D01*
X200946069Y-58697444D01*
X200373151Y-58124526D01*
X200373150Y-58124525D01*
X200287526Y-58075090D01*
X200239774Y-58062295D01*
X200239772Y-58062294D01*
X200239770Y-58062293D01*
X200192024Y-58049500D01*
X200192023Y-58049500D01*
X199505950Y-58049500D01*
X199438911Y-58029815D01*
X199406683Y-57999810D01*
X199339688Y-57910314D01*
X199329717Y-57902850D01*
X199302925Y-57882794D01*
X199230228Y-57828373D01*
X199230226Y-57828372D01*
X199102114Y-57780588D01*
X199102112Y-57780587D01*
X199102110Y-57780587D01*
X199045493Y-57774500D01*
X198454518Y-57774500D01*
X198454509Y-57774501D01*
X198397885Y-57780587D01*
X198269773Y-57828372D01*
X198160310Y-57910315D01*
X198105365Y-57983713D01*
X198049431Y-58025584D01*
X197979740Y-58030568D01*
X197918417Y-57997082D01*
X197906329Y-57983035D01*
X197847151Y-57902851D01*
X197737882Y-57822207D01*
X197737880Y-57822206D01*
X197609700Y-57777353D01*
X197579270Y-57774500D01*
X197579266Y-57774500D01*
X196920734Y-57774500D01*
X196920730Y-57774500D01*
X196890300Y-57777353D01*
X196890298Y-57777353D01*
X196762119Y-57822206D01*
X196762117Y-57822207D01*
X196652850Y-57902850D01*
X196599770Y-57974771D01*
X196544122Y-58017022D01*
X196474466Y-58022480D01*
X196412917Y-57989412D01*
X196400230Y-57974771D01*
X196387948Y-57958130D01*
X196347150Y-57902850D01*
X196237882Y-57822207D01*
X196208543Y-57811940D01*
X196151769Y-57771219D01*
X196126022Y-57706266D01*
X196125500Y-57694900D01*
X196125500Y-57305099D01*
X196145185Y-57238060D01*
X196197989Y-57192305D01*
X196208525Y-57188065D01*
X196237882Y-57177793D01*
X196347150Y-57097150D01*
X196385363Y-57045371D01*
X196400230Y-57025229D01*
X196455877Y-56982978D01*
X196525533Y-56977519D01*
X196587083Y-57010586D01*
X196599770Y-57025229D01*
X196652848Y-57097148D01*
X196652849Y-57097148D01*
X196652850Y-57097150D01*
X196762118Y-57177793D01*
X196786850Y-57186447D01*
X196890299Y-57222646D01*
X196920730Y-57225500D01*
X196920734Y-57225500D01*
X197579270Y-57225500D01*
X197609699Y-57222646D01*
X197609701Y-57222646D01*
X197673790Y-57200219D01*
X197737882Y-57177793D01*
X197847150Y-57097150D01*
X197906331Y-57016961D01*
X197961975Y-56974713D01*
X198031631Y-56969254D01*
X198093181Y-57002321D01*
X198105366Y-57016286D01*
X198160313Y-57089687D01*
X198269774Y-57171628D01*
X198397886Y-57219412D01*
X198454515Y-57225500D01*
X199045484Y-57225499D01*
X199102114Y-57219412D01*
X199230226Y-57171628D01*
X199339687Y-57089687D01*
X199421628Y-56980226D01*
X199469412Y-56852114D01*
X199473893Y-56810434D01*
X199475499Y-56795501D01*
X199475499Y-56795494D01*
X199475500Y-56795485D01*
X199475499Y-56254516D01*
X199475499Y-56251196D01*
X199476755Y-56251196D01*
X199491651Y-56188146D01*
X199541927Y-56139628D01*
X199599408Y-56125500D01*
X200970571Y-56125500D01*
X201037610Y-56145185D01*
X201083365Y-56197989D01*
X201093449Y-56244346D01*
X201094042Y-56244292D01*
X201094490Y-56249128D01*
X201094571Y-56249500D01*
X201094571Y-56250000D01*
X201114244Y-56462310D01*
X201172596Y-56667392D01*
X201172596Y-56667394D01*
X201267632Y-56858253D01*
X201393728Y-57025229D01*
X201396128Y-57028407D01*
X201553698Y-57172052D01*
X201734981Y-57284298D01*
X201933802Y-57361321D01*
X202143390Y-57400500D01*
X202143392Y-57400500D01*
X202356608Y-57400500D01*
X202356610Y-57400500D01*
X202566198Y-57361321D01*
X202765019Y-57284298D01*
X202946302Y-57172052D01*
X203103872Y-57028407D01*
X203232366Y-56858255D01*
X203256178Y-56810434D01*
X203327403Y-56667394D01*
X203327403Y-56667393D01*
X203327405Y-56667389D01*
X203385756Y-56462310D01*
X203405429Y-56250000D01*
X203385756Y-56037690D01*
X203327405Y-55832611D01*
X203327403Y-55832606D01*
X203327403Y-55832605D01*
X203232367Y-55641746D01*
X203103872Y-55471593D01*
X203041901Y-55415099D01*
X202946302Y-55327948D01*
X202765019Y-55215702D01*
X202765017Y-55215701D01*
X202665608Y-55177190D01*
X202566198Y-55138679D01*
X202356610Y-55099500D01*
X202143390Y-55099500D01*
X201933802Y-55138679D01*
X201933799Y-55138679D01*
X201933799Y-55138680D01*
X201734982Y-55215701D01*
X201734980Y-55215702D01*
X201553696Y-55327949D01*
X201538133Y-55342137D01*
X201475329Y-55372754D01*
X201454595Y-55374500D01*
X199547846Y-55374500D01*
X199480807Y-55354815D01*
X199435052Y-55302011D01*
X199425907Y-55238416D01*
X199424618Y-55238315D01*
X199425000Y-55233458D01*
X199425000Y-55225000D01*
X198624000Y-55225000D01*
X198556961Y-55205315D01*
X198511206Y-55152511D01*
X198500000Y-55101000D01*
X198500000Y-54725000D01*
X199000000Y-54725000D01*
X199424999Y-54725000D01*
X199424999Y-54716550D01*
X199409237Y-54617032D01*
X199348116Y-54497076D01*
X199348113Y-54497071D01*
X199252928Y-54401886D01*
X199252923Y-54401883D01*
X199132965Y-54340760D01*
X199132966Y-54340760D01*
X199033456Y-54325000D01*
X199000000Y-54325000D01*
X199000000Y-54725000D01*
X198500000Y-54725000D01*
X198500000Y-54324999D01*
X198466555Y-54325000D01*
X198367032Y-54340762D01*
X198247076Y-54401883D01*
X198247071Y-54401886D01*
X198151886Y-54497071D01*
X198151879Y-54497080D01*
X198146453Y-54507730D01*
X198098476Y-54558524D01*
X198030654Y-54575316D01*
X197964520Y-54552775D01*
X197934538Y-54518688D01*
X197933311Y-54519595D01*
X197927792Y-54512117D01*
X197847150Y-54402850D01*
X197737882Y-54322207D01*
X197737880Y-54322206D01*
X197609700Y-54277353D01*
X197579270Y-54274500D01*
X197579266Y-54274500D01*
X196920734Y-54274500D01*
X196920730Y-54274500D01*
X196890300Y-54277353D01*
X196890298Y-54277353D01*
X196762119Y-54322206D01*
X196762117Y-54322207D01*
X196652850Y-54402850D01*
X196599770Y-54474771D01*
X196544122Y-54517022D01*
X196474466Y-54522480D01*
X196412917Y-54489412D01*
X196400230Y-54474771D01*
X196391935Y-54463532D01*
X196347150Y-54402850D01*
X196237882Y-54322207D01*
X196237880Y-54322206D01*
X196109700Y-54277353D01*
X196079270Y-54274500D01*
X196079266Y-54274500D01*
X195420734Y-54274500D01*
X195420730Y-54274500D01*
X195390300Y-54277353D01*
X195390298Y-54277353D01*
X195262119Y-54322206D01*
X195262117Y-54322207D01*
X195152850Y-54402850D01*
X195072207Y-54512117D01*
X195072206Y-54512119D01*
X195027353Y-54640298D01*
X195027353Y-54640300D01*
X195024500Y-54670730D01*
X195024500Y-55179269D01*
X195027353Y-55209699D01*
X195027353Y-55209701D01*
X195068731Y-55327948D01*
X195072207Y-55337882D01*
X195075347Y-55342137D01*
X195084168Y-55354088D01*
X195108140Y-55419717D01*
X195092825Y-55487887D01*
X195046403Y-55535108D01*
X195021437Y-55549523D01*
X195021431Y-55549527D01*
X193199526Y-57371432D01*
X193150089Y-57457059D01*
X193150088Y-57457060D01*
X193141188Y-57490280D01*
X193141188Y-57490281D01*
X193125342Y-57549420D01*
X193125339Y-57549430D01*
X193124500Y-57552557D01*
X193124500Y-57552561D01*
X193124500Y-59299435D01*
X193150090Y-59394938D01*
X193194701Y-59472207D01*
X193199526Y-59480563D01*
X193838181Y-60119218D01*
X193871666Y-60180541D01*
X193874500Y-60206899D01*
X193874500Y-71544783D01*
X193854815Y-71611822D01*
X193802011Y-71657577D01*
X193732853Y-71667521D01*
X193669297Y-71638496D01*
X193634558Y-71588754D01*
X193600897Y-71499999D01*
X193580220Y-71445477D01*
X193490483Y-71315470D01*
X193372240Y-71210717D01*
X193372238Y-71210716D01*
X193372237Y-71210715D01*
X193232365Y-71137303D01*
X193078986Y-71099500D01*
X193078985Y-71099500D01*
X192921015Y-71099500D01*
X192921014Y-71099500D01*
X192767634Y-71137303D01*
X192627762Y-71210715D01*
X192509516Y-71315471D01*
X192419781Y-71445475D01*
X192419780Y-71445476D01*
X192363762Y-71593181D01*
X192344722Y-71749999D01*
X192344722Y-71750000D01*
X192363762Y-71906818D01*
X192414000Y-72039283D01*
X192419780Y-72054523D01*
X192509517Y-72184530D01*
X192627760Y-72289283D01*
X192627762Y-72289284D01*
X192767634Y-72362696D01*
X192921014Y-72400500D01*
X192921015Y-72400500D01*
X193078985Y-72400500D01*
X193232365Y-72362696D01*
X193372240Y-72289283D01*
X193490483Y-72184530D01*
X193580220Y-72054523D01*
X193634558Y-71911244D01*
X193676736Y-71855542D01*
X193742333Y-71831485D01*
X193810524Y-71846712D01*
X193859657Y-71896388D01*
X193874500Y-71955216D01*
X193874500Y-73043101D01*
X193854815Y-73110140D01*
X193838181Y-73130782D01*
X191630782Y-75338181D01*
X191569459Y-75371666D01*
X191543101Y-75374500D01*
X186725869Y-75374500D01*
X186678117Y-75387295D01*
X186678116Y-75387294D01*
X186630368Y-75400089D01*
X186630367Y-75400089D01*
X186544740Y-75449527D01*
X185681087Y-76313181D01*
X185619764Y-76346666D01*
X185593406Y-76349500D01*
X181992808Y-76349500D01*
X181925769Y-76329815D01*
X181880014Y-76277011D01*
X181870070Y-76207853D01*
X181876866Y-76181530D01*
X181886236Y-76156821D01*
X181886236Y-76156820D01*
X181886237Y-76156818D01*
X181905278Y-76000000D01*
X181886237Y-75843182D01*
X181830220Y-75695477D01*
X181740483Y-75565470D01*
X181740481Y-75565468D01*
X181667273Y-75500611D01*
X181630146Y-75441422D01*
X181625500Y-75407796D01*
X181625500Y-74499999D01*
X184844722Y-74499999D01*
X184844722Y-74500000D01*
X184863762Y-74656818D01*
X184914000Y-74789283D01*
X184919780Y-74804523D01*
X185009517Y-74934530D01*
X185127760Y-75039283D01*
X185127762Y-75039284D01*
X185267634Y-75112696D01*
X185421014Y-75150500D01*
X185421015Y-75150500D01*
X185578985Y-75150500D01*
X185732365Y-75112696D01*
X185872240Y-75039283D01*
X185990483Y-74934530D01*
X186080220Y-74804523D01*
X186136237Y-74656818D01*
X186155278Y-74500000D01*
X186136237Y-74343182D01*
X186080220Y-74195477D01*
X185990483Y-74065470D01*
X185872240Y-73960717D01*
X185872238Y-73960716D01*
X185872237Y-73960715D01*
X185732365Y-73887303D01*
X185578986Y-73849500D01*
X185578985Y-73849500D01*
X185421015Y-73849500D01*
X185421014Y-73849500D01*
X185267634Y-73887303D01*
X185127762Y-73960715D01*
X185009516Y-74065471D01*
X184919781Y-74195475D01*
X184919780Y-74195476D01*
X184863762Y-74343181D01*
X184844722Y-74499999D01*
X181625500Y-74499999D01*
X181625500Y-71499999D01*
X184844722Y-71499999D01*
X184844722Y-71500000D01*
X184863762Y-71656818D01*
X184899102Y-71750000D01*
X184919780Y-71804523D01*
X185009517Y-71934530D01*
X185127760Y-72039283D01*
X185127762Y-72039284D01*
X185267634Y-72112696D01*
X185421014Y-72150500D01*
X185421015Y-72150500D01*
X185578985Y-72150500D01*
X185732365Y-72112696D01*
X185735665Y-72110964D01*
X185872240Y-72039283D01*
X185990483Y-71934530D01*
X186080220Y-71804523D01*
X186136237Y-71656818D01*
X186155278Y-71500000D01*
X186144385Y-71410283D01*
X186136237Y-71343181D01*
X186100898Y-71250000D01*
X186080220Y-71195477D01*
X185990483Y-71065470D01*
X185872240Y-70960717D01*
X185872238Y-70960716D01*
X185872237Y-70960715D01*
X185732365Y-70887303D01*
X185578986Y-70849500D01*
X185578985Y-70849500D01*
X185421015Y-70849500D01*
X185421014Y-70849500D01*
X185267634Y-70887303D01*
X185127762Y-70960715D01*
X185009516Y-71065471D01*
X184919781Y-71195475D01*
X184919780Y-71195476D01*
X184863762Y-71343181D01*
X184844722Y-71499999D01*
X181625500Y-71499999D01*
X181625500Y-66737270D01*
X186105120Y-66737270D01*
X186105120Y-66737271D01*
X186124160Y-66894089D01*
X186176188Y-67031274D01*
X186180178Y-67041794D01*
X186269915Y-67171801D01*
X186388158Y-67276554D01*
X186388160Y-67276555D01*
X186528032Y-67349967D01*
X186681412Y-67387771D01*
X186681413Y-67387771D01*
X186839383Y-67387771D01*
X186992763Y-67349967D01*
X187132638Y-67276554D01*
X187250881Y-67171801D01*
X187340618Y-67041794D01*
X187396635Y-66894089D01*
X187415676Y-66737271D01*
X187396635Y-66580453D01*
X187391957Y-66568119D01*
X187364682Y-66496200D01*
X187340618Y-66432748D01*
X187250881Y-66302741D01*
X187132638Y-66197988D01*
X187132636Y-66197987D01*
X187132635Y-66197986D01*
X186992763Y-66124574D01*
X186839384Y-66086771D01*
X186839383Y-66086771D01*
X186681413Y-66086771D01*
X186681412Y-66086771D01*
X186528032Y-66124574D01*
X186388160Y-66197986D01*
X186269914Y-66302742D01*
X186180179Y-66432746D01*
X186180178Y-66432747D01*
X186124160Y-66580452D01*
X186105120Y-66737270D01*
X181625500Y-66737270D01*
X181625500Y-65592202D01*
X181645185Y-65525163D01*
X181667274Y-65499386D01*
X181740482Y-65434531D01*
X181740483Y-65434530D01*
X181830220Y-65304523D01*
X181886237Y-65156818D01*
X181905278Y-65000000D01*
X181886237Y-64843182D01*
X181830220Y-64695477D01*
X181740483Y-64565470D01*
X181622240Y-64460717D01*
X181622238Y-64460716D01*
X181622237Y-64460715D01*
X181482365Y-64387303D01*
X181328986Y-64349500D01*
X181328985Y-64349500D01*
X181171015Y-64349500D01*
X181171014Y-64349500D01*
X181017634Y-64387303D01*
X180877762Y-64460715D01*
X180759516Y-64565471D01*
X180669781Y-64695475D01*
X180669780Y-64695476D01*
X180613762Y-64843181D01*
X180594722Y-64999999D01*
X180594722Y-65000000D01*
X180613762Y-65156818D01*
X180669780Y-65304523D01*
X180669781Y-65304524D01*
X180759517Y-65434531D01*
X180832726Y-65499386D01*
X180869853Y-65558574D01*
X180874500Y-65592202D01*
X180874500Y-75407796D01*
X180854815Y-75474835D01*
X180832727Y-75500611D01*
X180759518Y-75565468D01*
X180669781Y-75695475D01*
X180669780Y-75695476D01*
X180613762Y-75843181D01*
X180594722Y-75999999D01*
X180594722Y-76000000D01*
X180613763Y-76156819D01*
X180613763Y-76156821D01*
X180623134Y-76181530D01*
X180628501Y-76251193D01*
X180595353Y-76312699D01*
X180534214Y-76346520D01*
X180507192Y-76349500D01*
X178277214Y-76349500D01*
X178210175Y-76329815D01*
X178164420Y-76277011D01*
X178154118Y-76240446D01*
X178136237Y-76093181D01*
X178100897Y-75999999D01*
X178080220Y-75945477D01*
X177990483Y-75815470D01*
X177872240Y-75710717D01*
X177872238Y-75710716D01*
X177872237Y-75710715D01*
X177732365Y-75637303D01*
X177578986Y-75599500D01*
X177578985Y-75599500D01*
X177421015Y-75599500D01*
X177421014Y-75599500D01*
X177267634Y-75637303D01*
X177127761Y-75710715D01*
X177127759Y-75710717D01*
X177082226Y-75751055D01*
X177018992Y-75780776D01*
X176949729Y-75771592D01*
X176917774Y-75751055D01*
X176872240Y-75710717D01*
X176872238Y-75710715D01*
X176732365Y-75637303D01*
X176578986Y-75599500D01*
X176578985Y-75599500D01*
X176421015Y-75599500D01*
X176421014Y-75599500D01*
X176267634Y-75637303D01*
X176127762Y-75710715D01*
X176009516Y-75815471D01*
X175919781Y-75945475D01*
X175919780Y-75945476D01*
X175863762Y-76093181D01*
X175844722Y-76249999D01*
X175844722Y-76250000D01*
X175863762Y-76406814D01*
X175863764Y-76406821D01*
X175866441Y-76413879D01*
X175874500Y-76457852D01*
X175874500Y-78658682D01*
X175854815Y-78725721D01*
X175802011Y-78771476D01*
X175732853Y-78781420D01*
X175669297Y-78752395D01*
X175668274Y-78751498D01*
X175622240Y-78710717D01*
X175622238Y-78710715D01*
X175482365Y-78637303D01*
X175328986Y-78599500D01*
X175328985Y-78599500D01*
X175171015Y-78599500D01*
X175171014Y-78599500D01*
X175017634Y-78637303D01*
X174877762Y-78710715D01*
X174759516Y-78815471D01*
X174669781Y-78945475D01*
X174669780Y-78945476D01*
X174613762Y-79093181D01*
X174594722Y-79249999D01*
X158500000Y-79249999D01*
X158500000Y-78499999D01*
X164844722Y-78499999D01*
X164844722Y-78500000D01*
X164863762Y-78656818D01*
X164899102Y-78750000D01*
X164919780Y-78804523D01*
X165009517Y-78934530D01*
X165127760Y-79039283D01*
X165127762Y-79039284D01*
X165267634Y-79112696D01*
X165421014Y-79150500D01*
X165421015Y-79150500D01*
X165578985Y-79150500D01*
X165732365Y-79112696D01*
X165769547Y-79093181D01*
X165872240Y-79039283D01*
X165990483Y-78934530D01*
X166080220Y-78804523D01*
X166136237Y-78656818D01*
X166155278Y-78500000D01*
X166146161Y-78424910D01*
X166136237Y-78343181D01*
X166100897Y-78249999D01*
X166080220Y-78195477D01*
X165990483Y-78065470D01*
X165872240Y-77960717D01*
X165872238Y-77960716D01*
X165872237Y-77960715D01*
X165732365Y-77887303D01*
X165578986Y-77849500D01*
X165578985Y-77849500D01*
X165421015Y-77849500D01*
X165421014Y-77849500D01*
X165267634Y-77887303D01*
X165127762Y-77960715D01*
X165009516Y-78065471D01*
X164919781Y-78195475D01*
X164919780Y-78195476D01*
X164863762Y-78343181D01*
X164844722Y-78499999D01*
X158500000Y-78499999D01*
X158500000Y-73750000D01*
X158000000Y-73750000D01*
X158000000Y-88626000D01*
X157980315Y-88693039D01*
X157927511Y-88738794D01*
X157876000Y-88750000D01*
X157500000Y-88750000D01*
X157250000Y-88750000D01*
X131512211Y-88750000D01*
X131488020Y-88747617D01*
X131473189Y-88744667D01*
X131428518Y-88735781D01*
X131383822Y-88717267D01*
X131343727Y-88690477D01*
X131309522Y-88656272D01*
X131282730Y-88616175D01*
X131264218Y-88571480D01*
X131252383Y-88511980D01*
X131250000Y-88487789D01*
X131250000Y-85000000D01*
X131945194Y-85000000D01*
X131964401Y-85342025D01*
X131964403Y-85342037D01*
X132021783Y-85679754D01*
X132021785Y-85679762D01*
X132116619Y-86008935D01*
X132247711Y-86325424D01*
X132247713Y-86325428D01*
X132413424Y-86625259D01*
X132413427Y-86625264D01*
X132611653Y-86904635D01*
X132611658Y-86904643D01*
X132673075Y-86973369D01*
X132673076Y-86973370D01*
X133705748Y-85940698D01*
X133779588Y-86042330D01*
X133957670Y-86220412D01*
X134059301Y-86294251D01*
X133026629Y-87326923D01*
X133095356Y-87388341D01*
X133095364Y-87388346D01*
X133374735Y-87586572D01*
X133374740Y-87586575D01*
X133674571Y-87752286D01*
X133674575Y-87752288D01*
X133991064Y-87883380D01*
X134320237Y-87978214D01*
X134320245Y-87978216D01*
X134657962Y-88035596D01*
X134657974Y-88035598D01*
X135000000Y-88054805D01*
X135342025Y-88035598D01*
X135342037Y-88035596D01*
X135679754Y-87978216D01*
X135679762Y-87978214D01*
X136008935Y-87883380D01*
X136325424Y-87752288D01*
X136325428Y-87752286D01*
X136625255Y-87586577D01*
X136904640Y-87388342D01*
X136973369Y-87326922D01*
X135940698Y-86294251D01*
X136042330Y-86220412D01*
X136220412Y-86042330D01*
X136294251Y-85940698D01*
X137326922Y-86973369D01*
X137388342Y-86904640D01*
X137586577Y-86625255D01*
X137752286Y-86325428D01*
X137752288Y-86325424D01*
X137883380Y-86008935D01*
X137978214Y-85679762D01*
X137978216Y-85679754D01*
X138035596Y-85342037D01*
X138035598Y-85342025D01*
X138054805Y-85000000D01*
X138035598Y-84657974D01*
X138035596Y-84657962D01*
X137978216Y-84320245D01*
X137978214Y-84320237D01*
X137883380Y-83991064D01*
X137752288Y-83674575D01*
X137752286Y-83674571D01*
X137586575Y-83374740D01*
X137586572Y-83374735D01*
X137388346Y-83095364D01*
X137388341Y-83095356D01*
X137326923Y-83026629D01*
X136294251Y-84059300D01*
X136220412Y-83957670D01*
X136042330Y-83779588D01*
X135940698Y-83705748D01*
X136973370Y-82673076D01*
X136973369Y-82673075D01*
X136904643Y-82611658D01*
X136904635Y-82611653D01*
X136625264Y-82413427D01*
X136625259Y-82413424D01*
X136325428Y-82247713D01*
X136325424Y-82247711D01*
X136008935Y-82116619D01*
X135679762Y-82021785D01*
X135679754Y-82021783D01*
X135342037Y-81964403D01*
X135342025Y-81964401D01*
X135000000Y-81945194D01*
X134657974Y-81964401D01*
X134657962Y-81964403D01*
X134320245Y-82021783D01*
X134320237Y-82021785D01*
X133991064Y-82116619D01*
X133674575Y-82247711D01*
X133674571Y-82247713D01*
X133374744Y-82413422D01*
X133095360Y-82611655D01*
X133026628Y-82673076D01*
X134059301Y-83705748D01*
X133957670Y-83779588D01*
X133779588Y-83957670D01*
X133705748Y-84059300D01*
X132673076Y-83026628D01*
X132611655Y-83095360D01*
X132413422Y-83374744D01*
X132247713Y-83674571D01*
X132247711Y-83674575D01*
X132116619Y-83991064D01*
X132021785Y-84320237D01*
X132021783Y-84320245D01*
X131964403Y-84657962D01*
X131964401Y-84657974D01*
X131945194Y-85000000D01*
X131250000Y-85000000D01*
X131250000Y-61000000D01*
X131750000Y-61000000D01*
X133213681Y-62463681D01*
X133247166Y-62525004D01*
X133250000Y-62551362D01*
X133250000Y-68000000D01*
X138713681Y-73463681D01*
X138747166Y-73525004D01*
X138750000Y-73551362D01*
X138750000Y-82500000D01*
X157500000Y-82500000D01*
X157500000Y-82000000D01*
X139374000Y-82000000D01*
X139306961Y-81980315D01*
X139261206Y-81927511D01*
X139250000Y-81876000D01*
X139250000Y-78249999D01*
X151344722Y-78249999D01*
X151344722Y-78250000D01*
X151363762Y-78406818D01*
X151399102Y-78500000D01*
X151419780Y-78554523D01*
X151509517Y-78684530D01*
X151627760Y-78789283D01*
X151627762Y-78789284D01*
X151767634Y-78862696D01*
X151921014Y-78900500D01*
X151921015Y-78900500D01*
X152078985Y-78900500D01*
X152232365Y-78862696D01*
X152246005Y-78855537D01*
X152372240Y-78789283D01*
X152490483Y-78684530D01*
X152580220Y-78554523D01*
X152636237Y-78406818D01*
X152655278Y-78250000D01*
X152649900Y-78205703D01*
X152636237Y-78093181D01*
X152590124Y-77971593D01*
X152580220Y-77945477D01*
X152490483Y-77815470D01*
X152372240Y-77710717D01*
X152372238Y-77710716D01*
X152372237Y-77710715D01*
X152232365Y-77637303D01*
X152078986Y-77599500D01*
X152078985Y-77599500D01*
X151921015Y-77599500D01*
X151921014Y-77599500D01*
X151767634Y-77637303D01*
X151627762Y-77710715D01*
X151509516Y-77815471D01*
X151419781Y-77945475D01*
X151419780Y-77945476D01*
X151363762Y-78093181D01*
X151344722Y-78249999D01*
X139250000Y-78249999D01*
X139250000Y-74249999D01*
X140844722Y-74249999D01*
X140844722Y-74250000D01*
X140863762Y-74406818D01*
X140899102Y-74500000D01*
X140919780Y-74554523D01*
X141009517Y-74684530D01*
X141127760Y-74789283D01*
X141127762Y-74789284D01*
X141267634Y-74862696D01*
X141421014Y-74900500D01*
X141421015Y-74900500D01*
X141578985Y-74900500D01*
X141732365Y-74862696D01*
X141872240Y-74789283D01*
X141990483Y-74684530D01*
X142080220Y-74554523D01*
X142136237Y-74406818D01*
X142155278Y-74250000D01*
X142155278Y-74249999D01*
X153094722Y-74249999D01*
X153094722Y-74250000D01*
X153113762Y-74406818D01*
X153149102Y-74500000D01*
X153169780Y-74554523D01*
X153259517Y-74684530D01*
X153377760Y-74789283D01*
X153377762Y-74789284D01*
X153517634Y-74862696D01*
X153671014Y-74900500D01*
X153671015Y-74900500D01*
X153828985Y-74900500D01*
X153982365Y-74862696D01*
X154122240Y-74789283D01*
X154240483Y-74684530D01*
X154330220Y-74554523D01*
X154386237Y-74406818D01*
X154405278Y-74250000D01*
X154386237Y-74093182D01*
X154330220Y-73945477D01*
X154240483Y-73815470D01*
X154122240Y-73710717D01*
X154122238Y-73710716D01*
X154122237Y-73710715D01*
X153982365Y-73637303D01*
X153828986Y-73599500D01*
X153828985Y-73599500D01*
X153671015Y-73599500D01*
X153671014Y-73599500D01*
X153517634Y-73637303D01*
X153377762Y-73710715D01*
X153259516Y-73815471D01*
X153169781Y-73945475D01*
X153169780Y-73945476D01*
X153113762Y-74093181D01*
X153094722Y-74249999D01*
X142155278Y-74249999D01*
X142136237Y-74093182D01*
X142080220Y-73945477D01*
X141990483Y-73815470D01*
X141872240Y-73710717D01*
X141872238Y-73710716D01*
X141872237Y-73710715D01*
X141732365Y-73637303D01*
X141578986Y-73599500D01*
X141578985Y-73599500D01*
X141421015Y-73599500D01*
X141421014Y-73599500D01*
X141267634Y-73637303D01*
X141127762Y-73710715D01*
X141009516Y-73815471D01*
X140919781Y-73945475D01*
X140919780Y-73945476D01*
X140863762Y-74093181D01*
X140844722Y-74249999D01*
X139250000Y-74249999D01*
X139250000Y-73250000D01*
X139249999Y-73249999D01*
X146844722Y-73249999D01*
X146844722Y-73250000D01*
X146863762Y-73406818D01*
X146893728Y-73485830D01*
X146919780Y-73554523D01*
X147009517Y-73684530D01*
X147127760Y-73789283D01*
X147127762Y-73789284D01*
X147267634Y-73862696D01*
X147421014Y-73900500D01*
X147421015Y-73900500D01*
X147578985Y-73900500D01*
X147732365Y-73862696D01*
X147872240Y-73789283D01*
X147990483Y-73684530D01*
X148080220Y-73554523D01*
X148136237Y-73406818D01*
X148155278Y-73250000D01*
X148140803Y-73130782D01*
X148136237Y-73093181D01*
X148114992Y-73037164D01*
X148080220Y-72945477D01*
X147990483Y-72815470D01*
X147916581Y-72749999D01*
X158999999Y-72749999D01*
X159000000Y-72750000D01*
X159500000Y-72750000D01*
X160250000Y-72000000D01*
X160250000Y-68499999D01*
X161594722Y-68499999D01*
X161594722Y-68500000D01*
X161613762Y-68656818D01*
X161643085Y-68734134D01*
X161669780Y-68804523D01*
X161759517Y-68934530D01*
X161877760Y-69039283D01*
X161877762Y-69039284D01*
X162017634Y-69112696D01*
X162171014Y-69150500D01*
X162171015Y-69150500D01*
X162328985Y-69150500D01*
X162482365Y-69112696D01*
X162622240Y-69039283D01*
X162740483Y-68934530D01*
X162830220Y-68804523D01*
X162886237Y-68656818D01*
X162905278Y-68500000D01*
X162886237Y-68343182D01*
X162830220Y-68195477D01*
X162740483Y-68065470D01*
X162622240Y-67960717D01*
X162622238Y-67960716D01*
X162622237Y-67960715D01*
X162482365Y-67887303D01*
X162328986Y-67849500D01*
X162328985Y-67849500D01*
X162171015Y-67849500D01*
X162171014Y-67849500D01*
X162017634Y-67887303D01*
X161877762Y-67960715D01*
X161877760Y-67960717D01*
X161768725Y-68057313D01*
X161759516Y-68065471D01*
X161669781Y-68195475D01*
X161669780Y-68195476D01*
X161613762Y-68343181D01*
X161594722Y-68499999D01*
X160250000Y-68499999D01*
X160250000Y-67801362D01*
X160269685Y-67734323D01*
X160286319Y-67713681D01*
X160968726Y-67031274D01*
X161750000Y-66250000D01*
X161750000Y-58000000D01*
X161250000Y-58000000D01*
X161250000Y-65948638D01*
X161230315Y-66015677D01*
X161213681Y-66036319D01*
X159750000Y-67499999D01*
X159750000Y-71948637D01*
X159730315Y-72015676D01*
X159713681Y-72036318D01*
X158999999Y-72749999D01*
X147916581Y-72749999D01*
X147872240Y-72710717D01*
X147872238Y-72710716D01*
X147872237Y-72710715D01*
X147732365Y-72637303D01*
X147578986Y-72599500D01*
X147578985Y-72599500D01*
X147421015Y-72599500D01*
X147421014Y-72599500D01*
X147267634Y-72637303D01*
X147127762Y-72710715D01*
X147009516Y-72815471D01*
X146919781Y-72945475D01*
X146919780Y-72945476D01*
X146863762Y-73093181D01*
X146844722Y-73249999D01*
X139249999Y-73249999D01*
X138249999Y-72249999D01*
X141594722Y-72249999D01*
X141594722Y-72250000D01*
X141613762Y-72406818D01*
X141628424Y-72445477D01*
X141669780Y-72554523D01*
X141759517Y-72684530D01*
X141877760Y-72789283D01*
X141877762Y-72789284D01*
X142017634Y-72862696D01*
X142171014Y-72900500D01*
X142171015Y-72900500D01*
X142328985Y-72900500D01*
X142482365Y-72862696D01*
X142622240Y-72789283D01*
X142740483Y-72684530D01*
X142830220Y-72554523D01*
X142886237Y-72406818D01*
X142905278Y-72250000D01*
X144250000Y-72250000D01*
X144250000Y-72750000D01*
X146500000Y-72750000D01*
X146963681Y-72286319D01*
X147025004Y-72252834D01*
X147051362Y-72250000D01*
X150750000Y-72250000D01*
X150750000Y-71750000D01*
X146750000Y-71750000D01*
X146749999Y-71750000D01*
X146286319Y-72213681D01*
X146224996Y-72247166D01*
X146198638Y-72250000D01*
X144250000Y-72250000D01*
X142905278Y-72250000D01*
X142888607Y-72112696D01*
X142886237Y-72093181D01*
X142856843Y-72015676D01*
X142830220Y-71945477D01*
X142740483Y-71815470D01*
X142622240Y-71710717D01*
X142622238Y-71710716D01*
X142622237Y-71710715D01*
X142482365Y-71637303D01*
X142328986Y-71599500D01*
X142328985Y-71599500D01*
X142171015Y-71599500D01*
X142171014Y-71599500D01*
X142017634Y-71637303D01*
X141877762Y-71710715D01*
X141759516Y-71815471D01*
X141669781Y-71945475D01*
X141669780Y-71945476D01*
X141613762Y-72093181D01*
X141594722Y-72249999D01*
X138249999Y-72249999D01*
X137250000Y-71250000D01*
X146500000Y-71250000D01*
X147000000Y-71250000D01*
X147000000Y-68250000D01*
X146500000Y-68250000D01*
X146500000Y-71250000D01*
X137250000Y-71250000D01*
X133786319Y-67786319D01*
X133752834Y-67724996D01*
X133750000Y-67698638D01*
X133750000Y-67574999D01*
X136294859Y-67574999D01*
X136294859Y-67575000D01*
X136315378Y-67796439D01*
X136376240Y-68010350D01*
X136475369Y-68209428D01*
X136491137Y-68230308D01*
X136491138Y-68230308D01*
X136860689Y-67860756D01*
X136879668Y-67906574D01*
X136956274Y-68021224D01*
X137053776Y-68118726D01*
X137168426Y-68195332D01*
X137214242Y-68214309D01*
X136846672Y-68581879D01*
X136846672Y-68581880D01*
X136962821Y-68653797D01*
X136962822Y-68653798D01*
X137170195Y-68734134D01*
X137388807Y-68775000D01*
X137611193Y-68775000D01*
X137829809Y-68734133D01*
X138037168Y-68653801D01*
X138037181Y-68653795D01*
X138153326Y-68581879D01*
X137785757Y-68214309D01*
X137831574Y-68195332D01*
X137946224Y-68118726D01*
X138043726Y-68021224D01*
X138120332Y-67906574D01*
X138139309Y-67860756D01*
X138508861Y-68230308D01*
X138524631Y-68209425D01*
X138524633Y-68209422D01*
X138623759Y-68010350D01*
X138684621Y-67796439D01*
X138705141Y-67575000D01*
X138705141Y-67574999D01*
X138684621Y-67353560D01*
X138623759Y-67139649D01*
X138524635Y-66940580D01*
X138524630Y-66940572D01*
X138508860Y-66919690D01*
X138139309Y-67289241D01*
X138120332Y-67243426D01*
X138043726Y-67128776D01*
X137946224Y-67031274D01*
X137831574Y-66954668D01*
X137785756Y-66935690D01*
X138153327Y-66568119D01*
X138043310Y-66499999D01*
X141344722Y-66499999D01*
X141344722Y-66500000D01*
X141363762Y-66656818D01*
X141419780Y-66804523D01*
X141509517Y-66934530D01*
X141627760Y-67039283D01*
X141627762Y-67039284D01*
X141767634Y-67112696D01*
X141921014Y-67150500D01*
X141921015Y-67150500D01*
X142078985Y-67150500D01*
X142232365Y-67112696D01*
X142372240Y-67039283D01*
X142490483Y-66934530D01*
X142580220Y-66804523D01*
X142636237Y-66656818D01*
X142655278Y-66500000D01*
X142655278Y-66499999D01*
X148094722Y-66499999D01*
X148094722Y-66500000D01*
X148113762Y-66656818D01*
X148169780Y-66804523D01*
X148259517Y-66934530D01*
X148377760Y-67039283D01*
X148377762Y-67039284D01*
X148517634Y-67112696D01*
X148671014Y-67150500D01*
X148671015Y-67150500D01*
X148828985Y-67150500D01*
X148982365Y-67112696D01*
X149122240Y-67039283D01*
X149240483Y-66934530D01*
X149330220Y-66804523D01*
X149386237Y-66656818D01*
X149405278Y-66500000D01*
X149388607Y-66362696D01*
X149386237Y-66343181D01*
X149331172Y-66197988D01*
X149330220Y-66195477D01*
X149240483Y-66065470D01*
X149122240Y-65960717D01*
X149122238Y-65960716D01*
X149122237Y-65960715D01*
X148982365Y-65887303D01*
X148828986Y-65849500D01*
X148828985Y-65849500D01*
X148671015Y-65849500D01*
X148671014Y-65849500D01*
X148517634Y-65887303D01*
X148377762Y-65960715D01*
X148259516Y-66065471D01*
X148169781Y-66195475D01*
X148169780Y-66195476D01*
X148113762Y-66343181D01*
X148094722Y-66499999D01*
X142655278Y-66499999D01*
X142638607Y-66362696D01*
X142636237Y-66343181D01*
X142581172Y-66197988D01*
X142580220Y-66195477D01*
X142490483Y-66065470D01*
X142372240Y-65960717D01*
X142372238Y-65960716D01*
X142372237Y-65960715D01*
X142232365Y-65887303D01*
X142078986Y-65849500D01*
X142078985Y-65849500D01*
X141921015Y-65849500D01*
X141921014Y-65849500D01*
X141767634Y-65887303D01*
X141627762Y-65960715D01*
X141509516Y-66065471D01*
X141419781Y-66195475D01*
X141419780Y-66195476D01*
X141363762Y-66343181D01*
X141344722Y-66499999D01*
X138043310Y-66499999D01*
X138037178Y-66496202D01*
X138037177Y-66496201D01*
X137829804Y-66415865D01*
X137611193Y-66375000D01*
X137388807Y-66375000D01*
X137170195Y-66415865D01*
X136962824Y-66496200D01*
X136962823Y-66496201D01*
X136846671Y-66568119D01*
X137214242Y-66935690D01*
X137168426Y-66954668D01*
X137053776Y-67031274D01*
X136956274Y-67128776D01*
X136879668Y-67243426D01*
X136860690Y-67289243D01*
X136491138Y-66919691D01*
X136491137Y-66919691D01*
X136475368Y-66940574D01*
X136376240Y-67139649D01*
X136315378Y-67353560D01*
X136294859Y-67574999D01*
X133750000Y-67574999D01*
X133750000Y-65749999D01*
X150344722Y-65749999D01*
X150344722Y-65750000D01*
X150363762Y-65906818D01*
X150412876Y-66036319D01*
X150419780Y-66054523D01*
X150509517Y-66184530D01*
X150627760Y-66289283D01*
X150627762Y-66289284D01*
X150767634Y-66362696D01*
X150921014Y-66400500D01*
X150921015Y-66400500D01*
X151078985Y-66400500D01*
X151232365Y-66362696D01*
X151269547Y-66343181D01*
X151372240Y-66289283D01*
X151490483Y-66184530D01*
X151580220Y-66054523D01*
X151636237Y-65906818D01*
X151655278Y-65750000D01*
X151636237Y-65593182D01*
X151635865Y-65592202D01*
X151600665Y-65499386D01*
X151580220Y-65445477D01*
X151490483Y-65315470D01*
X151372240Y-65210717D01*
X151372238Y-65210716D01*
X151372237Y-65210715D01*
X151232365Y-65137303D01*
X151078986Y-65099500D01*
X151078985Y-65099500D01*
X150921015Y-65099500D01*
X150921014Y-65099500D01*
X150767634Y-65137303D01*
X150627762Y-65210715D01*
X150509516Y-65315471D01*
X150419781Y-65445475D01*
X150419780Y-65445476D01*
X150363762Y-65593181D01*
X150344722Y-65749999D01*
X133750000Y-65749999D01*
X133750000Y-63999999D01*
X149594722Y-63999999D01*
X149594722Y-64000000D01*
X149613762Y-64156818D01*
X149669780Y-64304523D01*
X149759517Y-64434530D01*
X149877760Y-64539283D01*
X149877762Y-64539284D01*
X150017634Y-64612696D01*
X150171014Y-64650500D01*
X150171015Y-64650500D01*
X150328985Y-64650500D01*
X150482365Y-64612696D01*
X150622240Y-64539283D01*
X150740483Y-64434530D01*
X150830220Y-64304523D01*
X150886237Y-64156818D01*
X150905278Y-64000000D01*
X150886237Y-63843182D01*
X150830220Y-63695477D01*
X150740483Y-63565470D01*
X150622240Y-63460717D01*
X150622238Y-63460716D01*
X150622237Y-63460715D01*
X150482365Y-63387303D01*
X150328986Y-63349500D01*
X150328985Y-63349500D01*
X150171015Y-63349500D01*
X150171014Y-63349500D01*
X150017634Y-63387303D01*
X149877762Y-63460715D01*
X149759516Y-63565471D01*
X149669781Y-63695475D01*
X149669780Y-63695476D01*
X149613762Y-63843181D01*
X149594722Y-63999999D01*
X133750000Y-63999999D01*
X133750000Y-62250000D01*
X133749999Y-62249999D01*
X132500001Y-61000000D01*
X139500000Y-61000000D01*
X140000000Y-61000000D01*
X141250000Y-61000000D01*
X142500000Y-61000000D01*
X143750000Y-61000000D01*
X145000000Y-61000000D01*
X146250000Y-61000000D01*
X147500000Y-61000000D01*
X148750000Y-61000000D01*
X150000000Y-61000000D01*
X151250000Y-61000000D01*
X152500000Y-61000000D01*
X153750000Y-61000000D01*
X155000000Y-61000000D01*
X155000000Y-60500000D01*
X153750000Y-60500000D01*
X153750000Y-61000000D01*
X152500000Y-61000000D01*
X152500000Y-60500000D01*
X151250000Y-60500000D01*
X151250000Y-61000000D01*
X150000000Y-61000000D01*
X150000000Y-60500000D01*
X148750000Y-60500000D01*
X148750000Y-61000000D01*
X147500000Y-61000000D01*
X147500000Y-60500000D01*
X146250000Y-60500000D01*
X146250000Y-61000000D01*
X145000000Y-61000000D01*
X145000000Y-60500000D01*
X143750000Y-60500000D01*
X143750000Y-61000000D01*
X142500000Y-61000000D01*
X142500000Y-60500000D01*
X141250000Y-60500000D01*
X141250000Y-61000000D01*
X140000000Y-61000000D01*
X140000000Y-58249999D01*
X154844722Y-58249999D01*
X154844722Y-58250000D01*
X154863762Y-58406818D01*
X154899102Y-58500000D01*
X154919780Y-58554523D01*
X155009517Y-58684530D01*
X155127760Y-58789283D01*
X155127762Y-58789284D01*
X155267634Y-58862696D01*
X155267633Y-58862696D01*
X155416211Y-58899316D01*
X155474218Y-58932032D01*
X156463181Y-59920995D01*
X156496666Y-59982318D01*
X156499500Y-60008676D01*
X156499500Y-67815891D01*
X156533608Y-67943187D01*
X156566410Y-68000000D01*
X156599500Y-68057314D01*
X156599502Y-68057316D01*
X157071724Y-68529538D01*
X157105209Y-68590861D01*
X157107139Y-68602271D01*
X157113762Y-68656816D01*
X157113763Y-68656821D01*
X157158583Y-68775000D01*
X157169780Y-68804523D01*
X157259517Y-68934530D01*
X157377760Y-69039283D01*
X157377762Y-69039284D01*
X157517634Y-69112696D01*
X157671014Y-69150500D01*
X157671015Y-69150500D01*
X157828985Y-69150500D01*
X157982365Y-69112696D01*
X158122240Y-69039283D01*
X158240483Y-68934530D01*
X158330220Y-68804523D01*
X158386237Y-68656818D01*
X158405278Y-68500000D01*
X158386237Y-68343182D01*
X158330220Y-68195477D01*
X158240483Y-68065470D01*
X158122240Y-67960717D01*
X158122238Y-67960716D01*
X158122237Y-67960715D01*
X157982366Y-67887304D01*
X157833787Y-67850683D01*
X157775781Y-67817967D01*
X157536819Y-67579005D01*
X157503334Y-67517682D01*
X157500500Y-67491324D01*
X157500500Y-59684110D01*
X157500500Y-59684108D01*
X157477939Y-59599910D01*
X157466392Y-59556814D01*
X157422368Y-59480563D01*
X157400500Y-59442686D01*
X157307314Y-59349500D01*
X156178274Y-58220460D01*
X156144789Y-58159137D01*
X156142859Y-58147724D01*
X156140042Y-58124525D01*
X156136237Y-58093182D01*
X156124522Y-58062293D01*
X156110855Y-58026256D01*
X156080220Y-57945477D01*
X155990483Y-57815470D01*
X155872240Y-57710717D01*
X155872238Y-57710716D01*
X155872237Y-57710715D01*
X155732365Y-57637303D01*
X155578986Y-57599500D01*
X155578985Y-57599500D01*
X155421015Y-57599500D01*
X155421014Y-57599500D01*
X155267634Y-57637303D01*
X155127762Y-57710715D01*
X155083418Y-57750000D01*
X155013501Y-57811941D01*
X155009516Y-57815471D01*
X154919781Y-57945475D01*
X154919780Y-57945476D01*
X154863762Y-58093181D01*
X154844722Y-58249999D01*
X140000000Y-58249999D01*
X140000000Y-53750000D01*
X139500000Y-53750000D01*
X139500000Y-61000000D01*
X132500001Y-61000000D01*
X131750000Y-60249999D01*
X131750000Y-61000000D01*
X131250000Y-61000000D01*
X131250000Y-52499999D01*
X137094722Y-52499999D01*
X137094722Y-52500000D01*
X137113762Y-52656818D01*
X137149102Y-52750000D01*
X137169780Y-52804523D01*
X137259517Y-52934530D01*
X137377760Y-53039283D01*
X137377762Y-53039284D01*
X137517634Y-53112696D01*
X137671014Y-53150500D01*
X137671015Y-53150500D01*
X137828985Y-53150500D01*
X137982365Y-53112696D01*
X138122240Y-53039283D01*
X138240483Y-52934530D01*
X138330220Y-52804523D01*
X138386237Y-52656818D01*
X138405278Y-52500000D01*
X138386237Y-52343182D01*
X138375726Y-52315468D01*
X138348768Y-52244385D01*
X138330220Y-52195477D01*
X138240483Y-52065470D01*
X138122240Y-51960717D01*
X138122238Y-51960716D01*
X138122237Y-51960715D01*
X137982365Y-51887303D01*
X137828986Y-51849500D01*
X137828985Y-51849500D01*
X137671015Y-51849500D01*
X137671014Y-51849500D01*
X137517634Y-51887303D01*
X137377762Y-51960715D01*
X137259516Y-52065471D01*
X137169781Y-52195475D01*
X137169780Y-52195476D01*
X137113762Y-52343181D01*
X137094722Y-52499999D01*
X131250000Y-52499999D01*
X131250000Y-48004498D01*
X132524500Y-48004498D01*
X132524500Y-48545481D01*
X132524501Y-48545490D01*
X132530587Y-48602114D01*
X132569881Y-48707461D01*
X132578372Y-48730226D01*
X132660313Y-48839687D01*
X132769774Y-48921628D01*
X132897886Y-48969412D01*
X132954515Y-48975500D01*
X133368100Y-48975499D01*
X133435139Y-48995183D01*
X133455781Y-49011818D01*
X133774525Y-49330562D01*
X133844438Y-49400475D01*
X133930062Y-49449910D01*
X133977811Y-49462705D01*
X133977812Y-49462705D01*
X133987903Y-49465408D01*
X134025564Y-49475500D01*
X134025565Y-49475500D01*
X134225500Y-49475500D01*
X134292539Y-49495185D01*
X134338294Y-49547989D01*
X134349500Y-49599500D01*
X134349500Y-49624678D01*
X134364032Y-49697735D01*
X134364033Y-49697739D01*
X134364034Y-49697740D01*
X134419399Y-49780601D01*
X134502260Y-49835966D01*
X134502264Y-49835967D01*
X134575321Y-49850499D01*
X134575324Y-49850500D01*
X134575326Y-49850500D01*
X135543101Y-49850500D01*
X135610140Y-49870185D01*
X135630782Y-49886819D01*
X136424525Y-50680562D01*
X136494438Y-50750475D01*
X136580062Y-50799910D01*
X136627811Y-50812705D01*
X136627812Y-50812705D01*
X136637903Y-50815408D01*
X136675564Y-50825500D01*
X136675565Y-50825500D01*
X150428426Y-50825500D01*
X150495465Y-50845185D01*
X150541220Y-50897989D01*
X150551164Y-50967147D01*
X150522139Y-51030703D01*
X150510653Y-51042315D01*
X150484518Y-51065468D01*
X150394781Y-51195475D01*
X150394780Y-51195476D01*
X150338762Y-51343181D01*
X150319722Y-51499999D01*
X150319722Y-51500000D01*
X150338762Y-51656818D01*
X150394780Y-51804523D01*
X150394781Y-51804524D01*
X150484516Y-51934529D01*
X150594747Y-52032184D01*
X150631874Y-52091374D01*
X150631106Y-52161239D01*
X150594747Y-52217816D01*
X150484516Y-52315470D01*
X150394781Y-52445475D01*
X150394780Y-52445476D01*
X150338762Y-52593181D01*
X150319722Y-52749999D01*
X150319722Y-52750000D01*
X150338762Y-52906818D01*
X150394780Y-53054523D01*
X150394781Y-53054524D01*
X150484516Y-53184529D01*
X150594747Y-53282184D01*
X150631874Y-53341374D01*
X150631106Y-53411239D01*
X150594747Y-53467816D01*
X150484516Y-53565470D01*
X150394781Y-53695475D01*
X150394780Y-53695476D01*
X150338762Y-53843181D01*
X150319722Y-53999999D01*
X150319722Y-54000000D01*
X150338762Y-54156818D01*
X150383394Y-54274500D01*
X150394780Y-54304523D01*
X150484517Y-54434530D01*
X150602760Y-54539283D01*
X150602762Y-54539284D01*
X150742634Y-54612696D01*
X150896014Y-54650500D01*
X150896015Y-54650500D01*
X151053985Y-54650500D01*
X151207365Y-54612696D01*
X151210152Y-54611233D01*
X151347240Y-54539283D01*
X151465483Y-54434530D01*
X151555220Y-54304523D01*
X151611237Y-54156818D01*
X151630278Y-54000000D01*
X151611237Y-53843182D01*
X151555220Y-53695477D01*
X151472406Y-53575500D01*
X151465482Y-53565468D01*
X151355253Y-53467816D01*
X151318126Y-53408627D01*
X151318892Y-53338761D01*
X151355253Y-53282184D01*
X151465482Y-53184531D01*
X151465483Y-53184530D01*
X151555220Y-53054523D01*
X151611237Y-52906818D01*
X151630278Y-52750000D01*
X151611237Y-52593182D01*
X151555220Y-52445477D01*
X151484611Y-52343182D01*
X151465482Y-52315468D01*
X151355253Y-52217816D01*
X151318126Y-52158627D01*
X151318892Y-52088761D01*
X151355253Y-52032184D01*
X151465482Y-51934531D01*
X151465483Y-51934530D01*
X151555220Y-51804523D01*
X151611237Y-51656818D01*
X151630278Y-51500000D01*
X151616805Y-51389034D01*
X151611237Y-51343181D01*
X151589992Y-51287164D01*
X151555220Y-51195477D01*
X151465483Y-51065470D01*
X151465481Y-51065468D01*
X151439347Y-51042315D01*
X151402220Y-50983126D01*
X151402988Y-50913260D01*
X151441405Y-50854901D01*
X151505276Y-50826576D01*
X151521574Y-50825500D01*
X155720309Y-50825500D01*
X155787348Y-50845185D01*
X155807990Y-50861819D01*
X162201733Y-57255562D01*
X162271646Y-57325475D01*
X162357270Y-57374910D01*
X162357274Y-57374911D01*
X162402183Y-57386945D01*
X162402184Y-57386945D01*
X162415739Y-57390576D01*
X162452772Y-57400500D01*
X162452773Y-57400500D01*
X164715739Y-57400500D01*
X164782778Y-57420185D01*
X164828533Y-57472989D01*
X164838477Y-57542147D01*
X164809452Y-57605703D01*
X164773365Y-57634296D01*
X164627762Y-57710714D01*
X164545579Y-57783522D01*
X164513501Y-57811941D01*
X164509516Y-57815471D01*
X164419781Y-57945475D01*
X164419780Y-57945476D01*
X164363762Y-58093181D01*
X164344722Y-58249999D01*
X164344722Y-58250000D01*
X164363762Y-58406818D01*
X164399102Y-58500000D01*
X164419780Y-58554523D01*
X164447348Y-58594463D01*
X164509517Y-58684531D01*
X164582726Y-58749386D01*
X164619853Y-58808574D01*
X164624500Y-58842202D01*
X164624500Y-73299435D01*
X164650090Y-73394938D01*
X164688067Y-73460717D01*
X164699526Y-73480563D01*
X165065481Y-73846518D01*
X165098966Y-73907841D01*
X165100896Y-73949143D01*
X165094722Y-73999997D01*
X165094722Y-74000000D01*
X165113762Y-74156818D01*
X165149102Y-74250000D01*
X165169780Y-74304523D01*
X165259517Y-74434530D01*
X165377760Y-74539283D01*
X165377762Y-74539284D01*
X165517634Y-74612696D01*
X165671014Y-74650500D01*
X165671015Y-74650500D01*
X165828985Y-74650500D01*
X165982365Y-74612696D01*
X166122240Y-74539283D01*
X166240483Y-74434530D01*
X166330220Y-74304523D01*
X166386237Y-74156818D01*
X166405278Y-74000000D01*
X166388607Y-73862696D01*
X166386237Y-73843181D01*
X166350898Y-73750000D01*
X166330220Y-73695477D01*
X166251433Y-73581334D01*
X166240482Y-73565468D01*
X166130253Y-73467816D01*
X166093126Y-73408627D01*
X166093892Y-73338761D01*
X166130253Y-73282184D01*
X166240482Y-73184531D01*
X166277582Y-73130782D01*
X166330220Y-73054523D01*
X166386237Y-72906818D01*
X166405278Y-72750000D01*
X166386237Y-72593182D01*
X166330220Y-72445477D01*
X166240483Y-72315470D01*
X166122240Y-72210717D01*
X166122238Y-72210716D01*
X166122237Y-72210715D01*
X165982367Y-72137304D01*
X165969824Y-72134213D01*
X165909444Y-72099056D01*
X165877656Y-72036837D01*
X165875500Y-72013816D01*
X165875500Y-62499999D01*
X186594722Y-62499999D01*
X186594722Y-62500000D01*
X186613762Y-62656818D01*
X186628424Y-62695477D01*
X186669780Y-62804523D01*
X186759517Y-62934530D01*
X186877760Y-63039283D01*
X186877762Y-63039284D01*
X187017634Y-63112696D01*
X187171014Y-63150500D01*
X187171015Y-63150500D01*
X187328985Y-63150500D01*
X187482365Y-63112696D01*
X187506730Y-63099908D01*
X187622240Y-63039283D01*
X187666583Y-62999999D01*
X190344722Y-62999999D01*
X190344722Y-63000000D01*
X190363762Y-63156818D01*
X190419780Y-63304523D01*
X190509517Y-63434530D01*
X190627760Y-63539283D01*
X190627762Y-63539284D01*
X190767634Y-63612696D01*
X190921014Y-63650500D01*
X190921015Y-63650500D01*
X191078985Y-63650500D01*
X191232365Y-63612696D01*
X191372240Y-63539283D01*
X191490483Y-63434530D01*
X191580220Y-63304523D01*
X191636237Y-63156818D01*
X191655278Y-63000000D01*
X191636237Y-62843182D01*
X191580220Y-62695477D01*
X191490483Y-62565470D01*
X191372240Y-62460717D01*
X191372238Y-62460716D01*
X191372237Y-62460715D01*
X191232365Y-62387303D01*
X191078986Y-62349500D01*
X191078985Y-62349500D01*
X190921015Y-62349500D01*
X190921014Y-62349500D01*
X190767634Y-62387303D01*
X190627762Y-62460715D01*
X190509516Y-62565471D01*
X190419781Y-62695475D01*
X190419780Y-62695476D01*
X190363762Y-62843181D01*
X190344722Y-62999999D01*
X187666583Y-62999999D01*
X187740483Y-62934530D01*
X187830220Y-62804523D01*
X187886237Y-62656818D01*
X187905278Y-62500000D01*
X187888440Y-62361321D01*
X187886237Y-62343181D01*
X187863905Y-62284297D01*
X187830220Y-62195477D01*
X187740483Y-62065470D01*
X187622240Y-61960717D01*
X187622238Y-61960716D01*
X187622237Y-61960715D01*
X187482365Y-61887303D01*
X187328986Y-61849500D01*
X187328985Y-61849500D01*
X187171015Y-61849500D01*
X187171014Y-61849500D01*
X187017634Y-61887303D01*
X186877762Y-61960715D01*
X186759516Y-62065471D01*
X186669781Y-62195475D01*
X186669780Y-62195476D01*
X186613762Y-62343181D01*
X186594722Y-62499999D01*
X165875500Y-62499999D01*
X165875500Y-59249999D01*
X167094722Y-59249999D01*
X167094722Y-59250000D01*
X167113762Y-59406818D01*
X167166954Y-59547071D01*
X167169780Y-59554523D01*
X167259517Y-59684530D01*
X167377760Y-59789283D01*
X167377762Y-59789284D01*
X167517634Y-59862696D01*
X167671014Y-59900500D01*
X167671015Y-59900500D01*
X167828985Y-59900500D01*
X167982365Y-59862696D01*
X167996910Y-59855062D01*
X168122240Y-59789283D01*
X168240483Y-59684530D01*
X168330220Y-59554523D01*
X168386237Y-59406818D01*
X168405278Y-59250000D01*
X168390803Y-59130782D01*
X168386237Y-59093181D01*
X168343526Y-58980562D01*
X168330220Y-58945477D01*
X168240483Y-58815470D01*
X168122240Y-58710717D01*
X168122238Y-58710716D01*
X168122237Y-58710715D01*
X167982365Y-58637303D01*
X167828986Y-58599500D01*
X167828985Y-58599500D01*
X167671015Y-58599500D01*
X167671014Y-58599500D01*
X167517634Y-58637303D01*
X167377762Y-58710715D01*
X167259516Y-58815471D01*
X167169781Y-58945475D01*
X167169780Y-58945476D01*
X167113762Y-59093181D01*
X167094722Y-59249999D01*
X165875500Y-59249999D01*
X165875500Y-59037153D01*
X165895185Y-58970114D01*
X165947989Y-58924359D01*
X165999500Y-58913153D01*
X166091638Y-58913153D01*
X166245018Y-58875349D01*
X166279020Y-58857503D01*
X166384893Y-58801936D01*
X166503136Y-58697183D01*
X166592873Y-58567176D01*
X166648890Y-58419471D01*
X166667931Y-58262653D01*
X166659775Y-58195477D01*
X166648890Y-58105834D01*
X166618455Y-58025584D01*
X166592873Y-57958130D01*
X166503136Y-57828123D01*
X166384893Y-57723370D01*
X166384891Y-57723369D01*
X166384890Y-57723368D01*
X166245019Y-57649957D01*
X166224489Y-57644897D01*
X166164108Y-57609741D01*
X166132320Y-57547521D01*
X166139216Y-57477993D01*
X166182607Y-57423230D01*
X166248717Y-57400620D01*
X166254164Y-57400500D01*
X171318101Y-57400500D01*
X171385140Y-57420185D01*
X171405782Y-57436819D01*
X171565481Y-57596518D01*
X171598966Y-57657841D01*
X171600896Y-57699143D01*
X171594722Y-57749997D01*
X171594722Y-57750000D01*
X171613762Y-57906818D01*
X171660695Y-58030568D01*
X171669780Y-58054523D01*
X171759517Y-58184530D01*
X171877760Y-58289283D01*
X171877762Y-58289284D01*
X172017634Y-58362696D01*
X172171014Y-58400500D01*
X172171015Y-58400500D01*
X172328985Y-58400500D01*
X172482365Y-58362696D01*
X172622240Y-58289283D01*
X172740483Y-58184530D01*
X172830220Y-58054523D01*
X172886237Y-57906818D01*
X172886719Y-57902850D01*
X172904118Y-57759554D01*
X172931740Y-57695376D01*
X172989674Y-57656319D01*
X173027214Y-57650500D01*
X173078985Y-57650500D01*
X173232365Y-57612696D01*
X173245689Y-57605703D01*
X173372240Y-57539283D01*
X173490483Y-57434530D01*
X173522950Y-57387492D01*
X173577233Y-57343503D01*
X173646681Y-57335843D01*
X173709246Y-57366946D01*
X173727049Y-57387492D01*
X173759517Y-57434530D01*
X173877760Y-57539283D01*
X173877762Y-57539284D01*
X174017634Y-57612696D01*
X174171014Y-57650500D01*
X174171015Y-57650500D01*
X174328985Y-57650500D01*
X174480567Y-57613139D01*
X174550367Y-57616208D01*
X174607429Y-57656528D01*
X174626182Y-57689565D01*
X174657149Y-57771219D01*
X174669780Y-57804523D01*
X174759517Y-57934530D01*
X174877760Y-58039283D01*
X174877762Y-58039284D01*
X175017634Y-58112696D01*
X175049582Y-58120570D01*
X175109963Y-58155725D01*
X175141753Y-58217943D01*
X175135851Y-58284937D01*
X175113763Y-58343178D01*
X175113763Y-58343180D01*
X175094722Y-58499999D01*
X175094722Y-58500000D01*
X175113762Y-58656818D01*
X175164000Y-58789283D01*
X175169780Y-58804523D01*
X175259517Y-58934530D01*
X175377760Y-59039283D01*
X175389860Y-59045633D01*
X175517634Y-59112696D01*
X175549582Y-59120570D01*
X175609963Y-59155725D01*
X175641753Y-59217943D01*
X175635851Y-59284937D01*
X175613763Y-59343178D01*
X175613763Y-59343180D01*
X175594722Y-59499999D01*
X175594722Y-59500000D01*
X175613762Y-59656818D01*
X175639441Y-59724526D01*
X175669780Y-59804523D01*
X175759517Y-59934530D01*
X175877760Y-60039283D01*
X175877762Y-60039284D01*
X176017634Y-60112696D01*
X176171014Y-60150500D01*
X176171015Y-60150500D01*
X176328985Y-60150500D01*
X176482365Y-60112696D01*
X176622240Y-60039283D01*
X176740483Y-59934530D01*
X176830220Y-59804523D01*
X176886237Y-59656818D01*
X176905278Y-59500000D01*
X176899102Y-59449144D01*
X176910561Y-59380224D01*
X176934514Y-59346521D01*
X177031037Y-59249999D01*
X180344722Y-59249999D01*
X180344722Y-59250000D01*
X180363762Y-59406818D01*
X180416954Y-59547071D01*
X180419780Y-59554523D01*
X180509517Y-59684530D01*
X180627760Y-59789283D01*
X180627762Y-59789284D01*
X180767634Y-59862696D01*
X180921014Y-59900500D01*
X180921015Y-59900500D01*
X181078985Y-59900500D01*
X181232365Y-59862696D01*
X181246910Y-59855062D01*
X181372240Y-59789283D01*
X181490483Y-59684530D01*
X181580220Y-59554523D01*
X181636237Y-59406818D01*
X181655278Y-59250000D01*
X181640803Y-59130782D01*
X181636237Y-59093181D01*
X181593526Y-58980562D01*
X181580220Y-58945477D01*
X181490483Y-58815470D01*
X181372240Y-58710717D01*
X181372238Y-58710716D01*
X181372237Y-58710715D01*
X181232365Y-58637303D01*
X181078986Y-58599500D01*
X181078985Y-58599500D01*
X180921015Y-58599500D01*
X180921014Y-58599500D01*
X180767634Y-58637303D01*
X180627762Y-58710715D01*
X180509516Y-58815471D01*
X180419781Y-58945475D01*
X180419780Y-58945476D01*
X180363762Y-59093181D01*
X180344722Y-59249999D01*
X177031037Y-59249999D01*
X177300474Y-58980563D01*
X177300475Y-58980562D01*
X177349910Y-58894938D01*
X177368719Y-58824741D01*
X177375500Y-58799436D01*
X177375500Y-58700564D01*
X177375500Y-58093295D01*
X177395185Y-58026256D01*
X177411819Y-58005614D01*
X180917434Y-54499999D01*
X184094722Y-54499999D01*
X184094722Y-54500000D01*
X184113762Y-54656818D01*
X184154791Y-54765000D01*
X184169780Y-54804523D01*
X184259517Y-54934530D01*
X184377760Y-55039283D01*
X184377762Y-55039284D01*
X184517634Y-55112696D01*
X184671014Y-55150500D01*
X184671015Y-55150500D01*
X184828985Y-55150500D01*
X184982365Y-55112696D01*
X185122240Y-55039283D01*
X185240483Y-54934530D01*
X185330220Y-54804523D01*
X185384058Y-54662564D01*
X185426236Y-54606861D01*
X185491834Y-54582804D01*
X185560024Y-54598031D01*
X185609157Y-54647707D01*
X185615942Y-54662564D01*
X185633171Y-54707993D01*
X185669780Y-54804523D01*
X185759517Y-54934530D01*
X185877760Y-55039283D01*
X185877762Y-55039284D01*
X186017634Y-55112696D01*
X186171014Y-55150500D01*
X186171015Y-55150500D01*
X186328985Y-55150500D01*
X186482365Y-55112696D01*
X186622240Y-55039283D01*
X186740483Y-54934530D01*
X186830220Y-54804523D01*
X186884058Y-54662564D01*
X186926236Y-54606861D01*
X186991834Y-54582804D01*
X187060024Y-54598031D01*
X187109157Y-54647707D01*
X187115942Y-54662564D01*
X187133171Y-54707993D01*
X187169780Y-54804523D01*
X187259517Y-54934530D01*
X187377760Y-55039283D01*
X187377762Y-55039284D01*
X187517634Y-55112696D01*
X187671014Y-55150500D01*
X187671015Y-55150500D01*
X187828985Y-55150500D01*
X187982365Y-55112696D01*
X188122240Y-55039283D01*
X188240483Y-54934530D01*
X188330220Y-54804523D01*
X188384058Y-54662564D01*
X188426236Y-54606861D01*
X188491834Y-54582804D01*
X188560024Y-54598031D01*
X188609157Y-54647707D01*
X188615942Y-54662564D01*
X188633171Y-54707993D01*
X188669780Y-54804523D01*
X188759517Y-54934530D01*
X188877760Y-55039283D01*
X188877762Y-55039284D01*
X189017634Y-55112696D01*
X189171014Y-55150500D01*
X189171015Y-55150500D01*
X189328985Y-55150500D01*
X189482365Y-55112696D01*
X189622240Y-55039283D01*
X189740483Y-54934530D01*
X189830220Y-54804523D01*
X189886237Y-54656818D01*
X189905278Y-54500000D01*
X189904924Y-54497080D01*
X189886237Y-54343181D01*
X189858082Y-54268944D01*
X189830220Y-54195477D01*
X189740483Y-54065470D01*
X189622240Y-53960717D01*
X189622238Y-53960716D01*
X189622237Y-53960715D01*
X189482365Y-53887303D01*
X189328986Y-53849500D01*
X189328985Y-53849500D01*
X189171015Y-53849500D01*
X189171014Y-53849500D01*
X189017634Y-53887303D01*
X188877762Y-53960715D01*
X188759516Y-54065471D01*
X188669781Y-54195474D01*
X188615942Y-54337436D01*
X188573764Y-54393138D01*
X188508166Y-54417195D01*
X188439976Y-54401968D01*
X188390843Y-54352292D01*
X188384058Y-54337436D01*
X188358082Y-54268944D01*
X188330220Y-54195477D01*
X188240483Y-54065470D01*
X188122240Y-53960717D01*
X188122238Y-53960716D01*
X188122237Y-53960715D01*
X187982365Y-53887303D01*
X187828986Y-53849500D01*
X187828985Y-53849500D01*
X187671015Y-53849500D01*
X187671014Y-53849500D01*
X187517634Y-53887303D01*
X187377762Y-53960715D01*
X187259516Y-54065471D01*
X187169781Y-54195474D01*
X187115942Y-54337436D01*
X187073764Y-54393138D01*
X187008166Y-54417195D01*
X186939976Y-54401968D01*
X186890843Y-54352292D01*
X186884058Y-54337436D01*
X186858082Y-54268944D01*
X186830220Y-54195477D01*
X186740483Y-54065470D01*
X186622240Y-53960717D01*
X186622238Y-53960716D01*
X186622237Y-53960715D01*
X186482365Y-53887303D01*
X186328986Y-53849500D01*
X186328985Y-53849500D01*
X186171015Y-53849500D01*
X186171014Y-53849500D01*
X186017634Y-53887303D01*
X185877762Y-53960715D01*
X185759516Y-54065471D01*
X185669781Y-54195474D01*
X185615942Y-54337436D01*
X185573764Y-54393138D01*
X185508166Y-54417195D01*
X185439976Y-54401968D01*
X185390843Y-54352292D01*
X185384058Y-54337436D01*
X185358082Y-54268944D01*
X185330220Y-54195477D01*
X185240483Y-54065470D01*
X185122240Y-53960717D01*
X185122238Y-53960716D01*
X185122237Y-53960715D01*
X184982365Y-53887303D01*
X184828986Y-53849500D01*
X184828985Y-53849500D01*
X184671015Y-53849500D01*
X184671014Y-53849500D01*
X184517634Y-53887303D01*
X184377762Y-53960715D01*
X184259516Y-54065471D01*
X184169781Y-54195475D01*
X184169780Y-54195476D01*
X184113762Y-54343181D01*
X184094722Y-54499999D01*
X180917434Y-54499999D01*
X185080614Y-50336819D01*
X185141937Y-50303334D01*
X185168295Y-50300500D01*
X197099435Y-50300500D01*
X197099436Y-50300500D01*
X197147186Y-50287705D01*
X197194938Y-50274910D01*
X197280562Y-50225475D01*
X197350475Y-50155562D01*
X197619218Y-49886819D01*
X197680541Y-49853334D01*
X197706899Y-49850500D01*
X198674676Y-49850500D01*
X198674677Y-49850499D01*
X198747740Y-49835966D01*
X198830601Y-49780601D01*
X198885966Y-49697740D01*
X198900500Y-49624674D01*
X198900500Y-48575326D01*
X198900500Y-48575323D01*
X198900499Y-48575321D01*
X202099500Y-48575321D01*
X202099500Y-49624678D01*
X202114032Y-49697735D01*
X202114033Y-49697739D01*
X202114034Y-49697740D01*
X202169399Y-49780601D01*
X202252260Y-49835966D01*
X202252264Y-49835967D01*
X202325321Y-49850499D01*
X202325324Y-49850500D01*
X202325326Y-49850500D01*
X203924676Y-49850500D01*
X203924677Y-49850499D01*
X203997740Y-49835966D01*
X204080601Y-49780601D01*
X204135966Y-49697740D01*
X204150500Y-49624674D01*
X204150500Y-48575326D01*
X204150500Y-48575323D01*
X204150499Y-48575321D01*
X204135967Y-48502264D01*
X204135966Y-48502260D01*
X204114051Y-48469462D01*
X204080601Y-48419399D01*
X203997740Y-48364034D01*
X203997739Y-48364033D01*
X203997735Y-48364032D01*
X203924677Y-48349500D01*
X203924674Y-48349500D01*
X202325326Y-48349500D01*
X202325323Y-48349500D01*
X202252264Y-48364032D01*
X202252260Y-48364033D01*
X202169399Y-48419399D01*
X202114033Y-48502260D01*
X202114032Y-48502264D01*
X202099500Y-48575321D01*
X198900499Y-48575321D01*
X198885967Y-48502264D01*
X198885966Y-48502260D01*
X198864051Y-48469462D01*
X198830601Y-48419399D01*
X198747740Y-48364034D01*
X198747739Y-48364033D01*
X198747735Y-48364032D01*
X198674677Y-48349500D01*
X198674674Y-48349500D01*
X197075326Y-48349500D01*
X197075323Y-48349500D01*
X197002264Y-48364032D01*
X197002260Y-48364033D01*
X196919399Y-48419399D01*
X196864033Y-48502260D01*
X196864032Y-48502263D01*
X196850271Y-48571447D01*
X196817886Y-48633358D01*
X196757170Y-48667932D01*
X196687401Y-48664192D01*
X196640973Y-48634936D01*
X196511818Y-48505781D01*
X196478333Y-48444458D01*
X196475499Y-48418100D01*
X196475499Y-48004518D01*
X196475498Y-48004509D01*
X196469412Y-47947885D01*
X196451365Y-47899500D01*
X196421628Y-47819774D01*
X196339687Y-47710313D01*
X196273911Y-47661074D01*
X196230228Y-47628373D01*
X196230226Y-47628372D01*
X196132426Y-47591894D01*
X196076496Y-47550024D01*
X196052079Y-47484560D01*
X196066931Y-47416287D01*
X196116337Y-47366882D01*
X196126909Y-47362324D01*
X196252923Y-47298116D01*
X196252928Y-47298113D01*
X196348113Y-47202928D01*
X196348116Y-47202923D01*
X196409239Y-47082966D01*
X196425000Y-46983456D01*
X196425000Y-46975000D01*
X195075001Y-46975000D01*
X195075001Y-46983449D01*
X195090762Y-47082967D01*
X195151883Y-47202923D01*
X195151886Y-47202928D01*
X195247071Y-47298113D01*
X195247076Y-47298116D01*
X195375726Y-47363668D01*
X195374546Y-47365983D01*
X195420230Y-47397222D01*
X195447427Y-47461581D01*
X195435512Y-47530427D01*
X195388267Y-47581902D01*
X195367570Y-47591895D01*
X195269773Y-47628372D01*
X195160313Y-47710313D01*
X195078373Y-47819771D01*
X195030587Y-47947889D01*
X195024500Y-48004498D01*
X195024500Y-48545481D01*
X195024501Y-48545490D01*
X195030587Y-48602114D01*
X195069881Y-48707461D01*
X195078372Y-48730226D01*
X195160313Y-48839687D01*
X195269774Y-48921628D01*
X195397886Y-48969412D01*
X195454515Y-48975500D01*
X195868100Y-48975499D01*
X195935139Y-48995183D01*
X195955781Y-49011818D01*
X196281782Y-49337819D01*
X196315267Y-49399142D01*
X196310283Y-49468834D01*
X196268411Y-49524767D01*
X196202947Y-49549184D01*
X196194101Y-49549500D01*
X191774500Y-49549500D01*
X191707461Y-49529815D01*
X191661706Y-49477011D01*
X191650500Y-49425500D01*
X191650500Y-48575323D01*
X191650499Y-48575321D01*
X191635967Y-48502264D01*
X191635966Y-48502260D01*
X191614051Y-48469462D01*
X191580601Y-48419399D01*
X191497740Y-48364034D01*
X191497739Y-48364033D01*
X191497735Y-48364032D01*
X191424677Y-48349500D01*
X191424674Y-48349500D01*
X189825326Y-48349500D01*
X189825323Y-48349500D01*
X189752264Y-48364032D01*
X189752260Y-48364033D01*
X189669399Y-48419399D01*
X189614033Y-48502260D01*
X189614032Y-48502264D01*
X189599500Y-48575321D01*
X189599500Y-49425500D01*
X189579815Y-49492539D01*
X189527011Y-49538294D01*
X189475500Y-49549500D01*
X186524500Y-49549500D01*
X186457461Y-49529815D01*
X186411706Y-49477011D01*
X186400500Y-49425500D01*
X186400500Y-48575323D01*
X186400499Y-48575321D01*
X186385967Y-48502264D01*
X186385966Y-48502260D01*
X186364051Y-48469462D01*
X186330601Y-48419399D01*
X186247740Y-48364034D01*
X186247739Y-48364033D01*
X186247735Y-48364032D01*
X186174677Y-48349500D01*
X186174674Y-48349500D01*
X184575326Y-48349500D01*
X184575323Y-48349500D01*
X184502264Y-48364032D01*
X184502260Y-48364033D01*
X184419399Y-48419399D01*
X184364033Y-48502260D01*
X184364032Y-48502263D01*
X184350271Y-48571447D01*
X184317886Y-48633358D01*
X184257170Y-48667932D01*
X184187401Y-48664192D01*
X184140973Y-48634936D01*
X184011818Y-48505781D01*
X183978333Y-48444458D01*
X183975499Y-48418100D01*
X183975499Y-48004518D01*
X183975498Y-48004509D01*
X183969412Y-47947885D01*
X183951365Y-47899500D01*
X183921628Y-47819774D01*
X183839687Y-47710313D01*
X183773911Y-47661074D01*
X183730228Y-47628373D01*
X183730226Y-47628372D01*
X183632426Y-47591894D01*
X183576496Y-47550024D01*
X183552079Y-47484560D01*
X183566931Y-47416287D01*
X183616337Y-47366882D01*
X183626909Y-47362324D01*
X183752923Y-47298116D01*
X183752928Y-47298113D01*
X183848113Y-47202928D01*
X183848116Y-47202923D01*
X183909239Y-47082966D01*
X183925000Y-46983456D01*
X183925000Y-46975000D01*
X182575001Y-46975000D01*
X182575001Y-46983449D01*
X182590762Y-47082967D01*
X182651883Y-47202923D01*
X182651886Y-47202928D01*
X182747071Y-47298113D01*
X182747076Y-47298116D01*
X182875726Y-47363668D01*
X182874546Y-47365983D01*
X182920230Y-47397222D01*
X182947427Y-47461581D01*
X182935512Y-47530427D01*
X182888267Y-47581902D01*
X182867570Y-47591895D01*
X182769773Y-47628372D01*
X182660313Y-47710313D01*
X182578373Y-47819771D01*
X182530587Y-47947889D01*
X182524500Y-48004498D01*
X182524500Y-48545481D01*
X182524501Y-48545490D01*
X182530587Y-48602114D01*
X182569881Y-48707461D01*
X182578372Y-48730226D01*
X182660313Y-48839687D01*
X182769774Y-48921628D01*
X182897886Y-48969412D01*
X182954515Y-48975500D01*
X183368100Y-48975499D01*
X183435139Y-48995183D01*
X183455781Y-49011818D01*
X183774525Y-49330562D01*
X183844438Y-49400475D01*
X183930062Y-49449910D01*
X183977804Y-49462703D01*
X183977805Y-49462703D01*
X183979934Y-49463273D01*
X183989953Y-49465958D01*
X184049615Y-49502319D01*
X184080148Y-49565164D01*
X184071857Y-49634540D01*
X184045547Y-49673415D01*
X181837181Y-51881782D01*
X181775858Y-51915267D01*
X181706166Y-51910283D01*
X181650233Y-51868411D01*
X181625816Y-51802947D01*
X181625500Y-51794101D01*
X181625500Y-50250567D01*
X181625500Y-50250565D01*
X181599910Y-50155062D01*
X181550475Y-50069438D01*
X181480562Y-49999525D01*
X179455563Y-47974526D01*
X179455562Y-47974525D01*
X179369938Y-47925090D01*
X179322186Y-47912295D01*
X179322184Y-47912294D01*
X179322182Y-47912293D01*
X179274436Y-47899500D01*
X179274435Y-47899500D01*
X173749436Y-47899500D01*
X173650564Y-47899500D01*
X173602812Y-47912295D01*
X173602811Y-47912294D01*
X173555063Y-47925089D01*
X173555062Y-47925089D01*
X173469435Y-47974527D01*
X173130782Y-48313181D01*
X173069459Y-48346666D01*
X173043101Y-48349500D01*
X172075323Y-48349500D01*
X172002264Y-48364032D01*
X172002260Y-48364033D01*
X171919399Y-48419399D01*
X171864033Y-48502260D01*
X171864032Y-48502263D01*
X171850271Y-48571447D01*
X171817886Y-48633358D01*
X171757170Y-48667932D01*
X171687401Y-48664192D01*
X171640973Y-48634936D01*
X171511818Y-48505781D01*
X171478333Y-48444458D01*
X171475499Y-48418100D01*
X171475499Y-48004518D01*
X171475498Y-48004509D01*
X171469412Y-47947885D01*
X171451365Y-47899500D01*
X171421628Y-47819774D01*
X171339687Y-47710313D01*
X171273911Y-47661074D01*
X171230228Y-47628373D01*
X171230226Y-47628372D01*
X171132426Y-47591894D01*
X171076496Y-47550024D01*
X171052079Y-47484560D01*
X171066931Y-47416287D01*
X171116337Y-47366882D01*
X171126909Y-47362324D01*
X171252923Y-47298116D01*
X171252928Y-47298113D01*
X171348113Y-47202928D01*
X171348116Y-47202923D01*
X171409239Y-47082966D01*
X171425000Y-46983456D01*
X171425000Y-46975000D01*
X170075001Y-46975000D01*
X170075001Y-46983449D01*
X170090762Y-47082967D01*
X170151883Y-47202923D01*
X170151886Y-47202928D01*
X170247071Y-47298113D01*
X170247076Y-47298116D01*
X170375726Y-47363668D01*
X170374546Y-47365983D01*
X170420230Y-47397222D01*
X170447427Y-47461581D01*
X170435512Y-47530427D01*
X170388267Y-47581902D01*
X170367570Y-47591895D01*
X170269773Y-47628372D01*
X170160313Y-47710313D01*
X170078373Y-47819771D01*
X170030587Y-47947889D01*
X170024500Y-48004498D01*
X170024500Y-48545481D01*
X170024501Y-48545490D01*
X170030587Y-48602114D01*
X170069881Y-48707461D01*
X170078372Y-48730226D01*
X170160313Y-48839687D01*
X170269774Y-48921628D01*
X170397886Y-48969412D01*
X170454515Y-48975500D01*
X170868100Y-48975499D01*
X170935139Y-48995183D01*
X170955781Y-49011818D01*
X171274525Y-49330562D01*
X171344438Y-49400475D01*
X171430062Y-49449910D01*
X171477811Y-49462705D01*
X171477812Y-49462705D01*
X171487903Y-49465408D01*
X171525564Y-49475500D01*
X171525565Y-49475500D01*
X171725500Y-49475500D01*
X171792539Y-49495185D01*
X171838294Y-49547989D01*
X171849500Y-49599500D01*
X171849500Y-49624678D01*
X171864032Y-49697735D01*
X171864033Y-49697739D01*
X171864034Y-49697740D01*
X171919399Y-49780601D01*
X172002260Y-49835966D01*
X172002264Y-49835967D01*
X172075321Y-49850499D01*
X172075324Y-49850500D01*
X172075326Y-49850500D01*
X173674676Y-49850500D01*
X173674677Y-49850499D01*
X173747740Y-49835966D01*
X173830601Y-49780601D01*
X173885966Y-49697740D01*
X173900500Y-49624674D01*
X173900500Y-48774500D01*
X173920185Y-48707461D01*
X173972989Y-48661706D01*
X174024500Y-48650500D01*
X176975500Y-48650500D01*
X177042539Y-48670185D01*
X177088294Y-48722989D01*
X177099500Y-48774500D01*
X177099500Y-49624678D01*
X177114032Y-49697735D01*
X177114033Y-49697739D01*
X177114034Y-49697740D01*
X177169399Y-49780601D01*
X177252260Y-49835966D01*
X177252264Y-49835967D01*
X177325321Y-49850499D01*
X177325324Y-49850500D01*
X177325326Y-49850500D01*
X178924676Y-49850500D01*
X178924677Y-49850499D01*
X178997740Y-49835966D01*
X179080601Y-49780601D01*
X179135966Y-49697740D01*
X179150500Y-49624674D01*
X179150500Y-49030899D01*
X179170185Y-48963860D01*
X179222989Y-48918105D01*
X179292147Y-48908161D01*
X179355703Y-48937186D01*
X179362181Y-48943218D01*
X180838181Y-50419218D01*
X180871666Y-50480541D01*
X180874500Y-50506899D01*
X180874500Y-52156704D01*
X180854815Y-52223743D01*
X180838181Y-52244385D01*
X175994386Y-57088181D01*
X175933063Y-57121666D01*
X175906705Y-57124500D01*
X175846308Y-57124500D01*
X175779269Y-57104815D01*
X175744257Y-57070938D01*
X175740483Y-57065470D01*
X175622240Y-56960717D01*
X175622238Y-56960716D01*
X175622237Y-56960715D01*
X175482365Y-56887303D01*
X175328986Y-56849500D01*
X175328985Y-56849500D01*
X175171015Y-56849500D01*
X175171014Y-56849500D01*
X175019433Y-56886860D01*
X174949631Y-56883790D01*
X174892569Y-56843470D01*
X174873817Y-56810434D01*
X174868148Y-56795485D01*
X174830220Y-56695477D01*
X174740483Y-56565470D01*
X174622240Y-56460717D01*
X174622238Y-56460716D01*
X174622237Y-56460715D01*
X174482365Y-56387303D01*
X174328986Y-56349500D01*
X174328985Y-56349500D01*
X174181900Y-56349500D01*
X174114861Y-56329815D01*
X174094219Y-56313181D01*
X173605563Y-55824526D01*
X173605562Y-55824525D01*
X173519938Y-55775090D01*
X173447380Y-55755648D01*
X173447379Y-55755647D01*
X173424436Y-55749500D01*
X173424435Y-55749500D01*
X163081899Y-55749500D01*
X163014860Y-55729815D01*
X162994218Y-55713181D01*
X162046037Y-54765000D01*
X173728590Y-54765000D01*
X174316988Y-54765000D01*
X174284075Y-54822007D01*
X174250000Y-54949174D01*
X174250000Y-55080826D01*
X174284075Y-55207993D01*
X174316988Y-55265000D01*
X173728590Y-55265000D01*
X173775233Y-55418766D01*
X173872728Y-55601166D01*
X173872732Y-55601173D01*
X174003944Y-55761055D01*
X174163826Y-55892267D01*
X174163833Y-55892271D01*
X174346233Y-55989766D01*
X174500000Y-56036410D01*
X174500000Y-55448012D01*
X174557007Y-55480925D01*
X174684174Y-55515000D01*
X174815826Y-55515000D01*
X174942993Y-55480925D01*
X175000000Y-55448012D01*
X175000000Y-56036410D01*
X175153766Y-55989766D01*
X175336166Y-55892271D01*
X175336173Y-55892267D01*
X175496055Y-55761055D01*
X175627267Y-55601173D01*
X175627271Y-55601166D01*
X175724766Y-55418766D01*
X175771410Y-55265000D01*
X175183012Y-55265000D01*
X175215925Y-55207993D01*
X175250000Y-55080826D01*
X175250000Y-54949174D01*
X175215925Y-54822007D01*
X175183012Y-54765000D01*
X175771410Y-54765000D01*
X175724766Y-54611233D01*
X175627271Y-54428833D01*
X175627267Y-54428826D01*
X175496055Y-54268944D01*
X175336173Y-54137732D01*
X175336166Y-54137728D01*
X175153763Y-54040232D01*
X175000000Y-53993587D01*
X175000000Y-54581988D01*
X174942993Y-54549075D01*
X174815826Y-54515000D01*
X174684174Y-54515000D01*
X174557007Y-54549075D01*
X174500000Y-54581988D01*
X174500000Y-53993587D01*
X174346236Y-54040232D01*
X174163833Y-54137728D01*
X174163826Y-54137732D01*
X174003944Y-54268944D01*
X173872732Y-54428826D01*
X173872728Y-54428833D01*
X173775233Y-54611233D01*
X173728590Y-54765000D01*
X162046037Y-54765000D01*
X160786819Y-53505782D01*
X160753334Y-53444459D01*
X160750500Y-53418101D01*
X160750500Y-51600321D01*
X173649500Y-51600321D01*
X173649500Y-53349678D01*
X173664032Y-53422735D01*
X173664033Y-53422739D01*
X173664034Y-53422740D01*
X173719399Y-53505601D01*
X173802260Y-53560966D01*
X173802264Y-53560967D01*
X173875321Y-53575499D01*
X173875324Y-53575500D01*
X173875326Y-53575500D01*
X175624676Y-53575500D01*
X175624677Y-53575499D01*
X175697740Y-53560966D01*
X175780601Y-53505601D01*
X175835966Y-53422740D01*
X175850500Y-53349674D01*
X175850500Y-51600326D01*
X175850500Y-51600323D01*
X175850499Y-51600321D01*
X175835967Y-51527264D01*
X175835966Y-51527260D01*
X175780601Y-51444399D01*
X175697740Y-51389034D01*
X175697739Y-51389033D01*
X175697735Y-51389032D01*
X175624677Y-51374500D01*
X175624674Y-51374500D01*
X173875326Y-51374500D01*
X173875323Y-51374500D01*
X173802264Y-51389032D01*
X173802260Y-51389033D01*
X173719399Y-51444399D01*
X173664033Y-51527260D01*
X173664032Y-51527264D01*
X173649500Y-51600321D01*
X160750500Y-51600321D01*
X160750500Y-49974500D01*
X160770185Y-49907461D01*
X160822989Y-49861706D01*
X160874500Y-49850500D01*
X161174676Y-49850500D01*
X161174677Y-49850499D01*
X161247740Y-49835966D01*
X161330601Y-49780601D01*
X161385966Y-49697740D01*
X161400500Y-49624674D01*
X161400500Y-48575326D01*
X161400500Y-48575323D01*
X161400499Y-48575321D01*
X164599500Y-48575321D01*
X164599500Y-49624678D01*
X164614032Y-49697735D01*
X164614033Y-49697739D01*
X164614034Y-49697740D01*
X164669399Y-49780601D01*
X164752260Y-49835966D01*
X164752264Y-49835967D01*
X164825321Y-49850499D01*
X164825324Y-49850500D01*
X164825326Y-49850500D01*
X166424676Y-49850500D01*
X166424677Y-49850499D01*
X166497740Y-49835966D01*
X166580601Y-49780601D01*
X166635966Y-49697740D01*
X166650500Y-49624674D01*
X166650500Y-48575326D01*
X166650500Y-48575323D01*
X166650499Y-48575321D01*
X166635967Y-48502264D01*
X166635966Y-48502260D01*
X166614051Y-48469462D01*
X166580601Y-48419399D01*
X166497740Y-48364034D01*
X166497739Y-48364033D01*
X166497735Y-48364032D01*
X166424677Y-48349500D01*
X166424674Y-48349500D01*
X164825326Y-48349500D01*
X164825323Y-48349500D01*
X164752264Y-48364032D01*
X164752260Y-48364033D01*
X164669399Y-48419399D01*
X164614033Y-48502260D01*
X164614032Y-48502264D01*
X164599500Y-48575321D01*
X161400499Y-48575321D01*
X161385967Y-48502264D01*
X161385966Y-48502260D01*
X161364051Y-48469462D01*
X161330601Y-48419399D01*
X161247740Y-48364034D01*
X161247739Y-48364033D01*
X161247735Y-48364032D01*
X161174677Y-48349500D01*
X161174674Y-48349500D01*
X159575326Y-48349500D01*
X159575323Y-48349500D01*
X159502264Y-48364032D01*
X159502260Y-48364033D01*
X159419399Y-48419399D01*
X159364033Y-48502260D01*
X159364032Y-48502263D01*
X159350271Y-48571447D01*
X159317886Y-48633358D01*
X159257170Y-48667932D01*
X159187401Y-48664192D01*
X159140973Y-48634936D01*
X159011818Y-48505781D01*
X158978333Y-48444458D01*
X158975499Y-48418100D01*
X158975499Y-48004518D01*
X158975498Y-48004509D01*
X158969412Y-47947885D01*
X158951365Y-47899500D01*
X158921628Y-47819774D01*
X158839687Y-47710313D01*
X158773911Y-47661074D01*
X158730228Y-47628373D01*
X158730226Y-47628372D01*
X158632426Y-47591894D01*
X158576496Y-47550024D01*
X158552079Y-47484560D01*
X158566931Y-47416287D01*
X158616337Y-47366882D01*
X158626909Y-47362324D01*
X158752923Y-47298116D01*
X158752928Y-47298113D01*
X158848113Y-47202928D01*
X158848116Y-47202923D01*
X158909239Y-47082966D01*
X158925000Y-46983456D01*
X158925000Y-46975000D01*
X157575001Y-46975000D01*
X157575001Y-46983449D01*
X157590762Y-47082967D01*
X157651883Y-47202923D01*
X157651886Y-47202928D01*
X157747071Y-47298113D01*
X157747076Y-47298116D01*
X157875726Y-47363668D01*
X157874546Y-47365983D01*
X157920230Y-47397222D01*
X157947427Y-47461581D01*
X157935512Y-47530427D01*
X157888267Y-47581902D01*
X157867570Y-47591895D01*
X157769773Y-47628372D01*
X157660313Y-47710313D01*
X157578373Y-47819771D01*
X157530587Y-47947889D01*
X157524500Y-48004498D01*
X157524500Y-48545481D01*
X157524501Y-48545490D01*
X157530587Y-48602114D01*
X157569881Y-48707461D01*
X157578372Y-48730226D01*
X157660313Y-48839687D01*
X157769774Y-48921628D01*
X157897886Y-48969412D01*
X157954515Y-48975500D01*
X158368100Y-48975499D01*
X158435139Y-48995183D01*
X158455781Y-49011818D01*
X158774525Y-49330562D01*
X158844438Y-49400475D01*
X158930062Y-49449910D01*
X158977811Y-49462705D01*
X158977812Y-49462705D01*
X158987903Y-49465408D01*
X159025564Y-49475500D01*
X159025565Y-49475500D01*
X159225500Y-49475500D01*
X159292539Y-49495185D01*
X159338294Y-49547989D01*
X159349500Y-49599500D01*
X159349500Y-49624678D01*
X159364032Y-49697735D01*
X159364033Y-49697739D01*
X159364034Y-49697740D01*
X159419399Y-49780601D01*
X159502260Y-49835966D01*
X159502264Y-49835967D01*
X159575321Y-49850499D01*
X159575324Y-49850500D01*
X159575326Y-49850500D01*
X159875500Y-49850500D01*
X159942539Y-49870185D01*
X159988294Y-49922989D01*
X159999500Y-49974500D01*
X159999500Y-53055496D01*
X159979815Y-53122535D01*
X159927011Y-53168290D01*
X159857853Y-53178234D01*
X159794297Y-53149209D01*
X159787819Y-53143177D01*
X153506822Y-46862181D01*
X153473337Y-46800858D01*
X153476974Y-46749999D01*
X162594722Y-46749999D01*
X162594722Y-46750000D01*
X162613762Y-46906818D01*
X162669780Y-47054523D01*
X162759517Y-47184530D01*
X162877760Y-47289283D01*
X162877762Y-47289284D01*
X163017634Y-47362696D01*
X163171014Y-47400500D01*
X163171015Y-47400500D01*
X163328985Y-47400500D01*
X163482365Y-47362696D01*
X163622237Y-47289285D01*
X163622238Y-47289283D01*
X163622240Y-47289283D01*
X163667774Y-47248943D01*
X163731006Y-47219223D01*
X163800270Y-47228407D01*
X163832224Y-47248942D01*
X163866890Y-47279653D01*
X163877762Y-47289285D01*
X164017634Y-47362696D01*
X164171014Y-47400500D01*
X164171015Y-47400500D01*
X164328985Y-47400500D01*
X164482365Y-47362696D01*
X164483074Y-47362324D01*
X164622240Y-47289283D01*
X164740483Y-47184530D01*
X164830220Y-47054523D01*
X164886237Y-46906818D01*
X164904118Y-46759554D01*
X164931740Y-46695376D01*
X164989674Y-46656319D01*
X165027214Y-46650500D01*
X166424676Y-46650500D01*
X166424677Y-46650499D01*
X166497740Y-46635966D01*
X166551569Y-46599999D01*
X172528553Y-46599999D01*
X172528554Y-46600000D01*
X173221446Y-46600000D01*
X173221446Y-46599999D01*
X172875001Y-46253553D01*
X172874999Y-46253553D01*
X172528553Y-46599999D01*
X166551569Y-46599999D01*
X166580601Y-46580601D01*
X166635966Y-46497740D01*
X166642172Y-46466543D01*
X170075000Y-46466543D01*
X170075000Y-46475000D01*
X170500000Y-46475000D01*
X171000000Y-46475000D01*
X171424999Y-46475000D01*
X171424999Y-46466550D01*
X171409237Y-46367032D01*
X171348116Y-46247076D01*
X171348113Y-46247071D01*
X171252928Y-46151886D01*
X171252923Y-46151883D01*
X171132965Y-46090760D01*
X171132966Y-46090760D01*
X171033456Y-46075000D01*
X171000000Y-46075000D01*
X171000000Y-46475000D01*
X170500000Y-46475000D01*
X170500000Y-46074999D01*
X170466555Y-46075000D01*
X170367032Y-46090762D01*
X170247076Y-46151883D01*
X170247071Y-46151886D01*
X170151886Y-46247071D01*
X170151883Y-46247076D01*
X170090760Y-46367033D01*
X170075000Y-46466543D01*
X166642172Y-46466543D01*
X166650500Y-46424674D01*
X166650500Y-45380297D01*
X171900000Y-45380297D01*
X171900000Y-46419695D01*
X171911604Y-46478037D01*
X171924343Y-46497101D01*
X171924344Y-46497102D01*
X172521447Y-45900000D01*
X172521447Y-45899999D01*
X173228553Y-45899999D01*
X173228553Y-45900001D01*
X173825654Y-46497102D01*
X173838394Y-46478038D01*
X173838396Y-46478033D01*
X173849999Y-46419699D01*
X173850000Y-46419699D01*
X173850000Y-45380304D01*
X173849009Y-45375321D01*
X177099500Y-45375321D01*
X177099500Y-46424678D01*
X177114032Y-46497735D01*
X177114033Y-46497739D01*
X177114034Y-46497740D01*
X177169399Y-46580601D01*
X177235100Y-46624500D01*
X177252260Y-46635966D01*
X177252264Y-46635967D01*
X177325321Y-46650499D01*
X177325324Y-46650500D01*
X177325326Y-46650500D01*
X178924676Y-46650500D01*
X178924677Y-46650499D01*
X178997740Y-46635966D01*
X179051569Y-46599999D01*
X185028553Y-46599999D01*
X185028554Y-46600000D01*
X185721446Y-46600000D01*
X185721446Y-46599999D01*
X185375001Y-46253553D01*
X185374999Y-46253553D01*
X185028553Y-46599999D01*
X179051569Y-46599999D01*
X179080601Y-46580601D01*
X179135966Y-46497740D01*
X179142172Y-46466543D01*
X182575000Y-46466543D01*
X182575000Y-46475000D01*
X183000000Y-46475000D01*
X183500000Y-46475000D01*
X183924999Y-46475000D01*
X183924999Y-46466550D01*
X183909237Y-46367032D01*
X183848116Y-46247076D01*
X183848113Y-46247071D01*
X183752928Y-46151886D01*
X183752923Y-46151883D01*
X183632965Y-46090760D01*
X183632966Y-46090760D01*
X183533456Y-46075000D01*
X183500000Y-46075000D01*
X183500000Y-46475000D01*
X183000000Y-46475000D01*
X183000000Y-46074999D01*
X182966555Y-46075000D01*
X182867032Y-46090762D01*
X182747076Y-46151883D01*
X182747071Y-46151886D01*
X182651886Y-46247071D01*
X182651883Y-46247076D01*
X182590760Y-46367033D01*
X182575000Y-46466543D01*
X179142172Y-46466543D01*
X179150500Y-46424674D01*
X179150500Y-45380297D01*
X184400000Y-45380297D01*
X184400000Y-46419695D01*
X184411604Y-46478037D01*
X184424343Y-46497101D01*
X184424344Y-46497102D01*
X185021447Y-45900000D01*
X185021447Y-45899999D01*
X185728553Y-45899999D01*
X185728553Y-45900001D01*
X186325654Y-46497102D01*
X186338394Y-46478038D01*
X186338396Y-46478033D01*
X186349999Y-46419699D01*
X186350000Y-46419699D01*
X186350000Y-45380304D01*
X186349009Y-45375321D01*
X189599500Y-45375321D01*
X189599500Y-46424678D01*
X189614032Y-46497735D01*
X189614033Y-46497739D01*
X189614034Y-46497740D01*
X189669399Y-46580601D01*
X189735100Y-46624500D01*
X189752260Y-46635966D01*
X189752264Y-46635967D01*
X189825321Y-46650499D01*
X189825324Y-46650500D01*
X189825326Y-46650500D01*
X191424676Y-46650500D01*
X191424677Y-46650499D01*
X191497740Y-46635966D01*
X191551569Y-46599999D01*
X197528553Y-46599999D01*
X197528554Y-46600000D01*
X198221446Y-46600000D01*
X198221446Y-46599999D01*
X197875001Y-46253553D01*
X197874999Y-46253553D01*
X197528553Y-46599999D01*
X191551569Y-46599999D01*
X191580601Y-46580601D01*
X191635966Y-46497740D01*
X191642172Y-46466543D01*
X195075000Y-46466543D01*
X195075000Y-46475000D01*
X195500000Y-46475000D01*
X196000000Y-46475000D01*
X196424999Y-46475000D01*
X196424999Y-46466550D01*
X196409237Y-46367032D01*
X196348116Y-46247076D01*
X196348113Y-46247071D01*
X196252928Y-46151886D01*
X196252923Y-46151883D01*
X196132965Y-46090760D01*
X196132966Y-46090760D01*
X196033456Y-46075000D01*
X196000000Y-46075000D01*
X196000000Y-46475000D01*
X195500000Y-46475000D01*
X195500000Y-46074999D01*
X195466555Y-46075000D01*
X195367032Y-46090762D01*
X195247076Y-46151883D01*
X195247071Y-46151886D01*
X195151886Y-46247071D01*
X195151883Y-46247076D01*
X195090760Y-46367033D01*
X195075000Y-46466543D01*
X191642172Y-46466543D01*
X191650500Y-46424674D01*
X191650500Y-45380297D01*
X196900000Y-45380297D01*
X196900000Y-46419695D01*
X196911604Y-46478037D01*
X196924343Y-46497101D01*
X196924344Y-46497102D01*
X197521447Y-45900000D01*
X197521447Y-45899999D01*
X198228553Y-45899999D01*
X198228553Y-45900000D01*
X198825654Y-46497102D01*
X198838394Y-46478038D01*
X198838396Y-46478033D01*
X198849999Y-46419699D01*
X198850000Y-46419699D01*
X198850000Y-45380304D01*
X198849009Y-45375321D01*
X202099500Y-45375321D01*
X202099500Y-46424678D01*
X202114032Y-46497735D01*
X202114033Y-46497739D01*
X202114034Y-46497740D01*
X202169399Y-46580601D01*
X202235100Y-46624500D01*
X202252260Y-46635966D01*
X202252264Y-46635967D01*
X202325321Y-46650499D01*
X202325324Y-46650500D01*
X202325326Y-46650500D01*
X203924676Y-46650500D01*
X203924677Y-46650499D01*
X203997740Y-46635966D01*
X204080601Y-46580601D01*
X204135966Y-46497740D01*
X204150500Y-46424674D01*
X204150500Y-45375326D01*
X204150500Y-45375323D01*
X204150499Y-45375321D01*
X204135967Y-45302264D01*
X204135966Y-45302260D01*
X204080601Y-45219399D01*
X203997740Y-45164034D01*
X203997739Y-45164033D01*
X203997735Y-45164032D01*
X203924677Y-45149500D01*
X203924674Y-45149500D01*
X202325326Y-45149500D01*
X202325323Y-45149500D01*
X202252264Y-45164032D01*
X202252260Y-45164033D01*
X202169399Y-45219399D01*
X202114033Y-45302260D01*
X202114032Y-45302264D01*
X202099500Y-45375321D01*
X198849009Y-45375321D01*
X198838395Y-45321963D01*
X198825654Y-45302896D01*
X198228553Y-45899999D01*
X197521447Y-45899999D01*
X196924344Y-45302896D01*
X196924344Y-45302897D01*
X196911603Y-45321965D01*
X196900000Y-45380297D01*
X191650500Y-45380297D01*
X191650500Y-45375326D01*
X191650500Y-45375323D01*
X191650499Y-45375321D01*
X191635967Y-45302264D01*
X191635966Y-45302260D01*
X191580601Y-45219399D01*
X191551568Y-45200000D01*
X197528553Y-45200000D01*
X197875000Y-45546446D01*
X198221446Y-45200000D01*
X197528553Y-45200000D01*
X191551568Y-45200000D01*
X191497740Y-45164034D01*
X191497739Y-45164033D01*
X191497735Y-45164032D01*
X191424677Y-45149500D01*
X191424674Y-45149500D01*
X189825326Y-45149500D01*
X189825323Y-45149500D01*
X189752264Y-45164032D01*
X189752260Y-45164033D01*
X189669399Y-45219399D01*
X189614033Y-45302260D01*
X189614032Y-45302264D01*
X189599500Y-45375321D01*
X186349009Y-45375321D01*
X186338395Y-45321963D01*
X186325654Y-45302896D01*
X185728553Y-45899999D01*
X185021447Y-45899999D01*
X184424344Y-45302896D01*
X184424344Y-45302897D01*
X184411603Y-45321965D01*
X184400000Y-45380297D01*
X179150500Y-45380297D01*
X179150500Y-45375326D01*
X179150500Y-45375323D01*
X179150499Y-45375321D01*
X179135967Y-45302264D01*
X179135966Y-45302260D01*
X179080601Y-45219399D01*
X179051568Y-45200000D01*
X185028553Y-45200000D01*
X185375000Y-45546446D01*
X185721446Y-45200000D01*
X185028553Y-45200000D01*
X179051568Y-45200000D01*
X178997740Y-45164034D01*
X178997739Y-45164033D01*
X178997735Y-45164032D01*
X178924677Y-45149500D01*
X178924674Y-45149500D01*
X177325326Y-45149500D01*
X177325323Y-45149500D01*
X177252264Y-45164032D01*
X177252260Y-45164033D01*
X177169399Y-45219399D01*
X177114033Y-45302260D01*
X177114032Y-45302264D01*
X177099500Y-45375321D01*
X173849009Y-45375321D01*
X173838395Y-45321963D01*
X173825654Y-45302896D01*
X173228553Y-45899999D01*
X172521447Y-45899999D01*
X171924344Y-45302896D01*
X171924344Y-45302897D01*
X171911603Y-45321965D01*
X171900000Y-45380297D01*
X166650500Y-45380297D01*
X166650500Y-45375326D01*
X166650500Y-45375323D01*
X166650499Y-45375321D01*
X166635967Y-45302264D01*
X166635966Y-45302260D01*
X166580601Y-45219399D01*
X166551568Y-45200000D01*
X172528553Y-45200000D01*
X172875000Y-45546446D01*
X173221446Y-45200000D01*
X172528553Y-45200000D01*
X166551568Y-45200000D01*
X166497740Y-45164034D01*
X166497739Y-45164033D01*
X166497735Y-45164032D01*
X166424677Y-45149500D01*
X166424674Y-45149500D01*
X164825326Y-45149500D01*
X164825323Y-45149500D01*
X164752264Y-45164032D01*
X164752260Y-45164033D01*
X164669399Y-45219399D01*
X164614033Y-45302260D01*
X164614032Y-45302264D01*
X164599500Y-45375321D01*
X164599500Y-46007901D01*
X164579815Y-46074940D01*
X164527011Y-46120695D01*
X164457853Y-46130639D01*
X164445825Y-46128298D01*
X164328985Y-46099500D01*
X164171015Y-46099500D01*
X164171014Y-46099500D01*
X164017634Y-46137303D01*
X163877761Y-46210715D01*
X163877759Y-46210717D01*
X163832226Y-46251055D01*
X163768992Y-46280776D01*
X163699729Y-46271592D01*
X163667774Y-46251055D01*
X163622240Y-46210717D01*
X163622238Y-46210715D01*
X163482365Y-46137303D01*
X163328986Y-46099500D01*
X163328985Y-46099500D01*
X163171015Y-46099500D01*
X163171014Y-46099500D01*
X163017634Y-46137303D01*
X162877762Y-46210715D01*
X162759516Y-46315471D01*
X162669781Y-46445475D01*
X162669780Y-46445476D01*
X162613762Y-46593181D01*
X162594722Y-46749999D01*
X153476974Y-46749999D01*
X153478321Y-46731166D01*
X153520193Y-46675233D01*
X153585657Y-46650816D01*
X153594503Y-46650500D01*
X153924676Y-46650500D01*
X153924677Y-46650499D01*
X153997740Y-46635966D01*
X154051569Y-46599999D01*
X160028553Y-46599999D01*
X160028554Y-46600000D01*
X160721446Y-46600000D01*
X160721446Y-46599999D01*
X160375001Y-46253553D01*
X160374999Y-46253553D01*
X160028553Y-46599999D01*
X154051569Y-46599999D01*
X154080601Y-46580601D01*
X154135966Y-46497740D01*
X154142172Y-46466543D01*
X157575000Y-46466543D01*
X157575000Y-46475000D01*
X158000000Y-46475000D01*
X158500000Y-46475000D01*
X158924999Y-46475000D01*
X158924999Y-46466550D01*
X158909237Y-46367032D01*
X158848116Y-46247076D01*
X158848113Y-46247071D01*
X158752928Y-46151886D01*
X158752923Y-46151883D01*
X158632965Y-46090760D01*
X158632966Y-46090760D01*
X158533456Y-46075000D01*
X158500000Y-46075000D01*
X158500000Y-46475000D01*
X158000000Y-46475000D01*
X158000000Y-46074999D01*
X157966555Y-46075000D01*
X157867032Y-46090762D01*
X157747076Y-46151883D01*
X157747071Y-46151886D01*
X157651886Y-46247071D01*
X157651883Y-46247076D01*
X157590760Y-46367033D01*
X157575000Y-46466543D01*
X154142172Y-46466543D01*
X154150500Y-46424674D01*
X154150500Y-45380297D01*
X159400000Y-45380297D01*
X159400000Y-46419695D01*
X159411604Y-46478037D01*
X159424343Y-46497101D01*
X159424344Y-46497102D01*
X160021447Y-45900000D01*
X160021447Y-45899999D01*
X160728553Y-45899999D01*
X160728553Y-45900001D01*
X161325654Y-46497102D01*
X161338394Y-46478038D01*
X161338394Y-46478037D01*
X161343750Y-46451114D01*
X161376135Y-46389202D01*
X161436851Y-46354628D01*
X161506620Y-46358367D01*
X161510600Y-46360102D01*
X161510625Y-46360037D01*
X161517636Y-46362696D01*
X161671016Y-46400500D01*
X161671017Y-46400500D01*
X161828987Y-46400500D01*
X161982367Y-46362696D01*
X161997739Y-46354628D01*
X162122242Y-46289283D01*
X162240485Y-46184530D01*
X162330222Y-46054523D01*
X162386239Y-45906818D01*
X162405280Y-45750000D01*
X162386239Y-45593182D01*
X162330222Y-45445477D01*
X162240485Y-45315470D01*
X162122242Y-45210717D01*
X162122240Y-45210716D01*
X162122239Y-45210715D01*
X161982367Y-45137303D01*
X161828988Y-45099500D01*
X161828987Y-45099500D01*
X161671017Y-45099500D01*
X161671016Y-45099500D01*
X161517636Y-45137303D01*
X161377764Y-45210715D01*
X161259518Y-45315471D01*
X161169781Y-45445477D01*
X161166294Y-45452122D01*
X161165000Y-45451443D01*
X161142837Y-45485714D01*
X160728553Y-45899999D01*
X160021447Y-45899999D01*
X159424344Y-45302896D01*
X159424344Y-45302897D01*
X159411603Y-45321965D01*
X159400000Y-45380297D01*
X154150500Y-45380297D01*
X154150500Y-45375326D01*
X154150500Y-45375323D01*
X154150499Y-45375321D01*
X154135967Y-45302264D01*
X154135966Y-45302260D01*
X154080601Y-45219399D01*
X154051568Y-45200000D01*
X160028553Y-45200000D01*
X160375000Y-45546446D01*
X160721446Y-45200000D01*
X160028553Y-45200000D01*
X154051568Y-45200000D01*
X153997740Y-45164034D01*
X153997739Y-45164033D01*
X153997735Y-45164032D01*
X153924677Y-45149500D01*
X153924674Y-45149500D01*
X152325326Y-45149500D01*
X152325323Y-45149500D01*
X152252264Y-45164032D01*
X152252260Y-45164033D01*
X152169399Y-45219399D01*
X152114033Y-45302260D01*
X152114032Y-45302264D01*
X152099500Y-45375321D01*
X152099500Y-46424678D01*
X152109770Y-46476309D01*
X152103543Y-46545901D01*
X152060680Y-46601078D01*
X151994790Y-46624322D01*
X151988153Y-46624500D01*
X149925562Y-46624500D01*
X149882771Y-46635966D01*
X149882770Y-46635965D01*
X149830063Y-46650089D01*
X149830062Y-46650089D01*
X149762530Y-46689079D01*
X149751625Y-46695376D01*
X149744435Y-46699527D01*
X148130782Y-48313181D01*
X148069459Y-48346666D01*
X148043101Y-48349500D01*
X147075323Y-48349500D01*
X147002264Y-48364032D01*
X147002260Y-48364033D01*
X146919399Y-48419399D01*
X146864033Y-48502260D01*
X146864032Y-48502263D01*
X146850271Y-48571447D01*
X146817886Y-48633358D01*
X146757170Y-48667932D01*
X146687401Y-48664192D01*
X146640973Y-48634936D01*
X146511818Y-48505781D01*
X146478333Y-48444458D01*
X146475499Y-48418100D01*
X146475499Y-48004518D01*
X146475498Y-48004509D01*
X146469412Y-47947885D01*
X146451365Y-47899500D01*
X146421628Y-47819774D01*
X146339687Y-47710313D01*
X146273911Y-47661074D01*
X146230228Y-47628373D01*
X146230226Y-47628372D01*
X146132426Y-47591894D01*
X146076496Y-47550024D01*
X146052079Y-47484560D01*
X146066931Y-47416287D01*
X146116337Y-47366882D01*
X146126909Y-47362324D01*
X146252923Y-47298116D01*
X146252928Y-47298113D01*
X146348113Y-47202928D01*
X146348116Y-47202923D01*
X146409239Y-47082966D01*
X146425000Y-46983456D01*
X146425000Y-46975000D01*
X145075001Y-46975000D01*
X145075001Y-46983449D01*
X145090762Y-47082967D01*
X145151883Y-47202923D01*
X145151886Y-47202928D01*
X145247071Y-47298113D01*
X145247076Y-47298116D01*
X145375726Y-47363668D01*
X145374546Y-47365983D01*
X145420230Y-47397222D01*
X145447427Y-47461581D01*
X145435512Y-47530427D01*
X145388267Y-47581902D01*
X145367570Y-47591895D01*
X145269773Y-47628372D01*
X145160313Y-47710313D01*
X145078373Y-47819771D01*
X145030587Y-47947889D01*
X145024500Y-48004498D01*
X145024500Y-48545481D01*
X145024501Y-48545490D01*
X145030587Y-48602114D01*
X145069881Y-48707461D01*
X145078372Y-48730226D01*
X145160313Y-48839687D01*
X145269774Y-48921628D01*
X145397886Y-48969412D01*
X145454515Y-48975500D01*
X145868100Y-48975499D01*
X145935139Y-48995183D01*
X145955781Y-49011818D01*
X146274525Y-49330562D01*
X146344438Y-49400475D01*
X146430062Y-49449910D01*
X146477811Y-49462705D01*
X146477812Y-49462705D01*
X146487903Y-49465408D01*
X146525564Y-49475500D01*
X146525565Y-49475500D01*
X146725500Y-49475500D01*
X146792539Y-49495185D01*
X146838294Y-49547989D01*
X146849500Y-49599500D01*
X146849500Y-49624678D01*
X146864032Y-49697735D01*
X146864033Y-49697739D01*
X146864034Y-49697740D01*
X146919399Y-49780601D01*
X147002260Y-49835966D01*
X147012415Y-49842751D01*
X147011796Y-49843677D01*
X147056598Y-49879781D01*
X147078662Y-49946076D01*
X147061382Y-50013775D01*
X147010244Y-50061385D01*
X146954741Y-50074500D01*
X141545259Y-50074500D01*
X141478220Y-50054815D01*
X141432465Y-50002011D01*
X141422521Y-49932853D01*
X141451546Y-49869297D01*
X141487836Y-49843127D01*
X141487585Y-49842751D01*
X141497739Y-49835966D01*
X141497740Y-49835966D01*
X141580601Y-49780601D01*
X141635966Y-49697740D01*
X141650500Y-49624674D01*
X141650500Y-48575326D01*
X141650500Y-48575323D01*
X141650499Y-48575321D01*
X141635967Y-48502264D01*
X141635966Y-48502260D01*
X141614051Y-48469462D01*
X141580601Y-48419399D01*
X141497740Y-48364034D01*
X141497739Y-48364033D01*
X141497735Y-48364032D01*
X141424677Y-48349500D01*
X141424674Y-48349500D01*
X139825326Y-48349500D01*
X139825323Y-48349500D01*
X139752264Y-48364032D01*
X139752260Y-48364033D01*
X139669399Y-48419399D01*
X139614033Y-48502260D01*
X139614032Y-48502264D01*
X139599500Y-48575321D01*
X139599500Y-49624678D01*
X139614032Y-49697735D01*
X139614033Y-49697739D01*
X139614034Y-49697740D01*
X139669399Y-49780601D01*
X139752260Y-49835966D01*
X139762415Y-49842751D01*
X139761796Y-49843677D01*
X139806598Y-49879781D01*
X139828662Y-49946076D01*
X139811382Y-50013775D01*
X139760244Y-50061385D01*
X139704741Y-50074500D01*
X136931899Y-50074500D01*
X136864860Y-50054815D01*
X136844218Y-50038181D01*
X136436819Y-49630782D01*
X136403334Y-49569459D01*
X136400500Y-49543101D01*
X136400500Y-48575323D01*
X136400499Y-48575321D01*
X136385967Y-48502264D01*
X136385966Y-48502260D01*
X136364051Y-48469462D01*
X136330601Y-48419399D01*
X136247740Y-48364034D01*
X136247739Y-48364033D01*
X136247735Y-48364032D01*
X136174677Y-48349500D01*
X136174674Y-48349500D01*
X134575326Y-48349500D01*
X134575323Y-48349500D01*
X134502264Y-48364032D01*
X134502260Y-48364033D01*
X134419399Y-48419399D01*
X134364033Y-48502260D01*
X134364032Y-48502263D01*
X134350271Y-48571447D01*
X134317886Y-48633358D01*
X134257170Y-48667932D01*
X134187401Y-48664192D01*
X134140973Y-48634936D01*
X134011818Y-48505781D01*
X133978333Y-48444458D01*
X133975499Y-48418100D01*
X133975499Y-48004518D01*
X133975498Y-48004509D01*
X133969412Y-47947885D01*
X133951365Y-47899500D01*
X133921628Y-47819774D01*
X133839687Y-47710313D01*
X133773911Y-47661074D01*
X133730228Y-47628373D01*
X133730226Y-47628372D01*
X133632426Y-47591894D01*
X133576496Y-47550024D01*
X133552079Y-47484560D01*
X133566931Y-47416287D01*
X133616337Y-47366882D01*
X133626909Y-47362324D01*
X133752923Y-47298116D01*
X133752928Y-47298113D01*
X133848113Y-47202928D01*
X133848116Y-47202923D01*
X133909239Y-47082966D01*
X133925000Y-46983456D01*
X133925000Y-46975000D01*
X132575001Y-46975000D01*
X132575001Y-46983449D01*
X132590762Y-47082967D01*
X132651883Y-47202923D01*
X132651886Y-47202928D01*
X132747071Y-47298113D01*
X132747076Y-47298116D01*
X132875726Y-47363668D01*
X132874546Y-47365983D01*
X132920230Y-47397222D01*
X132947427Y-47461581D01*
X132935512Y-47530427D01*
X132888267Y-47581902D01*
X132867570Y-47591895D01*
X132769773Y-47628372D01*
X132660313Y-47710313D01*
X132578373Y-47819771D01*
X132530587Y-47947889D01*
X132524500Y-48004498D01*
X131250000Y-48004498D01*
X131250000Y-46599999D01*
X135028553Y-46599999D01*
X135028554Y-46600000D01*
X135721446Y-46600000D01*
X135721446Y-46599999D01*
X135375001Y-46253553D01*
X135374999Y-46253553D01*
X135028553Y-46599999D01*
X131250000Y-46599999D01*
X131250000Y-46466543D01*
X132575000Y-46466543D01*
X132575000Y-46475000D01*
X133000000Y-46475000D01*
X133500000Y-46475000D01*
X133924999Y-46475000D01*
X133924999Y-46466550D01*
X133909237Y-46367032D01*
X133848116Y-46247076D01*
X133848113Y-46247071D01*
X133752928Y-46151886D01*
X133752923Y-46151883D01*
X133632965Y-46090760D01*
X133632966Y-46090760D01*
X133533456Y-46075000D01*
X133500000Y-46075000D01*
X133500000Y-46475000D01*
X133000000Y-46475000D01*
X133000000Y-46074999D01*
X132966555Y-46075000D01*
X132867032Y-46090762D01*
X132747076Y-46151883D01*
X132747071Y-46151886D01*
X132651886Y-46247071D01*
X132651883Y-46247076D01*
X132590760Y-46367033D01*
X132575000Y-46466543D01*
X131250000Y-46466543D01*
X131250000Y-45380297D01*
X134400000Y-45380297D01*
X134400000Y-46419695D01*
X134411604Y-46478037D01*
X134424343Y-46497101D01*
X134424344Y-46497102D01*
X135021447Y-45900000D01*
X135021447Y-45899999D01*
X135728553Y-45899999D01*
X135728553Y-45900001D01*
X136325654Y-46497102D01*
X136338394Y-46478038D01*
X136338396Y-46478033D01*
X136349999Y-46419699D01*
X136350000Y-46419699D01*
X136350000Y-45380304D01*
X136349009Y-45375321D01*
X139599500Y-45375321D01*
X139599500Y-46424678D01*
X139614032Y-46497735D01*
X139614033Y-46497739D01*
X139614034Y-46497740D01*
X139669399Y-46580601D01*
X139735100Y-46624500D01*
X139752260Y-46635966D01*
X139752264Y-46635967D01*
X139825321Y-46650499D01*
X139825324Y-46650500D01*
X139825326Y-46650500D01*
X141424676Y-46650500D01*
X141424677Y-46650499D01*
X141497740Y-46635966D01*
X141551569Y-46599999D01*
X147528553Y-46599999D01*
X147528554Y-46600000D01*
X148221446Y-46600000D01*
X148221446Y-46599999D01*
X147875001Y-46253553D01*
X147874999Y-46253553D01*
X147528553Y-46599999D01*
X141551569Y-46599999D01*
X141580601Y-46580601D01*
X141635966Y-46497740D01*
X141642172Y-46466543D01*
X145075000Y-46466543D01*
X145075000Y-46475000D01*
X145500000Y-46475000D01*
X146000000Y-46475000D01*
X146424999Y-46475000D01*
X146424999Y-46466550D01*
X146409237Y-46367032D01*
X146348116Y-46247076D01*
X146348113Y-46247071D01*
X146252928Y-46151886D01*
X146252923Y-46151883D01*
X146132965Y-46090760D01*
X146132966Y-46090760D01*
X146033456Y-46075000D01*
X146000000Y-46075000D01*
X146000000Y-46475000D01*
X145500000Y-46475000D01*
X145500000Y-46074999D01*
X145466555Y-46075000D01*
X145367032Y-46090762D01*
X145247076Y-46151883D01*
X145247071Y-46151886D01*
X145151886Y-46247071D01*
X145151883Y-46247076D01*
X145090760Y-46367033D01*
X145075000Y-46466543D01*
X141642172Y-46466543D01*
X141650500Y-46424674D01*
X141650500Y-45380297D01*
X146900000Y-45380297D01*
X146900000Y-46419695D01*
X146911604Y-46478037D01*
X146924343Y-46497101D01*
X146924344Y-46497102D01*
X147521447Y-45900000D01*
X147521447Y-45899999D01*
X148228553Y-45899999D01*
X148228553Y-45900001D01*
X148825654Y-46497102D01*
X148838394Y-46478038D01*
X148838396Y-46478033D01*
X148849999Y-46419699D01*
X148850000Y-46419699D01*
X148850000Y-45380304D01*
X148838395Y-45321963D01*
X148825654Y-45302896D01*
X148228553Y-45899999D01*
X147521447Y-45899999D01*
X146924344Y-45302896D01*
X146924344Y-45302897D01*
X146911603Y-45321965D01*
X146900000Y-45380297D01*
X141650500Y-45380297D01*
X141650500Y-45375326D01*
X141650500Y-45375323D01*
X141650499Y-45375321D01*
X141635967Y-45302264D01*
X141635966Y-45302260D01*
X141580601Y-45219399D01*
X141551568Y-45200000D01*
X147528553Y-45200000D01*
X147875000Y-45546446D01*
X148221446Y-45200000D01*
X147528553Y-45200000D01*
X141551568Y-45200000D01*
X141497740Y-45164034D01*
X141497739Y-45164033D01*
X141497735Y-45164032D01*
X141424677Y-45149500D01*
X141424674Y-45149500D01*
X139825326Y-45149500D01*
X139825323Y-45149500D01*
X139752264Y-45164032D01*
X139752260Y-45164033D01*
X139669399Y-45219399D01*
X139614033Y-45302260D01*
X139614032Y-45302264D01*
X139599500Y-45375321D01*
X136349009Y-45375321D01*
X136338395Y-45321963D01*
X136325654Y-45302896D01*
X135728553Y-45899999D01*
X135021447Y-45899999D01*
X134424344Y-45302896D01*
X134424344Y-45302897D01*
X134411603Y-45321965D01*
X134400000Y-45380297D01*
X131250000Y-45380297D01*
X131250000Y-45200000D01*
X135028553Y-45200000D01*
X135375000Y-45546446D01*
X135721446Y-45200000D01*
X135028553Y-45200000D01*
X131250000Y-45200000D01*
X131250000Y-44012210D01*
X131252383Y-43988019D01*
X131264218Y-43928517D01*
X131282729Y-43883826D01*
X131309524Y-43843724D01*
X131343724Y-43809524D01*
X131383826Y-43782729D01*
X131428514Y-43764219D01*
X131488028Y-43752381D01*
X131512211Y-43750000D01*
X167625500Y-43750000D01*
X167692539Y-43769685D01*
G37*
G04 #@! TD.AperFunction*
M02*
