G04 #@! TF.GenerationSoftware,KiCad,Pcbnew,8.0.4*
G04 #@! TF.CreationDate,2024-09-21T08:46:09+10:00*
G04 #@! TF.ProjectId,hsa_r0,6873615f-7230-42e6-9b69-6361645f7063,rev?*
G04 #@! TF.SameCoordinates,Original*
G04 #@! TF.FileFunction,Paste,Top*
G04 #@! TF.FilePolarity,Positive*
%FSLAX46Y46*%
G04 Gerber Fmt 4.6, Leading zero omitted, Abs format (unit mm)*
G04 Created by KiCad (PCBNEW 8.0.4) date 2024-09-21 08:46:09*
%MOMM*%
%LPD*%
G01*
G04 APERTURE LIST*
G04 Aperture macros list*
%AMRoundRect*
0 Rectangle with rounded corners*
0 $1 Rounding radius*
0 $2 $3 $4 $5 $6 $7 $8 $9 X,Y pos of 4 corners*
0 Add a 4 corners polygon primitive as box body*
4,1,4,$2,$3,$4,$5,$6,$7,$8,$9,$2,$3,0*
0 Add four circle primitives for the rounded corners*
1,1,$1+$1,$2,$3*
1,1,$1+$1,$4,$5*
1,1,$1+$1,$6,$7*
1,1,$1+$1,$8,$9*
0 Add four rect primitives between the rounded corners*
20,1,$1+$1,$2,$3,$4,$5,0*
20,1,$1+$1,$4,$5,$6,$7,0*
20,1,$1+$1,$6,$7,$8,$9,0*
20,1,$1+$1,$8,$9,$2,$3,0*%
G04 Aperture macros list end*
%ADD10RoundRect,0.200000X-0.275000X0.200000X-0.275000X-0.200000X0.275000X-0.200000X0.275000X0.200000X0*%
%ADD11RoundRect,0.225000X-0.250000X0.225000X-0.250000X-0.225000X0.250000X-0.225000X0.250000X0.225000X0*%
%ADD12RoundRect,0.150000X-0.150000X0.512500X-0.150000X-0.512500X0.150000X-0.512500X0.150000X0.512500X0*%
%ADD13R,1.400000X0.300000*%
%ADD14RoundRect,0.200000X0.275000X-0.200000X0.275000X0.200000X-0.275000X0.200000X-0.275000X-0.200000X0*%
%ADD15RoundRect,0.225000X0.250000X-0.225000X0.250000X0.225000X-0.250000X0.225000X-0.250000X-0.225000X0*%
%ADD16RoundRect,0.100000X0.100000X0.575000X-0.100000X0.575000X-0.100000X-0.575000X0.100000X-0.575000X0*%
%ADD17O,0.900000X1.600000*%
%ADD18RoundRect,0.250000X0.550000X0.450000X-0.550000X0.450000X-0.550000X-0.450000X0.550000X-0.450000X0*%
%ADD19RoundRect,0.250000X0.700000X0.700000X-0.700000X0.700000X-0.700000X-0.700000X0.700000X-0.700000X0*%
%ADD20RoundRect,0.250000X0.325000X0.650000X-0.325000X0.650000X-0.325000X-0.650000X0.325000X-0.650000X0*%
%ADD21RoundRect,0.200000X0.200000X0.275000X-0.200000X0.275000X-0.200000X-0.275000X0.200000X-0.275000X0*%
%ADD22RoundRect,0.100000X-0.712500X-0.100000X0.712500X-0.100000X0.712500X0.100000X-0.712500X0.100000X0*%
%ADD23R,1.300000X0.300000*%
%ADD24R,2.200000X1.800000*%
%ADD25RoundRect,0.250000X0.650000X-0.325000X0.650000X0.325000X-0.650000X0.325000X-0.650000X-0.325000X0*%
%ADD26RoundRect,0.075000X0.725000X0.075000X-0.725000X0.075000X-0.725000X-0.075000X0.725000X-0.075000X0*%
%ADD27RoundRect,0.075000X0.075000X0.725000X-0.075000X0.725000X-0.075000X-0.725000X0.075000X-0.725000X0*%
%ADD28RoundRect,0.225000X0.225000X0.250000X-0.225000X0.250000X-0.225000X-0.250000X0.225000X-0.250000X0*%
%ADD29RoundRect,0.250000X-0.650000X0.325000X-0.650000X-0.325000X0.650000X-0.325000X0.650000X0.325000X0*%
%ADD30RoundRect,0.200000X-0.200000X-0.275000X0.200000X-0.275000X0.200000X0.275000X-0.200000X0.275000X0*%
%ADD31R,0.570000X2.000000*%
%ADD32RoundRect,0.250000X-0.850000X-0.350000X0.850000X-0.350000X0.850000X0.350000X-0.850000X0.350000X0*%
%ADD33RoundRect,0.250000X-1.275000X-1.125000X1.275000X-1.125000X1.275000X1.125000X-1.275000X1.125000X0*%
%ADD34RoundRect,0.150000X-0.150000X0.587500X-0.150000X-0.587500X0.150000X-0.587500X0.150000X0.587500X0*%
%ADD35RoundRect,0.225000X-0.225000X-0.250000X0.225000X-0.250000X0.225000X0.250000X-0.225000X0.250000X0*%
%ADD36R,1.550000X1.000000*%
%ADD37RoundRect,0.200000X-0.200000X0.900000X-0.200000X-0.900000X0.200000X-0.900000X0.200000X0.900000X0*%
%ADD38RoundRect,0.250000X-1.125000X1.275000X-1.125000X-1.275000X1.125000X-1.275000X1.125000X1.275000X0*%
%ADD39R,0.740000X2.400000*%
%ADD40RoundRect,0.150000X-0.825000X-0.150000X0.825000X-0.150000X0.825000X0.150000X-0.825000X0.150000X0*%
%ADD41RoundRect,0.250000X0.250000X0.475000X-0.250000X0.475000X-0.250000X-0.475000X0.250000X-0.475000X0*%
%ADD42RoundRect,0.243750X0.243750X0.456250X-0.243750X0.456250X-0.243750X-0.456250X0.243750X-0.456250X0*%
%ADD43RoundRect,0.150000X-0.587500X-0.150000X0.587500X-0.150000X0.587500X0.150000X-0.587500X0.150000X0*%
%ADD44RoundRect,0.375000X0.625000X0.375000X-0.625000X0.375000X-0.625000X-0.375000X0.625000X-0.375000X0*%
%ADD45RoundRect,0.500000X0.500000X1.400000X-0.500000X1.400000X-0.500000X-1.400000X0.500000X-1.400000X0*%
G04 APERTURE END LIST*
D10*
X141500000Y-78425000D03*
X141500000Y-80075000D03*
D11*
X153750000Y-78475000D03*
X153750000Y-80025000D03*
D12*
X135950000Y-54612500D03*
X135000000Y-54612500D03*
X134050000Y-54612500D03*
X134050000Y-56887500D03*
X135950000Y-56887500D03*
D13*
X157800000Y-71500000D03*
X157800000Y-72000000D03*
X157800000Y-72500000D03*
X157800000Y-73000000D03*
X157800000Y-73500000D03*
X162200000Y-73500000D03*
X162200000Y-73000000D03*
X162200000Y-72500000D03*
X162200000Y-72000000D03*
X162200000Y-71500000D03*
D14*
X189750000Y-75325000D03*
X189750000Y-73675000D03*
D15*
X165500000Y-77275000D03*
X165500000Y-75725000D03*
D16*
X173050000Y-46675000D03*
X172400000Y-46675000D03*
X171750000Y-46675000D03*
X171100000Y-46675000D03*
X170450000Y-46675000D03*
D17*
X175050000Y-44000000D03*
D18*
X174950000Y-46450000D03*
D19*
X172950000Y-44000000D03*
X170550000Y-44000000D03*
D18*
X168550000Y-46450000D03*
D17*
X168450000Y-44000000D03*
D20*
X183975000Y-45997500D03*
X181025000Y-45997500D03*
D14*
X186000000Y-67575000D03*
X186000000Y-65925000D03*
D20*
X148950000Y-51250000D03*
X146000000Y-51250000D03*
D21*
X165825000Y-45250000D03*
X164175000Y-45250000D03*
D22*
X145387500Y-69025000D03*
X145387500Y-69675000D03*
X145387500Y-70325000D03*
X145387500Y-70975000D03*
X149612500Y-70975000D03*
X149612500Y-70325000D03*
X149612500Y-69675000D03*
X149612500Y-69025000D03*
D23*
X191650000Y-72750000D03*
X191650000Y-72250000D03*
X191650000Y-71750000D03*
X191650000Y-71250000D03*
X191650000Y-70750000D03*
X191650000Y-70250000D03*
X191650000Y-69750000D03*
X191650000Y-69250000D03*
X191650000Y-68750000D03*
X191650000Y-68250000D03*
X191650000Y-67750000D03*
X191650000Y-67250000D03*
D24*
X194900000Y-74650000D03*
X194900000Y-65350000D03*
D21*
X179825000Y-81000000D03*
X178175000Y-81000000D03*
D25*
X152500000Y-65725000D03*
X152500000Y-62775000D03*
D26*
X182675000Y-76000000D03*
X182675000Y-75500000D03*
X182675000Y-75000000D03*
X182675000Y-74500000D03*
X182675000Y-74000000D03*
X182675000Y-73500000D03*
X182675000Y-73000000D03*
X182675000Y-72500000D03*
X182675000Y-72000000D03*
X182675000Y-71500000D03*
X182675000Y-71000000D03*
X182675000Y-70500000D03*
X182675000Y-70000000D03*
X182675000Y-69500000D03*
X182675000Y-69000000D03*
X182675000Y-68500000D03*
X182675000Y-68000000D03*
X182675000Y-67500000D03*
X182675000Y-67000000D03*
X182675000Y-66500000D03*
X182675000Y-66000000D03*
X182675000Y-65500000D03*
X182675000Y-65000000D03*
X182675000Y-64500000D03*
X182675000Y-64000000D03*
D27*
X181000000Y-62325000D03*
X180500000Y-62325000D03*
X180000000Y-62325000D03*
X179500000Y-62325000D03*
X179000000Y-62325000D03*
X178500000Y-62325000D03*
X178000000Y-62325000D03*
X177500000Y-62325000D03*
X177000000Y-62325000D03*
X176500000Y-62325000D03*
X176000000Y-62325000D03*
X175500000Y-62325000D03*
X175000000Y-62325000D03*
X174500000Y-62325000D03*
X174000000Y-62325000D03*
X173500000Y-62325000D03*
X173000000Y-62325000D03*
X172500000Y-62325000D03*
X172000000Y-62325000D03*
X171500000Y-62325000D03*
X171000000Y-62325000D03*
X170500000Y-62325000D03*
X170000000Y-62325000D03*
X169500000Y-62325000D03*
X169000000Y-62325000D03*
D26*
X167325000Y-64000000D03*
X167325000Y-64500000D03*
X167325000Y-65000000D03*
X167325000Y-65500000D03*
X167325000Y-66000000D03*
X167325000Y-66500000D03*
X167325000Y-67000000D03*
X167325000Y-67500000D03*
X167325000Y-68000000D03*
X167325000Y-68500000D03*
X167325000Y-69000000D03*
X167325000Y-69500000D03*
X167325000Y-70000000D03*
X167325000Y-70500000D03*
X167325000Y-71000000D03*
X167325000Y-71500000D03*
X167325000Y-72000000D03*
X167325000Y-72500000D03*
X167325000Y-73000000D03*
X167325000Y-73500000D03*
X167325000Y-74000000D03*
X167325000Y-74500000D03*
X167325000Y-75000000D03*
X167325000Y-75500000D03*
X167325000Y-76000000D03*
D27*
X169000000Y-77675000D03*
X169500000Y-77675000D03*
X170000000Y-77675000D03*
X170500000Y-77675000D03*
X171000000Y-77675000D03*
X171500000Y-77675000D03*
X172000000Y-77675000D03*
X172500000Y-77675000D03*
X173000000Y-77675000D03*
X173500000Y-77675000D03*
X174000000Y-77675000D03*
X174500000Y-77675000D03*
X175000000Y-77675000D03*
X175500000Y-77675000D03*
X176000000Y-77675000D03*
X176500000Y-77675000D03*
X177000000Y-77675000D03*
X177500000Y-77675000D03*
X178000000Y-77675000D03*
X178500000Y-77675000D03*
X179000000Y-77675000D03*
X179500000Y-77675000D03*
X180000000Y-77675000D03*
X180500000Y-77675000D03*
X181000000Y-77675000D03*
D28*
X138275000Y-63000000D03*
X136725000Y-63000000D03*
D29*
X164750000Y-48275000D03*
X164750000Y-51225000D03*
D30*
X192175000Y-63000000D03*
X193825000Y-63000000D03*
D31*
X138275000Y-65295000D03*
X137500000Y-65295000D03*
X136725000Y-65295000D03*
D32*
X180800000Y-48470000D03*
D33*
X185425000Y-49225000D03*
X185425000Y-52275000D03*
X188775000Y-49225000D03*
X188775000Y-52275000D03*
D32*
X180800000Y-53030000D03*
D30*
X185675000Y-79500000D03*
X187325000Y-79500000D03*
D34*
X192700000Y-81000000D03*
X190800000Y-81000000D03*
X191750000Y-82875000D03*
D10*
X142000000Y-67675000D03*
X142000000Y-69325000D03*
D28*
X150025000Y-81000000D03*
X148475000Y-81000000D03*
D25*
X178000000Y-52222500D03*
X178000000Y-49272500D03*
D30*
X190925000Y-87000000D03*
X192575000Y-87000000D03*
D20*
X136475000Y-52500000D03*
X133525000Y-52500000D03*
D14*
X174520000Y-86875000D03*
X174520000Y-85225000D03*
D35*
X157725000Y-69750000D03*
X159275000Y-69750000D03*
D29*
X153475000Y-48025000D03*
X153475000Y-50975000D03*
D10*
X165000000Y-85175000D03*
X165000000Y-86825000D03*
D35*
X140475000Y-70750000D03*
X142025000Y-70750000D03*
X180975000Y-60500000D03*
X182525000Y-60500000D03*
D28*
X149525000Y-67500000D03*
X147975000Y-67500000D03*
D21*
X146825000Y-74000000D03*
X145175000Y-74000000D03*
D14*
X176020000Y-86875000D03*
X176020000Y-85225000D03*
D28*
X153025000Y-69250000D03*
X151475000Y-69250000D03*
D36*
X187625000Y-86600000D03*
X187625000Y-83400000D03*
X182375000Y-86600000D03*
X182375000Y-83400000D03*
D10*
X141500000Y-75425000D03*
X141500000Y-77075000D03*
D37*
X162280000Y-48250000D03*
X161140000Y-48250000D03*
X160000000Y-48250000D03*
D38*
X161525000Y-52875000D03*
X158475000Y-52875000D03*
X161525000Y-56225000D03*
X158475000Y-56225000D03*
D37*
X158860000Y-48250000D03*
X157720000Y-48250000D03*
D12*
X156450000Y-63112500D03*
X155500000Y-63112500D03*
X154550000Y-63112500D03*
X154550000Y-65387500D03*
X155500000Y-65387500D03*
X156450000Y-65387500D03*
D14*
X143500000Y-72325000D03*
X143500000Y-70675000D03*
D39*
X167460000Y-85200000D03*
X167460000Y-81300000D03*
X168730000Y-85200000D03*
X168730000Y-81300000D03*
X170000000Y-85200000D03*
X170000000Y-81300000D03*
X171270000Y-85200000D03*
X171270000Y-81300000D03*
X172540000Y-85200000D03*
X172540000Y-81300000D03*
D15*
X152000000Y-77025000D03*
X152000000Y-75475000D03*
D40*
X145025000Y-75595000D03*
X145025000Y-76865000D03*
X145025000Y-78135000D03*
X145025000Y-79405000D03*
X149975000Y-79405000D03*
X149975000Y-78135000D03*
X149975000Y-76865000D03*
X149975000Y-75595000D03*
D20*
X148975000Y-64000000D03*
X146025000Y-64000000D03*
D15*
X151500000Y-72275000D03*
X151500000Y-70725000D03*
D41*
X179200000Y-83000000D03*
X177300000Y-83000000D03*
D11*
X155500000Y-48725000D03*
X155500000Y-50275000D03*
D20*
X136475000Y-59000000D03*
X133525000Y-59000000D03*
D35*
X170475000Y-59000000D03*
X172025000Y-59000000D03*
D29*
X151475000Y-56025000D03*
X151475000Y-58975000D03*
D28*
X165775000Y-43750000D03*
X164225000Y-43750000D03*
D11*
X153750000Y-75475000D03*
X153750000Y-77025000D03*
D15*
X187500000Y-72275000D03*
X187500000Y-70725000D03*
D11*
X143000000Y-78475000D03*
X143000000Y-80025000D03*
D42*
X192687500Y-85000000D03*
X190812500Y-85000000D03*
D35*
X167725000Y-60500000D03*
X169275000Y-60500000D03*
D36*
X160125000Y-86600000D03*
X160125000Y-83400000D03*
X154875000Y-86600000D03*
X154875000Y-83400000D03*
D30*
X151425000Y-67750000D03*
X153075000Y-67750000D03*
D21*
X149825000Y-74000000D03*
X148175000Y-74000000D03*
D25*
X158500000Y-65725000D03*
X158500000Y-62775000D03*
D10*
X153000000Y-70675000D03*
X153000000Y-72325000D03*
D30*
X167675000Y-52750000D03*
X169325000Y-52750000D03*
D43*
X189625000Y-77050000D03*
X189625000Y-78950000D03*
X191500000Y-78000000D03*
D41*
X185950000Y-62500000D03*
X184050000Y-62500000D03*
D44*
X148875000Y-58550000D03*
X148875000Y-56250000D03*
D45*
X142575000Y-56250000D03*
D44*
X148875000Y-53950000D03*
D11*
X184500000Y-73725000D03*
X184500000Y-75275000D03*
D28*
X181525000Y-79500000D03*
X179975000Y-79500000D03*
D11*
X184500000Y-70725000D03*
X184500000Y-72275000D03*
D28*
X162275000Y-69750000D03*
X160725000Y-69750000D03*
D11*
X184500000Y-65975000D03*
X184500000Y-67525000D03*
D14*
X143500000Y-69325000D03*
X143500000Y-67675000D03*
D11*
X164000000Y-74975000D03*
X164000000Y-76525000D03*
D14*
X163500000Y-86825000D03*
X163500000Y-85175000D03*
M02*
