M48
; DRILL file {KiCad 8.0.4} date 2024-09-21T08:46:14+1000
; FORMAT={-:-/ absolute / metric / decimal}
; #@! TF.CreationDate,2024-09-21T08:46:14+10:00
; #@! TF.GenerationSoftware,Kicad,Pcbnew,8.0.4
; #@! TF.FileFunction,Plated,1,4,PTH
FMAT,2
METRIC
; #@! TA.AperFunction,Plated,PTH,ViaDrill
T1C0.300
; #@! TA.AperFunction,Plated,PTH,ViaDrill
T2C0.400
; #@! TA.AperFunction,Plated,PTH,ComponentDrill
T3C0.500
; #@! TA.AperFunction,Plated,PTH,ComponentDrill
T4C1.000
; #@! TA.AperFunction,Plated,PTH,ComponentDrill
T5C1.400
; #@! TA.AperFunction,Plated,PTH,ComponentDrill
T6C3.200
%
G90
G05
T1
X132.5Y-62.5
X132.5Y-67.5
X132.5Y-72.5
X132.5Y-77.5
X135.0Y-62.5
X135.0Y-75.0
X135.0Y-80.0
X137.5Y-55.75
X137.5Y-77.5
X140.0Y-72.5
X140.0Y-85.0
X140.5Y-66.5
X142.5Y-87.5
X145.0Y-66.5
X145.0Y-85.0
X147.0Y-79.0
X147.5Y-87.5
X148.0Y-71.25
X148.25Y-76.75
X149.0Y-72.75
X150.0Y-85.0
X152.0Y-80.75
X152.5Y-64.25
X152.5Y-87.5
X154.5Y-69.5
X155.5Y-57.0
X155.75Y-67.5
X158.5Y-64.25
X163.75Y-60.0
X163.75Y-62.5
X163.75Y-65.0
X163.75Y-67.5
X164.5Y-73.75
X166.25Y-79.75
X166.5Y-55.25
X167.25Y-62.5
X167.5Y-54.25
X169.25Y-48.25
X170.0Y-65.0
X170.0Y-70.0
X170.0Y-75.0
X170.0Y-79.25
X171.5Y-50.25
X171.5Y-54.25
X175.0Y-65.0
X175.0Y-70.0
X175.0Y-75.0
X177.25Y-60.5
X178.75Y-57.5
X180.0Y-65.0
X180.0Y-70.0
X180.0Y-75.0
X182.25Y-81.5
X182.5Y-56.5
X187.5Y-57.5
X190.0Y-60.0
X191.5Y-74.25
X192.25Y-64.5
X192.5Y-60.0
X193.75Y-88.25
X194.25Y-58.5
X194.25Y-76.25
X194.5Y-81.5
X195.0Y-52.5
X195.25Y-69.75
X196.0Y-62.0
X197.5Y-67.5
X197.5Y-72.5
X197.5Y-87.5
X200.0Y-52.5
X200.0Y-65.0
X200.0Y-70.0
X200.0Y-75.0
X202.0Y-63.25
X202.5Y-67.5
X202.5Y-72.5
X205.0Y-65.0
X205.0Y-70.0
X205.0Y-75.0
T2
X132.25Y-52.5
X132.25Y-59.0
X133.25Y-45.5
X137.75Y-52.5
X138.25Y-61.5
X141.5Y-74.25
X141.5Y-81.25
X142.0Y-66.5
X142.25Y-72.25
X143.0Y-81.25
X144.725Y-51.25
X144.75Y-64.0
X145.0Y-80.5
X145.25Y-71.75
X145.75Y-45.5
X146.763Y-67.513
X147.25Y-81.0
X147.5Y-73.25
X148.75Y-66.5
X150.25Y-64.0
X150.975Y-51.5
X150.975Y-52.75
X150.975Y-54.0
X151.0Y-62.75
X151.0Y-65.75
X152.0Y-74.25
X152.0Y-78.25
X152.975Y-59.0
X153.475Y-52.25
X153.475Y-53.25
X153.475Y-54.25
X153.75Y-74.25
X153.75Y-81.25
X155.5Y-58.25
X155.5Y-61.75
X156.25Y-73.0
X157.75Y-68.5
X158.5Y-61.75
X159.0Y-74.0
X159.25Y-68.5
X160.75Y-68.5
X161.75Y-45.75
X162.25Y-68.5
X162.25Y-87.0
X163.0Y-43.75
X163.25Y-46.75
X164.0Y-77.75
X164.25Y-46.75
X164.25Y-82.25
X165.0Y-58.25
X165.5Y-78.5
X165.75Y-72.75
X165.75Y-74.0
X166.013Y-58.263
X166.25Y-87.0
X167.5Y-87.0
X167.75Y-59.25
X168.75Y-87.0
X169.25Y-59.25
X170.5Y-57.75
X172.25Y-57.75
X173.0Y-57.0
X173.75Y-82.25
X174.25Y-57.0
X175.25Y-57.5
X175.25Y-79.25
X175.75Y-58.5
X176.0Y-83.0
X176.25Y-59.5
X176.5Y-76.25
X177.0Y-79.0
X177.25Y-87.0
X177.5Y-76.25
X178.75Y-79.5
X179.25Y-44.25
X179.75Y-45.997
X180.5Y-44.25
X180.5Y-83.0
X181.0Y-59.25
X181.25Y-65.0
X181.25Y-76.0
X181.75Y-44.25
X182.5Y-59.25
X182.75Y-62.5
X182.75Y-79.5
X183.25Y-55.0
X184.5Y-68.75
X184.5Y-79.5
X184.75Y-54.5
X184.75Y-81.25
X185.5Y-71.5
X185.5Y-73.0
X185.5Y-74.5
X185.5Y-76.0
X186.25Y-54.5
X186.76Y-66.737
X187.25Y-62.5
X187.5Y-69.5
X187.75Y-54.5
X189.25Y-54.5
X189.25Y-86.5
X189.5Y-78.0
X190.75Y-55.0
X190.75Y-66.5
X191.0Y-63.0
X191.75Y-81.0
X192.25Y-79.25
X193.0Y-70.25
X193.0Y-71.75
X193.0Y-73.25
X193.75Y-87.0
X195.0Y-57.5
X195.0Y-82.5
X195.75Y-45.5
X200.0Y-61.0
X200.25Y-57.25
T4
X174.75Y-52.475
X174.75Y-55.015
X202.25Y-56.25
X202.25Y-58.75
X202.25Y-61.25
X202.25Y-78.75
X202.25Y-81.25
X202.25Y-83.75
T5
X137.5Y-67.575
T6
X135.0Y-85.0
T3
X168.45Y-43.65G85X168.45Y-44.35
G05
X175.05Y-43.65G85X175.05Y-44.35
G05
M30
